M48
METRIC,LZ,000.000
;FILE_FORMAT=3:3
;TYPE=PLATED
;Layer: PTH_Through
;EasyEDA v6.5.22, 2023-03-31 14:54:23
;d3f0f356f32e465d957ef3f0493f5931,4db1f7442a1f4f30bb2da465e00f2567,10
;Gerber Generator version 0.2
;Holesize 1 = 0.889 mm
T01C0.889
;Holesize 2 = 0.901 mm
T02C0.901
;Holesize 3 = 0.915 mm
T03C0.915
%
G05
G90
T01
X131445Y117856
X128905Y117856
X131445Y110490
X128905Y110490
T02
X138604Y118790G85X138604Y116590
X144604Y116590G85X144604Y118790
X141955Y122340G85X140255Y122340
X116078Y121158
X113538Y105918
X108457Y105918
X103377Y105918
X098297Y105918
X093217Y105918
X088137Y105918
X083057Y105918
X080518Y121158
X085599Y121158
X090679Y121158
X095759Y121158
X100839Y121158
X105919Y121158
X110998Y121158
X113538Y121158
X108458Y121158
X103378Y121158
X098298Y121158
X093218Y121158
X088138Y121158
X083058Y121158
X080518Y105918
X085598Y105918
X090678Y105918
X095758Y105918
X100838Y105918
X105918Y105918
X110998Y105918
X116078Y105918
X101981Y093345
X104521Y093345
X107061Y093345
X109601Y093345
X112141Y093345
X114681Y093345
X117221Y093345
X119761Y093345
X101981Y100965
X104521Y100965
X107061Y100965
X109601Y100965
X112141Y100965
X114681Y100965
X117221Y100965
X119761Y100965
X079248Y093345
X081788Y093345
X084328Y093345
X086868Y093345
X089408Y093345
X091948Y093345
X094488Y093345
X097028Y093345
X079248Y100965
X081788Y100965
X084328Y100965
X086868Y100965
X089408Y100965
X091948Y100965
X094488Y100965
X097028Y100965
X145034Y087757
X145034Y090297
X145034Y092837
X145034Y095377
X145034Y097917
X145034Y100457
X145034Y102997
X145034Y105537
X137414Y087757
X137414Y090297
X137414Y092837
X137414Y095377
X137414Y097917
X137414Y100457
X137414Y102997
X137414Y105537
T03
X083182Y087894
X085722Y087894
X088265Y087894
X090805Y087894
X080645Y087874
X118107Y087894
X120647Y087894
X123190Y087894
X125730Y087894
X115570Y087874
X100708Y087894
X103248Y087894
X105791Y087894
X108331Y087894
X098171Y087874
X126365Y117856
X126365Y110490
M30
