G04 Layer: BottomLayer*
G04 EasyEDA v6.5.22, 2023-03-31 14:54:23*
G04 d3f0f356f32e465d957ef3f0493f5931,4db1f7442a1f4f30bb2da465e00f2567,10*
G04 Gerber Generator version 0.2*
G04 Scale: 100 percent, Rotated: No, Reflected: No *
G04 Dimensions in millimeters *
G04 leading zeros omitted , absolute positions ,4 integer and 5 decimal *
%FSLAX45Y45*%
%MOMM*%

%ADD10C,0.3000*%
%ADD11R,1.5240X3.0000*%
%ADD12O,1.499997X3.7999924*%
%ADD13O,3.3999932X1.499997*%
%ADD14R,1.5748X1.5748*%
%ADD15C,1.5748*%
%ADD16R,1.6000X1.6000*%
%ADD17C,1.6000*%
%ADD18O,1.499997X1.9999959999999999*%
%ADD19R,1.5000X2.0000*%
%ADD20O,1.9999959999999999X1.499997*%
%ADD21R,2.0000X1.5000*%
%ADD22C,0.6100*%
%ADD23C,0.0169*%

%LPD*%
G36*
X7503668Y8280908D02*
G01*
X7499756Y8281670D01*
X7496505Y8283905D01*
X7494270Y8287156D01*
X7493508Y8291068D01*
X7493508Y12384532D01*
X7494270Y12388443D01*
X7496505Y12391694D01*
X7499756Y12393930D01*
X7503668Y12394692D01*
X15189707Y12394692D01*
X15193619Y12393930D01*
X15196870Y12391694D01*
X15199106Y12388443D01*
X15199868Y12384532D01*
X15199868Y8291068D01*
X15199106Y8287156D01*
X15196870Y8283905D01*
X15193619Y8281670D01*
X15189707Y8280908D01*
G37*

%LPC*%
G36*
X11916664Y8462822D02*
G01*
X13036448Y8462822D01*
X13044881Y8463686D01*
X13052552Y8465972D01*
X13059613Y8469782D01*
X13066217Y8475167D01*
X13601496Y9010446D01*
X13605154Y9012783D01*
X13609472Y9013393D01*
X13613638Y9012123D01*
X13616889Y9009227D01*
X13618616Y9005214D01*
X13618972Y9003588D01*
X13623188Y8991092D01*
X13629030Y8979255D01*
X13636345Y8968282D01*
X13645083Y8958376D01*
X13654989Y8949639D01*
X13665962Y8942324D01*
X13677798Y8936482D01*
X13690295Y8932265D01*
X13703249Y8929674D01*
X13716711Y8928811D01*
X13766088Y8928811D01*
X13779550Y8929674D01*
X13792504Y8932265D01*
X13805001Y8936482D01*
X13816838Y8942324D01*
X13827810Y8949639D01*
X13837716Y8958376D01*
X13846454Y8968282D01*
X13853769Y8979255D01*
X13859611Y8991092D01*
X13863828Y9003588D01*
X13866418Y9016542D01*
X13867282Y9029700D01*
X13866418Y9042857D01*
X13863828Y9055811D01*
X13859611Y9068308D01*
X13853769Y9080144D01*
X13846454Y9091117D01*
X13839596Y9098940D01*
X13837615Y9102242D01*
X13837056Y9106052D01*
X13837970Y9109811D01*
X13840206Y9112961D01*
X13843457Y9115044D01*
X13847216Y9115806D01*
X13867892Y9115806D01*
X13876375Y9116618D01*
X13884046Y9118955D01*
X13891107Y9122714D01*
X13897660Y9128150D01*
X14390573Y9621012D01*
X14393316Y9622790D01*
X14395094Y9625533D01*
X14458238Y9688677D01*
X14461845Y9691014D01*
X14466062Y9691624D01*
X14478711Y9690811D01*
X14528088Y9690811D01*
X14541550Y9691674D01*
X14554504Y9694265D01*
X14567001Y9698482D01*
X14578838Y9704324D01*
X14589810Y9711639D01*
X14599716Y9720376D01*
X14608454Y9730282D01*
X14615769Y9741255D01*
X14621611Y9753092D01*
X14625828Y9765588D01*
X14628418Y9778542D01*
X14629282Y9791700D01*
X14628418Y9804857D01*
X14625828Y9817811D01*
X14621611Y9830308D01*
X14615769Y9842144D01*
X14608454Y9853117D01*
X14599716Y9863023D01*
X14589810Y9871760D01*
X14578838Y9879076D01*
X14567001Y9884918D01*
X14554504Y9889134D01*
X14541550Y9891725D01*
X14528088Y9892588D01*
X14478711Y9892588D01*
X14465249Y9891725D01*
X14452295Y9889134D01*
X14439798Y9884918D01*
X14427962Y9879076D01*
X14416989Y9871760D01*
X14408962Y9864699D01*
X14406676Y9863429D01*
X14405406Y9861143D01*
X14398345Y9853117D01*
X14391030Y9842144D01*
X14385188Y9830308D01*
X14380972Y9817811D01*
X14378381Y9804857D01*
X14377517Y9791700D01*
X14378381Y9778542D01*
X14380972Y9765588D01*
X14385188Y9753092D01*
X14389150Y9745065D01*
X14390217Y9741001D01*
X14389506Y9736886D01*
X14387220Y9733381D01*
X13854430Y9200591D01*
X13850670Y9198203D01*
X13846251Y9197644D01*
X13842034Y9199016D01*
X13838834Y9202064D01*
X13837208Y9206179D01*
X13837462Y9210598D01*
X13839596Y9214459D01*
X13846454Y9222282D01*
X13853769Y9233255D01*
X13859611Y9245092D01*
X13863828Y9257588D01*
X13866418Y9270542D01*
X13867282Y9283700D01*
X13866418Y9296857D01*
X13863828Y9309811D01*
X13859611Y9322308D01*
X13853769Y9334144D01*
X13846454Y9345117D01*
X13839596Y9352940D01*
X13837615Y9356242D01*
X13837056Y9360052D01*
X13837970Y9363811D01*
X13840206Y9366961D01*
X13843457Y9369044D01*
X13847216Y9369806D01*
X13867892Y9369806D01*
X13876375Y9370618D01*
X13884046Y9372955D01*
X13891107Y9376714D01*
X13897660Y9382150D01*
X14390573Y9875012D01*
X14393316Y9876790D01*
X14395094Y9879533D01*
X14458238Y9942677D01*
X14461845Y9945014D01*
X14466062Y9945624D01*
X14478711Y9944811D01*
X14528088Y9944811D01*
X14541550Y9945674D01*
X14554504Y9948265D01*
X14567001Y9952482D01*
X14578838Y9958324D01*
X14589810Y9965639D01*
X14599716Y9974376D01*
X14608454Y9984282D01*
X14615769Y9995255D01*
X14621611Y10007092D01*
X14625828Y10019588D01*
X14628418Y10032542D01*
X14629282Y10045700D01*
X14628418Y10058857D01*
X14625828Y10071811D01*
X14621611Y10084308D01*
X14615769Y10096144D01*
X14608454Y10107117D01*
X14599716Y10117023D01*
X14589810Y10125760D01*
X14578838Y10133076D01*
X14567001Y10138918D01*
X14554504Y10143134D01*
X14541550Y10145725D01*
X14528088Y10146588D01*
X14478711Y10146588D01*
X14465249Y10145725D01*
X14452295Y10143134D01*
X14439798Y10138918D01*
X14427962Y10133076D01*
X14416989Y10125760D01*
X14408962Y10118699D01*
X14406676Y10117429D01*
X14405406Y10115143D01*
X14398345Y10107117D01*
X14391030Y10096144D01*
X14385188Y10084308D01*
X14380972Y10071811D01*
X14378381Y10058857D01*
X14377517Y10045700D01*
X14378381Y10032542D01*
X14380972Y10019588D01*
X14385188Y10007092D01*
X14389150Y9999065D01*
X14390217Y9995001D01*
X14389506Y9990886D01*
X14387220Y9987381D01*
X13854430Y9454591D01*
X13850670Y9452203D01*
X13846251Y9451644D01*
X13842034Y9453016D01*
X13838834Y9456064D01*
X13837208Y9460179D01*
X13837462Y9464598D01*
X13839596Y9468459D01*
X13846454Y9476282D01*
X13853769Y9487255D01*
X13859611Y9499092D01*
X13863828Y9511588D01*
X13866418Y9524542D01*
X13867282Y9537700D01*
X13866418Y9550857D01*
X13863828Y9563811D01*
X13859611Y9576308D01*
X13853769Y9588144D01*
X13846454Y9599117D01*
X13839596Y9606940D01*
X13837615Y9610242D01*
X13837056Y9614052D01*
X13837970Y9617811D01*
X13840206Y9620961D01*
X13843457Y9623044D01*
X13847216Y9623806D01*
X13867892Y9623806D01*
X13876375Y9624618D01*
X13884046Y9626955D01*
X13891107Y9630714D01*
X13897660Y9636150D01*
X14390573Y10129012D01*
X14393316Y10130790D01*
X14395094Y10133533D01*
X14458238Y10196677D01*
X14461845Y10199014D01*
X14466062Y10199624D01*
X14478711Y10198811D01*
X14528088Y10198811D01*
X14541550Y10199674D01*
X14554504Y10202265D01*
X14567001Y10206482D01*
X14578838Y10212324D01*
X14589810Y10219639D01*
X14599716Y10228376D01*
X14608454Y10238282D01*
X14615769Y10249255D01*
X14621611Y10261092D01*
X14625828Y10273588D01*
X14628418Y10286542D01*
X14629282Y10299700D01*
X14628418Y10312857D01*
X14625828Y10325811D01*
X14621611Y10338308D01*
X14615769Y10350144D01*
X14608454Y10361117D01*
X14599716Y10371023D01*
X14589810Y10379760D01*
X14578838Y10387076D01*
X14567001Y10392918D01*
X14554504Y10397134D01*
X14541550Y10399725D01*
X14528088Y10400588D01*
X14478711Y10400588D01*
X14465249Y10399725D01*
X14452295Y10397134D01*
X14439798Y10392918D01*
X14427962Y10387076D01*
X14416989Y10379760D01*
X14408962Y10372699D01*
X14406676Y10371429D01*
X14405406Y10369143D01*
X14398345Y10361117D01*
X14391030Y10350144D01*
X14385188Y10338308D01*
X14380972Y10325811D01*
X14378381Y10312857D01*
X14377517Y10299700D01*
X14378381Y10286542D01*
X14380972Y10273588D01*
X14385188Y10261092D01*
X14389150Y10253065D01*
X14390217Y10249001D01*
X14389506Y10244886D01*
X14387220Y10241381D01*
X13854430Y9708591D01*
X13850670Y9706203D01*
X13846251Y9705644D01*
X13842034Y9707016D01*
X13838834Y9710064D01*
X13837208Y9714179D01*
X13837462Y9718598D01*
X13839596Y9722459D01*
X13846454Y9730282D01*
X13853769Y9741255D01*
X13859611Y9753092D01*
X13863828Y9765588D01*
X13866418Y9778542D01*
X13867282Y9791700D01*
X13866418Y9804857D01*
X13863828Y9817811D01*
X13859611Y9830308D01*
X13853769Y9842144D01*
X13846454Y9853117D01*
X13839596Y9860940D01*
X13837615Y9864242D01*
X13837056Y9868052D01*
X13837970Y9871811D01*
X13840206Y9874961D01*
X13843457Y9877044D01*
X13847216Y9877806D01*
X13867892Y9877806D01*
X13876375Y9878618D01*
X13884046Y9880955D01*
X13891107Y9884714D01*
X13897660Y9890150D01*
X14390573Y10383012D01*
X14393316Y10384790D01*
X14395094Y10387533D01*
X14458238Y10450677D01*
X14461845Y10453014D01*
X14466062Y10453624D01*
X14478711Y10452811D01*
X14528088Y10452811D01*
X14541550Y10453674D01*
X14554504Y10456265D01*
X14567001Y10460482D01*
X14578838Y10466324D01*
X14589810Y10473639D01*
X14599716Y10482376D01*
X14608454Y10492282D01*
X14615769Y10503255D01*
X14621611Y10515092D01*
X14625828Y10527588D01*
X14628418Y10540542D01*
X14629282Y10553700D01*
X14628418Y10566857D01*
X14625828Y10579811D01*
X14621611Y10592308D01*
X14615769Y10604144D01*
X14608454Y10615117D01*
X14599716Y10625023D01*
X14589810Y10633760D01*
X14578838Y10641076D01*
X14567001Y10646918D01*
X14554504Y10651134D01*
X14541550Y10653725D01*
X14528088Y10654588D01*
X14478711Y10654588D01*
X14465249Y10653725D01*
X14452295Y10651134D01*
X14439798Y10646918D01*
X14427962Y10641076D01*
X14416989Y10633760D01*
X14407083Y10625023D01*
X14398345Y10615117D01*
X14391030Y10604144D01*
X14385188Y10592308D01*
X14380972Y10579811D01*
X14378381Y10566857D01*
X14377517Y10553700D01*
X14378381Y10540542D01*
X14380972Y10527588D01*
X14385188Y10515092D01*
X14389150Y10507065D01*
X14390217Y10503001D01*
X14389506Y10498886D01*
X14387220Y10495381D01*
X13854430Y9962591D01*
X13850670Y9960203D01*
X13846301Y9959644D01*
X13842085Y9961016D01*
X13838834Y9964013D01*
X13837208Y9968128D01*
X13837462Y9972548D01*
X13839596Y9976459D01*
X13846454Y9984282D01*
X13853769Y9995255D01*
X13859611Y10007092D01*
X13863828Y10019588D01*
X13866418Y10032542D01*
X13867282Y10045700D01*
X13866418Y10058857D01*
X13863828Y10071811D01*
X13859611Y10084308D01*
X13853769Y10096144D01*
X13846454Y10107117D01*
X13837716Y10117023D01*
X13827810Y10125760D01*
X13816838Y10133076D01*
X13805001Y10138918D01*
X13792504Y10143134D01*
X13779550Y10145725D01*
X13766088Y10146588D01*
X13716711Y10146588D01*
X13703249Y10145725D01*
X13690295Y10143134D01*
X13677798Y10138918D01*
X13665962Y10133076D01*
X13654989Y10125760D01*
X13645083Y10117023D01*
X13636345Y10107117D01*
X13629030Y10096144D01*
X13623188Y10084308D01*
X13618972Y10071811D01*
X13616381Y10058857D01*
X13615517Y10045700D01*
X13616381Y10032542D01*
X13618972Y10019588D01*
X13623188Y10007092D01*
X13629030Y9995255D01*
X13636345Y9984282D01*
X13643203Y9976459D01*
X13645184Y9973157D01*
X13645743Y9969347D01*
X13644829Y9965588D01*
X13642594Y9962438D01*
X13639342Y9960356D01*
X13635583Y9959594D01*
X13522553Y9959594D01*
X13514120Y9958781D01*
X13506450Y9956444D01*
X13499388Y9952685D01*
X13492784Y9947249D01*
X12544450Y8998915D01*
X12539014Y8992311D01*
X12535255Y8985250D01*
X12532918Y8977579D01*
X12532614Y8974480D01*
X12531598Y8970924D01*
X12529312Y8967927D01*
X12526162Y8965996D01*
X12522504Y8965285D01*
X12497358Y8965285D01*
X12491059Y8964574D01*
X12485573Y8962694D01*
X12480696Y8959596D01*
X12476581Y8955532D01*
X12473533Y8950604D01*
X12471603Y8945168D01*
X12470892Y8938818D01*
X12470892Y8660079D01*
X12470130Y8656167D01*
X12467894Y8652865D01*
X12464643Y8650681D01*
X12460732Y8649919D01*
X12431268Y8649919D01*
X12427356Y8650681D01*
X12424105Y8652865D01*
X12421870Y8656167D01*
X12421108Y8660079D01*
X12421108Y8938818D01*
X12420396Y8945168D01*
X12418466Y8950604D01*
X12415418Y8955532D01*
X12411303Y8959596D01*
X12406426Y8962694D01*
X12400940Y8964574D01*
X12394641Y8965285D01*
X12243358Y8965285D01*
X12237059Y8964574D01*
X12231573Y8962694D01*
X12226696Y8959596D01*
X12222581Y8955532D01*
X12219533Y8950604D01*
X12217603Y8945168D01*
X12216892Y8938818D01*
X12216892Y8639962D01*
X12217603Y8633663D01*
X12219533Y8628176D01*
X12222581Y8623300D01*
X12226696Y8619185D01*
X12231573Y8616137D01*
X12237059Y8614206D01*
X12243358Y8613495D01*
X12268504Y8613495D01*
X12272162Y8612835D01*
X12275312Y8610854D01*
X12277598Y8607907D01*
X12278614Y8604351D01*
X12278817Y8602268D01*
X12278360Y8598103D01*
X12276226Y8594445D01*
X12272822Y8591956D01*
X12268708Y8591092D01*
X12144857Y8591092D01*
X12140996Y8591854D01*
X12137694Y8594090D01*
X12135459Y8596325D01*
X12133326Y8599474D01*
X12132462Y8603132D01*
X12133021Y8606891D01*
X12134951Y8610142D01*
X12137898Y8612479D01*
X12141504Y8613597D01*
X12146686Y8614206D01*
X12152172Y8616086D01*
X12157049Y8619185D01*
X12161164Y8623300D01*
X12164212Y8628176D01*
X12166142Y8633663D01*
X12166854Y8639962D01*
X12166854Y8938818D01*
X12166142Y8945168D01*
X12164212Y8950604D01*
X12161164Y8955481D01*
X12157049Y8959596D01*
X12152172Y8962694D01*
X12146686Y8964574D01*
X12140387Y8965285D01*
X11989104Y8965285D01*
X11982805Y8964574D01*
X11977319Y8962694D01*
X11972442Y8959596D01*
X11968327Y8955481D01*
X11965279Y8950604D01*
X11963349Y8945168D01*
X11962638Y8938818D01*
X11962638Y8639962D01*
X11963349Y8633663D01*
X11965279Y8628176D01*
X11968327Y8623300D01*
X11972442Y8619185D01*
X11977319Y8616086D01*
X11982805Y8614206D01*
X11989104Y8613495D01*
X12014250Y8613495D01*
X12017908Y8612784D01*
X12021058Y8610854D01*
X12023344Y8607907D01*
X12024360Y8604300D01*
X12024664Y8601202D01*
X12027001Y8593531D01*
X12030760Y8586470D01*
X12036196Y8579916D01*
X12054078Y8561984D01*
X12056262Y8558682D01*
X12057075Y8554821D01*
X12056262Y8550910D01*
X12054078Y8547608D01*
X12050776Y8545423D01*
X12046915Y8544661D01*
X11937339Y8544661D01*
X11933428Y8545423D01*
X11930126Y8547608D01*
X11881459Y8596325D01*
X11879326Y8599474D01*
X11878462Y8603132D01*
X11879021Y8606891D01*
X11880951Y8610142D01*
X11883898Y8612479D01*
X11887504Y8613597D01*
X11892686Y8614206D01*
X11898172Y8616086D01*
X11903049Y8619185D01*
X11907164Y8623300D01*
X11910212Y8628176D01*
X11912142Y8633663D01*
X11912854Y8639962D01*
X11912854Y8938818D01*
X11912142Y8945168D01*
X11910212Y8950604D01*
X11907164Y8955481D01*
X11903049Y8959596D01*
X11898172Y8962694D01*
X11892686Y8964574D01*
X11886387Y8965285D01*
X11879986Y8965285D01*
X11876074Y8966098D01*
X11872823Y8968282D01*
X11870588Y8971584D01*
X11869826Y8975445D01*
X11870588Y8979357D01*
X11872823Y8982659D01*
X12114631Y9224467D01*
X12120016Y9231071D01*
X12123826Y9238132D01*
X12126112Y9245803D01*
X12126976Y9254236D01*
X12126976Y9911232D01*
X12127738Y9915144D01*
X12129922Y9918446D01*
X12133224Y9920630D01*
X12137136Y9921392D01*
X12632131Y9921392D01*
X12636042Y9920630D01*
X12639344Y9918446D01*
X12641529Y9915144D01*
X12642291Y9911232D01*
X12642291Y9846310D01*
X12643154Y9837826D01*
X12645440Y9830155D01*
X12649250Y9823094D01*
X12654635Y9816541D01*
X12692786Y9778390D01*
X12694818Y9775494D01*
X12695732Y9772091D01*
X12696088Y9767620D01*
X12698628Y9758121D01*
X12702794Y9749231D01*
X12708432Y9741154D01*
X12715392Y9734194D01*
X12723418Y9728606D01*
X12732308Y9724440D01*
X12741808Y9721900D01*
X12751612Y9721037D01*
X12761417Y9721900D01*
X12770916Y9724440D01*
X12779806Y9728606D01*
X12787833Y9734194D01*
X12794792Y9741154D01*
X12800431Y9749231D01*
X12804597Y9758121D01*
X12807137Y9767620D01*
X12808000Y9777374D01*
X12807137Y9787178D01*
X12804597Y9796678D01*
X12800431Y9805568D01*
X12794792Y9813645D01*
X12787833Y9820605D01*
X12779806Y9826193D01*
X12770916Y9830358D01*
X12761417Y9832898D01*
X12756946Y9833305D01*
X12753492Y9834219D01*
X12750647Y9836251D01*
X12727076Y9859772D01*
X12724892Y9863074D01*
X12724130Y9866934D01*
X12724130Y9941153D01*
X12724892Y9945065D01*
X12727076Y9948367D01*
X13889075Y11110366D01*
X13894511Y11116919D01*
X13898270Y11123980D01*
X13900607Y11131651D01*
X13901419Y11140135D01*
X13901419Y11555628D01*
X13902131Y11559286D01*
X13904112Y11562486D01*
X13907109Y11564721D01*
X13910868Y11566601D01*
X13921841Y11573916D01*
X13931798Y11582603D01*
X13940485Y11592560D01*
X13947800Y11603532D01*
X13953642Y11615369D01*
X13957909Y11627866D01*
X13960449Y11640820D01*
X13961363Y11654282D01*
X13961363Y11883644D01*
X13960449Y11897106D01*
X13957909Y11910060D01*
X13953642Y11922556D01*
X13947800Y11934393D01*
X13940485Y11945366D01*
X13931798Y11955322D01*
X13921841Y11964009D01*
X13910868Y11971324D01*
X13899032Y11977166D01*
X13886586Y11981434D01*
X13873632Y11983974D01*
X13860475Y11984837D01*
X13847267Y11983974D01*
X13834363Y11981434D01*
X13821867Y11977166D01*
X13810030Y11971324D01*
X13799057Y11964009D01*
X13789101Y11955322D01*
X13780414Y11945366D01*
X13773099Y11934393D01*
X13767257Y11922556D01*
X13762990Y11910060D01*
X13760450Y11897106D01*
X13759535Y11883644D01*
X13759535Y11654282D01*
X13760450Y11640820D01*
X13762990Y11627866D01*
X13767257Y11615369D01*
X13773099Y11603532D01*
X13780414Y11592560D01*
X13789101Y11582603D01*
X13799057Y11573916D01*
X13810030Y11566601D01*
X13813942Y11564670D01*
X13816939Y11562384D01*
X13818920Y11559235D01*
X13819632Y11555526D01*
X13819632Y11160760D01*
X13818869Y11156899D01*
X13816634Y11153597D01*
X12669266Y10006177D01*
X12665964Y10003993D01*
X12662052Y10003231D01*
X12087148Y10003231D01*
X12083288Y10003993D01*
X12079986Y10006177D01*
X12077801Y10009479D01*
X12076988Y10013391D01*
X12076988Y10195915D01*
X12076277Y10202265D01*
X12074398Y10207701D01*
X12071299Y10212628D01*
X12067235Y10216692D01*
X12062307Y10219791D01*
X12056872Y10221671D01*
X12050522Y10222382D01*
X12027154Y10222382D01*
X12023293Y10223195D01*
X12019991Y10225379D01*
X12017806Y10228681D01*
X12016994Y10232542D01*
X12016994Y10315854D01*
X12017705Y10319512D01*
X12019635Y10322661D01*
X12022531Y10324896D01*
X12026087Y10325963D01*
X12029795Y10325658D01*
X12032335Y10324998D01*
X12042140Y10324134D01*
X12051944Y10324998D01*
X12061444Y10327538D01*
X12070334Y10331704D01*
X12078360Y10337292D01*
X12085320Y10344251D01*
X12090958Y10352328D01*
X12095124Y10361218D01*
X12097664Y10370718D01*
X12098528Y10380472D01*
X12098223Y10383977D01*
X12098731Y10388193D01*
X12100915Y10391800D01*
X12104370Y10394238D01*
X12108484Y10395051D01*
X12112599Y10394086D01*
X12122150Y10389616D01*
X12131649Y10387076D01*
X12141454Y10386212D01*
X12151258Y10387076D01*
X12160758Y10389616D01*
X12169648Y10393781D01*
X12178334Y10399877D01*
X12181078Y10401198D01*
X12184126Y10401706D01*
X12283592Y10401706D01*
X12292076Y10402519D01*
X12299746Y10404856D01*
X12306808Y10408615D01*
X12313361Y10414050D01*
X12846913Y10947552D01*
X12850012Y10949686D01*
X12853670Y10950549D01*
X12857378Y10949990D01*
X12863423Y10947958D01*
X12870230Y10946587D01*
X12874193Y10944860D01*
X12877088Y10941608D01*
X12878358Y10937443D01*
X12877749Y10933125D01*
X12875412Y10929416D01*
X12294717Y10348772D01*
X12291872Y10346740D01*
X12288418Y10345826D01*
X12283948Y10345420D01*
X12274448Y10342880D01*
X12265558Y10338714D01*
X12257532Y10333126D01*
X12250572Y10326166D01*
X12244933Y10318089D01*
X12240768Y10309199D01*
X12238228Y10299700D01*
X12237364Y10289895D01*
X12238228Y10280142D01*
X12240768Y10270642D01*
X12244933Y10261752D01*
X12250572Y10253675D01*
X12257532Y10246715D01*
X12265558Y10241127D01*
X12274448Y10236962D01*
X12283948Y10234422D01*
X12293752Y10233558D01*
X12303556Y10234422D01*
X12313056Y10236962D01*
X12321946Y10241127D01*
X12329972Y10246715D01*
X12336932Y10253675D01*
X12342571Y10261752D01*
X12346736Y10270642D01*
X12349276Y10280142D01*
X12349632Y10284612D01*
X12350546Y10288016D01*
X12352578Y10290911D01*
X13025424Y10963706D01*
X13028828Y10965942D01*
X13032841Y10966704D01*
X13036804Y10965789D01*
X13040106Y10963402D01*
X13042493Y10959033D01*
X13045541Y10954156D01*
X13049656Y10950041D01*
X13054533Y10946993D01*
X13060019Y10945063D01*
X13066318Y10944352D01*
X13222681Y10944352D01*
X13228980Y10945063D01*
X13234466Y10946993D01*
X13239343Y10950041D01*
X13243458Y10954156D01*
X13246506Y10959033D01*
X13248436Y10964519D01*
X13249148Y10970818D01*
X13249148Y11127181D01*
X13248436Y11133480D01*
X13246506Y11138966D01*
X13243458Y11143843D01*
X13239343Y11147958D01*
X13234466Y11151006D01*
X13228980Y11152936D01*
X13222681Y11153648D01*
X13066318Y11153648D01*
X13060019Y11152936D01*
X13054533Y11151006D01*
X13049656Y11147958D01*
X13045541Y11143843D01*
X13042493Y11138966D01*
X13040563Y11133480D01*
X13039852Y11127181D01*
X13039852Y11099495D01*
X13039191Y11095837D01*
X13037210Y11092688D01*
X13034263Y11090402D01*
X13030708Y11089386D01*
X13027558Y11089081D01*
X13019887Y11086744D01*
X13012877Y11082985D01*
X13005765Y11077092D01*
X13002310Y11075263D01*
X12998450Y11074806D01*
X12994690Y11075873D01*
X12991592Y11078260D01*
X12989661Y11081664D01*
X12987172Y11089030D01*
X12981127Y11101324D01*
X12973507Y11112703D01*
X12964464Y11122964D01*
X12954203Y11132007D01*
X12942824Y11139627D01*
X12937083Y11142421D01*
X12934086Y11144707D01*
X12932105Y11147856D01*
X12931394Y11151565D01*
X12931394Y11683034D01*
X12932105Y11686743D01*
X12934086Y11689892D01*
X12937083Y11692178D01*
X12942824Y11694972D01*
X12954203Y11702592D01*
X12964464Y11711635D01*
X12973507Y11721896D01*
X12981127Y11733276D01*
X12987172Y11745569D01*
X12989661Y11752935D01*
X12991592Y11756339D01*
X12994690Y11758726D01*
X12998450Y11759793D01*
X13002310Y11759336D01*
X13005765Y11757507D01*
X13012877Y11751614D01*
X13019887Y11747855D01*
X13027558Y11745518D01*
X13030708Y11745214D01*
X13034263Y11744198D01*
X13037210Y11741912D01*
X13039191Y11738762D01*
X13039852Y11735104D01*
X13039852Y11707418D01*
X13040563Y11701119D01*
X13042493Y11695633D01*
X13045541Y11690756D01*
X13049656Y11686641D01*
X13054533Y11683593D01*
X13060019Y11681663D01*
X13066318Y11680952D01*
X13222681Y11680952D01*
X13228980Y11681663D01*
X13234466Y11683593D01*
X13239343Y11686641D01*
X13243458Y11690756D01*
X13246506Y11695633D01*
X13248436Y11701119D01*
X13249148Y11707418D01*
X13249148Y11863781D01*
X13248436Y11870080D01*
X13246506Y11875566D01*
X13243458Y11880443D01*
X13239343Y11884558D01*
X13234466Y11887606D01*
X13228980Y11889536D01*
X13222681Y11890248D01*
X13066318Y11890248D01*
X13060019Y11889536D01*
X13054533Y11887606D01*
X13049656Y11884558D01*
X13045541Y11880443D01*
X13042239Y11876430D01*
X13039039Y11874754D01*
X13035432Y11874347D01*
X13031876Y11875262D01*
X13028930Y11877294D01*
X12979095Y11927078D01*
X12972542Y11932513D01*
X12965480Y11936272D01*
X12957810Y11938609D01*
X12949326Y11939422D01*
X12590373Y11939422D01*
X12581890Y11938609D01*
X12574219Y11936272D01*
X12567158Y11932513D01*
X12560604Y11927078D01*
X12013590Y11380063D01*
X12008154Y11373510D01*
X12004395Y11366449D01*
X12002058Y11358778D01*
X12001246Y11350294D01*
X12001246Y10788751D01*
X12000484Y10784840D01*
X11998248Y10781588D01*
X11994946Y10779353D01*
X11991086Y10778591D01*
X11987174Y10779353D01*
X11983872Y10781588D01*
X10694263Y12071146D01*
X10692180Y12074245D01*
X10691317Y12077903D01*
X10691825Y12081611D01*
X10694111Y12088368D01*
X10696854Y12101931D01*
X10697718Y12115749D01*
X10696854Y12129566D01*
X10694111Y12143181D01*
X10689691Y12156287D01*
X10683544Y12168682D01*
X10675874Y12180214D01*
X10666730Y12190628D01*
X10656316Y12199772D01*
X10644784Y12207443D01*
X10632389Y12213590D01*
X10619232Y12218009D01*
X10605668Y12220752D01*
X10591850Y12221616D01*
X10578033Y12220752D01*
X10564469Y12218009D01*
X10551312Y12213590D01*
X10538917Y12207443D01*
X10527385Y12199772D01*
X10516971Y12190628D01*
X10507827Y12180214D01*
X10500156Y12168682D01*
X10494010Y12156287D01*
X10489590Y12143181D01*
X10486847Y12129566D01*
X10485983Y12115749D01*
X10486847Y12101931D01*
X10489590Y12088368D01*
X10494010Y12075210D01*
X10500156Y12062815D01*
X10507827Y12051284D01*
X10516971Y12040870D01*
X10527385Y12031726D01*
X10538917Y12024055D01*
X10551312Y12017908D01*
X10564469Y12013488D01*
X10578033Y12010796D01*
X10591850Y12009882D01*
X10605668Y12010796D01*
X10619232Y12013488D01*
X10625988Y12015774D01*
X10629696Y12016282D01*
X10633354Y12015419D01*
X10636402Y12013336D01*
X11932208Y10717530D01*
X11934444Y10714228D01*
X11935206Y10710367D01*
X11935206Y10232542D01*
X11934444Y10228681D01*
X11932208Y10225379D01*
X11928906Y10223195D01*
X11925046Y10222382D01*
X11901678Y10222382D01*
X11895328Y10221671D01*
X11889892Y10219791D01*
X11884964Y10216692D01*
X11880900Y10212628D01*
X11877802Y10207701D01*
X11875922Y10202265D01*
X11875211Y10195915D01*
X11875211Y10013391D01*
X11874398Y10009479D01*
X11872214Y10006177D01*
X11868912Y10003993D01*
X11865051Y10003231D01*
X11816537Y10003231D01*
X11812320Y10004145D01*
X11808815Y10006787D01*
X11806783Y10010597D01*
X11806529Y10014966D01*
X11808104Y10019030D01*
X11809476Y10021062D01*
X11815318Y10032898D01*
X11819534Y10045395D01*
X11822125Y10058349D01*
X11822988Y10071811D01*
X11822988Y10121188D01*
X11822125Y10134650D01*
X11819534Y10147604D01*
X11815318Y10160101D01*
X11809476Y10171938D01*
X11802160Y10182910D01*
X11793423Y10192816D01*
X11783517Y10201554D01*
X11772544Y10208869D01*
X11768683Y10210800D01*
X11765686Y10213035D01*
X11763705Y10216184D01*
X11762994Y10219893D01*
X11762994Y10730992D01*
X11762181Y10739475D01*
X11759844Y10747146D01*
X11756085Y10754207D01*
X11750649Y10760760D01*
X10440212Y12071197D01*
X10438130Y12074296D01*
X10437266Y12077954D01*
X10437774Y12081662D01*
X10440060Y12088418D01*
X10442803Y12101982D01*
X10443667Y12115800D01*
X10442803Y12129617D01*
X10440060Y12143232D01*
X10435640Y12156338D01*
X10429494Y12168733D01*
X10421823Y12180265D01*
X10412679Y12190679D01*
X10402265Y12199823D01*
X10390733Y12207494D01*
X10378338Y12213640D01*
X10365181Y12218060D01*
X10351617Y12220803D01*
X10337800Y12221667D01*
X10323982Y12220803D01*
X10310418Y12218060D01*
X10297261Y12213640D01*
X10284866Y12207494D01*
X10273334Y12199823D01*
X10262920Y12190679D01*
X10253776Y12180265D01*
X10246106Y12168733D01*
X10239959Y12156338D01*
X10235539Y12143232D01*
X10232796Y12129617D01*
X10231932Y12115800D01*
X10232796Y12101982D01*
X10235539Y12088418D01*
X10239959Y12075261D01*
X10246106Y12062866D01*
X10253776Y12051334D01*
X10262920Y12040920D01*
X10273334Y12031776D01*
X10284866Y12024106D01*
X10297261Y12017959D01*
X10310418Y12013539D01*
X10323982Y12010847D01*
X10337800Y12009932D01*
X10351617Y12010847D01*
X10365181Y12013539D01*
X10371937Y12015825D01*
X10375646Y12016333D01*
X10379303Y12015470D01*
X10382402Y12013387D01*
X11678208Y10717530D01*
X11680444Y10714228D01*
X11681206Y10710367D01*
X11681206Y10707878D01*
X11680444Y10703966D01*
X11678208Y10700664D01*
X11674906Y10698480D01*
X11671046Y10697718D01*
X11528450Y10697718D01*
X11520474Y10696651D01*
X11516207Y10697057D01*
X11512448Y10699140D01*
X11509908Y10702544D01*
X11508994Y10706760D01*
X11508994Y10730992D01*
X11508181Y10739475D01*
X11505844Y10747146D01*
X11502085Y10754207D01*
X11496649Y10760760D01*
X10186263Y12071146D01*
X10184180Y12074245D01*
X10183317Y12077903D01*
X10183825Y12081611D01*
X10186111Y12088368D01*
X10188854Y12101931D01*
X10189718Y12115749D01*
X10188854Y12129566D01*
X10186111Y12143181D01*
X10181691Y12156287D01*
X10175544Y12168682D01*
X10167874Y12180214D01*
X10158730Y12190628D01*
X10148316Y12199772D01*
X10136784Y12207443D01*
X10124389Y12213590D01*
X10111282Y12218009D01*
X10097668Y12220752D01*
X10083850Y12221616D01*
X10070033Y12220752D01*
X10056469Y12218009D01*
X10043312Y12213590D01*
X10030917Y12207443D01*
X10019385Y12199772D01*
X10008971Y12190628D01*
X9999827Y12180214D01*
X9992156Y12168682D01*
X9986010Y12156287D01*
X9981590Y12143181D01*
X9978898Y12129566D01*
X9977983Y12115749D01*
X9978898Y12101931D01*
X9981590Y12088368D01*
X9986010Y12075210D01*
X9992156Y12062815D01*
X9999827Y12051284D01*
X10008971Y12040870D01*
X10019385Y12031726D01*
X10030917Y12024055D01*
X10043312Y12017908D01*
X10056469Y12013488D01*
X10070033Y12010796D01*
X10083850Y12009882D01*
X10097668Y12010796D01*
X10111282Y12013488D01*
X10117988Y12015774D01*
X10121696Y12016282D01*
X10125354Y12015419D01*
X10128402Y12013336D01*
X11424208Y10717530D01*
X11426444Y10714228D01*
X11427206Y10710367D01*
X11427206Y10688828D01*
X11426240Y10684611D01*
X11423650Y10681106D01*
X11419789Y10679074D01*
X11415420Y10678820D01*
X11411407Y10680395D01*
X11406733Y10683494D01*
X11400129Y10686745D01*
X11400129Y10638129D01*
X11417046Y10638129D01*
X11420906Y10637367D01*
X11424208Y10635183D01*
X11426444Y10631881D01*
X11427206Y10627969D01*
X11427206Y10555630D01*
X11426444Y10551718D01*
X11424208Y10548416D01*
X11420906Y10546232D01*
X11417046Y10545470D01*
X11400129Y10545470D01*
X11400129Y10496854D01*
X11406733Y10500106D01*
X11411407Y10503204D01*
X11415420Y10504779D01*
X11419789Y10504525D01*
X11423650Y10502493D01*
X11426240Y10498988D01*
X11427206Y10494772D01*
X11427206Y10219893D01*
X11426494Y10216184D01*
X11424513Y10213035D01*
X11421516Y10210800D01*
X11417655Y10208869D01*
X11406682Y10201554D01*
X11396776Y10192816D01*
X11388039Y10182910D01*
X11380724Y10171938D01*
X11374882Y10160101D01*
X11370665Y10147604D01*
X11368074Y10134650D01*
X11367211Y10121188D01*
X11367211Y10071811D01*
X11368074Y10058349D01*
X11370665Y10045395D01*
X11374882Y10032898D01*
X11380724Y10021062D01*
X11388039Y10010089D01*
X11396776Y10000183D01*
X11406682Y9991445D01*
X11417655Y9984130D01*
X11429492Y9978288D01*
X11441988Y9974072D01*
X11454942Y9971481D01*
X11461445Y9971074D01*
X11465153Y9970058D01*
X11468252Y9967772D01*
X11470284Y9964470D01*
X11470944Y9960711D01*
X11470132Y9956901D01*
X11467947Y9953752D01*
X11139220Y9624974D01*
X11135918Y9622739D01*
X11132007Y9621977D01*
X10445191Y9621977D01*
X10436707Y9621164D01*
X10429036Y9618827D01*
X10421975Y9615068D01*
X10415422Y9609632D01*
X10256418Y9450679D01*
X10252913Y9448393D01*
X10248798Y9447682D01*
X10244734Y9448749D01*
X10236708Y9452711D01*
X10224211Y9456928D01*
X10211257Y9459518D01*
X10198100Y9460382D01*
X10184942Y9459518D01*
X10171988Y9456928D01*
X10159492Y9452711D01*
X10147655Y9446869D01*
X10136682Y9439554D01*
X10126776Y9430816D01*
X10118039Y9420910D01*
X10110724Y9409938D01*
X10104882Y9398101D01*
X10100665Y9385604D01*
X10098074Y9372650D01*
X10097211Y9359188D01*
X10097211Y9309811D01*
X10098024Y9297162D01*
X10097414Y9292945D01*
X10095077Y9289338D01*
X9816490Y9010751D01*
X9813645Y9008719D01*
X9809124Y9007703D01*
X9801453Y9005366D01*
X9794392Y9001607D01*
X9788194Y8996527D01*
X9783114Y8990330D01*
X9779355Y8983268D01*
X9777018Y8975598D01*
X9776714Y8972448D01*
X9775698Y8968892D01*
X9773412Y8965946D01*
X9770262Y8963964D01*
X9766604Y8963304D01*
X9741458Y8963304D01*
X9735159Y8962593D01*
X9729673Y8960662D01*
X9724796Y8957614D01*
X9720681Y8953500D01*
X9717633Y8948623D01*
X9715703Y8943136D01*
X9714992Y8936837D01*
X9714992Y8637981D01*
X9715703Y8631631D01*
X9717633Y8626195D01*
X9720681Y8621268D01*
X9724796Y8617204D01*
X9729673Y8614105D01*
X9735159Y8612174D01*
X9741458Y8611463D01*
X9892741Y8611463D01*
X9899040Y8612174D01*
X9904526Y8614105D01*
X9909403Y8617204D01*
X9913518Y8621268D01*
X9916566Y8626195D01*
X9918496Y8631631D01*
X9919208Y8637981D01*
X9919208Y8936837D01*
X9918496Y8943136D01*
X9916566Y8948623D01*
X9913518Y8953500D01*
X9909403Y8957614D01*
X9904526Y8960662D01*
X9899700Y8963253D01*
X9897313Y8966504D01*
X9896398Y8970518D01*
X9897110Y8974531D01*
X9899345Y8977934D01*
X10139781Y9218320D01*
X10143286Y9220606D01*
X10147401Y9221317D01*
X10151465Y9220250D01*
X10159492Y9216288D01*
X10171988Y9212072D01*
X10184942Y9209481D01*
X10198100Y9208617D01*
X10211257Y9209481D01*
X10224211Y9212072D01*
X10231780Y9214612D01*
X10235742Y9215120D01*
X10239603Y9214053D01*
X10242753Y9211614D01*
X10244734Y9208109D01*
X10245140Y9204096D01*
X10244023Y9200235D01*
X10241483Y9197136D01*
X10236047Y9192666D01*
X10042296Y8998915D01*
X10036860Y8992311D01*
X10033101Y8985250D01*
X10030764Y8977579D01*
X10030460Y8974480D01*
X10029444Y8970873D01*
X10027158Y8967927D01*
X10024008Y8965996D01*
X10020350Y8965285D01*
X9995204Y8965285D01*
X9988905Y8964574D01*
X9983419Y8962694D01*
X9978542Y8959596D01*
X9974427Y8955481D01*
X9971379Y8950604D01*
X9969449Y8945168D01*
X9968738Y8938818D01*
X9968738Y8639962D01*
X9969449Y8633663D01*
X9971379Y8628176D01*
X9974427Y8623300D01*
X9978542Y8619185D01*
X9983419Y8616086D01*
X9988905Y8614206D01*
X9995204Y8613495D01*
X10146487Y8613495D01*
X10152786Y8614206D01*
X10158272Y8616086D01*
X10163149Y8619185D01*
X10167264Y8623300D01*
X10170312Y8628176D01*
X10172242Y8633663D01*
X10172954Y8639962D01*
X10172954Y8938818D01*
X10172242Y8945168D01*
X10170312Y8950604D01*
X10167264Y8955481D01*
X10163149Y8959596D01*
X10158272Y8962694D01*
X10152786Y8964574D01*
X10147554Y8965184D01*
X10143947Y8966301D01*
X10141000Y8968638D01*
X10139121Y8971940D01*
X10138562Y8975648D01*
X10139375Y8979357D01*
X10141508Y8982456D01*
X10279278Y9120225D01*
X10282580Y9122410D01*
X10286441Y9123172D01*
X10396016Y9123172D01*
X10399928Y9122410D01*
X10403179Y9120225D01*
X10405414Y9116923D01*
X10406176Y9113012D01*
X10405414Y9109151D01*
X10403179Y9105849D01*
X10296296Y8998915D01*
X10290860Y8992311D01*
X10287101Y8985250D01*
X10284764Y8977579D01*
X10284460Y8974480D01*
X10283444Y8970873D01*
X10281158Y8967927D01*
X10278008Y8965996D01*
X10274350Y8965285D01*
X10249204Y8965285D01*
X10242905Y8964574D01*
X10237419Y8962694D01*
X10232542Y8959596D01*
X10228427Y8955481D01*
X10225379Y8950604D01*
X10223449Y8945168D01*
X10222738Y8938818D01*
X10222738Y8639962D01*
X10223449Y8633663D01*
X10225379Y8628176D01*
X10228427Y8623300D01*
X10232542Y8619185D01*
X10237419Y8616086D01*
X10242905Y8614206D01*
X10249204Y8613495D01*
X10400487Y8613495D01*
X10406786Y8614206D01*
X10412272Y8616086D01*
X10417149Y8619185D01*
X10421264Y8623300D01*
X10424312Y8628176D01*
X10426242Y8633663D01*
X10426954Y8639962D01*
X10426954Y8938818D01*
X10426242Y8945168D01*
X10424312Y8950604D01*
X10421264Y8955481D01*
X10417149Y8959596D01*
X10412272Y8962694D01*
X10406786Y8964574D01*
X10401554Y8965184D01*
X10397947Y8966301D01*
X10395000Y8968638D01*
X10393121Y8971940D01*
X10392562Y8975648D01*
X10393375Y8979357D01*
X10395508Y8982456D01*
X10457230Y9044178D01*
X10460532Y9046362D01*
X10464393Y9047124D01*
X11221161Y9047124D01*
X11229594Y9047988D01*
X11237264Y9050274D01*
X11244326Y9054084D01*
X11250930Y9059468D01*
X11409781Y9218320D01*
X11413286Y9220606D01*
X11417401Y9221317D01*
X11421465Y9220250D01*
X11429492Y9216288D01*
X11441988Y9212072D01*
X11454942Y9209481D01*
X11468100Y9208617D01*
X11481257Y9209481D01*
X11494211Y9212072D01*
X11506708Y9216288D01*
X11518544Y9222130D01*
X11529517Y9229445D01*
X11539423Y9238183D01*
X11548160Y9248089D01*
X11555476Y9259062D01*
X11561318Y9270898D01*
X11565534Y9283395D01*
X11568125Y9296349D01*
X11568988Y9309811D01*
X11568988Y9359188D01*
X11568125Y9372650D01*
X11565534Y9385604D01*
X11561318Y9398101D01*
X11555476Y9409938D01*
X11548160Y9420910D01*
X11539423Y9430816D01*
X11529517Y9439554D01*
X11518544Y9446869D01*
X11506708Y9452711D01*
X11494211Y9456928D01*
X11481257Y9459518D01*
X11468100Y9460382D01*
X11454942Y9459518D01*
X11441988Y9456928D01*
X11429492Y9452711D01*
X11417655Y9446869D01*
X11406682Y9439554D01*
X11396776Y9430816D01*
X11388039Y9420910D01*
X11380724Y9409938D01*
X11374882Y9398101D01*
X11370665Y9385604D01*
X11368074Y9372650D01*
X11367211Y9359188D01*
X11367211Y9309811D01*
X11368024Y9297162D01*
X11367414Y9292945D01*
X11365077Y9289338D01*
X11301933Y9226194D01*
X11299190Y9224416D01*
X11297412Y9221673D01*
X11207699Y9131909D01*
X11204397Y9129725D01*
X11200485Y9128963D01*
X11090910Y9128963D01*
X11087049Y9129725D01*
X11083747Y9131909D01*
X11081562Y9135211D01*
X11080750Y9139123D01*
X11081562Y9142984D01*
X11083747Y9146286D01*
X11155781Y9218320D01*
X11159286Y9220606D01*
X11163401Y9221317D01*
X11167465Y9220250D01*
X11175492Y9216288D01*
X11187988Y9212072D01*
X11200942Y9209481D01*
X11214100Y9208617D01*
X11227257Y9209481D01*
X11240211Y9212072D01*
X11252708Y9216288D01*
X11264544Y9222130D01*
X11275517Y9229445D01*
X11283543Y9236506D01*
X11285829Y9237776D01*
X11287099Y9240062D01*
X11294160Y9248089D01*
X11301476Y9259062D01*
X11307318Y9270898D01*
X11311534Y9283395D01*
X11314125Y9296349D01*
X11314988Y9309811D01*
X11314988Y9359188D01*
X11314125Y9372650D01*
X11311534Y9385604D01*
X11307318Y9398101D01*
X11301476Y9409938D01*
X11294160Y9420910D01*
X11285423Y9430816D01*
X11275517Y9439554D01*
X11264544Y9446869D01*
X11252708Y9452711D01*
X11240211Y9456928D01*
X11227257Y9459518D01*
X11214100Y9460382D01*
X11200942Y9459518D01*
X11187988Y9456928D01*
X11175492Y9452711D01*
X11163655Y9446869D01*
X11152682Y9439554D01*
X11142776Y9430816D01*
X11134039Y9420910D01*
X11126724Y9409938D01*
X11120882Y9398101D01*
X11116665Y9385604D01*
X11114074Y9372650D01*
X11113211Y9359188D01*
X11113211Y9309811D01*
X11114024Y9297162D01*
X11113414Y9292945D01*
X11111077Y9289338D01*
X11047933Y9226194D01*
X11045190Y9224416D01*
X11043412Y9221673D01*
X11029746Y9207957D01*
X11026444Y9205772D01*
X11022533Y9205010D01*
X11018418Y9205010D01*
X11014202Y9205925D01*
X11010747Y9208465D01*
X11008664Y9212224D01*
X11008309Y9216491D01*
X11009782Y9220504D01*
X11012728Y9223603D01*
X11021517Y9229445D01*
X11029543Y9236506D01*
X11031829Y9237776D01*
X11033099Y9240062D01*
X11040160Y9248089D01*
X11047476Y9259062D01*
X11053318Y9270898D01*
X11057534Y9283395D01*
X11060125Y9296349D01*
X11060988Y9309811D01*
X11060988Y9359188D01*
X11060125Y9372650D01*
X11057534Y9385604D01*
X11053318Y9398101D01*
X11047476Y9409938D01*
X11040160Y9420910D01*
X11031423Y9430816D01*
X11021517Y9439554D01*
X11010544Y9446869D01*
X10998708Y9452711D01*
X10986211Y9456928D01*
X10973257Y9459518D01*
X10960100Y9460382D01*
X10946942Y9459518D01*
X10933988Y9456928D01*
X10921492Y9452711D01*
X10909655Y9446869D01*
X10898682Y9439554D01*
X10888776Y9430816D01*
X10880039Y9420910D01*
X10872724Y9409938D01*
X10866882Y9398101D01*
X10862665Y9385604D01*
X10860074Y9372650D01*
X10859211Y9359188D01*
X10859211Y9309811D01*
X10860074Y9296349D01*
X10862665Y9283395D01*
X10866882Y9270898D01*
X10872724Y9259062D01*
X10880039Y9248089D01*
X10888776Y9238183D01*
X10898682Y9229445D01*
X10907471Y9223603D01*
X10910417Y9220504D01*
X10911890Y9216491D01*
X10911535Y9212224D01*
X10909452Y9208465D01*
X10905998Y9205925D01*
X10901781Y9205010D01*
X10764418Y9205010D01*
X10760202Y9205925D01*
X10756747Y9208465D01*
X10754664Y9212224D01*
X10754309Y9216491D01*
X10755782Y9220504D01*
X10758728Y9223603D01*
X10767517Y9229445D01*
X10777423Y9238183D01*
X10786160Y9248089D01*
X10793476Y9259062D01*
X10799318Y9270898D01*
X10803534Y9283395D01*
X10806125Y9296349D01*
X10806988Y9309811D01*
X10806988Y9359188D01*
X10806125Y9372650D01*
X10803534Y9385604D01*
X10799318Y9398101D01*
X10793476Y9409938D01*
X10786160Y9420910D01*
X10777423Y9430816D01*
X10767517Y9439554D01*
X10756544Y9446869D01*
X10744708Y9452711D01*
X10732211Y9456928D01*
X10719257Y9459518D01*
X10706100Y9460382D01*
X10692942Y9459518D01*
X10679988Y9456928D01*
X10667492Y9452711D01*
X10655655Y9446869D01*
X10644682Y9439554D01*
X10634776Y9430816D01*
X10626039Y9420910D01*
X10618724Y9409938D01*
X10612882Y9398101D01*
X10608665Y9385604D01*
X10606074Y9372650D01*
X10605211Y9359188D01*
X10605211Y9309811D01*
X10606074Y9296349D01*
X10608665Y9283395D01*
X10612882Y9270898D01*
X10618724Y9259062D01*
X10626039Y9248089D01*
X10634776Y9238183D01*
X10644682Y9229445D01*
X10653471Y9223603D01*
X10656417Y9220504D01*
X10657890Y9216491D01*
X10657535Y9212224D01*
X10655452Y9208465D01*
X10651998Y9205925D01*
X10647781Y9205010D01*
X10510418Y9205010D01*
X10506202Y9205925D01*
X10502747Y9208465D01*
X10500664Y9212224D01*
X10500309Y9216491D01*
X10501782Y9220504D01*
X10504728Y9223603D01*
X10513517Y9229445D01*
X10523423Y9238183D01*
X10532160Y9248089D01*
X10539476Y9259062D01*
X10545318Y9270898D01*
X10549534Y9283395D01*
X10552125Y9296349D01*
X10552988Y9309811D01*
X10552988Y9359188D01*
X10552125Y9372650D01*
X10549534Y9385604D01*
X10545318Y9398101D01*
X10539476Y9409938D01*
X10532160Y9420910D01*
X10523423Y9430816D01*
X10513517Y9439554D01*
X10502544Y9446869D01*
X10490708Y9452711D01*
X10478211Y9456928D01*
X10465257Y9459518D01*
X10452100Y9460382D01*
X10438942Y9459518D01*
X10425988Y9456928D01*
X10413492Y9452711D01*
X10401655Y9446869D01*
X10390682Y9439554D01*
X10382656Y9432493D01*
X10380370Y9431223D01*
X10379100Y9428937D01*
X10372039Y9420910D01*
X10364724Y9409938D01*
X10358882Y9398101D01*
X10354665Y9385604D01*
X10352074Y9372650D01*
X10351211Y9359188D01*
X10351211Y9309811D01*
X10352074Y9296349D01*
X10354665Y9283395D01*
X10358882Y9270898D01*
X10364724Y9259062D01*
X10372039Y9248089D01*
X10380776Y9238183D01*
X10390682Y9229445D01*
X10399471Y9223603D01*
X10402417Y9220504D01*
X10403890Y9216491D01*
X10403535Y9212224D01*
X10401452Y9208465D01*
X10397998Y9205925D01*
X10393781Y9205010D01*
X10265816Y9205010D01*
X10253421Y9203842D01*
X10249560Y9205112D01*
X10246461Y9207855D01*
X10244734Y9211564D01*
X10244582Y9215628D01*
X10246055Y9219488D01*
X10248950Y9222384D01*
X10259517Y9229445D01*
X10269423Y9238183D01*
X10278160Y9248089D01*
X10285476Y9259062D01*
X10291318Y9270898D01*
X10295534Y9283395D01*
X10298125Y9296349D01*
X10298988Y9309811D01*
X10298988Y9359188D01*
X10298176Y9371838D01*
X10298785Y9376054D01*
X10301122Y9379661D01*
X10364266Y9442805D01*
X10367010Y9444583D01*
X10368788Y9447326D01*
X10458653Y9537192D01*
X10461955Y9539376D01*
X10465816Y9540189D01*
X11152682Y9540189D01*
X11161115Y9541002D01*
X11168786Y9543338D01*
X11175847Y9547098D01*
X11182451Y9552533D01*
X11600637Y9970668D01*
X11603888Y9972903D01*
X11607800Y9973665D01*
X11611711Y9972903D01*
X11614962Y9970668D01*
X11651945Y9933736D01*
X11658498Y9928352D01*
X11665559Y9924542D01*
X11673230Y9922256D01*
X11681714Y9921392D01*
X12034977Y9921392D01*
X12038888Y9920630D01*
X12042190Y9918446D01*
X12044375Y9915144D01*
X12045137Y9911232D01*
X12045137Y9453422D01*
X12044222Y9449206D01*
X12041581Y9445701D01*
X12037771Y9443669D01*
X12033402Y9443415D01*
X12029338Y9444990D01*
X12026544Y9446869D01*
X12014708Y9452711D01*
X12002211Y9456928D01*
X11989257Y9459518D01*
X11976100Y9460382D01*
X11962942Y9459518D01*
X11949988Y9456928D01*
X11937492Y9452711D01*
X11925655Y9446869D01*
X11914682Y9439554D01*
X11904776Y9430816D01*
X11896039Y9420910D01*
X11888724Y9409938D01*
X11882882Y9398101D01*
X11878665Y9385604D01*
X11876074Y9372650D01*
X11875211Y9359188D01*
X11875211Y9309811D01*
X11876024Y9297162D01*
X11875414Y9292945D01*
X11873077Y9289338D01*
X11809933Y9226194D01*
X11807190Y9224416D01*
X11805412Y9221673D01*
X11597284Y9013494D01*
X11593982Y9011310D01*
X11590070Y9010548D01*
X10833608Y9010548D01*
X10825124Y9009684D01*
X10817453Y9007398D01*
X10810392Y9003588D01*
X10804194Y8998508D01*
X10799114Y8992311D01*
X10795355Y8985250D01*
X10793018Y8977579D01*
X10792714Y8974480D01*
X10791698Y8970924D01*
X10789412Y8967927D01*
X10786262Y8965996D01*
X10782604Y8965285D01*
X10757458Y8965285D01*
X10751159Y8964574D01*
X10745673Y8962694D01*
X10740796Y8959596D01*
X10736681Y8955532D01*
X10733633Y8950604D01*
X10731703Y8945168D01*
X10730992Y8938818D01*
X10730992Y8639962D01*
X10731703Y8633663D01*
X10733633Y8628176D01*
X10736681Y8623300D01*
X10740796Y8619185D01*
X10745673Y8616137D01*
X10751159Y8614206D01*
X10757458Y8613495D01*
X10908741Y8613495D01*
X10915040Y8614206D01*
X10920526Y8616137D01*
X10925403Y8619185D01*
X10929518Y8623300D01*
X10932566Y8628176D01*
X10934496Y8633663D01*
X10935208Y8639962D01*
X10935208Y8918549D01*
X10935970Y8922461D01*
X10938205Y8925763D01*
X10941456Y8927947D01*
X10945368Y8928709D01*
X11444732Y8928709D01*
X11448643Y8927947D01*
X11451894Y8925763D01*
X11454130Y8922461D01*
X11454892Y8918549D01*
X11454892Y8637981D01*
X11455603Y8631631D01*
X11457533Y8626195D01*
X11460581Y8621268D01*
X11464696Y8617204D01*
X11469573Y8614105D01*
X11475059Y8612174D01*
X11481358Y8611463D01*
X11632641Y8611463D01*
X11638940Y8612174D01*
X11644426Y8614105D01*
X11649303Y8617204D01*
X11653418Y8621268D01*
X11656466Y8626195D01*
X11658396Y8631631D01*
X11659108Y8637981D01*
X11659108Y8856776D01*
X11659870Y8860637D01*
X11662105Y8863939D01*
X11691315Y8893149D01*
X11694566Y8895384D01*
X11698478Y8896146D01*
X11702389Y8895384D01*
X11705640Y8893149D01*
X11707876Y8889847D01*
X11708638Y8885986D01*
X11708638Y8639962D01*
X11709349Y8633663D01*
X11711279Y8628176D01*
X11714327Y8623300D01*
X11718442Y8619185D01*
X11723319Y8616086D01*
X11728805Y8614206D01*
X11735104Y8613495D01*
X11760250Y8613495D01*
X11763908Y8612784D01*
X11767058Y8610854D01*
X11769344Y8607907D01*
X11770360Y8604300D01*
X11770664Y8601202D01*
X11773001Y8593531D01*
X11776760Y8586470D01*
X11782196Y8579916D01*
X11886895Y8475167D01*
X11893499Y8469782D01*
X11900560Y8465972D01*
X11908231Y8463686D01*
G37*
G36*
X7988858Y8611463D02*
G01*
X8140141Y8611463D01*
X8146440Y8612174D01*
X8151926Y8614105D01*
X8156803Y8617204D01*
X8160918Y8621268D01*
X8163966Y8626195D01*
X8165896Y8631631D01*
X8166608Y8637981D01*
X8166608Y8936837D01*
X8165896Y8943136D01*
X8163966Y8948623D01*
X8160918Y8953500D01*
X8156803Y8957614D01*
X8151926Y8960662D01*
X8146440Y8962593D01*
X8140141Y8963304D01*
X7988858Y8963304D01*
X7982559Y8962593D01*
X7977073Y8960662D01*
X7972196Y8957614D01*
X7968081Y8953500D01*
X7965033Y8948623D01*
X7963103Y8943136D01*
X7962392Y8936837D01*
X7962392Y8637981D01*
X7963103Y8631631D01*
X7965033Y8626195D01*
X7968081Y8621268D01*
X7972196Y8617204D01*
X7977073Y8614105D01*
X7982559Y8612174D01*
G37*
G36*
X10503458Y8613495D02*
G01*
X10654741Y8613495D01*
X10661040Y8614206D01*
X10666526Y8616137D01*
X10671403Y8619185D01*
X10675518Y8623300D01*
X10678566Y8628176D01*
X10680496Y8633663D01*
X10681208Y8639962D01*
X10681208Y8938818D01*
X10680496Y8945168D01*
X10678566Y8950604D01*
X10675518Y8955532D01*
X10671403Y8959596D01*
X10666526Y8962694D01*
X10661040Y8964574D01*
X10654741Y8965285D01*
X10503458Y8965285D01*
X10497159Y8964574D01*
X10491673Y8962694D01*
X10486796Y8959596D01*
X10482681Y8955532D01*
X10479633Y8950604D01*
X10477703Y8945168D01*
X10476992Y8938818D01*
X10476992Y8639962D01*
X10477703Y8633663D01*
X10479633Y8628176D01*
X10482681Y8623300D01*
X10486796Y8619185D01*
X10491673Y8616137D01*
X10497159Y8614206D01*
G37*
G36*
X9004858Y8613495D02*
G01*
X9156141Y8613495D01*
X9162440Y8614206D01*
X9167926Y8616137D01*
X9172803Y8619185D01*
X9176918Y8623300D01*
X9179966Y8628176D01*
X9181896Y8633663D01*
X9182608Y8639962D01*
X9182608Y8918549D01*
X9183370Y8922461D01*
X9185605Y8925763D01*
X9188856Y8927947D01*
X9192768Y8928709D01*
X9337446Y8928709D01*
X9345879Y8929573D01*
X9353550Y8931859D01*
X9360611Y8935669D01*
X9367215Y8941054D01*
X9644481Y9218320D01*
X9647986Y9220606D01*
X9652101Y9221317D01*
X9656165Y9220250D01*
X9664192Y9216288D01*
X9676688Y9212072D01*
X9689642Y9209481D01*
X9702800Y9208617D01*
X9715957Y9209481D01*
X9728911Y9212072D01*
X9741408Y9216288D01*
X9753244Y9222130D01*
X9764217Y9229445D01*
X9774123Y9238183D01*
X9782860Y9248089D01*
X9790176Y9259062D01*
X9796018Y9270898D01*
X9800234Y9283395D01*
X9802825Y9296349D01*
X9803688Y9309811D01*
X9803688Y9359188D01*
X9802825Y9372650D01*
X9800234Y9385604D01*
X9796018Y9398101D01*
X9790176Y9409938D01*
X9782860Y9420910D01*
X9774123Y9430816D01*
X9764217Y9439554D01*
X9753244Y9446869D01*
X9741408Y9452711D01*
X9728911Y9456928D01*
X9715957Y9459518D01*
X9702800Y9460382D01*
X9689642Y9459518D01*
X9676688Y9456928D01*
X9664192Y9452711D01*
X9652355Y9446869D01*
X9641382Y9439554D01*
X9631476Y9430816D01*
X9622739Y9420910D01*
X9615424Y9409938D01*
X9609582Y9398101D01*
X9605365Y9385604D01*
X9602774Y9372650D01*
X9601911Y9359188D01*
X9601911Y9309811D01*
X9602724Y9297162D01*
X9602114Y9292945D01*
X9599777Y9289338D01*
X9536633Y9226194D01*
X9533890Y9224416D01*
X9532112Y9221673D01*
X9323984Y9013494D01*
X9320682Y9011310D01*
X9316770Y9010548D01*
X9081008Y9010548D01*
X9072524Y9009684D01*
X9064853Y9007398D01*
X9057792Y9003588D01*
X9051594Y8998508D01*
X9046514Y8992311D01*
X9042755Y8985250D01*
X9040418Y8977579D01*
X9040114Y8974480D01*
X9039098Y8970924D01*
X9036812Y8967927D01*
X9033662Y8965996D01*
X9030004Y8965285D01*
X9004858Y8965285D01*
X8998559Y8964574D01*
X8993073Y8962694D01*
X8988196Y8959596D01*
X8984081Y8955532D01*
X8981033Y8950604D01*
X8979103Y8945168D01*
X8978392Y8938818D01*
X8978392Y8639962D01*
X8979103Y8633663D01*
X8981033Y8628176D01*
X8984081Y8623300D01*
X8988196Y8619185D01*
X8993073Y8616137D01*
X8998559Y8614206D01*
G37*
G36*
X8242604Y8613495D02*
G01*
X8393887Y8613495D01*
X8400186Y8614206D01*
X8405672Y8616086D01*
X8410549Y8619185D01*
X8414664Y8623300D01*
X8417712Y8628176D01*
X8419642Y8633663D01*
X8420354Y8639962D01*
X8420354Y8938818D01*
X8419642Y8945168D01*
X8417712Y8950604D01*
X8414664Y8955481D01*
X8410549Y8959596D01*
X8405672Y8962694D01*
X8400186Y8964574D01*
X8394954Y8965184D01*
X8391347Y8966301D01*
X8388400Y8968638D01*
X8386521Y8971940D01*
X8385962Y8975648D01*
X8386775Y8979357D01*
X8388908Y8982456D01*
X8566708Y9160256D01*
X8570010Y9162440D01*
X8573871Y9163202D01*
X8683447Y9163202D01*
X8687358Y9162440D01*
X8690610Y9160256D01*
X8692845Y9156954D01*
X8693607Y9153042D01*
X8692845Y9149181D01*
X8690610Y9145879D01*
X8543696Y8998915D01*
X8538260Y8992311D01*
X8534501Y8985250D01*
X8532164Y8977579D01*
X8531860Y8974480D01*
X8530844Y8970873D01*
X8528558Y8967927D01*
X8525408Y8965996D01*
X8521750Y8965285D01*
X8496604Y8965285D01*
X8490305Y8964574D01*
X8484819Y8962694D01*
X8479942Y8959596D01*
X8475827Y8955481D01*
X8472779Y8950604D01*
X8470849Y8945168D01*
X8470138Y8938818D01*
X8470138Y8639962D01*
X8470849Y8633663D01*
X8472779Y8628176D01*
X8475827Y8623300D01*
X8479942Y8619185D01*
X8484819Y8616086D01*
X8490305Y8614206D01*
X8496604Y8613495D01*
X8647887Y8613495D01*
X8654186Y8614206D01*
X8659672Y8616086D01*
X8664549Y8619185D01*
X8668664Y8623300D01*
X8671712Y8628176D01*
X8673642Y8633663D01*
X8674354Y8639962D01*
X8674354Y8938818D01*
X8673642Y8945168D01*
X8671712Y8950604D01*
X8668664Y8955481D01*
X8664549Y8959596D01*
X8659672Y8962694D01*
X8654186Y8964574D01*
X8648954Y8965184D01*
X8645347Y8966301D01*
X8642400Y8968638D01*
X8640521Y8971940D01*
X8639962Y8975648D01*
X8640775Y8979357D01*
X8642908Y8982456D01*
X8752789Y9092336D01*
X8756091Y9094520D01*
X8760002Y9095333D01*
X8869832Y9095333D01*
X8873693Y9094520D01*
X8876995Y9092336D01*
X8879179Y9089034D01*
X8879992Y9085173D01*
X8879179Y9081262D01*
X8876995Y9077960D01*
X8797950Y8998915D01*
X8792514Y8992311D01*
X8788755Y8985250D01*
X8786418Y8977579D01*
X8786114Y8974480D01*
X8785098Y8970924D01*
X8782812Y8967927D01*
X8779662Y8965996D01*
X8776004Y8965285D01*
X8750858Y8965285D01*
X8744559Y8964574D01*
X8739073Y8962694D01*
X8734196Y8959596D01*
X8730081Y8955532D01*
X8727033Y8950604D01*
X8725103Y8945168D01*
X8724392Y8938818D01*
X8724392Y8639962D01*
X8725103Y8633663D01*
X8727033Y8628176D01*
X8730081Y8623300D01*
X8734196Y8619185D01*
X8739073Y8616137D01*
X8744559Y8614206D01*
X8750858Y8613495D01*
X8902141Y8613495D01*
X8908440Y8614206D01*
X8913926Y8616137D01*
X8918803Y8619185D01*
X8922918Y8623300D01*
X8925966Y8628176D01*
X8927896Y8633663D01*
X8928608Y8639962D01*
X8928608Y8938818D01*
X8927896Y8945168D01*
X8925966Y8950604D01*
X8922918Y8955532D01*
X8918803Y8959596D01*
X8913926Y8962694D01*
X8908440Y8964574D01*
X8903258Y8965184D01*
X8899601Y8966301D01*
X8896654Y8968638D01*
X8894775Y8971940D01*
X8894216Y8975648D01*
X8895080Y8979357D01*
X8897162Y8982456D01*
X8960510Y9045803D01*
X8963812Y9047988D01*
X8967673Y9048750D01*
X9203486Y9048750D01*
X9211919Y9049613D01*
X9219590Y9051899D01*
X9226651Y9055709D01*
X9233255Y9061094D01*
X9390481Y9218320D01*
X9393986Y9220606D01*
X9398101Y9221317D01*
X9402165Y9220250D01*
X9410192Y9216288D01*
X9422688Y9212072D01*
X9435642Y9209481D01*
X9448800Y9208617D01*
X9461957Y9209481D01*
X9474911Y9212072D01*
X9487408Y9216288D01*
X9499244Y9222130D01*
X9510217Y9229445D01*
X9518243Y9236506D01*
X9520529Y9237776D01*
X9521799Y9240062D01*
X9528860Y9248089D01*
X9536176Y9259062D01*
X9542018Y9270898D01*
X9546234Y9283395D01*
X9548825Y9296349D01*
X9549688Y9309811D01*
X9549688Y9359188D01*
X9548825Y9372650D01*
X9546234Y9385604D01*
X9542018Y9398101D01*
X9536176Y9409938D01*
X9528860Y9420910D01*
X9520123Y9430816D01*
X9510217Y9439554D01*
X9499244Y9446869D01*
X9487408Y9452711D01*
X9474911Y9456928D01*
X9461957Y9459518D01*
X9448800Y9460382D01*
X9435642Y9459518D01*
X9422688Y9456928D01*
X9410192Y9452711D01*
X9398355Y9446869D01*
X9387382Y9439554D01*
X9377476Y9430816D01*
X9368739Y9420910D01*
X9361424Y9409938D01*
X9355582Y9398101D01*
X9351365Y9385604D01*
X9348774Y9372650D01*
X9347911Y9359188D01*
X9347911Y9309811D01*
X9348724Y9297162D01*
X9348114Y9292945D01*
X9345777Y9289338D01*
X9282633Y9226194D01*
X9279890Y9224416D01*
X9278112Y9221673D01*
X9190024Y9133535D01*
X9186722Y9131350D01*
X9182811Y9130588D01*
X9073235Y9130588D01*
X9069374Y9131350D01*
X9066072Y9133535D01*
X9063888Y9136837D01*
X9063075Y9140748D01*
X9063888Y9144609D01*
X9066072Y9147911D01*
X9136481Y9218320D01*
X9139986Y9220606D01*
X9144101Y9221317D01*
X9148165Y9220250D01*
X9156192Y9216288D01*
X9168688Y9212072D01*
X9181642Y9209481D01*
X9194800Y9208617D01*
X9207957Y9209481D01*
X9220911Y9212072D01*
X9233408Y9216288D01*
X9245244Y9222130D01*
X9256217Y9229445D01*
X9264243Y9236506D01*
X9266529Y9237776D01*
X9267799Y9240062D01*
X9274860Y9248089D01*
X9282176Y9259062D01*
X9288018Y9270898D01*
X9292234Y9283395D01*
X9294825Y9296349D01*
X9295688Y9309811D01*
X9295688Y9359188D01*
X9294825Y9372650D01*
X9292234Y9385604D01*
X9288018Y9398101D01*
X9282176Y9409938D01*
X9274860Y9420910D01*
X9266123Y9430816D01*
X9256217Y9439554D01*
X9245244Y9446869D01*
X9233408Y9452711D01*
X9220911Y9456928D01*
X9207957Y9459518D01*
X9194800Y9460382D01*
X9181642Y9459518D01*
X9168688Y9456928D01*
X9156192Y9452711D01*
X9144355Y9446869D01*
X9133382Y9439554D01*
X9123476Y9430816D01*
X9114739Y9420910D01*
X9107424Y9409938D01*
X9101582Y9398101D01*
X9097365Y9385604D01*
X9094774Y9372650D01*
X9093911Y9359188D01*
X9093911Y9309811D01*
X9094724Y9297162D01*
X9094114Y9292945D01*
X9091777Y9289338D01*
X9028633Y9226194D01*
X9025890Y9224416D01*
X9024112Y9221673D01*
X8982557Y9180118D01*
X8979255Y9177883D01*
X8975394Y9177121D01*
X8865819Y9177121D01*
X8861907Y9177883D01*
X8858656Y9180118D01*
X8856421Y9183420D01*
X8855659Y9187281D01*
X8856421Y9191193D01*
X8858656Y9194495D01*
X8882481Y9218320D01*
X8885986Y9220606D01*
X8890101Y9221317D01*
X8894165Y9220250D01*
X8902192Y9216288D01*
X8914688Y9212072D01*
X8927642Y9209481D01*
X8940800Y9208617D01*
X8953957Y9209481D01*
X8966911Y9212072D01*
X8979408Y9216288D01*
X8991244Y9222130D01*
X9002217Y9229445D01*
X9010243Y9236506D01*
X9012529Y9237776D01*
X9013799Y9240062D01*
X9020860Y9248089D01*
X9028176Y9259062D01*
X9034018Y9270898D01*
X9038234Y9283395D01*
X9040825Y9296349D01*
X9041688Y9309811D01*
X9041688Y9359188D01*
X9040825Y9372650D01*
X9038234Y9385604D01*
X9034018Y9398101D01*
X9028176Y9409938D01*
X9020860Y9420910D01*
X9012123Y9430816D01*
X9002217Y9439554D01*
X8991244Y9446869D01*
X8979408Y9452711D01*
X8966911Y9456928D01*
X8953957Y9459518D01*
X8940800Y9460382D01*
X8927642Y9459518D01*
X8914688Y9456928D01*
X8902192Y9452711D01*
X8890355Y9446869D01*
X8879382Y9439554D01*
X8869476Y9430816D01*
X8860739Y9420910D01*
X8853424Y9409938D01*
X8847582Y9398101D01*
X8843365Y9385604D01*
X8840774Y9372650D01*
X8839911Y9359188D01*
X8839911Y9309811D01*
X8840724Y9297162D01*
X8840114Y9292945D01*
X8837777Y9289338D01*
X8796477Y9247987D01*
X8793175Y9245803D01*
X8789263Y9245041D01*
X8783574Y9245041D01*
X8779560Y9245854D01*
X8776208Y9248190D01*
X8774074Y9251696D01*
X8773464Y9255709D01*
X8774480Y9259671D01*
X8780018Y9270898D01*
X8784234Y9283395D01*
X8786825Y9296349D01*
X8787688Y9309811D01*
X8787688Y9359188D01*
X8786825Y9372650D01*
X8784234Y9385604D01*
X8780018Y9398101D01*
X8774176Y9409938D01*
X8766860Y9420910D01*
X8758123Y9430816D01*
X8748217Y9439554D01*
X8737244Y9446869D01*
X8725408Y9452711D01*
X8712911Y9456928D01*
X8699957Y9459518D01*
X8686800Y9460382D01*
X8673642Y9459518D01*
X8660688Y9456928D01*
X8648192Y9452711D01*
X8636355Y9446869D01*
X8625382Y9439554D01*
X8615476Y9430816D01*
X8606739Y9420910D01*
X8599424Y9409938D01*
X8593582Y9398101D01*
X8589365Y9385604D01*
X8586774Y9372650D01*
X8585911Y9359188D01*
X8585911Y9309811D01*
X8586774Y9296349D01*
X8589365Y9283395D01*
X8593582Y9270898D01*
X8599119Y9259671D01*
X8600135Y9255709D01*
X8599525Y9251696D01*
X8597392Y9248190D01*
X8594039Y9245854D01*
X8590026Y9245041D01*
X8553246Y9245041D01*
X8544763Y9244177D01*
X8537092Y9241891D01*
X8526373Y9236202D01*
X8522309Y9235948D01*
X8518448Y9237319D01*
X8515451Y9240062D01*
X8513775Y9243771D01*
X8513673Y9247886D01*
X8515248Y9251645D01*
X8520176Y9259062D01*
X8526018Y9270898D01*
X8530234Y9283395D01*
X8532825Y9296349D01*
X8533688Y9309811D01*
X8533688Y9359188D01*
X8532825Y9372650D01*
X8530234Y9385604D01*
X8526018Y9398101D01*
X8520176Y9409938D01*
X8512860Y9420910D01*
X8504123Y9430816D01*
X8494217Y9439554D01*
X8483244Y9446869D01*
X8471408Y9452711D01*
X8458911Y9456928D01*
X8445957Y9459518D01*
X8432800Y9460382D01*
X8419642Y9459518D01*
X8406688Y9456928D01*
X8394192Y9452711D01*
X8382355Y9446869D01*
X8371382Y9439554D01*
X8361476Y9430816D01*
X8352739Y9420910D01*
X8345424Y9409938D01*
X8339581Y9398101D01*
X8335365Y9385604D01*
X8332774Y9372650D01*
X8331911Y9359188D01*
X8331911Y9309811D01*
X8332774Y9296349D01*
X8335365Y9283395D01*
X8339581Y9270898D01*
X8345424Y9259062D01*
X8352739Y9248089D01*
X8361476Y9238183D01*
X8371382Y9229445D01*
X8382355Y9222130D01*
X8394192Y9216288D01*
X8406688Y9212072D01*
X8419642Y9209481D01*
X8432800Y9208617D01*
X8445957Y9209481D01*
X8458911Y9212072D01*
X8471408Y9216288D01*
X8483244Y9222130D01*
X8486851Y9224518D01*
X8490762Y9226092D01*
X8495030Y9225940D01*
X8498789Y9224010D01*
X8501481Y9220758D01*
X8502599Y9216644D01*
X8501989Y9212478D01*
X8499652Y9208871D01*
X8289696Y8998915D01*
X8284260Y8992311D01*
X8280501Y8985250D01*
X8278164Y8977579D01*
X8277859Y8974480D01*
X8276844Y8970873D01*
X8274558Y8967927D01*
X8271408Y8965996D01*
X8267750Y8965285D01*
X8242604Y8965285D01*
X8236305Y8964574D01*
X8230819Y8962694D01*
X8225942Y8959596D01*
X8221827Y8955481D01*
X8218779Y8950604D01*
X8216849Y8945168D01*
X8216138Y8938818D01*
X8216138Y8639962D01*
X8216849Y8633663D01*
X8218779Y8628176D01*
X8221827Y8623300D01*
X8225942Y8619185D01*
X8230819Y8616086D01*
X8236305Y8614206D01*
G37*
G36*
X14478711Y8674811D02*
G01*
X14528088Y8674811D01*
X14541550Y8675674D01*
X14554504Y8678265D01*
X14567001Y8682482D01*
X14578838Y8688324D01*
X14589810Y8695639D01*
X14599716Y8704376D01*
X14608454Y8714282D01*
X14615769Y8725255D01*
X14621611Y8737092D01*
X14625828Y8749588D01*
X14628418Y8762542D01*
X14629282Y8775700D01*
X14628418Y8788857D01*
X14625828Y8801811D01*
X14621611Y8814308D01*
X14615769Y8826144D01*
X14608454Y8837117D01*
X14599716Y8847023D01*
X14589810Y8855760D01*
X14578838Y8863076D01*
X14567001Y8868918D01*
X14554504Y8873134D01*
X14541550Y8875725D01*
X14528088Y8876588D01*
X14478711Y8876588D01*
X14465249Y8875725D01*
X14452295Y8873134D01*
X14439798Y8868918D01*
X14427962Y8863076D01*
X14416989Y8855760D01*
X14407083Y8847023D01*
X14398345Y8837117D01*
X14391030Y8826144D01*
X14385188Y8814308D01*
X14380972Y8801811D01*
X14378381Y8788857D01*
X14377517Y8775700D01*
X14378381Y8762542D01*
X14380972Y8749588D01*
X14385188Y8737092D01*
X14391030Y8725255D01*
X14398345Y8714282D01*
X14407083Y8704376D01*
X14416989Y8695639D01*
X14427962Y8688324D01*
X14439798Y8682482D01*
X14452295Y8678265D01*
X14465249Y8675674D01*
G37*
G36*
X13685062Y8680043D02*
G01*
X13685062Y8731859D01*
X13625779Y8731859D01*
X13629030Y8725255D01*
X13636345Y8714282D01*
X13645083Y8704376D01*
X13654989Y8695639D01*
X13665962Y8688324D01*
X13677798Y8682482D01*
G37*
G36*
X13797737Y8680043D02*
G01*
X13805001Y8682482D01*
X13816838Y8688324D01*
X13827810Y8695639D01*
X13837716Y8704376D01*
X13846454Y8714282D01*
X13853769Y8725255D01*
X13857020Y8731859D01*
X13797737Y8731859D01*
G37*
G36*
X13797737Y8819540D02*
G01*
X13857020Y8819540D01*
X13853769Y8826144D01*
X13846454Y8837117D01*
X13837716Y8847023D01*
X13827810Y8855760D01*
X13816838Y8863076D01*
X13805001Y8868918D01*
X13797737Y8871356D01*
G37*
G36*
X13625779Y8819540D02*
G01*
X13685062Y8819540D01*
X13685062Y8871356D01*
X13677798Y8868918D01*
X13665962Y8863076D01*
X13654989Y8855760D01*
X13645083Y8847023D01*
X13636345Y8837117D01*
X13629030Y8826144D01*
G37*
G36*
X14478711Y8928811D02*
G01*
X14528088Y8928811D01*
X14541550Y8929674D01*
X14554504Y8932265D01*
X14567001Y8936482D01*
X14578838Y8942324D01*
X14589810Y8949639D01*
X14599716Y8958376D01*
X14608454Y8968282D01*
X14615769Y8979255D01*
X14621611Y8991092D01*
X14625828Y9003588D01*
X14628418Y9016542D01*
X14629282Y9029700D01*
X14628418Y9042857D01*
X14625828Y9055811D01*
X14621611Y9068308D01*
X14615769Y9080144D01*
X14608454Y9091117D01*
X14599716Y9101023D01*
X14589810Y9109760D01*
X14578838Y9117076D01*
X14567001Y9122918D01*
X14554504Y9127134D01*
X14541550Y9129725D01*
X14528088Y9130588D01*
X14478711Y9130588D01*
X14465249Y9129725D01*
X14452295Y9127134D01*
X14439798Y9122918D01*
X14427962Y9117076D01*
X14416989Y9109760D01*
X14407083Y9101023D01*
X14398345Y9091117D01*
X14391030Y9080144D01*
X14385188Y9068308D01*
X14380972Y9055811D01*
X14378381Y9042857D01*
X14377517Y9029700D01*
X14378381Y9016542D01*
X14380972Y9003588D01*
X14385188Y8991092D01*
X14391030Y8979255D01*
X14398345Y8968282D01*
X14407083Y8958376D01*
X14416989Y8949639D01*
X14427962Y8942324D01*
X14439798Y8936482D01*
X14452295Y8932265D01*
X14465249Y8929674D01*
G37*
G36*
X14478711Y9182811D02*
G01*
X14528088Y9182811D01*
X14541550Y9183674D01*
X14554504Y9186265D01*
X14567001Y9190482D01*
X14578838Y9196324D01*
X14589810Y9203639D01*
X14599716Y9212376D01*
X14608454Y9222282D01*
X14615769Y9233255D01*
X14621611Y9245092D01*
X14625828Y9257588D01*
X14628418Y9270542D01*
X14629282Y9283700D01*
X14628418Y9296857D01*
X14625828Y9309811D01*
X14621611Y9322308D01*
X14615769Y9334144D01*
X14608454Y9345117D01*
X14599716Y9355023D01*
X14589810Y9363760D01*
X14578838Y9371076D01*
X14567001Y9376918D01*
X14554504Y9381134D01*
X14541550Y9383725D01*
X14528088Y9384588D01*
X14478711Y9384588D01*
X14465249Y9383725D01*
X14452295Y9381134D01*
X14439798Y9376918D01*
X14427962Y9371076D01*
X14416989Y9363760D01*
X14407083Y9355023D01*
X14398345Y9345117D01*
X14391030Y9334144D01*
X14385188Y9322308D01*
X14380972Y9309811D01*
X14378381Y9296857D01*
X14377517Y9283700D01*
X14378381Y9270542D01*
X14380972Y9257588D01*
X14385188Y9245092D01*
X14391030Y9233255D01*
X14398345Y9222282D01*
X14407083Y9212376D01*
X14416989Y9203639D01*
X14427962Y9196324D01*
X14439798Y9190482D01*
X14452295Y9186265D01*
X14465249Y9183674D01*
G37*
G36*
X8178800Y9208617D02*
G01*
X8191957Y9209481D01*
X8204911Y9212072D01*
X8217408Y9216288D01*
X8229244Y9222130D01*
X8240217Y9229445D01*
X8250123Y9238183D01*
X8258860Y9248089D01*
X8266175Y9259062D01*
X8272018Y9270898D01*
X8276234Y9283395D01*
X8278825Y9296349D01*
X8279688Y9309811D01*
X8279688Y9359188D01*
X8278825Y9372650D01*
X8276234Y9385604D01*
X8272018Y9398101D01*
X8266175Y9409938D01*
X8258860Y9420910D01*
X8250123Y9430816D01*
X8240217Y9439554D01*
X8229244Y9446869D01*
X8217408Y9452711D01*
X8204911Y9456928D01*
X8191957Y9459518D01*
X8178800Y9460382D01*
X8165642Y9459518D01*
X8152688Y9456928D01*
X8140192Y9452711D01*
X8128355Y9446869D01*
X8117382Y9439554D01*
X8107476Y9430816D01*
X8098739Y9420910D01*
X8091424Y9409938D01*
X8085581Y9398101D01*
X8081365Y9385604D01*
X8078774Y9372650D01*
X8077911Y9359188D01*
X8077911Y9309811D01*
X8078774Y9296349D01*
X8081365Y9283395D01*
X8085581Y9270898D01*
X8091424Y9259062D01*
X8098739Y9248089D01*
X8107476Y9238183D01*
X8117382Y9229445D01*
X8128355Y9222130D01*
X8140192Y9216288D01*
X8152688Y9212072D01*
X8165642Y9209481D01*
G37*
G36*
X11722100Y9208617D02*
G01*
X11735257Y9209481D01*
X11748211Y9212072D01*
X11760708Y9216288D01*
X11772544Y9222130D01*
X11783517Y9229445D01*
X11791543Y9236506D01*
X11793829Y9237776D01*
X11795099Y9240062D01*
X11802160Y9248089D01*
X11809476Y9259062D01*
X11815318Y9270898D01*
X11819534Y9283395D01*
X11822125Y9296349D01*
X11822988Y9309811D01*
X11822988Y9359188D01*
X11822125Y9372650D01*
X11819534Y9385604D01*
X11815318Y9398101D01*
X11809476Y9409938D01*
X11802160Y9420910D01*
X11793423Y9430816D01*
X11783517Y9439554D01*
X11772544Y9446869D01*
X11760708Y9452711D01*
X11748211Y9456928D01*
X11735257Y9459518D01*
X11722100Y9460382D01*
X11708942Y9459518D01*
X11695988Y9456928D01*
X11683492Y9452711D01*
X11671655Y9446869D01*
X11660682Y9439554D01*
X11650776Y9430816D01*
X11642039Y9420910D01*
X11634724Y9409938D01*
X11628882Y9398101D01*
X11624665Y9385604D01*
X11622074Y9372650D01*
X11621211Y9359188D01*
X11621211Y9309811D01*
X11622074Y9296349D01*
X11624665Y9283395D01*
X11628882Y9270898D01*
X11634724Y9259062D01*
X11642039Y9248089D01*
X11650776Y9238183D01*
X11660682Y9229445D01*
X11671655Y9222130D01*
X11683492Y9216288D01*
X11695988Y9212072D01*
X11708942Y9209481D01*
G37*
G36*
X7924800Y9208617D02*
G01*
X7937957Y9209481D01*
X7950911Y9212072D01*
X7963408Y9216288D01*
X7975244Y9222130D01*
X7986217Y9229445D01*
X7996123Y9238183D01*
X8004860Y9248089D01*
X8012175Y9259062D01*
X8018018Y9270898D01*
X8022234Y9283395D01*
X8024825Y9296349D01*
X8025688Y9309811D01*
X8025688Y9359188D01*
X8024825Y9372650D01*
X8022234Y9385604D01*
X8018018Y9398101D01*
X8012175Y9409938D01*
X8004860Y9420910D01*
X7996123Y9430816D01*
X7986217Y9439554D01*
X7975244Y9446869D01*
X7963408Y9452711D01*
X7950911Y9456928D01*
X7937957Y9459518D01*
X7924800Y9460382D01*
X7911642Y9459518D01*
X7898688Y9456928D01*
X7886192Y9452711D01*
X7874355Y9446869D01*
X7863382Y9439554D01*
X7853476Y9430816D01*
X7844739Y9420910D01*
X7837424Y9409938D01*
X7831581Y9398101D01*
X7827365Y9385604D01*
X7824774Y9372650D01*
X7823911Y9359188D01*
X7823911Y9309811D01*
X7824774Y9296349D01*
X7827365Y9283395D01*
X7831581Y9270898D01*
X7837424Y9259062D01*
X7844739Y9248089D01*
X7853476Y9238183D01*
X7863382Y9229445D01*
X7874355Y9222130D01*
X7886192Y9216288D01*
X7898688Y9212072D01*
X7911642Y9209481D01*
G37*
G36*
X14478711Y9436811D02*
G01*
X14528088Y9436811D01*
X14541550Y9437674D01*
X14554504Y9440265D01*
X14567001Y9444482D01*
X14578838Y9450324D01*
X14589810Y9457639D01*
X14599716Y9466376D01*
X14608454Y9476282D01*
X14615769Y9487255D01*
X14621611Y9499092D01*
X14625828Y9511588D01*
X14628418Y9524542D01*
X14629282Y9537700D01*
X14628418Y9550857D01*
X14625828Y9563811D01*
X14621611Y9576308D01*
X14615769Y9588144D01*
X14608454Y9599117D01*
X14599716Y9609023D01*
X14589810Y9617760D01*
X14578838Y9625076D01*
X14567001Y9630918D01*
X14554504Y9635134D01*
X14541550Y9637725D01*
X14528088Y9638588D01*
X14478711Y9638588D01*
X14465249Y9637725D01*
X14452295Y9635134D01*
X14439798Y9630918D01*
X14427962Y9625076D01*
X14416989Y9617760D01*
X14408962Y9610699D01*
X14406676Y9609429D01*
X14405406Y9607143D01*
X14398345Y9599117D01*
X14391030Y9588144D01*
X14385188Y9576308D01*
X14380972Y9563811D01*
X14378381Y9550857D01*
X14377517Y9537700D01*
X14378381Y9524542D01*
X14380972Y9511588D01*
X14385188Y9499092D01*
X14391030Y9487255D01*
X14398345Y9476282D01*
X14407083Y9466376D01*
X14416989Y9457639D01*
X14427962Y9450324D01*
X14439798Y9444482D01*
X14452295Y9440265D01*
X14465249Y9437674D01*
G37*
G36*
X9628378Y9970566D02*
G01*
X9777222Y9970566D01*
X9783572Y9971328D01*
X9789007Y9973208D01*
X9793935Y9976307D01*
X9797999Y9980371D01*
X9801098Y9985298D01*
X9802977Y9990734D01*
X9803688Y9997084D01*
X9803688Y10195915D01*
X9802977Y10202265D01*
X9801098Y10207701D01*
X9797999Y10212628D01*
X9793935Y10216692D01*
X9789007Y10219791D01*
X9783572Y10221671D01*
X9777222Y10222382D01*
X9753854Y10222382D01*
X9749993Y10223195D01*
X9746691Y10225379D01*
X9744506Y10228681D01*
X9743694Y10232542D01*
X9743694Y10504271D01*
X9744456Y10508030D01*
X9746538Y10511282D01*
X9749688Y10513517D01*
X9753447Y10514380D01*
X9757257Y10513822D01*
X9760559Y10511891D01*
X9765284Y10507726D01*
X9776815Y10500055D01*
X9789210Y10493908D01*
X9802317Y10489488D01*
X9815931Y10486796D01*
X9829749Y10485882D01*
X9843566Y10486796D01*
X9857130Y10489488D01*
X9870287Y10493908D01*
X9882682Y10500055D01*
X9894214Y10507726D01*
X9904628Y10516870D01*
X9913772Y10527284D01*
X9921443Y10538815D01*
X9927590Y10551210D01*
X9932009Y10564368D01*
X9934702Y10577931D01*
X9935616Y10591749D01*
X9934702Y10605566D01*
X9932009Y10619181D01*
X9927590Y10632287D01*
X9921443Y10644682D01*
X9913772Y10656214D01*
X9904628Y10666628D01*
X9894214Y10675772D01*
X9882682Y10683443D01*
X9870287Y10689590D01*
X9857130Y10694009D01*
X9843566Y10696752D01*
X9829749Y10697616D01*
X9815931Y10696752D01*
X9802317Y10694009D01*
X9789210Y10689590D01*
X9776815Y10683443D01*
X9765284Y10675772D01*
X9760559Y10671606D01*
X9757257Y10669676D01*
X9753447Y10669117D01*
X9749688Y10669981D01*
X9746538Y10672216D01*
X9744456Y10675467D01*
X9743694Y10679277D01*
X9743694Y11988292D01*
X9742881Y11996775D01*
X9740544Y12004446D01*
X9736785Y12011507D01*
X9731349Y12018060D01*
X9678263Y12071146D01*
X9676180Y12074245D01*
X9675317Y12077903D01*
X9675825Y12081611D01*
X9678111Y12088368D01*
X9680854Y12101931D01*
X9681718Y12115749D01*
X9680854Y12129566D01*
X9678111Y12143181D01*
X9673691Y12156287D01*
X9667544Y12168682D01*
X9659874Y12180214D01*
X9650730Y12190628D01*
X9640316Y12199772D01*
X9628784Y12207443D01*
X9616389Y12213590D01*
X9603232Y12218009D01*
X9589668Y12220752D01*
X9575850Y12221616D01*
X9562033Y12220752D01*
X9548469Y12218009D01*
X9535312Y12213590D01*
X9522917Y12207443D01*
X9511385Y12199772D01*
X9500971Y12190628D01*
X9491827Y12180214D01*
X9484156Y12168682D01*
X9478010Y12156287D01*
X9473590Y12143181D01*
X9470847Y12129566D01*
X9469983Y12115749D01*
X9470847Y12101931D01*
X9473590Y12088368D01*
X9478010Y12075210D01*
X9484156Y12062815D01*
X9491827Y12051284D01*
X9500971Y12040870D01*
X9511385Y12031726D01*
X9522917Y12024055D01*
X9535312Y12017908D01*
X9548469Y12013488D01*
X9562033Y12010796D01*
X9575850Y12009882D01*
X9589668Y12010796D01*
X9603232Y12013488D01*
X9609988Y12015774D01*
X9613696Y12016282D01*
X9617354Y12015419D01*
X9620402Y12013336D01*
X9658908Y11974830D01*
X9661144Y11971528D01*
X9661906Y11967667D01*
X9661906Y10679277D01*
X9661144Y10675467D01*
X9659061Y10672216D01*
X9655911Y10669981D01*
X9652152Y10669117D01*
X9648342Y10669676D01*
X9645040Y10671606D01*
X9640265Y10675823D01*
X9628733Y10683494D01*
X9616338Y10689640D01*
X9603181Y10694060D01*
X9589617Y10696803D01*
X9575800Y10697667D01*
X9561982Y10696803D01*
X9548368Y10694060D01*
X9535261Y10689640D01*
X9522866Y10683494D01*
X9511334Y10675823D01*
X9506559Y10671606D01*
X9503257Y10669676D01*
X9499447Y10669117D01*
X9495688Y10670032D01*
X9492538Y10672216D01*
X9490456Y10675467D01*
X9489694Y10679277D01*
X9489694Y11988292D01*
X9488881Y11996775D01*
X9486544Y12004446D01*
X9482785Y12011507D01*
X9477349Y12018060D01*
X9424212Y12071197D01*
X9422130Y12074296D01*
X9421266Y12077954D01*
X9421774Y12081662D01*
X9424060Y12088418D01*
X9426803Y12101982D01*
X9427667Y12115800D01*
X9426803Y12129617D01*
X9424060Y12143232D01*
X9419640Y12156338D01*
X9413494Y12168733D01*
X9405823Y12180265D01*
X9396679Y12190679D01*
X9386265Y12199823D01*
X9374733Y12207494D01*
X9362338Y12213640D01*
X9349232Y12218060D01*
X9335617Y12220803D01*
X9321800Y12221667D01*
X9307982Y12220803D01*
X9294418Y12218060D01*
X9281261Y12213640D01*
X9268866Y12207494D01*
X9257334Y12199823D01*
X9246920Y12190679D01*
X9237776Y12180265D01*
X9230106Y12168733D01*
X9223959Y12156338D01*
X9219539Y12143232D01*
X9216847Y12129617D01*
X9215932Y12115800D01*
X9216847Y12101982D01*
X9219539Y12088418D01*
X9223959Y12075261D01*
X9230106Y12062866D01*
X9237776Y12051334D01*
X9246920Y12040920D01*
X9257334Y12031776D01*
X9268866Y12024106D01*
X9281261Y12017959D01*
X9294418Y12013539D01*
X9307982Y12010847D01*
X9321800Y12009932D01*
X9335617Y12010847D01*
X9349232Y12013539D01*
X9355937Y12015825D01*
X9359646Y12016333D01*
X9363303Y12015470D01*
X9366402Y12013387D01*
X9404908Y11974830D01*
X9407144Y11971528D01*
X9407906Y11967667D01*
X9407906Y10679176D01*
X9407144Y10675366D01*
X9405061Y10672114D01*
X9401911Y10669930D01*
X9398152Y10669016D01*
X9394342Y10669574D01*
X9391040Y10671505D01*
X9386214Y10675772D01*
X9374682Y10683443D01*
X9362287Y10689590D01*
X9349130Y10694009D01*
X9335566Y10696752D01*
X9321749Y10697616D01*
X9307931Y10696752D01*
X9294317Y10694009D01*
X9281210Y10689590D01*
X9268815Y10683443D01*
X9257284Y10675772D01*
X9252559Y10671606D01*
X9249257Y10669676D01*
X9245447Y10669117D01*
X9241688Y10669981D01*
X9238538Y10672216D01*
X9236456Y10675467D01*
X9235694Y10679277D01*
X9235694Y11988292D01*
X9234881Y11996775D01*
X9232544Y12004446D01*
X9228785Y12011507D01*
X9223349Y12018060D01*
X9170263Y12071146D01*
X9168180Y12074245D01*
X9167317Y12077903D01*
X9167825Y12081611D01*
X9170111Y12088368D01*
X9172854Y12101931D01*
X9173718Y12115749D01*
X9172854Y12129566D01*
X9170111Y12143181D01*
X9165691Y12156287D01*
X9159544Y12168682D01*
X9151874Y12180214D01*
X9142730Y12190628D01*
X9132316Y12199772D01*
X9120784Y12207443D01*
X9108389Y12213590D01*
X9095232Y12218009D01*
X9081668Y12220752D01*
X9067850Y12221616D01*
X9054033Y12220752D01*
X9040469Y12218009D01*
X9027312Y12213590D01*
X9014917Y12207443D01*
X9003385Y12199772D01*
X8992971Y12190628D01*
X8983827Y12180214D01*
X8976156Y12168682D01*
X8970010Y12156287D01*
X8965590Y12143181D01*
X8962847Y12129566D01*
X8961983Y12115749D01*
X8962847Y12101931D01*
X8965590Y12088368D01*
X8970010Y12075210D01*
X8976156Y12062815D01*
X8983827Y12051284D01*
X8992971Y12040870D01*
X9003385Y12031726D01*
X9014917Y12024055D01*
X9027312Y12017908D01*
X9040469Y12013488D01*
X9054033Y12010796D01*
X9067850Y12009882D01*
X9081668Y12010796D01*
X9095232Y12013488D01*
X9101988Y12015774D01*
X9105696Y12016282D01*
X9109354Y12015419D01*
X9112402Y12013336D01*
X9150908Y11974830D01*
X9153144Y11971528D01*
X9153906Y11967667D01*
X9153906Y10679277D01*
X9153144Y10675467D01*
X9151061Y10672216D01*
X9147911Y10669981D01*
X9144152Y10669117D01*
X9140342Y10669676D01*
X9137040Y10671606D01*
X9132265Y10675823D01*
X9120733Y10683494D01*
X9108338Y10689640D01*
X9095181Y10694060D01*
X9081617Y10696803D01*
X9067800Y10697667D01*
X9053982Y10696803D01*
X9040368Y10694060D01*
X9027261Y10689640D01*
X9014866Y10683494D01*
X9003334Y10675823D01*
X8998559Y10671606D01*
X8995257Y10669676D01*
X8991447Y10669117D01*
X8987688Y10670032D01*
X8984538Y10672216D01*
X8982456Y10675467D01*
X8981694Y10679277D01*
X8981694Y11988292D01*
X8980881Y11996775D01*
X8978544Y12004446D01*
X8974785Y12011507D01*
X8969349Y12018060D01*
X8916212Y12071197D01*
X8914130Y12074296D01*
X8913266Y12077954D01*
X8913774Y12081662D01*
X8916060Y12088418D01*
X8918803Y12101982D01*
X8919667Y12115800D01*
X8918803Y12129617D01*
X8916060Y12143232D01*
X8911640Y12156338D01*
X8905494Y12168733D01*
X8897823Y12180265D01*
X8888679Y12190679D01*
X8878265Y12199823D01*
X8866733Y12207494D01*
X8854338Y12213640D01*
X8841232Y12218060D01*
X8827617Y12220803D01*
X8813800Y12221667D01*
X8799982Y12220803D01*
X8786418Y12218060D01*
X8773261Y12213640D01*
X8760866Y12207494D01*
X8749334Y12199823D01*
X8738920Y12190679D01*
X8729776Y12180265D01*
X8722106Y12168733D01*
X8715959Y12156338D01*
X8711539Y12143232D01*
X8708847Y12129617D01*
X8707932Y12115800D01*
X8708847Y12101982D01*
X8711539Y12088418D01*
X8715959Y12075261D01*
X8722106Y12062866D01*
X8729776Y12051334D01*
X8738920Y12040920D01*
X8749334Y12031776D01*
X8760866Y12024106D01*
X8773261Y12017959D01*
X8786418Y12013539D01*
X8799982Y12010847D01*
X8813800Y12009932D01*
X8827617Y12010847D01*
X8841232Y12013539D01*
X8847937Y12015825D01*
X8851646Y12016333D01*
X8855303Y12015470D01*
X8858402Y12013387D01*
X8896908Y11974830D01*
X8899144Y11971528D01*
X8899906Y11967667D01*
X8899906Y10679176D01*
X8899144Y10675366D01*
X8897061Y10672114D01*
X8893911Y10669930D01*
X8890152Y10669016D01*
X8886342Y10669574D01*
X8883040Y10671505D01*
X8878214Y10675772D01*
X8866682Y10683443D01*
X8854287Y10689590D01*
X8841130Y10694009D01*
X8827566Y10696752D01*
X8813749Y10697616D01*
X8799931Y10696752D01*
X8786317Y10694009D01*
X8773210Y10689590D01*
X8760815Y10683443D01*
X8749284Y10675772D01*
X8738870Y10666628D01*
X8729726Y10656214D01*
X8722055Y10644682D01*
X8715908Y10632287D01*
X8711488Y10619181D01*
X8708745Y10605566D01*
X8707882Y10591749D01*
X8708745Y10577931D01*
X8711488Y10564368D01*
X8715908Y10551210D01*
X8722055Y10538815D01*
X8729726Y10527284D01*
X8738870Y10516870D01*
X8749284Y10507726D01*
X8760815Y10500055D01*
X8773210Y10493908D01*
X8786317Y10489488D01*
X8799931Y10486796D01*
X8813749Y10485882D01*
X8827566Y10486796D01*
X8841130Y10489488D01*
X8854287Y10493908D01*
X8866682Y10500055D01*
X8878214Y10507726D01*
X8883040Y10511993D01*
X8886342Y10513923D01*
X8890152Y10514482D01*
X8893911Y10513618D01*
X8897061Y10511383D01*
X8899144Y10508132D01*
X8899906Y10504322D01*
X8899906Y10219893D01*
X8899194Y10216184D01*
X8897213Y10213035D01*
X8894216Y10210800D01*
X8890355Y10208869D01*
X8879382Y10201554D01*
X8869476Y10192816D01*
X8860739Y10182910D01*
X8853424Y10171938D01*
X8847582Y10160101D01*
X8843365Y10147604D01*
X8840774Y10134650D01*
X8839911Y10121188D01*
X8839911Y10071811D01*
X8840774Y10058349D01*
X8843365Y10045395D01*
X8847582Y10032898D01*
X8853424Y10021062D01*
X8860739Y10010089D01*
X8869476Y10000183D01*
X8879382Y9991445D01*
X8890355Y9984130D01*
X8902192Y9978288D01*
X8914688Y9974072D01*
X8927642Y9971481D01*
X8940800Y9970617D01*
X8953957Y9971481D01*
X8966911Y9974072D01*
X8979408Y9978288D01*
X8991244Y9984130D01*
X9002217Y9991445D01*
X9012123Y10000183D01*
X9020860Y10010089D01*
X9028176Y10021062D01*
X9034018Y10032898D01*
X9038234Y10045395D01*
X9040825Y10058349D01*
X9041688Y10071811D01*
X9041688Y10121188D01*
X9040825Y10134650D01*
X9038234Y10147604D01*
X9034018Y10160101D01*
X9028176Y10171938D01*
X9020860Y10182910D01*
X9012123Y10192816D01*
X9002217Y10201554D01*
X8991244Y10208869D01*
X8987383Y10210800D01*
X8984386Y10213035D01*
X8982405Y10216184D01*
X8981694Y10219893D01*
X8981694Y10504322D01*
X8982456Y10508132D01*
X8984538Y10511383D01*
X8987688Y10513618D01*
X8991447Y10514482D01*
X8995257Y10513923D01*
X8998559Y10511993D01*
X9003334Y10507776D01*
X9014866Y10500106D01*
X9027261Y10493959D01*
X9040368Y10489539D01*
X9053982Y10486847D01*
X9067800Y10485932D01*
X9081617Y10486847D01*
X9095181Y10489539D01*
X9108338Y10493959D01*
X9120733Y10500106D01*
X9132265Y10507776D01*
X9137040Y10511993D01*
X9140342Y10513923D01*
X9144152Y10514482D01*
X9147911Y10513618D01*
X9151061Y10511383D01*
X9153144Y10508132D01*
X9153906Y10504373D01*
X9153906Y10219893D01*
X9153194Y10216184D01*
X9151213Y10213035D01*
X9148216Y10210800D01*
X9144355Y10208869D01*
X9133382Y10201554D01*
X9123476Y10192816D01*
X9114739Y10182910D01*
X9107424Y10171938D01*
X9101582Y10160101D01*
X9097365Y10147604D01*
X9094774Y10134650D01*
X9093911Y10121188D01*
X9093911Y10071811D01*
X9094774Y10058349D01*
X9097365Y10045395D01*
X9101582Y10032898D01*
X9107424Y10021062D01*
X9114739Y10010089D01*
X9123476Y10000183D01*
X9133382Y9991445D01*
X9144355Y9984130D01*
X9156192Y9978288D01*
X9168688Y9974072D01*
X9181642Y9971481D01*
X9194800Y9970617D01*
X9207957Y9971481D01*
X9220911Y9974072D01*
X9233408Y9978288D01*
X9245244Y9984130D01*
X9256217Y9991445D01*
X9266123Y10000183D01*
X9274860Y10010089D01*
X9282176Y10021062D01*
X9288018Y10032898D01*
X9292234Y10045395D01*
X9294825Y10058349D01*
X9295688Y10071811D01*
X9295688Y10121188D01*
X9294825Y10134650D01*
X9292234Y10147604D01*
X9288018Y10160101D01*
X9282176Y10171938D01*
X9274860Y10182910D01*
X9266123Y10192816D01*
X9256217Y10201554D01*
X9245244Y10208869D01*
X9241383Y10210800D01*
X9238386Y10213035D01*
X9236405Y10216184D01*
X9235694Y10219893D01*
X9235694Y10504271D01*
X9236456Y10508030D01*
X9238538Y10511282D01*
X9241688Y10513517D01*
X9245447Y10514380D01*
X9249257Y10513822D01*
X9252559Y10511891D01*
X9257284Y10507726D01*
X9268815Y10500055D01*
X9281210Y10493908D01*
X9294317Y10489488D01*
X9307931Y10486796D01*
X9321749Y10485882D01*
X9335566Y10486796D01*
X9349130Y10489488D01*
X9362287Y10493908D01*
X9374682Y10500055D01*
X9386214Y10507726D01*
X9391040Y10511993D01*
X9394342Y10513923D01*
X9398152Y10514482D01*
X9401911Y10513618D01*
X9405061Y10511383D01*
X9407144Y10508132D01*
X9407906Y10504322D01*
X9407906Y10219893D01*
X9407194Y10216184D01*
X9405213Y10213035D01*
X9402216Y10210800D01*
X9398355Y10208869D01*
X9387382Y10201554D01*
X9377476Y10192816D01*
X9368739Y10182910D01*
X9361424Y10171938D01*
X9355582Y10160101D01*
X9351365Y10147604D01*
X9348774Y10134650D01*
X9347911Y10121188D01*
X9347911Y10071811D01*
X9348774Y10058349D01*
X9351365Y10045395D01*
X9355582Y10032898D01*
X9361424Y10021062D01*
X9368739Y10010089D01*
X9377476Y10000183D01*
X9387382Y9991445D01*
X9398355Y9984130D01*
X9410192Y9978288D01*
X9422688Y9974072D01*
X9435642Y9971481D01*
X9448800Y9970617D01*
X9461957Y9971481D01*
X9474911Y9974072D01*
X9487408Y9978288D01*
X9499244Y9984130D01*
X9510217Y9991445D01*
X9520123Y10000183D01*
X9528860Y10010089D01*
X9536176Y10021062D01*
X9542018Y10032898D01*
X9546234Y10045395D01*
X9548825Y10058349D01*
X9549688Y10071811D01*
X9549688Y10121188D01*
X9548825Y10134650D01*
X9546234Y10147604D01*
X9542018Y10160101D01*
X9536176Y10171938D01*
X9528860Y10182910D01*
X9520123Y10192816D01*
X9510217Y10201554D01*
X9499244Y10208869D01*
X9495383Y10210800D01*
X9492386Y10213035D01*
X9490405Y10216184D01*
X9489694Y10219893D01*
X9489694Y10504322D01*
X9490456Y10508132D01*
X9492538Y10511383D01*
X9495688Y10513618D01*
X9499447Y10514482D01*
X9503257Y10513923D01*
X9506559Y10511993D01*
X9511334Y10507776D01*
X9522866Y10500106D01*
X9535261Y10493959D01*
X9548368Y10489539D01*
X9561982Y10486847D01*
X9575800Y10485932D01*
X9589617Y10486847D01*
X9603181Y10489539D01*
X9616338Y10493959D01*
X9628733Y10500106D01*
X9640265Y10507776D01*
X9645040Y10511993D01*
X9648342Y10513923D01*
X9652152Y10514482D01*
X9655911Y10513618D01*
X9659061Y10511383D01*
X9661144Y10508132D01*
X9661906Y10504373D01*
X9661906Y10232542D01*
X9661144Y10228681D01*
X9658908Y10225379D01*
X9655606Y10223195D01*
X9651746Y10222382D01*
X9628378Y10222382D01*
X9622028Y10221671D01*
X9616592Y10219791D01*
X9611664Y10216692D01*
X9607600Y10212628D01*
X9604502Y10207701D01*
X9602622Y10202265D01*
X9601911Y10195915D01*
X9601911Y9997084D01*
X9602622Y9990734D01*
X9604502Y9985298D01*
X9607600Y9980371D01*
X9611664Y9976307D01*
X9616592Y9973208D01*
X9622028Y9971328D01*
G37*
G36*
X10452100Y9970617D02*
G01*
X10465257Y9971481D01*
X10478211Y9974072D01*
X10490708Y9978288D01*
X10502544Y9984130D01*
X10513517Y9991445D01*
X10523423Y10000183D01*
X10532160Y10010089D01*
X10539476Y10021062D01*
X10545318Y10032898D01*
X10549534Y10045395D01*
X10552125Y10058349D01*
X10552988Y10071811D01*
X10552988Y10121188D01*
X10552125Y10134650D01*
X10549534Y10147604D01*
X10545318Y10160101D01*
X10539476Y10171938D01*
X10532160Y10182910D01*
X10523423Y10192816D01*
X10513517Y10201554D01*
X10502544Y10208869D01*
X10490708Y10214711D01*
X10478211Y10218928D01*
X10465257Y10221518D01*
X10452100Y10222382D01*
X10438942Y10221518D01*
X10425988Y10218928D01*
X10413492Y10214711D01*
X10401655Y10208869D01*
X10390682Y10201554D01*
X10380776Y10192816D01*
X10372039Y10182910D01*
X10364724Y10171938D01*
X10358882Y10160101D01*
X10354665Y10147604D01*
X10352074Y10134650D01*
X10351211Y10121188D01*
X10351211Y10071811D01*
X10352074Y10058349D01*
X10354665Y10045395D01*
X10358882Y10032898D01*
X10364724Y10021062D01*
X10372039Y10010089D01*
X10380776Y10000183D01*
X10390682Y9991445D01*
X10401655Y9984130D01*
X10413492Y9978288D01*
X10425988Y9974072D01*
X10438942Y9971481D01*
G37*
G36*
X8686800Y9970617D02*
G01*
X8699957Y9971481D01*
X8712911Y9974072D01*
X8725408Y9978288D01*
X8737244Y9984130D01*
X8748217Y9991445D01*
X8758123Y10000183D01*
X8766860Y10010089D01*
X8774176Y10021062D01*
X8780018Y10032898D01*
X8784234Y10045395D01*
X8786825Y10058349D01*
X8787688Y10071811D01*
X8787688Y10121188D01*
X8786825Y10134650D01*
X8784234Y10147604D01*
X8780018Y10160101D01*
X8774176Y10171938D01*
X8766860Y10182910D01*
X8758123Y10192816D01*
X8748217Y10201554D01*
X8737244Y10208869D01*
X8725408Y10214711D01*
X8712911Y10218928D01*
X8699957Y10221518D01*
X8686800Y10222382D01*
X8673642Y10221518D01*
X8660688Y10218928D01*
X8648192Y10214711D01*
X8636355Y10208869D01*
X8625382Y10201554D01*
X8615476Y10192816D01*
X8606739Y10182910D01*
X8599424Y10171938D01*
X8593582Y10160101D01*
X8589365Y10147604D01*
X8586774Y10134650D01*
X8585911Y10121188D01*
X8585911Y10071811D01*
X8586774Y10058349D01*
X8589365Y10045395D01*
X8593582Y10032898D01*
X8599424Y10021062D01*
X8606739Y10010089D01*
X8615476Y10000183D01*
X8625382Y9991445D01*
X8636355Y9984130D01*
X8648192Y9978288D01*
X8660688Y9974072D01*
X8673642Y9971481D01*
G37*
G36*
X8432800Y9970617D02*
G01*
X8445957Y9971481D01*
X8458911Y9974072D01*
X8471408Y9978288D01*
X8483244Y9984130D01*
X8494217Y9991445D01*
X8504123Y10000183D01*
X8512860Y10010089D01*
X8520176Y10021062D01*
X8526018Y10032898D01*
X8530234Y10045395D01*
X8532825Y10058349D01*
X8533688Y10071811D01*
X8533688Y10121188D01*
X8532825Y10134650D01*
X8530234Y10147604D01*
X8526018Y10160101D01*
X8520176Y10171938D01*
X8512860Y10182910D01*
X8504123Y10192816D01*
X8494217Y10201554D01*
X8483244Y10208869D01*
X8471408Y10214711D01*
X8458911Y10218928D01*
X8445957Y10221518D01*
X8432800Y10222382D01*
X8419642Y10221518D01*
X8406688Y10218928D01*
X8394192Y10214711D01*
X8382355Y10208869D01*
X8371382Y10201554D01*
X8361476Y10192816D01*
X8352739Y10182910D01*
X8345424Y10171938D01*
X8339581Y10160101D01*
X8335365Y10147604D01*
X8332774Y10134650D01*
X8331911Y10121188D01*
X8331911Y10071811D01*
X8332774Y10058349D01*
X8335365Y10045395D01*
X8339581Y10032898D01*
X8345424Y10021062D01*
X8352739Y10010089D01*
X8361476Y10000183D01*
X8371382Y9991445D01*
X8382355Y9984130D01*
X8394192Y9978288D01*
X8406688Y9974072D01*
X8419642Y9971481D01*
G37*
G36*
X10960100Y9970617D02*
G01*
X10973257Y9971481D01*
X10986211Y9974072D01*
X10998708Y9978288D01*
X11010544Y9984130D01*
X11021517Y9991445D01*
X11031423Y10000183D01*
X11040160Y10010089D01*
X11047476Y10021062D01*
X11053318Y10032898D01*
X11057534Y10045395D01*
X11060125Y10058349D01*
X11060988Y10071811D01*
X11060988Y10121188D01*
X11060125Y10134650D01*
X11057534Y10147604D01*
X11053318Y10160101D01*
X11047476Y10171938D01*
X11040160Y10182910D01*
X11031423Y10192816D01*
X11021517Y10201554D01*
X11010544Y10208869D01*
X10998708Y10214711D01*
X10986211Y10218928D01*
X10973257Y10221518D01*
X10960100Y10222382D01*
X10946942Y10221518D01*
X10933988Y10218928D01*
X10921492Y10214711D01*
X10909655Y10208869D01*
X10898682Y10201554D01*
X10888776Y10192816D01*
X10880039Y10182910D01*
X10872724Y10171938D01*
X10866882Y10160101D01*
X10862665Y10147604D01*
X10860074Y10134650D01*
X10859211Y10121188D01*
X10859211Y10071811D01*
X10860074Y10058349D01*
X10862665Y10045395D01*
X10866882Y10032898D01*
X10872724Y10021062D01*
X10880039Y10010089D01*
X10888776Y10000183D01*
X10898682Y9991445D01*
X10909655Y9984130D01*
X10921492Y9978288D01*
X10933988Y9974072D01*
X10946942Y9971481D01*
G37*
G36*
X10706100Y9970617D02*
G01*
X10719257Y9971481D01*
X10732211Y9974072D01*
X10744708Y9978288D01*
X10756544Y9984130D01*
X10767517Y9991445D01*
X10777423Y10000183D01*
X10786160Y10010089D01*
X10793476Y10021062D01*
X10799318Y10032898D01*
X10803534Y10045395D01*
X10806125Y10058349D01*
X10806988Y10071811D01*
X10806988Y10121188D01*
X10806125Y10134650D01*
X10803534Y10147604D01*
X10799318Y10160101D01*
X10793476Y10171938D01*
X10786160Y10182910D01*
X10777423Y10192816D01*
X10767517Y10201554D01*
X10756544Y10208869D01*
X10744708Y10214711D01*
X10732211Y10218928D01*
X10719257Y10221518D01*
X10706100Y10222382D01*
X10692942Y10221518D01*
X10679988Y10218928D01*
X10667492Y10214711D01*
X10655655Y10208869D01*
X10644682Y10201554D01*
X10634776Y10192816D01*
X10626039Y10182910D01*
X10618724Y10171938D01*
X10612882Y10160101D01*
X10608665Y10147604D01*
X10606074Y10134650D01*
X10605211Y10121188D01*
X10605211Y10071811D01*
X10606074Y10058349D01*
X10608665Y10045395D01*
X10612882Y10032898D01*
X10618724Y10021062D01*
X10626039Y10010089D01*
X10634776Y10000183D01*
X10644682Y9991445D01*
X10655655Y9984130D01*
X10667492Y9978288D01*
X10679988Y9974072D01*
X10692942Y9971481D01*
G37*
G36*
X8178800Y9970617D02*
G01*
X8191957Y9971481D01*
X8204911Y9974072D01*
X8217408Y9978288D01*
X8229244Y9984130D01*
X8240217Y9991445D01*
X8250123Y10000183D01*
X8258860Y10010089D01*
X8266175Y10021062D01*
X8272018Y10032898D01*
X8276234Y10045395D01*
X8278825Y10058349D01*
X8279688Y10071811D01*
X8279688Y10121188D01*
X8278825Y10134650D01*
X8276234Y10147604D01*
X8272018Y10160101D01*
X8266175Y10171938D01*
X8258860Y10182910D01*
X8250123Y10192816D01*
X8240217Y10201554D01*
X8229244Y10208869D01*
X8217408Y10214711D01*
X8204911Y10218928D01*
X8191957Y10221518D01*
X8178800Y10222382D01*
X8165642Y10221518D01*
X8152688Y10218928D01*
X8140192Y10214711D01*
X8128355Y10208869D01*
X8117382Y10201554D01*
X8107476Y10192816D01*
X8098739Y10182910D01*
X8091424Y10171938D01*
X8085581Y10160101D01*
X8081365Y10147604D01*
X8078774Y10134650D01*
X8077911Y10121188D01*
X8077911Y10071811D01*
X8078774Y10058349D01*
X8081365Y10045395D01*
X8085581Y10032898D01*
X8091424Y10021062D01*
X8098739Y10010089D01*
X8107476Y10000183D01*
X8117382Y9991445D01*
X8128355Y9984130D01*
X8140192Y9978288D01*
X8152688Y9974072D01*
X8165642Y9971481D01*
G37*
G36*
X11214100Y9970617D02*
G01*
X11227257Y9971481D01*
X11240211Y9974072D01*
X11252708Y9978288D01*
X11264544Y9984130D01*
X11275517Y9991445D01*
X11285423Y10000183D01*
X11294160Y10010089D01*
X11301476Y10021062D01*
X11307318Y10032898D01*
X11311534Y10045395D01*
X11314125Y10058349D01*
X11314988Y10071811D01*
X11314988Y10121188D01*
X11314125Y10134650D01*
X11311534Y10147604D01*
X11307318Y10160101D01*
X11301476Y10171938D01*
X11294160Y10182910D01*
X11285423Y10192816D01*
X11275517Y10201554D01*
X11264544Y10208869D01*
X11260683Y10210800D01*
X11257686Y10213035D01*
X11255705Y10216184D01*
X11254994Y10219893D01*
X11254994Y10517225D01*
X11255806Y10521188D01*
X11258143Y10524540D01*
X11261598Y10526725D01*
X11265611Y10527334D01*
X11269573Y10526369D01*
X11272824Y10523931D01*
X11278920Y10516920D01*
X11289334Y10507776D01*
X11300866Y10500106D01*
X11307470Y10496854D01*
X11307470Y10545470D01*
X11265154Y10545470D01*
X11261293Y10546232D01*
X11257991Y10548416D01*
X11255806Y10551718D01*
X11254994Y10555630D01*
X11254994Y10627969D01*
X11255806Y10631881D01*
X11257991Y10635183D01*
X11261293Y10637367D01*
X11265154Y10638129D01*
X11307470Y10638129D01*
X11307470Y10686745D01*
X11300866Y10683494D01*
X11289334Y10675823D01*
X11278920Y10666679D01*
X11272824Y10659668D01*
X11269573Y10657230D01*
X11265611Y10656265D01*
X11261598Y10656874D01*
X11258143Y10659059D01*
X11255806Y10662412D01*
X11254994Y10666374D01*
X11254994Y10730992D01*
X11254181Y10739475D01*
X11251844Y10747146D01*
X11248085Y10754207D01*
X11242649Y10760760D01*
X9932212Y12071197D01*
X9930130Y12074296D01*
X9929266Y12077954D01*
X9929774Y12081662D01*
X9932060Y12088418D01*
X9934803Y12101982D01*
X9935667Y12115800D01*
X9934803Y12129617D01*
X9932060Y12143232D01*
X9927640Y12156338D01*
X9921494Y12168733D01*
X9913823Y12180265D01*
X9904679Y12190679D01*
X9894265Y12199823D01*
X9882733Y12207494D01*
X9870338Y12213640D01*
X9857232Y12218060D01*
X9843617Y12220803D01*
X9829800Y12221667D01*
X9815982Y12220803D01*
X9802418Y12218060D01*
X9789261Y12213640D01*
X9776866Y12207494D01*
X9765334Y12199823D01*
X9754920Y12190679D01*
X9745776Y12180265D01*
X9738106Y12168733D01*
X9731959Y12156338D01*
X9727539Y12143232D01*
X9724847Y12129617D01*
X9723932Y12115800D01*
X9724847Y12101982D01*
X9727539Y12088418D01*
X9731959Y12075261D01*
X9738106Y12062866D01*
X9745776Y12051334D01*
X9754920Y12040920D01*
X9765334Y12031776D01*
X9776866Y12024106D01*
X9789261Y12017959D01*
X9802418Y12013539D01*
X9815982Y12010847D01*
X9829800Y12009932D01*
X9843617Y12010847D01*
X9857232Y12013539D01*
X9863937Y12015825D01*
X9867646Y12016333D01*
X9871303Y12015470D01*
X9874402Y12013387D01*
X11170208Y10717530D01*
X11172444Y10714228D01*
X11173206Y10710367D01*
X11173206Y10688828D01*
X11172240Y10684611D01*
X11169650Y10681106D01*
X11165789Y10679074D01*
X11161420Y10678820D01*
X11157407Y10680395D01*
X11152733Y10683494D01*
X11140338Y10689640D01*
X11127181Y10694060D01*
X11113617Y10696803D01*
X11099800Y10697667D01*
X11085982Y10696803D01*
X11072368Y10694060D01*
X11059261Y10689640D01*
X11046866Y10683494D01*
X11035334Y10675823D01*
X11024920Y10666679D01*
X11015776Y10656265D01*
X11008106Y10644733D01*
X11001959Y10632338D01*
X10997539Y10619232D01*
X10994796Y10605617D01*
X10993882Y10591800D01*
X10994796Y10577982D01*
X10997539Y10564418D01*
X11001959Y10551261D01*
X11008106Y10538866D01*
X11015776Y10527334D01*
X11024920Y10516920D01*
X11035334Y10507776D01*
X11046866Y10500106D01*
X11059261Y10493959D01*
X11072368Y10489539D01*
X11085982Y10486847D01*
X11099800Y10485932D01*
X11113617Y10486847D01*
X11127181Y10489539D01*
X11140338Y10493959D01*
X11152733Y10500106D01*
X11157407Y10503204D01*
X11161420Y10504779D01*
X11165789Y10504525D01*
X11169650Y10502493D01*
X11172240Y10499039D01*
X11173206Y10494772D01*
X11173206Y10219893D01*
X11172494Y10216184D01*
X11170513Y10213035D01*
X11167516Y10210800D01*
X11163655Y10208869D01*
X11152682Y10201554D01*
X11142776Y10192816D01*
X11134039Y10182910D01*
X11126724Y10171938D01*
X11120882Y10160101D01*
X11116665Y10147604D01*
X11114074Y10134650D01*
X11113211Y10121188D01*
X11113211Y10071811D01*
X11114074Y10058349D01*
X11116665Y10045395D01*
X11120882Y10032898D01*
X11126724Y10021062D01*
X11134039Y10010089D01*
X11142776Y10000183D01*
X11152682Y9991445D01*
X11163655Y9984130D01*
X11175492Y9978288D01*
X11187988Y9974072D01*
X11200942Y9971481D01*
G37*
G36*
X10241940Y9980879D02*
G01*
X10248544Y9984130D01*
X10259517Y9991445D01*
X10269423Y10000183D01*
X10278160Y10010089D01*
X10285476Y10021062D01*
X10291318Y10032898D01*
X10293756Y10040162D01*
X10241940Y10040162D01*
G37*
G36*
X10154259Y9980879D02*
G01*
X10154259Y10040162D01*
X10102443Y10040162D01*
X10104882Y10032898D01*
X10110724Y10021062D01*
X10118039Y10010089D01*
X10126776Y10000183D01*
X10136682Y9991445D01*
X10147655Y9984130D01*
G37*
G36*
X7968640Y9980879D02*
G01*
X7975244Y9984130D01*
X7986217Y9991445D01*
X7996123Y10000183D01*
X8004860Y10010089D01*
X8012175Y10021062D01*
X8018018Y10032898D01*
X8020456Y10040162D01*
X7968640Y10040162D01*
G37*
G36*
X7880959Y9980879D02*
G01*
X7880959Y10040162D01*
X7829143Y10040162D01*
X7831581Y10032898D01*
X7837424Y10021062D01*
X7844739Y10010089D01*
X7853476Y10000183D01*
X7863382Y9991445D01*
X7874355Y9984130D01*
G37*
G36*
X10241940Y10152837D02*
G01*
X10293756Y10152837D01*
X10291318Y10160101D01*
X10285476Y10171938D01*
X10278160Y10182910D01*
X10269423Y10192816D01*
X10259517Y10201554D01*
X10248544Y10208869D01*
X10241940Y10212120D01*
G37*
G36*
X10102443Y10152837D02*
G01*
X10154259Y10152837D01*
X10154259Y10212120D01*
X10147655Y10208869D01*
X10136682Y10201554D01*
X10126776Y10192816D01*
X10118039Y10182910D01*
X10110724Y10171938D01*
X10104882Y10160101D01*
G37*
G36*
X7829143Y10152837D02*
G01*
X7880959Y10152837D01*
X7880959Y10212120D01*
X7874355Y10208869D01*
X7863382Y10201554D01*
X7853476Y10192816D01*
X7844739Y10182910D01*
X7837424Y10171938D01*
X7831581Y10160101D01*
G37*
G36*
X7968640Y10152837D02*
G01*
X8020456Y10152837D01*
X8018018Y10160101D01*
X8012175Y10171938D01*
X8004860Y10182910D01*
X7996123Y10192816D01*
X7986217Y10201554D01*
X7975244Y10208869D01*
X7968640Y10212120D01*
G37*
G36*
X13716711Y10198811D02*
G01*
X13766088Y10198811D01*
X13779550Y10199674D01*
X13792504Y10202265D01*
X13805001Y10206482D01*
X13816838Y10212324D01*
X13827810Y10219639D01*
X13837716Y10228376D01*
X13846454Y10238282D01*
X13853769Y10249255D01*
X13859611Y10261092D01*
X13863828Y10273588D01*
X13866418Y10286542D01*
X13867282Y10299700D01*
X13866418Y10312857D01*
X13863828Y10325811D01*
X13859611Y10338308D01*
X13853769Y10350144D01*
X13846454Y10361117D01*
X13837716Y10371023D01*
X13827810Y10379760D01*
X13816838Y10387076D01*
X13805001Y10392918D01*
X13792504Y10397134D01*
X13779550Y10399725D01*
X13766088Y10400588D01*
X13716711Y10400588D01*
X13703249Y10399725D01*
X13690295Y10397134D01*
X13677798Y10392918D01*
X13665962Y10387076D01*
X13654989Y10379760D01*
X13645083Y10371023D01*
X13636345Y10361117D01*
X13629030Y10350144D01*
X13623188Y10338308D01*
X13618972Y10325811D01*
X13616381Y10312857D01*
X13615517Y10299700D01*
X13616381Y10286542D01*
X13618972Y10273588D01*
X13623188Y10261092D01*
X13629030Y10249255D01*
X13636345Y10238282D01*
X13645083Y10228376D01*
X13654989Y10219639D01*
X13665962Y10212324D01*
X13677798Y10206482D01*
X13690295Y10202265D01*
X13703249Y10199674D01*
G37*
G36*
X13641984Y10452811D02*
G01*
X13840815Y10452811D01*
X13847165Y10453522D01*
X13852601Y10455402D01*
X13857528Y10458500D01*
X13861592Y10462564D01*
X13864691Y10467492D01*
X13866571Y10472928D01*
X13867333Y10479278D01*
X13867333Y10628122D01*
X13866571Y10634472D01*
X13864691Y10639907D01*
X13861592Y10644835D01*
X13857528Y10648899D01*
X13852601Y10651998D01*
X13847165Y10653877D01*
X13840815Y10654588D01*
X13641984Y10654588D01*
X13635634Y10653877D01*
X13630198Y10651998D01*
X13625271Y10648899D01*
X13621207Y10644835D01*
X13618108Y10639907D01*
X13616228Y10634472D01*
X13615517Y10628122D01*
X13615517Y10479278D01*
X13616228Y10472928D01*
X13618108Y10467492D01*
X13621207Y10462564D01*
X13625271Y10458500D01*
X13630198Y10455402D01*
X13635634Y10453522D01*
G37*
G36*
X10337749Y10485882D02*
G01*
X10351566Y10486796D01*
X10365130Y10489488D01*
X10378287Y10493908D01*
X10390682Y10500055D01*
X10402214Y10507726D01*
X10412628Y10516870D01*
X10421772Y10527284D01*
X10429443Y10538815D01*
X10435590Y10551210D01*
X10440009Y10564368D01*
X10442702Y10577931D01*
X10443616Y10591749D01*
X10442702Y10605566D01*
X10440009Y10619181D01*
X10435590Y10632287D01*
X10429443Y10644682D01*
X10421772Y10656214D01*
X10412628Y10666628D01*
X10402214Y10675772D01*
X10390682Y10683443D01*
X10378287Y10689590D01*
X10365130Y10694009D01*
X10351566Y10696752D01*
X10337749Y10697616D01*
X10323931Y10696752D01*
X10310317Y10694009D01*
X10297210Y10689590D01*
X10284815Y10683443D01*
X10273284Y10675772D01*
X10262870Y10666628D01*
X10253726Y10656214D01*
X10246055Y10644682D01*
X10239908Y10632287D01*
X10235488Y10619181D01*
X10232745Y10605566D01*
X10231882Y10591749D01*
X10232745Y10577931D01*
X10235488Y10564368D01*
X10239908Y10551210D01*
X10246055Y10538815D01*
X10253726Y10527284D01*
X10262870Y10516870D01*
X10273284Y10507726D01*
X10284815Y10500055D01*
X10297210Y10493908D01*
X10310317Y10489488D01*
X10323931Y10486796D01*
G37*
G36*
X10845749Y10485882D02*
G01*
X10859566Y10486796D01*
X10873130Y10489488D01*
X10886287Y10493908D01*
X10898682Y10500055D01*
X10910214Y10507726D01*
X10920628Y10516870D01*
X10929772Y10527284D01*
X10937443Y10538815D01*
X10943590Y10551210D01*
X10948009Y10564368D01*
X10950702Y10577931D01*
X10951616Y10591749D01*
X10950702Y10605566D01*
X10948009Y10619181D01*
X10943590Y10632287D01*
X10937443Y10644682D01*
X10929772Y10656214D01*
X10920628Y10666628D01*
X10910214Y10675772D01*
X10898682Y10683443D01*
X10886287Y10689590D01*
X10873130Y10694009D01*
X10859566Y10696752D01*
X10845749Y10697616D01*
X10831931Y10696752D01*
X10818317Y10694009D01*
X10805210Y10689590D01*
X10792815Y10683443D01*
X10781284Y10675772D01*
X10770870Y10666628D01*
X10761726Y10656214D01*
X10754055Y10644682D01*
X10747908Y10632287D01*
X10743488Y10619181D01*
X10740745Y10605566D01*
X10739882Y10591749D01*
X10740745Y10577931D01*
X10743488Y10564368D01*
X10747908Y10551210D01*
X10754055Y10538815D01*
X10761726Y10527284D01*
X10770870Y10516870D01*
X10781284Y10507726D01*
X10792815Y10500055D01*
X10805210Y10493908D01*
X10818317Y10489488D01*
X10831931Y10486796D01*
G37*
G36*
X8305749Y10485882D02*
G01*
X8319566Y10486796D01*
X8333130Y10489488D01*
X8346287Y10493908D01*
X8358682Y10500055D01*
X8370214Y10507726D01*
X8380628Y10516870D01*
X8389772Y10527284D01*
X8397443Y10538815D01*
X8403590Y10551210D01*
X8408009Y10564368D01*
X8410702Y10577931D01*
X8411616Y10591749D01*
X8410702Y10605566D01*
X8408009Y10619181D01*
X8403590Y10632287D01*
X8397443Y10644682D01*
X8389772Y10656214D01*
X8380628Y10666628D01*
X8370214Y10675772D01*
X8358682Y10683443D01*
X8346287Y10689590D01*
X8333130Y10694009D01*
X8319566Y10696752D01*
X8305749Y10697616D01*
X8291931Y10696752D01*
X8278317Y10694009D01*
X8265210Y10689590D01*
X8252815Y10683443D01*
X8241284Y10675772D01*
X8230870Y10666628D01*
X8221725Y10656214D01*
X8214055Y10644682D01*
X8207908Y10632287D01*
X8203488Y10619181D01*
X8200745Y10605566D01*
X8199881Y10591749D01*
X8200745Y10577931D01*
X8203488Y10564368D01*
X8207908Y10551210D01*
X8214055Y10538815D01*
X8221725Y10527284D01*
X8230870Y10516870D01*
X8241284Y10507726D01*
X8252815Y10500055D01*
X8265210Y10493908D01*
X8278317Y10489488D01*
X8291931Y10486796D01*
G37*
G36*
X10083800Y10485932D02*
G01*
X10097617Y10486847D01*
X10111181Y10489539D01*
X10124338Y10493959D01*
X10136733Y10500106D01*
X10148265Y10507776D01*
X10158679Y10516920D01*
X10167823Y10527334D01*
X10175494Y10538866D01*
X10181640Y10551261D01*
X10186060Y10564418D01*
X10188752Y10577982D01*
X10189667Y10591800D01*
X10188752Y10605617D01*
X10186060Y10619232D01*
X10181640Y10632338D01*
X10175494Y10644733D01*
X10167823Y10656265D01*
X10158679Y10666679D01*
X10148265Y10675823D01*
X10136733Y10683494D01*
X10124338Y10689640D01*
X10111181Y10694060D01*
X10097617Y10696803D01*
X10083800Y10697667D01*
X10069982Y10696803D01*
X10056368Y10694060D01*
X10043261Y10689640D01*
X10030866Y10683494D01*
X10019334Y10675823D01*
X10008920Y10666679D01*
X9999776Y10656265D01*
X9992106Y10644733D01*
X9985959Y10632338D01*
X9981539Y10619232D01*
X9978796Y10605617D01*
X9977932Y10591800D01*
X9978796Y10577982D01*
X9981539Y10564418D01*
X9985959Y10551261D01*
X9992106Y10538866D01*
X9999776Y10527334D01*
X10008920Y10516920D01*
X10019334Y10507776D01*
X10030866Y10500106D01*
X10043261Y10493959D01*
X10056368Y10489539D01*
X10069982Y10486847D01*
G37*
G36*
X8559800Y10485932D02*
G01*
X8573617Y10486847D01*
X8587181Y10489539D01*
X8600338Y10493959D01*
X8612733Y10500106D01*
X8624265Y10507776D01*
X8634679Y10516920D01*
X8643823Y10527334D01*
X8651494Y10538866D01*
X8657640Y10551261D01*
X8662060Y10564418D01*
X8664752Y10577982D01*
X8665667Y10591800D01*
X8664752Y10605617D01*
X8662060Y10619232D01*
X8657640Y10632338D01*
X8651494Y10644733D01*
X8643823Y10656265D01*
X8634679Y10666679D01*
X8624265Y10675823D01*
X8612733Y10683494D01*
X8600338Y10689640D01*
X8587181Y10694060D01*
X8573617Y10696803D01*
X8559800Y10697667D01*
X8545982Y10696803D01*
X8532368Y10694060D01*
X8519261Y10689640D01*
X8506866Y10683494D01*
X8495334Y10675823D01*
X8484920Y10666679D01*
X8475776Y10656265D01*
X8468106Y10644733D01*
X8461959Y10632338D01*
X8457539Y10619232D01*
X8454796Y10605617D01*
X8453932Y10591800D01*
X8454796Y10577982D01*
X8457539Y10564418D01*
X8461959Y10551261D01*
X8468106Y10538866D01*
X8475776Y10527334D01*
X8484920Y10516920D01*
X8495334Y10507776D01*
X8506866Y10500106D01*
X8519261Y10493959D01*
X8532368Y10489539D01*
X8545982Y10486847D01*
G37*
G36*
X10591800Y10485932D02*
G01*
X10605617Y10486847D01*
X10619181Y10489539D01*
X10632338Y10493959D01*
X10644733Y10500106D01*
X10656265Y10507776D01*
X10666679Y10516920D01*
X10675823Y10527334D01*
X10683494Y10538866D01*
X10689640Y10551261D01*
X10694060Y10564418D01*
X10696752Y10577982D01*
X10697667Y10591800D01*
X10696752Y10605617D01*
X10694060Y10619232D01*
X10689640Y10632338D01*
X10683494Y10644733D01*
X10675823Y10656265D01*
X10666679Y10666679D01*
X10656265Y10675823D01*
X10644733Y10683494D01*
X10632338Y10689640D01*
X10619181Y10694060D01*
X10605617Y10696803D01*
X10591800Y10697667D01*
X10577982Y10696803D01*
X10564368Y10694060D01*
X10551261Y10689640D01*
X10538866Y10683494D01*
X10527334Y10675823D01*
X10516920Y10666679D01*
X10507776Y10656265D01*
X10500106Y10644733D01*
X10493959Y10632338D01*
X10489539Y10619232D01*
X10486796Y10605617D01*
X10485932Y10591800D01*
X10486796Y10577982D01*
X10489539Y10564418D01*
X10493959Y10551261D01*
X10500106Y10538866D01*
X10507776Y10527334D01*
X10516920Y10516920D01*
X10527334Y10507776D01*
X10538866Y10500106D01*
X10551261Y10493959D01*
X10564368Y10489539D01*
X10577982Y10486847D01*
G37*
G36*
X8051800Y10485932D02*
G01*
X8065617Y10486847D01*
X8079181Y10489539D01*
X8092338Y10493959D01*
X8104733Y10500106D01*
X8116265Y10507776D01*
X8126679Y10516920D01*
X8135823Y10527334D01*
X8143494Y10538866D01*
X8149640Y10551261D01*
X8154060Y10564418D01*
X8156752Y10577982D01*
X8157667Y10591800D01*
X8156752Y10605617D01*
X8154060Y10619232D01*
X8149640Y10632338D01*
X8143494Y10644733D01*
X8135823Y10656265D01*
X8126679Y10666679D01*
X8116265Y10675823D01*
X8104733Y10683494D01*
X8092338Y10689640D01*
X8079181Y10694060D01*
X8065617Y10696803D01*
X8051800Y10697667D01*
X8037982Y10696803D01*
X8024368Y10694060D01*
X8011261Y10689640D01*
X7998866Y10683494D01*
X7987334Y10675823D01*
X7976920Y10666679D01*
X7967776Y10656265D01*
X7960106Y10644733D01*
X7953959Y10632338D01*
X7949539Y10619232D01*
X7946796Y10605617D01*
X7945932Y10591800D01*
X7946796Y10577982D01*
X7949539Y10564418D01*
X7953959Y10551261D01*
X7960106Y10538866D01*
X7967776Y10527334D01*
X7976920Y10516920D01*
X7987334Y10507776D01*
X7998866Y10500106D01*
X8011261Y10493959D01*
X8024368Y10489539D01*
X8037982Y10486847D01*
G37*
G36*
X14416582Y11563350D02*
G01*
X14416582Y11667591D01*
X14359534Y11667591D01*
X14359534Y11654282D01*
X14360448Y11640820D01*
X14362988Y11627866D01*
X14367256Y11615369D01*
X14373098Y11603532D01*
X14380413Y11592560D01*
X14389100Y11582603D01*
X14399056Y11573916D01*
X14410029Y11566601D01*
G37*
G36*
X14504314Y11563350D02*
G01*
X14510867Y11566601D01*
X14521840Y11573916D01*
X14531797Y11582603D01*
X14540484Y11592560D01*
X14547799Y11603532D01*
X14553641Y11615369D01*
X14557908Y11627866D01*
X14560448Y11640820D01*
X14561362Y11654282D01*
X14561362Y11667591D01*
X14504314Y11667591D01*
G37*
G36*
X14504314Y11870334D02*
G01*
X14561362Y11870334D01*
X14561362Y11883644D01*
X14560448Y11897106D01*
X14557908Y11910060D01*
X14553641Y11922556D01*
X14547799Y11934393D01*
X14540484Y11945366D01*
X14531797Y11955322D01*
X14521840Y11964009D01*
X14510867Y11971324D01*
X14504314Y11974576D01*
G37*
G36*
X14359534Y11870334D02*
G01*
X14416582Y11870334D01*
X14416582Y11974576D01*
X14410029Y11971324D01*
X14399056Y11964009D01*
X14389100Y11955322D01*
X14380413Y11945366D01*
X14373098Y11934393D01*
X14367256Y11922556D01*
X14362988Y11910060D01*
X14360448Y11897106D01*
X14359534Y11883644D01*
G37*
G36*
X8559850Y12009882D02*
G01*
X8573668Y12010796D01*
X8587232Y12013488D01*
X8600389Y12017908D01*
X8612784Y12024055D01*
X8624316Y12031726D01*
X8634730Y12040870D01*
X8643874Y12051284D01*
X8651544Y12062815D01*
X8657691Y12075210D01*
X8662111Y12088368D01*
X8664854Y12101931D01*
X8665718Y12115749D01*
X8664854Y12129566D01*
X8662111Y12143181D01*
X8657691Y12156287D01*
X8651544Y12168682D01*
X8643874Y12180214D01*
X8634730Y12190628D01*
X8624316Y12199772D01*
X8612784Y12207443D01*
X8600389Y12213590D01*
X8587232Y12218009D01*
X8573668Y12220752D01*
X8559850Y12221616D01*
X8546033Y12220752D01*
X8532469Y12218009D01*
X8519312Y12213590D01*
X8506917Y12207443D01*
X8495385Y12199772D01*
X8484971Y12190628D01*
X8475827Y12180214D01*
X8468156Y12168682D01*
X8462010Y12156287D01*
X8457590Y12143181D01*
X8454847Y12129566D01*
X8453983Y12115749D01*
X8454847Y12101931D01*
X8457590Y12088368D01*
X8462010Y12075210D01*
X8468156Y12062815D01*
X8475827Y12051284D01*
X8484971Y12040870D01*
X8495385Y12031726D01*
X8506917Y12024055D01*
X8519312Y12017908D01*
X8532469Y12013488D01*
X8546033Y12010796D01*
G37*
G36*
X11099850Y12009882D02*
G01*
X11113668Y12010796D01*
X11127232Y12013488D01*
X11140389Y12017908D01*
X11152784Y12024055D01*
X11164316Y12031726D01*
X11174730Y12040870D01*
X11183874Y12051284D01*
X11191544Y12062815D01*
X11197691Y12075210D01*
X11202111Y12088368D01*
X11204803Y12101931D01*
X11205718Y12115749D01*
X11204803Y12129566D01*
X11202111Y12143181D01*
X11197691Y12156287D01*
X11191544Y12168682D01*
X11183874Y12180214D01*
X11174730Y12190628D01*
X11164316Y12199772D01*
X11152784Y12207443D01*
X11140389Y12213590D01*
X11127232Y12218009D01*
X11113668Y12220752D01*
X11099850Y12221616D01*
X11086033Y12220752D01*
X11072418Y12218009D01*
X11059312Y12213590D01*
X11046917Y12207443D01*
X11035385Y12199772D01*
X11024971Y12190628D01*
X11015827Y12180214D01*
X11008156Y12168682D01*
X11002010Y12156287D01*
X10997590Y12143181D01*
X10994847Y12129566D01*
X10993983Y12115749D01*
X10994847Y12101931D01*
X10997590Y12088368D01*
X11002010Y12075210D01*
X11008156Y12062815D01*
X11015827Y12051284D01*
X11024971Y12040870D01*
X11035385Y12031726D01*
X11046917Y12024055D01*
X11059312Y12017908D01*
X11072418Y12013488D01*
X11086033Y12010796D01*
G37*
G36*
X11528348Y12009882D02*
G01*
X11687251Y12009882D01*
X11693550Y12010593D01*
X11699036Y12012523D01*
X11703913Y12015571D01*
X11708028Y12019686D01*
X11711076Y12024563D01*
X11713006Y12030049D01*
X11713718Y12036348D01*
X11713718Y12195251D01*
X11713006Y12201550D01*
X11711076Y12207036D01*
X11708028Y12211913D01*
X11703913Y12216028D01*
X11699036Y12219076D01*
X11693550Y12221006D01*
X11687251Y12221718D01*
X11528348Y12221718D01*
X11522049Y12221006D01*
X11516563Y12219076D01*
X11511686Y12216028D01*
X11507571Y12211913D01*
X11504523Y12207036D01*
X11502593Y12201550D01*
X11501882Y12195251D01*
X11501882Y12036348D01*
X11502593Y12030049D01*
X11504523Y12024563D01*
X11507571Y12019686D01*
X11511686Y12015571D01*
X11516563Y12012523D01*
X11522049Y12010593D01*
G37*
G36*
X10845800Y12009932D02*
G01*
X10859617Y12010847D01*
X10873181Y12013539D01*
X10886338Y12017959D01*
X10898733Y12024106D01*
X10910265Y12031776D01*
X10920679Y12040920D01*
X10929823Y12051334D01*
X10937494Y12062866D01*
X10943640Y12075261D01*
X10948060Y12088418D01*
X10950803Y12101982D01*
X10951667Y12115800D01*
X10950803Y12129617D01*
X10948060Y12143232D01*
X10943640Y12156338D01*
X10937494Y12168733D01*
X10929823Y12180265D01*
X10920679Y12190679D01*
X10910265Y12199823D01*
X10898733Y12207494D01*
X10886338Y12213640D01*
X10873181Y12218060D01*
X10859617Y12220803D01*
X10845800Y12221667D01*
X10831982Y12220803D01*
X10818418Y12218060D01*
X10805261Y12213640D01*
X10792866Y12207494D01*
X10781334Y12199823D01*
X10770920Y12190679D01*
X10761776Y12180265D01*
X10754106Y12168733D01*
X10747959Y12156338D01*
X10743539Y12143232D01*
X10740796Y12129617D01*
X10739932Y12115800D01*
X10740796Y12101982D01*
X10743539Y12088418D01*
X10747959Y12075261D01*
X10754106Y12062866D01*
X10761776Y12051334D01*
X10770920Y12040920D01*
X10781334Y12031776D01*
X10792866Y12024106D01*
X10805261Y12017959D01*
X10818418Y12013539D01*
X10831982Y12010847D01*
G37*
G36*
X8051800Y12009932D02*
G01*
X8065617Y12010796D01*
X8079181Y12013539D01*
X8092338Y12017959D01*
X8104733Y12024106D01*
X8116265Y12031776D01*
X8126679Y12040920D01*
X8135823Y12051334D01*
X8143494Y12062866D01*
X8149640Y12075261D01*
X8154060Y12088418D01*
X8156803Y12101982D01*
X8157667Y12115800D01*
X8156803Y12129617D01*
X8154060Y12143181D01*
X8149640Y12156338D01*
X8143494Y12168733D01*
X8135823Y12180265D01*
X8126679Y12190679D01*
X8116265Y12199823D01*
X8104733Y12207494D01*
X8092338Y12213640D01*
X8079181Y12218060D01*
X8065617Y12220803D01*
X8051800Y12221667D01*
X8037982Y12220803D01*
X8024418Y12218060D01*
X8011261Y12213640D01*
X7998866Y12207494D01*
X7987334Y12199823D01*
X7976920Y12190679D01*
X7967776Y12180265D01*
X7960106Y12168733D01*
X7953959Y12156338D01*
X7949539Y12143181D01*
X7946796Y12129617D01*
X7945932Y12115800D01*
X7946796Y12101982D01*
X7949539Y12088418D01*
X7953959Y12075261D01*
X7960106Y12062866D01*
X7967776Y12051334D01*
X7976920Y12040920D01*
X7987334Y12031776D01*
X7998866Y12024106D01*
X8011261Y12017959D01*
X8024418Y12013539D01*
X8037982Y12010796D01*
G37*
G36*
X11353800Y12009932D02*
G01*
X11367617Y12010847D01*
X11381181Y12013539D01*
X11394338Y12017959D01*
X11406733Y12024106D01*
X11418265Y12031776D01*
X11428679Y12040920D01*
X11437823Y12051334D01*
X11445494Y12062866D01*
X11451640Y12075261D01*
X11456060Y12088418D01*
X11458803Y12101982D01*
X11459667Y12115800D01*
X11458803Y12129617D01*
X11456060Y12143232D01*
X11451640Y12156338D01*
X11445494Y12168733D01*
X11437823Y12180265D01*
X11428679Y12190679D01*
X11418265Y12199823D01*
X11406733Y12207494D01*
X11394338Y12213640D01*
X11381181Y12218060D01*
X11367617Y12220803D01*
X11353800Y12221667D01*
X11339982Y12220803D01*
X11326418Y12218060D01*
X11313261Y12213640D01*
X11300866Y12207494D01*
X11289334Y12199823D01*
X11278920Y12190679D01*
X11269776Y12180265D01*
X11262106Y12168733D01*
X11255959Y12156338D01*
X11251539Y12143232D01*
X11248796Y12129617D01*
X11247932Y12115800D01*
X11248796Y12101982D01*
X11251539Y12088418D01*
X11255959Y12075261D01*
X11262106Y12062866D01*
X11269776Y12051334D01*
X11278920Y12040920D01*
X11289334Y12031776D01*
X11300866Y12024106D01*
X11313261Y12017959D01*
X11326418Y12013539D01*
X11339982Y12010847D01*
G37*
G36*
X8305800Y12009932D02*
G01*
X8319617Y12010847D01*
X8333231Y12013539D01*
X8346338Y12017959D01*
X8358733Y12024106D01*
X8370265Y12031776D01*
X8380679Y12040920D01*
X8389823Y12051334D01*
X8397494Y12062866D01*
X8403640Y12075261D01*
X8408060Y12088418D01*
X8410803Y12101982D01*
X8411667Y12115800D01*
X8410803Y12129617D01*
X8408060Y12143232D01*
X8403640Y12156338D01*
X8397494Y12168733D01*
X8389823Y12180265D01*
X8380679Y12190679D01*
X8370265Y12199823D01*
X8358733Y12207494D01*
X8346338Y12213640D01*
X8333231Y12218060D01*
X8319617Y12220803D01*
X8305800Y12221667D01*
X8291982Y12220803D01*
X8278418Y12218060D01*
X8265261Y12213640D01*
X8252866Y12207494D01*
X8241334Y12199823D01*
X8230920Y12190679D01*
X8221776Y12180265D01*
X8214106Y12168733D01*
X8207959Y12156338D01*
X8203539Y12143232D01*
X8200847Y12129617D01*
X8199932Y12115800D01*
X8200847Y12101982D01*
X8203539Y12088418D01*
X8207959Y12075261D01*
X8214106Y12062866D01*
X8221776Y12051334D01*
X8230920Y12040920D01*
X8241334Y12031776D01*
X8252866Y12024106D01*
X8265261Y12017959D01*
X8278418Y12013539D01*
X8291982Y12010847D01*
G37*
G36*
X14201800Y12133072D02*
G01*
X14205153Y12133072D01*
X14218615Y12133935D01*
X14231569Y12136526D01*
X14244066Y12140742D01*
X14255902Y12146584D01*
X14266875Y12153900D01*
X14276781Y12162637D01*
X14285518Y12172543D01*
X14292834Y12183516D01*
X14296085Y12190120D01*
X14201800Y12190120D01*
G37*
G36*
X14015770Y12133072D02*
G01*
X14019123Y12133072D01*
X14019123Y12190120D01*
X13924838Y12190120D01*
X13928090Y12183516D01*
X13935405Y12172543D01*
X13944142Y12162637D01*
X13954048Y12153900D01*
X13965021Y12146584D01*
X13976857Y12140742D01*
X13989354Y12136526D01*
X14002308Y12133935D01*
G37*
G36*
X13924838Y12277801D02*
G01*
X14019123Y12277801D01*
X14019123Y12334849D01*
X14015770Y12334849D01*
X14002308Y12333986D01*
X13989354Y12331395D01*
X13976857Y12327178D01*
X13965021Y12321336D01*
X13954048Y12314021D01*
X13944142Y12305284D01*
X13935405Y12295378D01*
X13928090Y12284405D01*
G37*
G36*
X14201800Y12277801D02*
G01*
X14296085Y12277801D01*
X14292834Y12284405D01*
X14285518Y12295378D01*
X14276781Y12305284D01*
X14266875Y12314021D01*
X14255902Y12321336D01*
X14244066Y12327178D01*
X14231569Y12331395D01*
X14218615Y12333986D01*
X14205153Y12334849D01*
X14201800Y12334849D01*
G37*

%LPD*%
G36*
X12093194Y10477957D02*
G01*
X12089333Y10478770D01*
X12086031Y10480954D01*
X12083846Y10484256D01*
X12083034Y10488117D01*
X12083034Y11329670D01*
X12083846Y11333530D01*
X12086031Y11336832D01*
X12577521Y11828322D01*
X12580823Y11830558D01*
X12584734Y11831320D01*
X12590780Y11831320D01*
X12590780Y11837365D01*
X12591542Y11841276D01*
X12593777Y11844578D01*
X12603835Y11854637D01*
X12607137Y11856821D01*
X12610998Y11857634D01*
X12672060Y11857634D01*
X12675971Y11856821D01*
X12679222Y11854637D01*
X12681458Y11851335D01*
X12682220Y11847474D01*
X12682220Y11831320D01*
X12730378Y11831320D01*
X12727127Y11837924D01*
X12724485Y11841835D01*
X12722910Y11845848D01*
X12723164Y11850217D01*
X12725247Y11854078D01*
X12728702Y11856669D01*
X12732969Y11857634D01*
X12794030Y11857634D01*
X12798298Y11856669D01*
X12801752Y11854078D01*
X12803835Y11850217D01*
X12804089Y11845848D01*
X12802514Y11841835D01*
X12799872Y11837924D01*
X12793827Y11825630D01*
X12789458Y11812676D01*
X12786766Y11799265D01*
X12785852Y11785600D01*
X12786766Y11771934D01*
X12789458Y11758523D01*
X12793827Y11745569D01*
X12799872Y11733276D01*
X12807492Y11721896D01*
X12816535Y11711635D01*
X12826796Y11702592D01*
X12838176Y11694972D01*
X12843916Y11692178D01*
X12846913Y11689892D01*
X12848894Y11686743D01*
X12849606Y11683034D01*
X12849606Y11151565D01*
X12848894Y11147856D01*
X12846913Y11144707D01*
X12843916Y11142421D01*
X12838176Y11139627D01*
X12826796Y11132007D01*
X12816535Y11122964D01*
X12807492Y11112703D01*
X12799872Y11101324D01*
X12793827Y11089030D01*
X12789458Y11076076D01*
X12786766Y11062665D01*
X12785852Y11049000D01*
X12786766Y11035334D01*
X12789458Y11021923D01*
X12791490Y11015878D01*
X12792049Y11012170D01*
X12791186Y11008512D01*
X12789052Y11005413D01*
X12270130Y10486491D01*
X12266828Y10484256D01*
X12262967Y10483494D01*
X12184126Y10483494D01*
X12181078Y10484002D01*
X12178334Y10485323D01*
X12169648Y10491419D01*
X12160758Y10495584D01*
X12151258Y10498124D01*
X12141454Y10498988D01*
X12131649Y10498124D01*
X12122150Y10495584D01*
X12113260Y10491419D01*
X12105233Y10485780D01*
X12100407Y10480954D01*
X12097105Y10478770D01*
G37*

%LPC*%
G36*
X12682220Y10955121D02*
G01*
X12688824Y10958372D01*
X12700203Y10965992D01*
X12710464Y10975035D01*
X12719507Y10985296D01*
X12727127Y10996676D01*
X12730378Y11003280D01*
X12682220Y11003280D01*
G37*
G36*
X12590780Y10955121D02*
G01*
X12590780Y11003280D01*
X12542621Y11003280D01*
X12545872Y10996676D01*
X12553492Y10985296D01*
X12562535Y10975035D01*
X12572796Y10965992D01*
X12584176Y10958372D01*
G37*
G36*
X12542621Y11094720D02*
G01*
X12590780Y11094720D01*
X12590780Y11142878D01*
X12584176Y11139627D01*
X12572796Y11132007D01*
X12562535Y11122964D01*
X12553492Y11112703D01*
X12545872Y11101324D01*
G37*
G36*
X12682220Y11094720D02*
G01*
X12730378Y11094720D01*
X12727127Y11101324D01*
X12719507Y11112703D01*
X12710464Y11122964D01*
X12700203Y11132007D01*
X12688824Y11139627D01*
X12682220Y11142878D01*
G37*
G36*
X12590780Y11691721D02*
G01*
X12590780Y11739880D01*
X12542621Y11739880D01*
X12545872Y11733276D01*
X12553492Y11721896D01*
X12562535Y11711635D01*
X12572796Y11702592D01*
X12584176Y11694972D01*
G37*
G36*
X12682220Y11691721D02*
G01*
X12688824Y11694972D01*
X12700203Y11702592D01*
X12710464Y11711635D01*
X12719507Y11721896D01*
X12727127Y11733276D01*
X12730378Y11739880D01*
X12682220Y11739880D01*
G37*

%LPD*%
D10*
X8940800Y9334500D02*
G01*
X8810421Y9204121D01*
X8552738Y9204121D01*
X8318245Y8969629D01*
X8318245Y8789390D02*
G01*
X8318245Y8969629D01*
X9194800Y9334500D02*
G01*
X8996527Y9136227D01*
X8738844Y9136227D01*
X8572245Y8969629D01*
X8572245Y8789390D02*
G01*
X8572245Y8969629D01*
X9448800Y9334500D02*
G01*
X9203969Y9089669D01*
X8946540Y9089669D01*
X8826500Y8969629D01*
X8826500Y8789390D02*
G01*
X8826500Y8969629D01*
X9702800Y9334500D02*
G01*
X9337929Y8969629D01*
X9080500Y8969629D01*
X9080500Y8789390D02*
G01*
X9080500Y8969629D01*
X14503400Y9791700D02*
G01*
X13868400Y9156700D01*
X13689888Y9156700D01*
X13036931Y8503742D01*
X11916181Y8503742D01*
X11810745Y8609177D01*
X11810745Y8789390D02*
G01*
X11810745Y8609177D01*
X14503400Y10045700D02*
G01*
X13868400Y9410700D01*
X13675385Y9410700D01*
X12814884Y8550198D01*
X12123724Y8550198D01*
X12064745Y8609177D01*
X12064745Y8789390D02*
G01*
X12064745Y8609177D01*
X14503400Y10299700D02*
G01*
X13868400Y9664700D01*
X13675359Y9664700D01*
X12681254Y8670594D01*
X12681254Y8617762D01*
X12672491Y8608999D01*
X12319177Y8608999D01*
X12319000Y8609177D01*
X12319000Y8789390D02*
G01*
X12319000Y8609177D01*
X14503400Y10553700D02*
G01*
X13868400Y9918700D01*
X13522070Y9918700D01*
X12573000Y8969629D01*
X12573000Y8789390D02*
G01*
X12573000Y8969629D01*
X11214100Y9334500D02*
G01*
X11043691Y9164091D01*
X10265308Y9164091D01*
X10070845Y8969629D01*
X10070845Y8789390D02*
G01*
X10070845Y8969629D01*
X11468100Y9334500D02*
G01*
X11221643Y9088043D01*
X10443260Y9088043D01*
X10324845Y8969629D01*
X10324845Y8789390D02*
G01*
X10324845Y8969629D01*
X11976100Y9334500D02*
G01*
X11611229Y8969629D01*
X10833100Y8969629D01*
X10833100Y8789390D02*
G01*
X10833100Y8969629D01*
X9194800Y10096500D02*
G01*
X9194800Y11988800D01*
X9067800Y12115800D01*
X9702800Y10096500D02*
G01*
X9702800Y11988800D01*
X9575800Y12115800D01*
X11468100Y10096500D02*
G01*
X11468100Y10731500D01*
X10083800Y12115800D01*
X11976100Y10096500D02*
G01*
X11976100Y10731500D01*
X10591800Y12115800D01*
X11722100Y10096500D02*
G01*
X11722100Y10731500D01*
X10337800Y12115800D01*
X11214100Y10096500D02*
G01*
X11214100Y10731500D01*
X9829800Y12115800D01*
X9448800Y10096500D02*
G01*
X9448800Y11988800D01*
X9321800Y12115800D01*
X8940800Y10096500D02*
G01*
X8940800Y11988800D01*
X8813800Y12115800D01*
X13035534Y11049000D02*
G01*
X13035534Y11031702D01*
X12293752Y10289920D01*
X13144500Y11049000D02*
G01*
X13035534Y11049000D01*
X10198100Y10096500D02*
G01*
X10338765Y9955834D01*
X11248491Y9955834D01*
X11353800Y10061143D01*
X11353800Y10591800D01*
X12636500Y11049000D02*
G01*
X12636500Y11785600D01*
X14110461Y12234037D02*
G01*
X14460474Y11884025D01*
X14460474Y11768962D01*
X14460474Y11768962D02*
G01*
X14635175Y11594261D01*
X14635175Y9742398D01*
X14573504Y9680727D01*
X14456638Y9680727D01*
X13889990Y9114078D01*
X13889990Y8924289D01*
X13741400Y8775700D01*
X12890500Y11049000D02*
G01*
X12890500Y11785600D01*
X12890500Y11049000D02*
G01*
X12284100Y10442600D01*
X12141454Y10442600D01*
X12042140Y10380497D02*
G01*
X12042140Y11350802D01*
X12589865Y11898528D01*
X12949834Y11898528D01*
X13035534Y11812828D01*
X13035534Y11785600D01*
X13144500Y11785600D02*
G01*
X13035534Y11785600D01*
X10198100Y9334500D02*
G01*
X9831222Y8967622D01*
X9817100Y8967622D01*
X9817100Y8787384D02*
G01*
X9817100Y8967622D01*
X11607800Y10591800D02*
G01*
X11607800Y10035717D01*
X11607800Y10035717D02*
G01*
X11153165Y9581083D01*
X10444683Y9581083D01*
X10198100Y9334500D01*
X12086056Y9962311D02*
G01*
X12086056Y9253753D01*
X11804929Y8972626D01*
X11712905Y8972626D01*
X11557000Y8816720D01*
X11557000Y8787384D01*
X11607800Y10035717D02*
G01*
X11681206Y9962311D01*
X12086056Y9962311D01*
X12683210Y9962311D02*
G01*
X12086056Y9962311D01*
X13860525Y11768962D02*
G01*
X13860525Y11139627D01*
X12683210Y9962311D01*
X12683210Y9962311D02*
G01*
X12683210Y9845802D01*
X12751612Y9777399D01*
D11*
G01*
X8318245Y8789390D03*
G01*
X8572245Y8789390D03*
G01*
X8826500Y8789390D03*
G01*
X9080500Y8789390D03*
G01*
X8064500Y8787384D03*
G01*
X11810745Y8789390D03*
G01*
X12064745Y8789390D03*
G01*
X12319000Y8789390D03*
G01*
X12573000Y8789390D03*
G01*
X11557000Y8787384D03*
G01*
X10070845Y8789390D03*
G01*
X10324845Y8789390D03*
G01*
X10579100Y8789390D03*
G01*
X10833100Y8789390D03*
G01*
X9817100Y8787384D03*
D12*
G01*
X13860525Y11768962D03*
G01*
X14460474Y11768962D03*
D13*
G01*
X14110461Y12234037D03*
D14*
G01*
X13144500Y11785600D03*
D15*
G01*
X12890500Y11785600D03*
G01*
X12636500Y11785600D03*
D14*
G01*
X13144500Y11049000D03*
D15*
G01*
X12890500Y11049000D03*
G01*
X12636500Y11049000D03*
D16*
G01*
X11607800Y12115800D03*
D17*
G01*
X11353800Y10591800D03*
G01*
X10845800Y10591800D03*
G01*
X10337800Y10591800D03*
G01*
X9829800Y10591800D03*
G01*
X9321800Y10591800D03*
G01*
X8813800Y10591800D03*
G01*
X8305800Y10591800D03*
G01*
X8051800Y12115800D03*
G01*
X8559800Y12115800D03*
G01*
X9067800Y12115800D03*
G01*
X9575800Y12115800D03*
G01*
X10083800Y12115800D03*
G01*
X10591800Y12115800D03*
G01*
X11099800Y12115800D03*
G01*
X11353800Y12115800D03*
G01*
X10845800Y12115800D03*
G01*
X10337800Y12115800D03*
G01*
X9829800Y12115800D03*
G01*
X9321800Y12115800D03*
G01*
X8813800Y12115800D03*
G01*
X8305800Y12115800D03*
G01*
X8051800Y10591800D03*
G01*
X8559800Y10591800D03*
G01*
X9067800Y10591800D03*
G01*
X9575800Y10591800D03*
G01*
X10083800Y10591800D03*
G01*
X10591800Y10591800D03*
G01*
X11099800Y10591800D03*
D16*
G01*
X11607800Y10591800D03*
D18*
G01*
X10198100Y9334500D03*
G01*
X10452100Y9334500D03*
G01*
X10706100Y9334500D03*
G01*
X10960100Y9334500D03*
G01*
X11214100Y9334500D03*
G01*
X11468100Y9334500D03*
G01*
X11722100Y9334500D03*
G01*
X11976100Y9334500D03*
G01*
X10198100Y10096500D03*
G01*
X10452100Y10096500D03*
G01*
X10706100Y10096500D03*
G01*
X10960100Y10096500D03*
G01*
X11214100Y10096500D03*
G01*
X11468100Y10096500D03*
G01*
X11722100Y10096500D03*
D19*
G01*
X11976100Y10096500D03*
D18*
G01*
X7924800Y9334500D03*
G01*
X8178800Y9334500D03*
G01*
X8432800Y9334500D03*
G01*
X8686800Y9334500D03*
G01*
X8940800Y9334500D03*
G01*
X9194800Y9334500D03*
G01*
X9448800Y9334500D03*
G01*
X9702800Y9334500D03*
G01*
X7924800Y10096500D03*
G01*
X8178800Y10096500D03*
G01*
X8432800Y10096500D03*
G01*
X8686800Y10096500D03*
G01*
X8940800Y10096500D03*
G01*
X9194800Y10096500D03*
G01*
X9448800Y10096500D03*
D19*
G01*
X9702800Y10096500D03*
D20*
G01*
X14503400Y8775700D03*
G01*
X14503400Y9029700D03*
G01*
X14503400Y9283700D03*
G01*
X14503400Y9537700D03*
G01*
X14503400Y9791700D03*
G01*
X14503400Y10045700D03*
G01*
X14503400Y10299700D03*
G01*
X14503400Y10553700D03*
G01*
X13741400Y8775700D03*
G01*
X13741400Y9029700D03*
G01*
X13741400Y9283700D03*
G01*
X13741400Y9537700D03*
G01*
X13741400Y9791700D03*
G01*
X13741400Y10045700D03*
G01*
X13741400Y10299700D03*
D21*
G01*
X13741400Y10553700D03*
D22*
G01*
X12751612Y9777399D03*
G01*
X12042140Y10380497D03*
G01*
X12141454Y10442600D03*
G01*
X12293752Y10289920D03*
M02*
