G04 Layer: TopLayer*
G04 EasyEDA v6.5.22, 2023-03-31 14:54:23*
G04 d3f0f356f32e465d957ef3f0493f5931,4db1f7442a1f4f30bb2da465e00f2567,10*
G04 Gerber Generator version 0.2*
G04 Scale: 100 percent, Rotated: No, Reflected: No *
G04 Dimensions in millimeters *
G04 leading zeros omitted , absolute positions ,4 integer and 5 decimal *
%FSLAX45Y45*%
%MOMM*%

%AMMACRO1*21,1,$1,$2,0,0,$3*%
%ADD10C,0.3000*%
%ADD11MACRO1,1.35X1.41X0.0000*%
%ADD12R,1.3500X1.4100*%
%ADD13R,1.5240X3.0000*%
%ADD14O,1.499997X3.7999924*%
%ADD15O,3.3999932X1.499997*%
%ADD16R,1.5748X1.5748*%
%ADD17C,1.5748*%
%ADD18R,1.6000X1.6000*%
%ADD19C,1.6000*%
%ADD20O,1.499997X1.9999959999999999*%
%ADD21R,1.5000X2.0000*%
%ADD22O,1.9999959999999999X1.499997*%
%ADD23R,2.0000X1.5000*%
%ADD24C,0.6100*%
%ADD25C,0.0139*%

%LPD*%
G36*
X7503668Y8280908D02*
G01*
X7499756Y8281670D01*
X7496505Y8283905D01*
X7494270Y8287156D01*
X7493508Y8291068D01*
X7493508Y12384532D01*
X7494270Y12388443D01*
X7496505Y12391694D01*
X7499756Y12393930D01*
X7503668Y12394692D01*
X15189707Y12394692D01*
X15193619Y12393930D01*
X15196870Y12391694D01*
X15199106Y12388443D01*
X15199868Y12384532D01*
X15199868Y8291068D01*
X15199106Y8287156D01*
X15196870Y8283905D01*
X15193619Y8281670D01*
X15189707Y8280908D01*
G37*

%LPC*%
G36*
X11481358Y8611463D02*
G01*
X11632641Y8611463D01*
X11638940Y8612174D01*
X11644426Y8614105D01*
X11649303Y8617204D01*
X11653418Y8621268D01*
X11656466Y8626195D01*
X11658396Y8631631D01*
X11659108Y8637981D01*
X11659108Y8936837D01*
X11658396Y8943136D01*
X11656466Y8948623D01*
X11653418Y8953500D01*
X11649303Y8957614D01*
X11644426Y8960662D01*
X11638940Y8962593D01*
X11632641Y8963304D01*
X11481358Y8963304D01*
X11475059Y8962593D01*
X11469573Y8960662D01*
X11464696Y8957614D01*
X11460581Y8953500D01*
X11457533Y8948623D01*
X11455603Y8943136D01*
X11454892Y8936837D01*
X11454892Y8637981D01*
X11455603Y8631631D01*
X11457533Y8626195D01*
X11460581Y8621268D01*
X11464696Y8617204D01*
X11469573Y8614105D01*
X11475059Y8612174D01*
G37*
G36*
X7988858Y8611463D02*
G01*
X8140141Y8611463D01*
X8146440Y8612174D01*
X8151926Y8614105D01*
X8156803Y8617204D01*
X8160918Y8621268D01*
X8163966Y8626195D01*
X8165896Y8631631D01*
X8166608Y8637981D01*
X8166608Y8918752D01*
X8167370Y8922613D01*
X8169605Y8925915D01*
X8172907Y8928100D01*
X8176768Y8928912D01*
X8205978Y8928912D01*
X8209889Y8928100D01*
X8213140Y8925915D01*
X8215375Y8922613D01*
X8216138Y8918752D01*
X8216138Y8639962D01*
X8216849Y8633663D01*
X8218779Y8628176D01*
X8221827Y8623300D01*
X8225942Y8619185D01*
X8230819Y8616086D01*
X8236305Y8614206D01*
X8242604Y8613495D01*
X8393887Y8613495D01*
X8400186Y8614206D01*
X8405672Y8616086D01*
X8410549Y8619185D01*
X8414664Y8623300D01*
X8417712Y8628176D01*
X8419642Y8633663D01*
X8420354Y8639962D01*
X8420354Y8918752D01*
X8421116Y8922613D01*
X8423351Y8925915D01*
X8426602Y8928100D01*
X8430514Y8928912D01*
X8459978Y8928912D01*
X8463889Y8928100D01*
X8467140Y8925915D01*
X8469376Y8922613D01*
X8470138Y8918752D01*
X8470138Y8639962D01*
X8470849Y8633663D01*
X8472779Y8628176D01*
X8475827Y8623300D01*
X8479942Y8619185D01*
X8484819Y8616086D01*
X8490305Y8614206D01*
X8496604Y8613495D01*
X8647887Y8613495D01*
X8654186Y8614206D01*
X8659672Y8616086D01*
X8664549Y8619185D01*
X8668664Y8623300D01*
X8671712Y8628176D01*
X8673642Y8633663D01*
X8674354Y8639962D01*
X8674354Y8918752D01*
X8675116Y8922613D01*
X8677351Y8925915D01*
X8680602Y8928100D01*
X8684514Y8928912D01*
X8714232Y8928912D01*
X8718143Y8928100D01*
X8721394Y8925915D01*
X8723630Y8922613D01*
X8724392Y8918752D01*
X8724392Y8639962D01*
X8725103Y8633663D01*
X8727033Y8628176D01*
X8730081Y8623300D01*
X8734196Y8619185D01*
X8739073Y8616137D01*
X8744559Y8614206D01*
X8750858Y8613495D01*
X8902141Y8613495D01*
X8908440Y8614206D01*
X8913926Y8616137D01*
X8918803Y8619185D01*
X8922918Y8623300D01*
X8925966Y8628176D01*
X8927896Y8633663D01*
X8928608Y8639962D01*
X8928608Y8918752D01*
X8929370Y8922613D01*
X8931605Y8925915D01*
X8934856Y8928100D01*
X8938768Y8928912D01*
X8968232Y8928912D01*
X8972143Y8928100D01*
X8975394Y8925915D01*
X8977630Y8922613D01*
X8978392Y8918752D01*
X8978392Y8639962D01*
X8979103Y8633663D01*
X8981033Y8628176D01*
X8984081Y8623300D01*
X8988196Y8619185D01*
X8993073Y8616137D01*
X8998559Y8614206D01*
X9004858Y8613495D01*
X9156141Y8613495D01*
X9162440Y8614206D01*
X9167926Y8616137D01*
X9172803Y8619185D01*
X9176918Y8623300D01*
X9179966Y8628176D01*
X9181896Y8633663D01*
X9182608Y8639962D01*
X9182608Y8918752D01*
X9183370Y8922613D01*
X9185605Y8925915D01*
X9188856Y8928100D01*
X9192768Y8928912D01*
X9704832Y8928912D01*
X9708743Y8928100D01*
X9711994Y8925915D01*
X9714230Y8922613D01*
X9714992Y8918752D01*
X9714992Y8637981D01*
X9715703Y8631631D01*
X9717633Y8626195D01*
X9720681Y8621268D01*
X9724796Y8617204D01*
X9729673Y8614105D01*
X9735159Y8612174D01*
X9741458Y8611463D01*
X9892741Y8611463D01*
X9899040Y8612174D01*
X9904526Y8614105D01*
X9909403Y8617204D01*
X9913518Y8621268D01*
X9916566Y8626195D01*
X9918496Y8631631D01*
X9919208Y8637981D01*
X9919208Y8936837D01*
X9918496Y8943136D01*
X9916566Y8948623D01*
X9913518Y8953500D01*
X9909403Y8957614D01*
X9904526Y8960662D01*
X9899040Y8962593D01*
X9892741Y8963304D01*
X9867595Y8963304D01*
X9863937Y8963964D01*
X9860788Y8965946D01*
X9858502Y8968892D01*
X9857486Y8972448D01*
X9857181Y8975598D01*
X9854844Y8983268D01*
X9851085Y8990330D01*
X9845649Y8996883D01*
X9844176Y8998356D01*
X9837623Y9003792D01*
X9830562Y9007551D01*
X9822891Y9009888D01*
X9814407Y9010700D01*
X8087817Y9010700D01*
X8083956Y9011462D01*
X8080654Y9013698D01*
X7968691Y9125661D01*
X7966506Y9128963D01*
X7965694Y9132824D01*
X7965694Y9211106D01*
X7966405Y9214815D01*
X7968386Y9217964D01*
X7971383Y9220200D01*
X7975244Y9222130D01*
X7986217Y9229445D01*
X7996123Y9238183D01*
X8004860Y9248089D01*
X8012175Y9259062D01*
X8018018Y9270898D01*
X8022234Y9283395D01*
X8024825Y9296349D01*
X8025688Y9309811D01*
X8025688Y9359188D01*
X8024825Y9372650D01*
X8022234Y9385604D01*
X8018018Y9398101D01*
X8012175Y9409938D01*
X8004860Y9420910D01*
X7996123Y9430816D01*
X7986217Y9439554D01*
X7975244Y9446869D01*
X7963408Y9452711D01*
X7950911Y9456928D01*
X7937957Y9459518D01*
X7924800Y9460382D01*
X7911642Y9459518D01*
X7898688Y9456928D01*
X7886192Y9452711D01*
X7874355Y9446869D01*
X7863382Y9439554D01*
X7853476Y9430816D01*
X7844739Y9420910D01*
X7837424Y9409938D01*
X7831581Y9398101D01*
X7827365Y9385604D01*
X7824774Y9372650D01*
X7823911Y9359188D01*
X7823911Y9309811D01*
X7824774Y9296349D01*
X7827365Y9283395D01*
X7831581Y9270898D01*
X7837424Y9259062D01*
X7844739Y9248089D01*
X7853476Y9238183D01*
X7863382Y9229445D01*
X7874355Y9222130D01*
X7878216Y9220200D01*
X7881213Y9217964D01*
X7883194Y9214815D01*
X7883906Y9211106D01*
X7883906Y9112199D01*
X7884718Y9103715D01*
X7887055Y9096044D01*
X7890814Y9088983D01*
X7896250Y9082430D01*
X7998002Y8980627D01*
X8000187Y8977325D01*
X8000949Y8973464D01*
X8000187Y8969552D01*
X7998002Y8966250D01*
X7994700Y8964066D01*
X7990789Y8963304D01*
X7988858Y8963304D01*
X7982559Y8962593D01*
X7977073Y8960662D01*
X7972196Y8957614D01*
X7968081Y8953500D01*
X7965033Y8948623D01*
X7963103Y8943136D01*
X7962392Y8936837D01*
X7962392Y8637981D01*
X7963103Y8631631D01*
X7965033Y8626195D01*
X7968081Y8621268D01*
X7972196Y8617204D01*
X7977073Y8614105D01*
X7982559Y8612174D01*
G37*
G36*
X12243358Y8613495D02*
G01*
X12394641Y8613495D01*
X12400940Y8614206D01*
X12406426Y8616137D01*
X12411303Y8619185D01*
X12415418Y8623300D01*
X12418466Y8628176D01*
X12420396Y8633663D01*
X12421108Y8639962D01*
X12421108Y8938818D01*
X12420396Y8945168D01*
X12418466Y8950604D01*
X12415418Y8955532D01*
X12411303Y8959596D01*
X12406426Y8962694D01*
X12400940Y8964574D01*
X12394641Y8965285D01*
X12243358Y8965285D01*
X12237059Y8964574D01*
X12231573Y8962694D01*
X12226696Y8959596D01*
X12222581Y8955532D01*
X12219533Y8950604D01*
X12217603Y8945168D01*
X12216892Y8938818D01*
X12216892Y8639962D01*
X12217603Y8633663D01*
X12219533Y8628176D01*
X12222581Y8623300D01*
X12226696Y8619185D01*
X12231573Y8616137D01*
X12237059Y8614206D01*
G37*
G36*
X10757458Y8613495D02*
G01*
X10908741Y8613495D01*
X10915040Y8614206D01*
X10920526Y8616137D01*
X10925403Y8619185D01*
X10929518Y8623300D01*
X10932566Y8628176D01*
X10934496Y8633663D01*
X10935208Y8639962D01*
X10935208Y8938818D01*
X10934496Y8945168D01*
X10932566Y8950604D01*
X10929518Y8955532D01*
X10925403Y8959596D01*
X10920526Y8962694D01*
X10915040Y8964574D01*
X10908741Y8965285D01*
X10757458Y8965285D01*
X10751159Y8964574D01*
X10745673Y8962694D01*
X10740796Y8959596D01*
X10736681Y8955532D01*
X10733633Y8950604D01*
X10731703Y8945168D01*
X10730992Y8938818D01*
X10730992Y8639962D01*
X10731703Y8633663D01*
X10733633Y8628176D01*
X10736681Y8623300D01*
X10740796Y8619185D01*
X10745673Y8616137D01*
X10751159Y8614206D01*
G37*
G36*
X9995204Y8613495D02*
G01*
X10146487Y8613495D01*
X10152786Y8614206D01*
X10158272Y8616086D01*
X10163149Y8619185D01*
X10167264Y8623300D01*
X10170312Y8628176D01*
X10172242Y8633663D01*
X10172954Y8639962D01*
X10172954Y8938818D01*
X10172242Y8945168D01*
X10170312Y8950604D01*
X10167264Y8955481D01*
X10163149Y8959596D01*
X10158272Y8962694D01*
X10152786Y8964574D01*
X10146487Y8965285D01*
X9995204Y8965285D01*
X9988905Y8964574D01*
X9983419Y8962694D01*
X9978542Y8959596D01*
X9974427Y8955481D01*
X9971379Y8950604D01*
X9969449Y8945168D01*
X9968738Y8938818D01*
X9968738Y8639962D01*
X9969449Y8633663D01*
X9971379Y8628176D01*
X9974427Y8623300D01*
X9978542Y8619185D01*
X9983419Y8616086D01*
X9988905Y8614206D01*
G37*
G36*
X11735104Y8613495D02*
G01*
X11886387Y8613495D01*
X11892686Y8614206D01*
X11898172Y8616086D01*
X11903049Y8619185D01*
X11907164Y8623300D01*
X11910212Y8628176D01*
X11912142Y8633663D01*
X11912854Y8639962D01*
X11912854Y8938818D01*
X11912142Y8945168D01*
X11910212Y8950604D01*
X11907164Y8955481D01*
X11903049Y8959596D01*
X11898172Y8962694D01*
X11892686Y8964574D01*
X11886387Y8965285D01*
X11735104Y8965285D01*
X11728805Y8964574D01*
X11723319Y8962694D01*
X11718442Y8959596D01*
X11714327Y8955481D01*
X11711279Y8950604D01*
X11709349Y8945168D01*
X11708638Y8938818D01*
X11708638Y8639962D01*
X11709349Y8633663D01*
X11711279Y8628176D01*
X11714327Y8623300D01*
X11718442Y8619185D01*
X11723319Y8616086D01*
X11728805Y8614206D01*
G37*
G36*
X11989104Y8613495D02*
G01*
X12140387Y8613495D01*
X12146686Y8614206D01*
X12152172Y8616086D01*
X12157049Y8619185D01*
X12161164Y8623300D01*
X12164212Y8628176D01*
X12166142Y8633663D01*
X12166854Y8639962D01*
X12166854Y8938818D01*
X12166142Y8945168D01*
X12164212Y8950604D01*
X12161164Y8955481D01*
X12157049Y8959596D01*
X12152172Y8962694D01*
X12146686Y8964574D01*
X12140387Y8965285D01*
X11989104Y8965285D01*
X11982805Y8964574D01*
X11977319Y8962694D01*
X11972442Y8959596D01*
X11968327Y8955481D01*
X11965279Y8950604D01*
X11963349Y8945168D01*
X11962638Y8938818D01*
X11962638Y8639962D01*
X11963349Y8633663D01*
X11965279Y8628176D01*
X11968327Y8623300D01*
X11972442Y8619185D01*
X11977319Y8616086D01*
X11982805Y8614206D01*
G37*
G36*
X10249204Y8613495D02*
G01*
X10400487Y8613495D01*
X10406786Y8614206D01*
X10412272Y8616086D01*
X10417149Y8619185D01*
X10421264Y8623300D01*
X10424312Y8628176D01*
X10426242Y8633663D01*
X10426954Y8639962D01*
X10426954Y8938818D01*
X10426242Y8945168D01*
X10424312Y8950604D01*
X10421264Y8955481D01*
X10417149Y8959596D01*
X10412272Y8962694D01*
X10406786Y8964574D01*
X10400487Y8965285D01*
X10249204Y8965285D01*
X10242905Y8964574D01*
X10237419Y8962694D01*
X10232542Y8959596D01*
X10228427Y8955481D01*
X10225379Y8950604D01*
X10223449Y8945168D01*
X10222738Y8938818D01*
X10222738Y8639962D01*
X10223449Y8633663D01*
X10225379Y8628176D01*
X10228427Y8623300D01*
X10232542Y8619185D01*
X10237419Y8616086D01*
X10242905Y8614206D01*
G37*
G36*
X12497358Y8613495D02*
G01*
X12648641Y8613495D01*
X12654940Y8614206D01*
X12660426Y8616137D01*
X12665303Y8619185D01*
X12669418Y8623300D01*
X12672466Y8628176D01*
X12674396Y8633663D01*
X12675108Y8639962D01*
X12675108Y8938818D01*
X12674396Y8945168D01*
X12672466Y8950604D01*
X12669418Y8955532D01*
X12665303Y8959596D01*
X12660426Y8962694D01*
X12654940Y8964574D01*
X12648641Y8965285D01*
X12497358Y8965285D01*
X12491059Y8964574D01*
X12485573Y8962694D01*
X12480696Y8959596D01*
X12476581Y8955532D01*
X12473533Y8950604D01*
X12471603Y8945168D01*
X12470892Y8938818D01*
X12470892Y8639962D01*
X12471603Y8633663D01*
X12473533Y8628176D01*
X12476581Y8623300D01*
X12480696Y8619185D01*
X12485573Y8616137D01*
X12491059Y8614206D01*
G37*
G36*
X10503458Y8613495D02*
G01*
X10654741Y8613495D01*
X10661040Y8614206D01*
X10666526Y8616137D01*
X10671403Y8619185D01*
X10675518Y8623300D01*
X10678566Y8628176D01*
X10680496Y8633663D01*
X10681208Y8639962D01*
X10681208Y8938818D01*
X10680496Y8945168D01*
X10678566Y8950604D01*
X10675518Y8955532D01*
X10671403Y8959596D01*
X10666526Y8962694D01*
X10661040Y8964574D01*
X10655858Y8965184D01*
X10652201Y8966301D01*
X10649254Y8968638D01*
X10647375Y8971940D01*
X10646816Y8975648D01*
X10647680Y8979357D01*
X10649762Y8982456D01*
X10711484Y9044178D01*
X10714786Y9046362D01*
X10718647Y9047124D01*
X11475161Y9047124D01*
X11483594Y9047988D01*
X11491264Y9050274D01*
X11498326Y9054084D01*
X11504930Y9059468D01*
X11663781Y9218320D01*
X11667286Y9220606D01*
X11671401Y9221317D01*
X11675465Y9220250D01*
X11683492Y9216288D01*
X11695988Y9212072D01*
X11708942Y9209481D01*
X11722100Y9208617D01*
X11735257Y9209481D01*
X11748211Y9212072D01*
X11760708Y9216288D01*
X11772544Y9222130D01*
X11783517Y9229445D01*
X11793423Y9238183D01*
X11802160Y9248089D01*
X11809476Y9259062D01*
X11815318Y9270898D01*
X11819534Y9283395D01*
X11822125Y9296349D01*
X11822988Y9309811D01*
X11822988Y9359188D01*
X11822125Y9372650D01*
X11819534Y9385604D01*
X11815318Y9398101D01*
X11809476Y9409938D01*
X11802160Y9420910D01*
X11793423Y9430816D01*
X11783517Y9439554D01*
X11772544Y9446869D01*
X11760708Y9452711D01*
X11748211Y9456928D01*
X11735257Y9459518D01*
X11722100Y9460382D01*
X11708942Y9459518D01*
X11695988Y9456928D01*
X11683492Y9452711D01*
X11671655Y9446869D01*
X11660682Y9439554D01*
X11650776Y9430816D01*
X11642039Y9420910D01*
X11634724Y9409938D01*
X11628882Y9398101D01*
X11624665Y9385604D01*
X11622074Y9372650D01*
X11621211Y9359188D01*
X11621211Y9309811D01*
X11622024Y9297162D01*
X11621414Y9292945D01*
X11619077Y9289338D01*
X11555933Y9226194D01*
X11553190Y9224416D01*
X11551412Y9221673D01*
X11461699Y9131909D01*
X11458397Y9129725D01*
X11454485Y9128963D01*
X10698022Y9128963D01*
X10689539Y9128099D01*
X10681868Y9125813D01*
X10674807Y9122003D01*
X10668254Y9116618D01*
X10550550Y8998915D01*
X10545114Y8992311D01*
X10541355Y8985250D01*
X10539018Y8977579D01*
X10538714Y8974480D01*
X10537698Y8970924D01*
X10535412Y8967927D01*
X10532262Y8965996D01*
X10528604Y8965285D01*
X10503458Y8965285D01*
X10497159Y8964574D01*
X10491673Y8962694D01*
X10486796Y8959596D01*
X10482681Y8955532D01*
X10479633Y8950604D01*
X10477703Y8945168D01*
X10476992Y8938818D01*
X10476992Y8639962D01*
X10477703Y8633663D01*
X10479633Y8628176D01*
X10482681Y8623300D01*
X10486796Y8619185D01*
X10491673Y8616137D01*
X10497159Y8614206D01*
G37*
G36*
X14478711Y8674811D02*
G01*
X14528088Y8674811D01*
X14541550Y8675674D01*
X14554504Y8678265D01*
X14567001Y8682482D01*
X14578838Y8688324D01*
X14589810Y8695639D01*
X14599716Y8704376D01*
X14608454Y8714282D01*
X14615769Y8725255D01*
X14621611Y8737092D01*
X14625828Y8749588D01*
X14628418Y8762542D01*
X14629282Y8775700D01*
X14628418Y8788857D01*
X14625828Y8801811D01*
X14621611Y8814308D01*
X14615769Y8826144D01*
X14608454Y8837117D01*
X14599716Y8847023D01*
X14589810Y8855760D01*
X14578838Y8863076D01*
X14567001Y8868918D01*
X14554504Y8873134D01*
X14541550Y8875725D01*
X14528088Y8876588D01*
X14478711Y8876588D01*
X14466062Y8875776D01*
X14461845Y8876385D01*
X14458238Y8878722D01*
X14395094Y8941866D01*
X14393316Y8944610D01*
X14390573Y8946388D01*
X14151660Y9185249D01*
X14145107Y9190685D01*
X14138046Y9194444D01*
X14130375Y9196781D01*
X14121892Y9197594D01*
X13847216Y9197594D01*
X13843457Y9198356D01*
X13840206Y9200438D01*
X13837970Y9203588D01*
X13837056Y9207347D01*
X13837615Y9211157D01*
X13839596Y9214459D01*
X13846454Y9222282D01*
X13853769Y9233255D01*
X13859611Y9245092D01*
X13863828Y9257588D01*
X13866418Y9270542D01*
X13867282Y9283700D01*
X13866418Y9296857D01*
X13863828Y9309811D01*
X13859611Y9322308D01*
X13853769Y9334144D01*
X13846454Y9345117D01*
X13837716Y9355023D01*
X13827810Y9363760D01*
X13816838Y9371076D01*
X13805001Y9376918D01*
X13792504Y9381134D01*
X13779550Y9383725D01*
X13766088Y9384588D01*
X13716711Y9384588D01*
X13703249Y9383725D01*
X13690295Y9381134D01*
X13677798Y9376918D01*
X13665962Y9371076D01*
X13654989Y9363760D01*
X13645083Y9355023D01*
X13636345Y9345117D01*
X13629030Y9334144D01*
X13623188Y9322308D01*
X13618972Y9309811D01*
X13616381Y9296857D01*
X13615517Y9283700D01*
X13616381Y9270542D01*
X13618972Y9257588D01*
X13623188Y9245092D01*
X13629030Y9233255D01*
X13636345Y9222282D01*
X13643203Y9214459D01*
X13645184Y9211157D01*
X13645743Y9207347D01*
X13644829Y9203588D01*
X13642594Y9200438D01*
X13639342Y9198356D01*
X13635583Y9197594D01*
X13604697Y9197594D01*
X13600785Y9198356D01*
X13597483Y9200591D01*
X12992100Y9805974D01*
X12985546Y9811359D01*
X12978485Y9815169D01*
X12970814Y9817455D01*
X12967665Y9817760D01*
X12964109Y9818827D01*
X12961162Y9821062D01*
X12959181Y9824212D01*
X12958521Y9827869D01*
X12958521Y9847326D01*
X12957810Y9853676D01*
X12955879Y9859111D01*
X12952780Y9864039D01*
X12948716Y9868103D01*
X12943789Y9871202D01*
X12938353Y9873081D01*
X12932054Y9873792D01*
X12798145Y9873792D01*
X12791846Y9873081D01*
X12786410Y9871202D01*
X12781483Y9868103D01*
X12777419Y9864039D01*
X12774320Y9859111D01*
X12772390Y9853676D01*
X12771678Y9847326D01*
X12771678Y9843109D01*
X12770815Y9838994D01*
X12768376Y9835591D01*
X12764820Y9833457D01*
X12760655Y9833000D01*
X12751612Y9833762D01*
X12741808Y9832898D01*
X12732308Y9830358D01*
X12723418Y9826193D01*
X12715392Y9820605D01*
X12708432Y9813645D01*
X12702794Y9805568D01*
X12698628Y9796678D01*
X12696088Y9787178D01*
X12695224Y9777374D01*
X12696088Y9767620D01*
X12698628Y9758121D01*
X12702794Y9749231D01*
X12708432Y9741154D01*
X12715392Y9734194D01*
X12723418Y9728606D01*
X12732308Y9724440D01*
X12741808Y9721900D01*
X12751612Y9721037D01*
X12760655Y9721799D01*
X12764820Y9721342D01*
X12768376Y9719208D01*
X12770815Y9715804D01*
X12771678Y9711690D01*
X12771678Y9707473D01*
X12772390Y9701174D01*
X12774320Y9695688D01*
X12777419Y9690811D01*
X12781483Y9686696D01*
X12785547Y9683191D01*
X12787122Y9679432D01*
X12787122Y9675368D01*
X12785547Y9671608D01*
X12781483Y9668103D01*
X12777419Y9663988D01*
X12774320Y9659112D01*
X12772390Y9653625D01*
X12771678Y9647326D01*
X12771678Y9618980D01*
X12825018Y9618980D01*
X12825018Y9670846D01*
X12825780Y9674707D01*
X12827965Y9678009D01*
X12831267Y9680244D01*
X12835178Y9681006D01*
X12895021Y9681006D01*
X12898932Y9680244D01*
X12902234Y9678009D01*
X12904419Y9674707D01*
X12905181Y9670846D01*
X12905181Y9618980D01*
X12958521Y9618980D01*
X12958521Y9647326D01*
X12957810Y9653625D01*
X12955879Y9659112D01*
X12952780Y9663988D01*
X12948716Y9668103D01*
X12944652Y9671608D01*
X12943078Y9675368D01*
X12943078Y9679432D01*
X12944652Y9683191D01*
X12948716Y9686696D01*
X12952780Y9690811D01*
X12955879Y9695688D01*
X12958927Y9704882D01*
X12961264Y9707829D01*
X12964566Y9709708D01*
X12968274Y9710267D01*
X12971983Y9709404D01*
X12975082Y9707321D01*
X13554252Y9128150D01*
X13560856Y9122714D01*
X13567918Y9118955D01*
X13575588Y9116618D01*
X13584021Y9115806D01*
X13635583Y9115806D01*
X13639342Y9115044D01*
X13642594Y9112961D01*
X13644829Y9109811D01*
X13645743Y9106052D01*
X13645184Y9102242D01*
X13643203Y9098940D01*
X13636345Y9091117D01*
X13629030Y9080144D01*
X13623188Y9068308D01*
X13618972Y9055811D01*
X13616381Y9042857D01*
X13615517Y9029700D01*
X13616381Y9016542D01*
X13618972Y9003588D01*
X13623188Y8991092D01*
X13629030Y8979255D01*
X13636345Y8968282D01*
X13645083Y8958376D01*
X13654989Y8949639D01*
X13665962Y8942324D01*
X13677798Y8936482D01*
X13690295Y8932265D01*
X13703249Y8929674D01*
X13716711Y8928811D01*
X13766088Y8928811D01*
X13779550Y8929674D01*
X13792504Y8932265D01*
X13805001Y8936482D01*
X13816838Y8942324D01*
X13827810Y8949639D01*
X13837716Y8958376D01*
X13846454Y8968282D01*
X13853769Y8979255D01*
X13859611Y8991092D01*
X13863828Y9003588D01*
X13866418Y9016542D01*
X13867282Y9029700D01*
X13866418Y9042857D01*
X13863828Y9055811D01*
X13859611Y9068308D01*
X13853769Y9080144D01*
X13846454Y9091117D01*
X13839596Y9098940D01*
X13837615Y9102242D01*
X13837056Y9106052D01*
X13837970Y9109811D01*
X13840206Y9112961D01*
X13843457Y9115044D01*
X13847216Y9115806D01*
X14101267Y9115806D01*
X14105128Y9114993D01*
X14108430Y9112808D01*
X14387220Y8834018D01*
X14389506Y8830513D01*
X14390217Y8826398D01*
X14389150Y8822334D01*
X14385188Y8814308D01*
X14380972Y8801811D01*
X14378381Y8788857D01*
X14377517Y8775700D01*
X14378381Y8762542D01*
X14380972Y8749588D01*
X14385188Y8737092D01*
X14391030Y8725255D01*
X14398345Y8714282D01*
X14407083Y8704376D01*
X14416989Y8695639D01*
X14427962Y8688324D01*
X14439798Y8682482D01*
X14452295Y8678265D01*
X14465249Y8675674D01*
G37*
G36*
X13685062Y8680043D02*
G01*
X13685062Y8731859D01*
X13625779Y8731859D01*
X13629030Y8725255D01*
X13636345Y8714282D01*
X13645083Y8704376D01*
X13654989Y8695639D01*
X13665962Y8688324D01*
X13677798Y8682482D01*
G37*
G36*
X13797737Y8680043D02*
G01*
X13805001Y8682482D01*
X13816838Y8688324D01*
X13827810Y8695639D01*
X13837716Y8704376D01*
X13846454Y8714282D01*
X13853769Y8725255D01*
X13857020Y8731859D01*
X13797737Y8731859D01*
G37*
G36*
X13797737Y8819540D02*
G01*
X13857020Y8819540D01*
X13853769Y8826144D01*
X13846454Y8837117D01*
X13837716Y8847023D01*
X13827810Y8855760D01*
X13816838Y8863076D01*
X13805001Y8868918D01*
X13797737Y8871356D01*
G37*
G36*
X13625779Y8819540D02*
G01*
X13685062Y8819540D01*
X13685062Y8871356D01*
X13677798Y8868918D01*
X13665962Y8863076D01*
X13654989Y8855760D01*
X13645083Y8847023D01*
X13636345Y8837117D01*
X13629030Y8826144D01*
G37*
G36*
X14478711Y8928811D02*
G01*
X14528088Y8928811D01*
X14541550Y8929674D01*
X14554504Y8932265D01*
X14567001Y8936482D01*
X14578838Y8942324D01*
X14589810Y8949639D01*
X14599716Y8958376D01*
X14608454Y8968282D01*
X14615769Y8979255D01*
X14621611Y8991092D01*
X14625828Y9003588D01*
X14628418Y9016542D01*
X14629282Y9029700D01*
X14628418Y9042857D01*
X14625828Y9055811D01*
X14621611Y9068308D01*
X14615769Y9080144D01*
X14608454Y9091117D01*
X14599716Y9101023D01*
X14589810Y9109760D01*
X14578838Y9117076D01*
X14567001Y9122918D01*
X14554504Y9127134D01*
X14541550Y9129725D01*
X14528088Y9130588D01*
X14478711Y9130588D01*
X14465249Y9129725D01*
X14452295Y9127134D01*
X14439798Y9122918D01*
X14427962Y9117076D01*
X14416989Y9109760D01*
X14407083Y9101023D01*
X14398345Y9091117D01*
X14391030Y9080144D01*
X14385188Y9068308D01*
X14380972Y9055811D01*
X14378381Y9042857D01*
X14377517Y9029700D01*
X14378381Y9016542D01*
X14380972Y9003588D01*
X14385188Y8991092D01*
X14391030Y8979255D01*
X14398345Y8968282D01*
X14405406Y8960256D01*
X14406676Y8957970D01*
X14408962Y8956700D01*
X14416989Y8949639D01*
X14427962Y8942324D01*
X14439798Y8936482D01*
X14452295Y8932265D01*
X14465249Y8929674D01*
G37*
G36*
X14478711Y9182811D02*
G01*
X14528088Y9182811D01*
X14541550Y9183674D01*
X14554504Y9186265D01*
X14567001Y9190482D01*
X14578838Y9196324D01*
X14589810Y9203639D01*
X14599716Y9212376D01*
X14608454Y9222282D01*
X14615769Y9233255D01*
X14621611Y9245092D01*
X14625828Y9257588D01*
X14628418Y9270542D01*
X14629282Y9283700D01*
X14628418Y9296857D01*
X14625828Y9309811D01*
X14621611Y9322308D01*
X14615769Y9334144D01*
X14608454Y9345117D01*
X14599716Y9355023D01*
X14589810Y9363760D01*
X14578838Y9371076D01*
X14567001Y9376918D01*
X14554504Y9381134D01*
X14541550Y9383725D01*
X14528088Y9384588D01*
X14478711Y9384588D01*
X14465249Y9383725D01*
X14452295Y9381134D01*
X14439798Y9376918D01*
X14427962Y9371076D01*
X14416989Y9363760D01*
X14407083Y9355023D01*
X14398345Y9345117D01*
X14391030Y9334144D01*
X14385188Y9322308D01*
X14380972Y9309811D01*
X14378381Y9296857D01*
X14377517Y9283700D01*
X14378381Y9270542D01*
X14380972Y9257588D01*
X14385188Y9245092D01*
X14391030Y9233255D01*
X14398345Y9222282D01*
X14407083Y9212376D01*
X14416989Y9203639D01*
X14427962Y9196324D01*
X14439798Y9190482D01*
X14452295Y9186265D01*
X14465249Y9183674D01*
G37*
G36*
X11214100Y9208617D02*
G01*
X11227257Y9209481D01*
X11240211Y9212072D01*
X11252708Y9216288D01*
X11264544Y9222130D01*
X11275517Y9229445D01*
X11285423Y9238183D01*
X11294160Y9248089D01*
X11301476Y9259062D01*
X11307318Y9270898D01*
X11311534Y9283395D01*
X11314125Y9296349D01*
X11314988Y9309811D01*
X11314988Y9359188D01*
X11314125Y9372650D01*
X11311534Y9385604D01*
X11307318Y9398101D01*
X11301476Y9409938D01*
X11294160Y9420910D01*
X11285423Y9430816D01*
X11275517Y9439554D01*
X11264544Y9446869D01*
X11252708Y9452711D01*
X11240211Y9456928D01*
X11227257Y9459518D01*
X11214100Y9460382D01*
X11200942Y9459518D01*
X11187988Y9456928D01*
X11175492Y9452711D01*
X11163655Y9446869D01*
X11152682Y9439554D01*
X11142776Y9430816D01*
X11134039Y9420910D01*
X11126724Y9409938D01*
X11120882Y9398101D01*
X11116665Y9385604D01*
X11114074Y9372650D01*
X11113211Y9359188D01*
X11113211Y9309811D01*
X11114074Y9296349D01*
X11116665Y9283395D01*
X11120882Y9270898D01*
X11126724Y9259062D01*
X11134039Y9248089D01*
X11142776Y9238183D01*
X11152682Y9229445D01*
X11163655Y9222130D01*
X11175492Y9216288D01*
X11187988Y9212072D01*
X11200942Y9209481D01*
G37*
G36*
X8686800Y9208617D02*
G01*
X8699957Y9209481D01*
X8712911Y9212072D01*
X8725408Y9216288D01*
X8737244Y9222130D01*
X8748217Y9229445D01*
X8758123Y9238183D01*
X8766860Y9248089D01*
X8774176Y9259062D01*
X8780018Y9270898D01*
X8784234Y9283395D01*
X8786825Y9296349D01*
X8787688Y9309811D01*
X8787688Y9359188D01*
X8786825Y9372650D01*
X8784234Y9385604D01*
X8780018Y9398101D01*
X8774176Y9409938D01*
X8766860Y9420910D01*
X8758123Y9430816D01*
X8748217Y9439554D01*
X8737244Y9446869D01*
X8725408Y9452711D01*
X8712911Y9456928D01*
X8699957Y9459518D01*
X8686800Y9460382D01*
X8673642Y9459518D01*
X8660688Y9456928D01*
X8648192Y9452711D01*
X8636355Y9446869D01*
X8625382Y9439554D01*
X8615476Y9430816D01*
X8606739Y9420910D01*
X8599424Y9409938D01*
X8593582Y9398101D01*
X8589365Y9385604D01*
X8586774Y9372650D01*
X8585911Y9359188D01*
X8585911Y9309811D01*
X8586774Y9296349D01*
X8589365Y9283395D01*
X8593582Y9270898D01*
X8599424Y9259062D01*
X8606739Y9248089D01*
X8615476Y9238183D01*
X8625382Y9229445D01*
X8636355Y9222130D01*
X8648192Y9216288D01*
X8660688Y9212072D01*
X8673642Y9209481D01*
G37*
G36*
X10960100Y9208617D02*
G01*
X10973257Y9209481D01*
X10986211Y9212072D01*
X10998708Y9216288D01*
X11010544Y9222130D01*
X11021517Y9229445D01*
X11031423Y9238183D01*
X11040160Y9248089D01*
X11047476Y9259062D01*
X11053318Y9270898D01*
X11057534Y9283395D01*
X11060125Y9296349D01*
X11060988Y9309811D01*
X11060988Y9359188D01*
X11060125Y9372650D01*
X11057534Y9385604D01*
X11053318Y9398101D01*
X11047476Y9409938D01*
X11040160Y9420910D01*
X11031423Y9430816D01*
X11021517Y9439554D01*
X11010544Y9446869D01*
X10998708Y9452711D01*
X10986211Y9456928D01*
X10973257Y9459518D01*
X10960100Y9460382D01*
X10946942Y9459518D01*
X10933988Y9456928D01*
X10921492Y9452711D01*
X10909655Y9446869D01*
X10898682Y9439554D01*
X10888776Y9430816D01*
X10880039Y9420910D01*
X10872724Y9409938D01*
X10866882Y9398101D01*
X10862665Y9385604D01*
X10860074Y9372650D01*
X10859211Y9359188D01*
X10859211Y9309811D01*
X10860074Y9296349D01*
X10862665Y9283395D01*
X10866882Y9270898D01*
X10872724Y9259062D01*
X10880039Y9248089D01*
X10888776Y9238183D01*
X10898682Y9229445D01*
X10909655Y9222130D01*
X10921492Y9216288D01*
X10933988Y9212072D01*
X10946942Y9209481D01*
G37*
G36*
X8940800Y9208617D02*
G01*
X8953957Y9209481D01*
X8966911Y9212072D01*
X8979408Y9216288D01*
X8991244Y9222130D01*
X9002217Y9229445D01*
X9012123Y9238183D01*
X9020860Y9248089D01*
X9028176Y9259062D01*
X9034018Y9270898D01*
X9038234Y9283395D01*
X9040825Y9296349D01*
X9041688Y9309811D01*
X9041688Y9359188D01*
X9040825Y9372650D01*
X9038234Y9385604D01*
X9034018Y9398101D01*
X9028176Y9409938D01*
X9020860Y9420910D01*
X9012123Y9430816D01*
X9002217Y9439554D01*
X8991244Y9446869D01*
X8979408Y9452711D01*
X8966911Y9456928D01*
X8953957Y9459518D01*
X8940800Y9460382D01*
X8927642Y9459518D01*
X8914688Y9456928D01*
X8902192Y9452711D01*
X8890355Y9446869D01*
X8879382Y9439554D01*
X8869476Y9430816D01*
X8860739Y9420910D01*
X8853424Y9409938D01*
X8847582Y9398101D01*
X8843365Y9385604D01*
X8840774Y9372650D01*
X8839911Y9359188D01*
X8839911Y9309811D01*
X8840774Y9296349D01*
X8843365Y9283395D01*
X8847582Y9270898D01*
X8853424Y9259062D01*
X8860739Y9248089D01*
X8869476Y9238183D01*
X8879382Y9229445D01*
X8890355Y9222130D01*
X8902192Y9216288D01*
X8914688Y9212072D01*
X8927642Y9209481D01*
G37*
G36*
X8432800Y9208617D02*
G01*
X8445957Y9209481D01*
X8458911Y9212072D01*
X8471408Y9216288D01*
X8483244Y9222130D01*
X8494217Y9229445D01*
X8504123Y9238183D01*
X8512860Y9248089D01*
X8520176Y9259062D01*
X8526018Y9270898D01*
X8530234Y9283395D01*
X8532825Y9296349D01*
X8533688Y9309811D01*
X8533688Y9359188D01*
X8532825Y9372650D01*
X8530234Y9385604D01*
X8526018Y9398101D01*
X8520176Y9409938D01*
X8512860Y9420910D01*
X8504123Y9430816D01*
X8494217Y9439554D01*
X8483244Y9446869D01*
X8471408Y9452711D01*
X8458911Y9456928D01*
X8445957Y9459518D01*
X8432800Y9460382D01*
X8419642Y9459518D01*
X8406688Y9456928D01*
X8394192Y9452711D01*
X8382355Y9446869D01*
X8371382Y9439554D01*
X8361476Y9430816D01*
X8352739Y9420910D01*
X8345424Y9409938D01*
X8339581Y9398101D01*
X8335365Y9385604D01*
X8332774Y9372650D01*
X8331911Y9359188D01*
X8331911Y9309811D01*
X8332774Y9296349D01*
X8335365Y9283395D01*
X8339581Y9270898D01*
X8345424Y9259062D01*
X8352739Y9248089D01*
X8361476Y9238183D01*
X8371382Y9229445D01*
X8382355Y9222130D01*
X8394192Y9216288D01*
X8406688Y9212072D01*
X8419642Y9209481D01*
G37*
G36*
X10706100Y9208617D02*
G01*
X10719257Y9209481D01*
X10732211Y9212072D01*
X10744708Y9216288D01*
X10756544Y9222130D01*
X10767517Y9229445D01*
X10777423Y9238183D01*
X10786160Y9248089D01*
X10793476Y9259062D01*
X10799318Y9270898D01*
X10803534Y9283395D01*
X10806125Y9296349D01*
X10806988Y9309811D01*
X10806988Y9359188D01*
X10806125Y9372650D01*
X10803534Y9385604D01*
X10799318Y9398101D01*
X10793476Y9409938D01*
X10786160Y9420910D01*
X10777423Y9430816D01*
X10767517Y9439554D01*
X10756544Y9446869D01*
X10744708Y9452711D01*
X10732211Y9456928D01*
X10719257Y9459518D01*
X10706100Y9460382D01*
X10692942Y9459518D01*
X10679988Y9456928D01*
X10667492Y9452711D01*
X10655655Y9446869D01*
X10644682Y9439554D01*
X10634776Y9430816D01*
X10626039Y9420910D01*
X10618724Y9409938D01*
X10612882Y9398101D01*
X10608665Y9385604D01*
X10606074Y9372650D01*
X10605211Y9359188D01*
X10605211Y9309811D01*
X10606074Y9296349D01*
X10608665Y9283395D01*
X10612882Y9270898D01*
X10618724Y9259062D01*
X10626039Y9248089D01*
X10634776Y9238183D01*
X10644682Y9229445D01*
X10655655Y9222130D01*
X10667492Y9216288D01*
X10679988Y9212072D01*
X10692942Y9209481D01*
G37*
G36*
X9194800Y9208617D02*
G01*
X9207957Y9209481D01*
X9220911Y9212072D01*
X9233408Y9216288D01*
X9245244Y9222130D01*
X9256217Y9229445D01*
X9266123Y9238183D01*
X9274860Y9248089D01*
X9282176Y9259062D01*
X9288018Y9270898D01*
X9292234Y9283395D01*
X9294825Y9296349D01*
X9295688Y9309811D01*
X9295688Y9359188D01*
X9294825Y9372650D01*
X9292234Y9385604D01*
X9288018Y9398101D01*
X9282176Y9409938D01*
X9274860Y9420910D01*
X9266123Y9430816D01*
X9256217Y9439554D01*
X9245244Y9446869D01*
X9233408Y9452711D01*
X9220911Y9456928D01*
X9207957Y9459518D01*
X9194800Y9460382D01*
X9181642Y9459518D01*
X9168688Y9456928D01*
X9156192Y9452711D01*
X9144355Y9446869D01*
X9133382Y9439554D01*
X9123476Y9430816D01*
X9114739Y9420910D01*
X9107424Y9409938D01*
X9101582Y9398101D01*
X9097365Y9385604D01*
X9094774Y9372650D01*
X9093911Y9359188D01*
X9093911Y9309811D01*
X9094774Y9296349D01*
X9097365Y9283395D01*
X9101582Y9270898D01*
X9107424Y9259062D01*
X9114739Y9248089D01*
X9123476Y9238183D01*
X9133382Y9229445D01*
X9144355Y9222130D01*
X9156192Y9216288D01*
X9168688Y9212072D01*
X9181642Y9209481D01*
G37*
G36*
X10452100Y9208617D02*
G01*
X10465257Y9209481D01*
X10478211Y9212072D01*
X10490708Y9216288D01*
X10502544Y9222130D01*
X10513517Y9229445D01*
X10523423Y9238183D01*
X10532160Y9248089D01*
X10539476Y9259062D01*
X10545318Y9270898D01*
X10549534Y9283395D01*
X10552125Y9296349D01*
X10552988Y9309811D01*
X10552988Y9359188D01*
X10552125Y9372650D01*
X10549534Y9385604D01*
X10545318Y9398101D01*
X10539476Y9409938D01*
X10532160Y9420910D01*
X10523423Y9430816D01*
X10513517Y9439554D01*
X10502544Y9446869D01*
X10490708Y9452711D01*
X10478211Y9456928D01*
X10465257Y9459518D01*
X10452100Y9460382D01*
X10438942Y9459518D01*
X10425988Y9456928D01*
X10413492Y9452711D01*
X10401655Y9446869D01*
X10390682Y9439554D01*
X10380776Y9430816D01*
X10372039Y9420910D01*
X10364724Y9409938D01*
X10358882Y9398101D01*
X10354665Y9385604D01*
X10352074Y9372650D01*
X10351211Y9359188D01*
X10351211Y9309811D01*
X10352074Y9296349D01*
X10354665Y9283395D01*
X10358882Y9270898D01*
X10364724Y9259062D01*
X10372039Y9248089D01*
X10380776Y9238183D01*
X10390682Y9229445D01*
X10401655Y9222130D01*
X10413492Y9216288D01*
X10425988Y9212072D01*
X10438942Y9209481D01*
G37*
G36*
X9448800Y9208617D02*
G01*
X9461957Y9209481D01*
X9474911Y9212072D01*
X9487408Y9216288D01*
X9499244Y9222130D01*
X9510217Y9229445D01*
X9520123Y9238183D01*
X9528860Y9248089D01*
X9536176Y9259062D01*
X9542018Y9270898D01*
X9546234Y9283395D01*
X9548825Y9296349D01*
X9549688Y9309811D01*
X9549688Y9359188D01*
X9548825Y9372650D01*
X9546234Y9385604D01*
X9542018Y9398101D01*
X9536176Y9409938D01*
X9528860Y9420910D01*
X9520123Y9430816D01*
X9510217Y9439554D01*
X9499244Y9446869D01*
X9487408Y9452711D01*
X9474911Y9456928D01*
X9461957Y9459518D01*
X9448800Y9460382D01*
X9435642Y9459518D01*
X9422688Y9456928D01*
X9410192Y9452711D01*
X9398355Y9446869D01*
X9387382Y9439554D01*
X9377476Y9430816D01*
X9368739Y9420910D01*
X9361424Y9409938D01*
X9355582Y9398101D01*
X9351365Y9385604D01*
X9348774Y9372650D01*
X9347911Y9359188D01*
X9347911Y9309811D01*
X9348774Y9296349D01*
X9351365Y9283395D01*
X9355582Y9270898D01*
X9361424Y9259062D01*
X9368739Y9248089D01*
X9377476Y9238183D01*
X9387382Y9229445D01*
X9398355Y9222130D01*
X9410192Y9216288D01*
X9422688Y9212072D01*
X9435642Y9209481D01*
G37*
G36*
X10198100Y9208617D02*
G01*
X10211257Y9209481D01*
X10224211Y9212072D01*
X10236708Y9216288D01*
X10248544Y9222130D01*
X10259517Y9229445D01*
X10269423Y9238183D01*
X10278160Y9248089D01*
X10285476Y9259062D01*
X10291318Y9270898D01*
X10295534Y9283395D01*
X10298125Y9296349D01*
X10298988Y9309811D01*
X10298988Y9359188D01*
X10298125Y9372650D01*
X10295534Y9385604D01*
X10291318Y9398101D01*
X10285476Y9409938D01*
X10278160Y9420910D01*
X10269423Y9430816D01*
X10259517Y9439554D01*
X10248544Y9446869D01*
X10236708Y9452711D01*
X10224211Y9456928D01*
X10211257Y9459518D01*
X10198100Y9460382D01*
X10184942Y9459518D01*
X10171988Y9456928D01*
X10159492Y9452711D01*
X10147655Y9446869D01*
X10136682Y9439554D01*
X10126776Y9430816D01*
X10118039Y9420910D01*
X10110724Y9409938D01*
X10104882Y9398101D01*
X10100665Y9385604D01*
X10098074Y9372650D01*
X10097211Y9359188D01*
X10097211Y9309811D01*
X10098074Y9296349D01*
X10100665Y9283395D01*
X10104882Y9270898D01*
X10110724Y9259062D01*
X10118039Y9248089D01*
X10126776Y9238183D01*
X10136682Y9229445D01*
X10147655Y9222130D01*
X10159492Y9216288D01*
X10171988Y9212072D01*
X10184942Y9209481D01*
G37*
G36*
X8178800Y9208617D02*
G01*
X8191957Y9209481D01*
X8204911Y9212072D01*
X8217408Y9216288D01*
X8229244Y9222130D01*
X8240217Y9229445D01*
X8250123Y9238183D01*
X8258860Y9248089D01*
X8266175Y9259062D01*
X8272018Y9270898D01*
X8276234Y9283395D01*
X8278825Y9296349D01*
X8279688Y9309811D01*
X8279688Y9359188D01*
X8278825Y9372650D01*
X8276234Y9385604D01*
X8272018Y9398101D01*
X8266175Y9409938D01*
X8258860Y9420910D01*
X8250123Y9430816D01*
X8240217Y9439554D01*
X8229244Y9446869D01*
X8217408Y9452711D01*
X8204911Y9456928D01*
X8191957Y9459518D01*
X8178800Y9460382D01*
X8165642Y9459518D01*
X8152688Y9456928D01*
X8140192Y9452711D01*
X8128355Y9446869D01*
X8117382Y9439554D01*
X8107476Y9430816D01*
X8098739Y9420910D01*
X8091424Y9409938D01*
X8085581Y9398101D01*
X8081365Y9385604D01*
X8078774Y9372650D01*
X8077911Y9359188D01*
X8077911Y9309811D01*
X8078774Y9296349D01*
X8081365Y9283395D01*
X8085581Y9270898D01*
X8091424Y9259062D01*
X8098739Y9248089D01*
X8107476Y9238183D01*
X8117382Y9229445D01*
X8128355Y9222130D01*
X8140192Y9216288D01*
X8152688Y9212072D01*
X8165642Y9209481D01*
G37*
G36*
X11468100Y9208617D02*
G01*
X11481257Y9209481D01*
X11494211Y9212072D01*
X11506708Y9216288D01*
X11518544Y9222130D01*
X11529517Y9229445D01*
X11537543Y9236506D01*
X11539829Y9237776D01*
X11541099Y9240062D01*
X11548160Y9248089D01*
X11555476Y9259062D01*
X11561318Y9270898D01*
X11565534Y9283395D01*
X11568125Y9296349D01*
X11568988Y9309811D01*
X11568988Y9359188D01*
X11568125Y9372650D01*
X11565534Y9385604D01*
X11561318Y9398101D01*
X11555476Y9409938D01*
X11548160Y9420910D01*
X11539423Y9430816D01*
X11529517Y9439554D01*
X11518544Y9446869D01*
X11506708Y9452711D01*
X11494211Y9456928D01*
X11481257Y9459518D01*
X11468100Y9460382D01*
X11454942Y9459518D01*
X11441988Y9456928D01*
X11429492Y9452711D01*
X11417655Y9446869D01*
X11406682Y9439554D01*
X11396776Y9430816D01*
X11388039Y9420910D01*
X11380724Y9409938D01*
X11374882Y9398101D01*
X11370665Y9385604D01*
X11368074Y9372650D01*
X11367211Y9359188D01*
X11367211Y9309811D01*
X11368074Y9296349D01*
X11370665Y9283395D01*
X11374882Y9270898D01*
X11380724Y9259062D01*
X11388039Y9248089D01*
X11396776Y9238183D01*
X11406682Y9229445D01*
X11417655Y9222130D01*
X11429492Y9216288D01*
X11441988Y9212072D01*
X11454942Y9209481D01*
G37*
G36*
X11976100Y9208617D02*
G01*
X11989257Y9209481D01*
X12002211Y9212072D01*
X12014708Y9216288D01*
X12026544Y9222130D01*
X12037517Y9229445D01*
X12047423Y9238183D01*
X12056160Y9248089D01*
X12063476Y9259062D01*
X12069318Y9270898D01*
X12073534Y9283395D01*
X12076125Y9296349D01*
X12076988Y9309811D01*
X12076988Y9359188D01*
X12076125Y9372650D01*
X12073534Y9385604D01*
X12069318Y9398101D01*
X12063476Y9409938D01*
X12056160Y9420910D01*
X12047423Y9430816D01*
X12037517Y9439554D01*
X12026544Y9446869D01*
X12014708Y9452711D01*
X12002211Y9456928D01*
X11989257Y9459518D01*
X11976100Y9460382D01*
X11962942Y9459518D01*
X11949988Y9456928D01*
X11937492Y9452711D01*
X11925655Y9446869D01*
X11914682Y9439554D01*
X11904776Y9430816D01*
X11896039Y9420910D01*
X11888724Y9409938D01*
X11882882Y9398101D01*
X11878665Y9385604D01*
X11876074Y9372650D01*
X11875211Y9359188D01*
X11875211Y9309811D01*
X11876074Y9296349D01*
X11878665Y9283395D01*
X11882882Y9270898D01*
X11888724Y9259062D01*
X11896039Y9248089D01*
X11904776Y9238183D01*
X11914682Y9229445D01*
X11925655Y9222130D01*
X11937492Y9216288D01*
X11949988Y9212072D01*
X11962942Y9209481D01*
G37*
G36*
X9702800Y9208617D02*
G01*
X9715957Y9209481D01*
X9728911Y9212072D01*
X9741408Y9216288D01*
X9753244Y9222130D01*
X9764217Y9229445D01*
X9774123Y9238183D01*
X9782860Y9248089D01*
X9790176Y9259062D01*
X9796018Y9270898D01*
X9800234Y9283395D01*
X9802825Y9296349D01*
X9803688Y9309811D01*
X9803688Y9359188D01*
X9802825Y9372650D01*
X9800234Y9385604D01*
X9796018Y9398101D01*
X9790176Y9409938D01*
X9782860Y9420910D01*
X9774123Y9430816D01*
X9764217Y9439554D01*
X9753244Y9446869D01*
X9741408Y9452711D01*
X9728911Y9456928D01*
X9715957Y9459518D01*
X9702800Y9460382D01*
X9689642Y9459518D01*
X9676688Y9456928D01*
X9664192Y9452711D01*
X9652355Y9446869D01*
X9641382Y9439554D01*
X9631476Y9430816D01*
X9622739Y9420910D01*
X9615424Y9409938D01*
X9609582Y9398101D01*
X9605365Y9385604D01*
X9602774Y9372650D01*
X9601911Y9359188D01*
X9601911Y9309811D01*
X9602774Y9296349D01*
X9605365Y9283395D01*
X9609582Y9270898D01*
X9615424Y9259062D01*
X9622739Y9248089D01*
X9631476Y9238183D01*
X9641382Y9229445D01*
X9652355Y9222130D01*
X9664192Y9216288D01*
X9676688Y9212072D01*
X9689642Y9209481D01*
G37*
G36*
X13716711Y9436811D02*
G01*
X13766088Y9436811D01*
X13779550Y9437674D01*
X13792504Y9440265D01*
X13805001Y9444482D01*
X13816838Y9450324D01*
X13827810Y9457639D01*
X13837716Y9466376D01*
X13846454Y9476282D01*
X13853769Y9487255D01*
X13859611Y9499092D01*
X13863828Y9511588D01*
X13866418Y9524542D01*
X13867282Y9537700D01*
X13866418Y9550857D01*
X13863828Y9563811D01*
X13859611Y9576308D01*
X13853769Y9588144D01*
X13846454Y9599117D01*
X13837716Y9609023D01*
X13827810Y9617760D01*
X13816838Y9625076D01*
X13805001Y9630918D01*
X13792504Y9635134D01*
X13779550Y9637725D01*
X13766088Y9638588D01*
X13716711Y9638588D01*
X13703249Y9637725D01*
X13690295Y9635134D01*
X13677798Y9630918D01*
X13665962Y9625076D01*
X13654989Y9617760D01*
X13645083Y9609023D01*
X13636345Y9599117D01*
X13629030Y9588144D01*
X13623188Y9576308D01*
X13618972Y9563811D01*
X13616381Y9550857D01*
X13615517Y9537700D01*
X13616381Y9524542D01*
X13618972Y9511588D01*
X13623188Y9499092D01*
X13629030Y9487255D01*
X13636345Y9476282D01*
X13645083Y9466376D01*
X13654989Y9457639D01*
X13665962Y9450324D01*
X13677798Y9444482D01*
X13690295Y9440265D01*
X13703249Y9437674D01*
G37*
G36*
X14478711Y9436811D02*
G01*
X14528088Y9436811D01*
X14541550Y9437674D01*
X14554504Y9440265D01*
X14567001Y9444482D01*
X14578838Y9450324D01*
X14589810Y9457639D01*
X14599716Y9466376D01*
X14608454Y9476282D01*
X14615769Y9487255D01*
X14621611Y9499092D01*
X14625828Y9511588D01*
X14628418Y9524542D01*
X14629282Y9537700D01*
X14628418Y9550857D01*
X14625828Y9563811D01*
X14621611Y9576308D01*
X14615769Y9588144D01*
X14608454Y9599117D01*
X14599716Y9609023D01*
X14589810Y9617760D01*
X14578838Y9625076D01*
X14567001Y9630918D01*
X14554504Y9635134D01*
X14541550Y9637725D01*
X14528088Y9638588D01*
X14478711Y9638588D01*
X14465249Y9637725D01*
X14452295Y9635134D01*
X14439798Y9630918D01*
X14427962Y9625076D01*
X14416989Y9617760D01*
X14407083Y9609023D01*
X14398345Y9599117D01*
X14391030Y9588144D01*
X14385188Y9576308D01*
X14380972Y9563811D01*
X14378381Y9550857D01*
X14377517Y9537700D01*
X14378381Y9524542D01*
X14380972Y9511588D01*
X14385188Y9499092D01*
X14391030Y9487255D01*
X14398345Y9476282D01*
X14407083Y9466376D01*
X14416989Y9457639D01*
X14427962Y9450324D01*
X14439798Y9444482D01*
X14452295Y9440265D01*
X14465249Y9437674D01*
G37*
G36*
X12798145Y9481007D02*
G01*
X12825018Y9481007D01*
X12825018Y9535820D01*
X12771678Y9535820D01*
X12771678Y9507474D01*
X12772390Y9501124D01*
X12774320Y9495688D01*
X12777419Y9490760D01*
X12781483Y9486696D01*
X12786410Y9483598D01*
X12791846Y9481718D01*
G37*
G36*
X12905181Y9481007D02*
G01*
X12932054Y9481007D01*
X12938353Y9481718D01*
X12943789Y9483598D01*
X12948716Y9486696D01*
X12952780Y9490760D01*
X12955879Y9495688D01*
X12957810Y9501124D01*
X12958521Y9507474D01*
X12958521Y9535820D01*
X12905181Y9535820D01*
G37*
G36*
X14478711Y9690811D02*
G01*
X14528088Y9690811D01*
X14541550Y9691674D01*
X14554504Y9694265D01*
X14567001Y9698482D01*
X14578838Y9704324D01*
X14589810Y9711639D01*
X14599716Y9720376D01*
X14608454Y9730282D01*
X14615769Y9741255D01*
X14621611Y9753092D01*
X14625828Y9765588D01*
X14628418Y9778542D01*
X14629282Y9791700D01*
X14628418Y9804857D01*
X14625828Y9817811D01*
X14621611Y9830308D01*
X14615769Y9842144D01*
X14608454Y9853117D01*
X14599716Y9863023D01*
X14589810Y9871760D01*
X14578838Y9879076D01*
X14567001Y9884918D01*
X14554504Y9889134D01*
X14541550Y9891725D01*
X14528088Y9892588D01*
X14478711Y9892588D01*
X14465249Y9891725D01*
X14452295Y9889134D01*
X14439798Y9884918D01*
X14427962Y9879076D01*
X14416989Y9871760D01*
X14407083Y9863023D01*
X14398345Y9853117D01*
X14391030Y9842144D01*
X14385188Y9830308D01*
X14380972Y9817811D01*
X14378381Y9804857D01*
X14377517Y9791700D01*
X14378381Y9778542D01*
X14380972Y9765588D01*
X14385188Y9753092D01*
X14391030Y9741255D01*
X14398345Y9730282D01*
X14407083Y9720376D01*
X14416989Y9711639D01*
X14427962Y9704324D01*
X14439798Y9698482D01*
X14452295Y9694265D01*
X14465249Y9691674D01*
G37*
G36*
X13716711Y9690811D02*
G01*
X13766088Y9690811D01*
X13779550Y9691674D01*
X13792504Y9694265D01*
X13805001Y9698482D01*
X13816838Y9704324D01*
X13827810Y9711639D01*
X13837716Y9720376D01*
X13846454Y9730282D01*
X13853769Y9741255D01*
X13859611Y9753092D01*
X13863828Y9765588D01*
X13866418Y9778542D01*
X13867282Y9791700D01*
X13866418Y9804857D01*
X13863828Y9817811D01*
X13859611Y9830308D01*
X13853769Y9842144D01*
X13846454Y9853117D01*
X13837716Y9863023D01*
X13827810Y9871760D01*
X13816838Y9879076D01*
X13805001Y9884918D01*
X13792504Y9889134D01*
X13779550Y9891725D01*
X13766088Y9892588D01*
X13716711Y9892588D01*
X13704062Y9891776D01*
X13699845Y9892385D01*
X13696238Y9894722D01*
X13633094Y9957866D01*
X13631316Y9960610D01*
X13628573Y9962388D01*
X13349528Y10241432D01*
X13347293Y10244734D01*
X13346531Y10248646D01*
X13347293Y10252506D01*
X13349528Y10255808D01*
X13352780Y10257993D01*
X13356691Y10258806D01*
X13618006Y10258806D01*
X13621715Y10258094D01*
X13624864Y10256113D01*
X13627100Y10253116D01*
X13629030Y10249255D01*
X13636345Y10238282D01*
X13645083Y10228376D01*
X13654989Y10219639D01*
X13665962Y10212324D01*
X13677798Y10206482D01*
X13690295Y10202265D01*
X13703249Y10199674D01*
X13716711Y10198811D01*
X13766088Y10198811D01*
X13779550Y10199674D01*
X13792504Y10202265D01*
X13805001Y10206482D01*
X13816228Y10212019D01*
X13820190Y10213086D01*
X13824254Y10212476D01*
X13827709Y10210292D01*
X13830046Y10206939D01*
X13830909Y10202926D01*
X13830909Y10197236D01*
X13830147Y10193375D01*
X13827912Y10190073D01*
X13786561Y10148722D01*
X13782954Y10146385D01*
X13778738Y10145776D01*
X13766088Y10146588D01*
X13716711Y10146588D01*
X13703249Y10145725D01*
X13690295Y10143134D01*
X13677798Y10138918D01*
X13665962Y10133076D01*
X13654989Y10125760D01*
X13645083Y10117023D01*
X13636345Y10107117D01*
X13629030Y10096144D01*
X13623188Y10084308D01*
X13618972Y10071811D01*
X13616381Y10058857D01*
X13615517Y10045700D01*
X13616381Y10032542D01*
X13618972Y10019588D01*
X13623188Y10007092D01*
X13629030Y9995255D01*
X13636345Y9984282D01*
X13643406Y9976256D01*
X13644676Y9973970D01*
X13646962Y9972700D01*
X13654989Y9965639D01*
X13665962Y9958324D01*
X13677798Y9952482D01*
X13690295Y9948265D01*
X13703249Y9945674D01*
X13716711Y9944811D01*
X13766088Y9944811D01*
X13779550Y9945674D01*
X13792504Y9948265D01*
X13805001Y9952482D01*
X13816838Y9958324D01*
X13827810Y9965639D01*
X13837716Y9974376D01*
X13846454Y9984282D01*
X13853769Y9995255D01*
X13859611Y10007092D01*
X13863828Y10019588D01*
X13866418Y10032542D01*
X13867282Y10045700D01*
X13866418Y10058857D01*
X13863828Y10071811D01*
X13859611Y10084308D01*
X13855649Y10092334D01*
X13854582Y10096398D01*
X13855293Y10100513D01*
X13857579Y10104018D01*
X13900353Y10146842D01*
X13905788Y10153396D01*
X13909548Y10160457D01*
X13911884Y10168128D01*
X13912697Y10176611D01*
X13912697Y10649864D01*
X13911884Y10658297D01*
X13909548Y10665968D01*
X13905788Y10673029D01*
X13900353Y10679633D01*
X13611555Y10968431D01*
X13604951Y10973866D01*
X13597890Y10977626D01*
X13590219Y10979962D01*
X13581786Y10980775D01*
X13259307Y10980775D01*
X13255396Y10981537D01*
X13252145Y10983772D01*
X13249910Y10987074D01*
X13249148Y10990935D01*
X13249148Y11127181D01*
X13248436Y11133480D01*
X13246506Y11138966D01*
X13243458Y11143843D01*
X13239343Y11147958D01*
X13234466Y11151006D01*
X13228980Y11152936D01*
X13222681Y11153648D01*
X13066318Y11153648D01*
X13060019Y11152936D01*
X13054533Y11151006D01*
X13049656Y11147958D01*
X13045541Y11143843D01*
X13043408Y11140440D01*
X13040969Y11137747D01*
X13037718Y11136122D01*
X13034111Y11135715D01*
X13030606Y11136579D01*
X13027609Y11138662D01*
X12207392Y11958878D01*
X12200788Y11964263D01*
X12193727Y11968073D01*
X12186056Y11970359D01*
X12177623Y11971223D01*
X8852966Y11971223D01*
X8849106Y11971985D01*
X8845804Y11974169D01*
X8825687Y11994337D01*
X8823299Y11997994D01*
X8822740Y12002312D01*
X8824010Y12006478D01*
X8826906Y12009729D01*
X8830868Y12011456D01*
X8841232Y12013539D01*
X8854338Y12017959D01*
X8866733Y12024106D01*
X8878265Y12031776D01*
X8888679Y12040920D01*
X8897823Y12051334D01*
X8905494Y12062866D01*
X8911640Y12075261D01*
X8916060Y12088418D01*
X8918803Y12101982D01*
X8919667Y12115800D01*
X8918803Y12129617D01*
X8916060Y12143232D01*
X8911640Y12156338D01*
X8905494Y12168733D01*
X8897823Y12180265D01*
X8888679Y12190679D01*
X8878265Y12199823D01*
X8866733Y12207494D01*
X8854338Y12213640D01*
X8841232Y12218060D01*
X8827617Y12220803D01*
X8813800Y12221667D01*
X8799982Y12220803D01*
X8786418Y12218060D01*
X8773261Y12213640D01*
X8760866Y12207494D01*
X8749334Y12199823D01*
X8738920Y12190679D01*
X8730132Y12180620D01*
X8726830Y12178131D01*
X8722817Y12177166D01*
X8718753Y12177877D01*
X8715298Y12180163D01*
X8634577Y12260884D01*
X8627973Y12266269D01*
X8620912Y12270079D01*
X8613241Y12272365D01*
X8604808Y12273229D01*
X8168792Y12273229D01*
X8160359Y12272365D01*
X8152688Y12270079D01*
X8145627Y12266269D01*
X8139023Y12260884D01*
X8096402Y12218212D01*
X8093303Y12216130D01*
X8089646Y12215266D01*
X8085937Y12215774D01*
X8079181Y12218060D01*
X8065617Y12220803D01*
X8051800Y12221667D01*
X8037982Y12220803D01*
X8024418Y12218060D01*
X8011261Y12213640D01*
X7998866Y12207494D01*
X7987334Y12199823D01*
X7976920Y12190679D01*
X7967776Y12180265D01*
X7960106Y12168733D01*
X7953959Y12156338D01*
X7949539Y12143181D01*
X7946796Y12129617D01*
X7945932Y12115800D01*
X7946796Y12101982D01*
X7949539Y12088418D01*
X7953959Y12075261D01*
X7960106Y12062866D01*
X7967776Y12051334D01*
X7976920Y12040920D01*
X7987334Y12031776D01*
X7998866Y12024106D01*
X8011261Y12017959D01*
X8024418Y12013539D01*
X8037982Y12010796D01*
X8051800Y12009932D01*
X8065617Y12010796D01*
X8079181Y12013539D01*
X8092338Y12017959D01*
X8104733Y12024106D01*
X8116265Y12031776D01*
X8126679Y12040920D01*
X8135823Y12051334D01*
X8143494Y12062866D01*
X8149640Y12075261D01*
X8154060Y12088418D01*
X8156803Y12101982D01*
X8157667Y12115800D01*
X8156803Y12129617D01*
X8154060Y12143181D01*
X8151774Y12149937D01*
X8151266Y12153646D01*
X8152130Y12157303D01*
X8154212Y12160402D01*
X8182254Y12188444D01*
X8185556Y12190628D01*
X8189468Y12191390D01*
X8210245Y12191390D01*
X8214461Y12190476D01*
X8217966Y12187834D01*
X8219998Y12184024D01*
X8220252Y12179655D01*
X8218678Y12175591D01*
X8214106Y12168733D01*
X8207959Y12156338D01*
X8203539Y12143232D01*
X8200847Y12129617D01*
X8199932Y12115800D01*
X8200847Y12101982D01*
X8203539Y12088418D01*
X8207959Y12075261D01*
X8214106Y12062866D01*
X8221776Y12051334D01*
X8230920Y12040920D01*
X8241334Y12031776D01*
X8252866Y12024106D01*
X8265261Y12017959D01*
X8278418Y12013539D01*
X8291982Y12010847D01*
X8305800Y12009932D01*
X8319617Y12010847D01*
X8333231Y12013539D01*
X8339937Y12015825D01*
X8343646Y12016333D01*
X8347303Y12015470D01*
X8350402Y12013387D01*
X9038539Y11325250D01*
X9045092Y11319814D01*
X9052153Y11316055D01*
X9059824Y11313718D01*
X9068308Y11312906D01*
X11296294Y11312906D01*
X11300206Y11312093D01*
X11303508Y11309908D01*
X12109856Y10503560D01*
X12112193Y10499852D01*
X12112752Y10495483D01*
X12111431Y10491317D01*
X12108484Y10488066D01*
X12104573Y10485323D01*
X12101830Y10484002D01*
X12098782Y10483494D01*
X11718747Y10483494D01*
X11714530Y10484408D01*
X11711076Y10486999D01*
X11708993Y10490758D01*
X11708688Y10495026D01*
X11710111Y10499090D01*
X11711076Y10500563D01*
X11713006Y10506049D01*
X11713718Y10512348D01*
X11713718Y10671251D01*
X11713006Y10677550D01*
X11711076Y10683036D01*
X11708028Y10687913D01*
X11703913Y10692028D01*
X11699036Y10695076D01*
X11693550Y10697006D01*
X11687251Y10697718D01*
X11528348Y10697718D01*
X11522049Y10697006D01*
X11516563Y10695076D01*
X11511686Y10692028D01*
X11507571Y10687913D01*
X11504523Y10683036D01*
X11502593Y10677550D01*
X11501882Y10671251D01*
X11501882Y10512348D01*
X11502593Y10506049D01*
X11504523Y10500563D01*
X11505488Y10499090D01*
X11506911Y10495026D01*
X11506606Y10490758D01*
X11504523Y10486999D01*
X11501069Y10484408D01*
X11496852Y10483494D01*
X11415420Y10483494D01*
X11411204Y10484408D01*
X11407749Y10486948D01*
X11405666Y10490708D01*
X11405311Y10494975D01*
X11406784Y10499039D01*
X11409781Y10502138D01*
X11418265Y10507776D01*
X11428679Y10516920D01*
X11437823Y10527334D01*
X11445494Y10538866D01*
X11448745Y10545470D01*
X11400129Y10545470D01*
X11400129Y10493654D01*
X11399367Y10489793D01*
X11397183Y10486491D01*
X11393881Y10484256D01*
X11389969Y10483494D01*
X11317630Y10483494D01*
X11313718Y10484256D01*
X11310416Y10486491D01*
X11308232Y10489793D01*
X11307470Y10493654D01*
X11307470Y10545470D01*
X11258854Y10545470D01*
X11262106Y10538866D01*
X11269776Y10527334D01*
X11278920Y10516920D01*
X11289334Y10507776D01*
X11297818Y10502138D01*
X11300815Y10499039D01*
X11302288Y10494975D01*
X11301933Y10490708D01*
X11299850Y10486948D01*
X11296396Y10484408D01*
X11292179Y10483494D01*
X11161369Y10483494D01*
X11157204Y10484408D01*
X11153749Y10486948D01*
X11151666Y10490708D01*
X11151311Y10494975D01*
X11152784Y10499039D01*
X11155730Y10502138D01*
X11164265Y10507776D01*
X11174679Y10516920D01*
X11183772Y10527334D01*
X11191494Y10538866D01*
X11197640Y10551261D01*
X11202060Y10564418D01*
X11204752Y10577982D01*
X11205667Y10591800D01*
X11204752Y10605617D01*
X11202060Y10619232D01*
X11197640Y10632338D01*
X11191494Y10644733D01*
X11183772Y10656265D01*
X11174679Y10666679D01*
X11164265Y10675823D01*
X11152733Y10683494D01*
X11140338Y10689640D01*
X11127181Y10694060D01*
X11113617Y10696803D01*
X11099800Y10697667D01*
X11085982Y10696803D01*
X11072368Y10694060D01*
X11059261Y10689640D01*
X11046866Y10683494D01*
X11035334Y10675823D01*
X11024920Y10666679D01*
X11015776Y10656265D01*
X11008106Y10644733D01*
X11001959Y10632338D01*
X10997539Y10619232D01*
X10994796Y10605617D01*
X10993882Y10591800D01*
X10994796Y10577982D01*
X10997539Y10564418D01*
X11001959Y10551261D01*
X11008106Y10538866D01*
X11015776Y10527334D01*
X11024920Y10516920D01*
X11035334Y10507776D01*
X11043818Y10502138D01*
X11046815Y10499039D01*
X11048288Y10494975D01*
X11047933Y10490708D01*
X11045850Y10486948D01*
X11042396Y10484408D01*
X11038179Y10483494D01*
X11016132Y10483494D01*
X11012271Y10484256D01*
X11008969Y10486491D01*
X10948212Y10547248D01*
X10946079Y10550347D01*
X10945215Y10554004D01*
X10945774Y10557713D01*
X10948009Y10564368D01*
X10950702Y10577931D01*
X10951616Y10591749D01*
X10950702Y10605566D01*
X10948009Y10619181D01*
X10943590Y10632287D01*
X10937443Y10644682D01*
X10929772Y10656214D01*
X10920628Y10666628D01*
X10910214Y10675772D01*
X10898682Y10683443D01*
X10886287Y10689590D01*
X10873130Y10694009D01*
X10859566Y10696752D01*
X10845749Y10697616D01*
X10831931Y10696752D01*
X10818317Y10694009D01*
X10805210Y10689590D01*
X10792815Y10683443D01*
X10781284Y10675772D01*
X10770870Y10666628D01*
X10761726Y10656214D01*
X10754055Y10644682D01*
X10747908Y10632287D01*
X10743488Y10619181D01*
X10740745Y10605566D01*
X10739882Y10591749D01*
X10740745Y10577931D01*
X10743488Y10564368D01*
X10747908Y10551210D01*
X10754055Y10538815D01*
X10761726Y10527284D01*
X10770870Y10516870D01*
X10781284Y10507726D01*
X10792815Y10500055D01*
X10805210Y10493908D01*
X10818317Y10489488D01*
X10831931Y10486796D01*
X10845749Y10485882D01*
X10859566Y10486796D01*
X10873130Y10489488D01*
X10879937Y10491774D01*
X10883646Y10492333D01*
X10887303Y10491470D01*
X10890402Y10489336D01*
X10940999Y10438739D01*
X10943183Y10435437D01*
X10943996Y10431576D01*
X10943183Y10427665D01*
X10940999Y10424363D01*
X10937697Y10422178D01*
X10933836Y10421416D01*
X9554260Y10421416D01*
X9550349Y10422178D01*
X9547047Y10424363D01*
X9424212Y10547248D01*
X9422079Y10550347D01*
X9421215Y10554004D01*
X9421774Y10557713D01*
X9424009Y10564368D01*
X9426702Y10577931D01*
X9427616Y10591749D01*
X9426702Y10605566D01*
X9424009Y10619181D01*
X9419590Y10632287D01*
X9413443Y10644682D01*
X9405772Y10656214D01*
X9396628Y10666628D01*
X9386214Y10675772D01*
X9374682Y10683443D01*
X9362287Y10689590D01*
X9349130Y10694009D01*
X9335566Y10696752D01*
X9321749Y10697616D01*
X9307931Y10696752D01*
X9294317Y10694009D01*
X9281210Y10689590D01*
X9268815Y10683443D01*
X9257284Y10675772D01*
X9246870Y10666628D01*
X9237726Y10656214D01*
X9230055Y10644682D01*
X9223908Y10632287D01*
X9219488Y10619181D01*
X9216745Y10605566D01*
X9215882Y10591749D01*
X9216745Y10577931D01*
X9219488Y10564368D01*
X9223908Y10551210D01*
X9230055Y10538815D01*
X9237726Y10527284D01*
X9246870Y10516870D01*
X9257284Y10507726D01*
X9268815Y10500055D01*
X9281210Y10493908D01*
X9294317Y10489488D01*
X9307931Y10486796D01*
X9321749Y10485882D01*
X9335566Y10486796D01*
X9349130Y10489488D01*
X9355937Y10491774D01*
X9359646Y10492333D01*
X9363303Y10491470D01*
X9366402Y10489336D01*
X9503816Y10351922D01*
X9507575Y10348823D01*
X9510166Y10345623D01*
X9511284Y10341660D01*
X9510674Y10337546D01*
X9508540Y10334040D01*
X9505188Y10331653D01*
X9501124Y10330840D01*
X9390837Y10330840D01*
X9386925Y10331602D01*
X9383623Y10333786D01*
X9170212Y10547248D01*
X9168130Y10550296D01*
X9167266Y10553954D01*
X9167774Y10557662D01*
X9170060Y10564418D01*
X9172752Y10577982D01*
X9173667Y10591800D01*
X9172752Y10605617D01*
X9170060Y10619232D01*
X9165640Y10632338D01*
X9159494Y10644733D01*
X9151823Y10656265D01*
X9142679Y10666679D01*
X9132265Y10675823D01*
X9120733Y10683494D01*
X9108338Y10689640D01*
X9095181Y10694060D01*
X9081617Y10696803D01*
X9067800Y10697667D01*
X9053982Y10696803D01*
X9040368Y10694060D01*
X9027261Y10689640D01*
X9014866Y10683494D01*
X9003334Y10675823D01*
X8992920Y10666679D01*
X8983776Y10656265D01*
X8976106Y10644733D01*
X8969959Y10632338D01*
X8965539Y10619232D01*
X8962796Y10605617D01*
X8961932Y10591800D01*
X8962796Y10577982D01*
X8965539Y10564418D01*
X8969959Y10551261D01*
X8976106Y10538866D01*
X8983776Y10527334D01*
X8992920Y10516920D01*
X9003334Y10507776D01*
X9014866Y10500106D01*
X9027261Y10493959D01*
X9040368Y10489539D01*
X9053982Y10486847D01*
X9067800Y10485932D01*
X9081617Y10486847D01*
X9095181Y10489539D01*
X9101937Y10491825D01*
X9105646Y10492333D01*
X9109303Y10491470D01*
X9112351Y10489387D01*
X9316618Y10285120D01*
X9318802Y10281818D01*
X9319615Y10277957D01*
X9318802Y10274046D01*
X9316618Y10270744D01*
X9313316Y10268559D01*
X9309455Y10267797D01*
X8437880Y10267797D01*
X8433968Y10268559D01*
X8430666Y10270744D01*
X8154212Y10547197D01*
X8152130Y10550296D01*
X8151266Y10553954D01*
X8151774Y10557662D01*
X8154060Y10564418D01*
X8156752Y10577982D01*
X8157667Y10591800D01*
X8156752Y10605617D01*
X8154060Y10619232D01*
X8149640Y10632338D01*
X8143494Y10644733D01*
X8135823Y10656265D01*
X8126679Y10666679D01*
X8116265Y10675823D01*
X8104733Y10683494D01*
X8092338Y10689640D01*
X8079181Y10694060D01*
X8065617Y10696803D01*
X8051800Y10697667D01*
X8037982Y10696803D01*
X8024368Y10694060D01*
X8011261Y10689640D01*
X7998866Y10683494D01*
X7987334Y10675823D01*
X7976920Y10666679D01*
X7967776Y10656265D01*
X7960106Y10644733D01*
X7953959Y10632338D01*
X7949539Y10619232D01*
X7946796Y10605617D01*
X7945932Y10591800D01*
X7946796Y10577982D01*
X7949539Y10564418D01*
X7953959Y10551261D01*
X7960106Y10538866D01*
X7967776Y10527334D01*
X7976920Y10516920D01*
X7987334Y10507776D01*
X7998866Y10500106D01*
X8011261Y10493959D01*
X8024368Y10489539D01*
X8037982Y10486847D01*
X8051800Y10485932D01*
X8065617Y10486847D01*
X8079181Y10489539D01*
X8085937Y10491825D01*
X8089646Y10492333D01*
X8093303Y10491470D01*
X8096402Y10489387D01*
X8370570Y10215219D01*
X8372805Y10211765D01*
X8373516Y10207701D01*
X8372551Y10203688D01*
X8370062Y10200386D01*
X8361476Y10192816D01*
X8352739Y10182910D01*
X8345424Y10171938D01*
X8339581Y10160101D01*
X8335365Y10147604D01*
X8332774Y10134650D01*
X8331911Y10121188D01*
X8331911Y10071811D01*
X8332774Y10058349D01*
X8335365Y10045395D01*
X8339581Y10032898D01*
X8345424Y10021062D01*
X8352739Y10010089D01*
X8361476Y10000183D01*
X8371382Y9991445D01*
X8382355Y9984130D01*
X8394192Y9978288D01*
X8406688Y9974072D01*
X8419642Y9971481D01*
X8432800Y9970617D01*
X8445957Y9971481D01*
X8458911Y9974072D01*
X8471408Y9978288D01*
X8483244Y9984130D01*
X8494217Y9991445D01*
X8504123Y10000183D01*
X8512860Y10010089D01*
X8520176Y10021062D01*
X8526018Y10032898D01*
X8530234Y10045395D01*
X8532825Y10058349D01*
X8533688Y10071811D01*
X8533688Y10121188D01*
X8532825Y10134650D01*
X8530234Y10147604D01*
X8526018Y10160101D01*
X8520480Y10171328D01*
X8519464Y10175290D01*
X8520074Y10179304D01*
X8522208Y10182809D01*
X8525560Y10185146D01*
X8529574Y10185958D01*
X8590026Y10185958D01*
X8594039Y10185146D01*
X8597392Y10182809D01*
X8599525Y10179304D01*
X8600135Y10175290D01*
X8599119Y10171328D01*
X8593582Y10160101D01*
X8589365Y10147604D01*
X8586774Y10134650D01*
X8585911Y10121188D01*
X8585911Y10071811D01*
X8586774Y10058349D01*
X8589365Y10045395D01*
X8593582Y10032898D01*
X8599424Y10021062D01*
X8606739Y10010089D01*
X8615476Y10000183D01*
X8625382Y9991445D01*
X8636355Y9984130D01*
X8648192Y9978288D01*
X8660688Y9974072D01*
X8673642Y9971481D01*
X8686800Y9970617D01*
X8699957Y9971481D01*
X8712911Y9974072D01*
X8725408Y9978288D01*
X8737244Y9984130D01*
X8748217Y9991445D01*
X8758123Y10000183D01*
X8766860Y10010089D01*
X8774176Y10021062D01*
X8780018Y10032898D01*
X8784234Y10045395D01*
X8786825Y10058349D01*
X8787688Y10071811D01*
X8787688Y10121188D01*
X8786825Y10134650D01*
X8784234Y10147604D01*
X8780018Y10160101D01*
X8774480Y10171328D01*
X8773464Y10175290D01*
X8774074Y10179304D01*
X8776208Y10182809D01*
X8779560Y10185146D01*
X8783574Y10185958D01*
X8844026Y10185958D01*
X8848039Y10185146D01*
X8851392Y10182809D01*
X8853525Y10179304D01*
X8854135Y10175290D01*
X8853119Y10171328D01*
X8847582Y10160101D01*
X8843365Y10147604D01*
X8840774Y10134650D01*
X8839911Y10121188D01*
X8839911Y10071811D01*
X8840774Y10058349D01*
X8843365Y10045395D01*
X8847582Y10032898D01*
X8853424Y10021062D01*
X8860739Y10010089D01*
X8869476Y10000183D01*
X8879382Y9991445D01*
X8890355Y9984130D01*
X8902192Y9978288D01*
X8914688Y9974072D01*
X8927642Y9971481D01*
X8940800Y9970617D01*
X8953957Y9971481D01*
X8966911Y9974072D01*
X8979408Y9978288D01*
X8991244Y9984130D01*
X9002217Y9991445D01*
X9012123Y10000183D01*
X9020860Y10010089D01*
X9028176Y10021062D01*
X9034018Y10032898D01*
X9038234Y10045395D01*
X9040825Y10058349D01*
X9041688Y10071811D01*
X9041688Y10121188D01*
X9040825Y10134650D01*
X9038234Y10147604D01*
X9034018Y10160101D01*
X9028480Y10171328D01*
X9027464Y10175290D01*
X9028074Y10179304D01*
X9030208Y10182809D01*
X9033560Y10185146D01*
X9037574Y10185958D01*
X9098026Y10185958D01*
X9102039Y10185146D01*
X9105392Y10182809D01*
X9107525Y10179304D01*
X9108135Y10175290D01*
X9107119Y10171328D01*
X9101582Y10160101D01*
X9097365Y10147604D01*
X9094774Y10134650D01*
X9093911Y10121188D01*
X9093911Y10071811D01*
X9094774Y10058349D01*
X9097365Y10045395D01*
X9101582Y10032898D01*
X9107424Y10021062D01*
X9114739Y10010089D01*
X9123476Y10000183D01*
X9133382Y9991445D01*
X9144355Y9984130D01*
X9156192Y9978288D01*
X9168688Y9974072D01*
X9181642Y9971481D01*
X9194800Y9970617D01*
X9207957Y9971481D01*
X9220911Y9974072D01*
X9233408Y9978288D01*
X9245244Y9984130D01*
X9256217Y9991445D01*
X9266123Y10000183D01*
X9274860Y10010089D01*
X9282176Y10021062D01*
X9288018Y10032898D01*
X9292234Y10045395D01*
X9294825Y10058349D01*
X9295688Y10071811D01*
X9295688Y10121188D01*
X9294825Y10134650D01*
X9292234Y10147604D01*
X9288018Y10160101D01*
X9282480Y10171328D01*
X9281464Y10175290D01*
X9282074Y10179304D01*
X9284208Y10182809D01*
X9287560Y10185146D01*
X9291574Y10185958D01*
X9352026Y10185958D01*
X9356039Y10185146D01*
X9359392Y10182809D01*
X9361525Y10179304D01*
X9362135Y10175290D01*
X9361119Y10171328D01*
X9355582Y10160101D01*
X9351365Y10147604D01*
X9348774Y10134650D01*
X9347911Y10121188D01*
X9347911Y10071811D01*
X9348774Y10058349D01*
X9351365Y10045395D01*
X9355582Y10032898D01*
X9361424Y10021062D01*
X9368739Y10010089D01*
X9377476Y10000183D01*
X9387382Y9991445D01*
X9398355Y9984130D01*
X9410192Y9978288D01*
X9422688Y9974072D01*
X9435642Y9971481D01*
X9448800Y9970617D01*
X9461957Y9971481D01*
X9474911Y9974072D01*
X9487408Y9978288D01*
X9499244Y9984130D01*
X9510217Y9991445D01*
X9520123Y10000183D01*
X9528860Y10010089D01*
X9536176Y10021062D01*
X9542018Y10032898D01*
X9546234Y10045395D01*
X9548825Y10058349D01*
X9549688Y10071811D01*
X9549688Y10121188D01*
X9548825Y10134650D01*
X9546234Y10147604D01*
X9542018Y10160101D01*
X9536480Y10171328D01*
X9535464Y10175290D01*
X9536074Y10179304D01*
X9538208Y10182809D01*
X9541560Y10185146D01*
X9545574Y10185958D01*
X9591751Y10185958D01*
X9595612Y10185196D01*
X9598914Y10183012D01*
X9601098Y10179710D01*
X9601911Y10175798D01*
X9601911Y9997084D01*
X9602622Y9990734D01*
X9604502Y9985298D01*
X9607600Y9980371D01*
X9611664Y9976307D01*
X9616592Y9973208D01*
X9622028Y9971328D01*
X9628378Y9970566D01*
X9777222Y9970566D01*
X9783572Y9971328D01*
X9789007Y9973208D01*
X9793935Y9976307D01*
X9797999Y9980371D01*
X9801098Y9985298D01*
X9802977Y9990734D01*
X9803688Y9997084D01*
X9803688Y10175798D01*
X9804501Y10179710D01*
X9806686Y10183012D01*
X9809988Y10185196D01*
X9813848Y10185958D01*
X10101326Y10185958D01*
X10105339Y10185146D01*
X10108692Y10182809D01*
X10110825Y10179304D01*
X10111435Y10175290D01*
X10110419Y10171328D01*
X10104882Y10160101D01*
X10102443Y10152837D01*
X10154259Y10152837D01*
X10154259Y10175798D01*
X10155021Y10179710D01*
X10157206Y10183012D01*
X10160508Y10185196D01*
X10164419Y10185958D01*
X10231780Y10185958D01*
X10235692Y10185196D01*
X10238994Y10183012D01*
X10241178Y10179710D01*
X10241940Y10175798D01*
X10241940Y10152837D01*
X10293756Y10152837D01*
X10291318Y10160101D01*
X10285780Y10171328D01*
X10284764Y10175290D01*
X10285374Y10179304D01*
X10287508Y10182809D01*
X10290860Y10185146D01*
X10294874Y10185958D01*
X10355326Y10185958D01*
X10359339Y10185146D01*
X10362692Y10182809D01*
X10364825Y10179304D01*
X10365435Y10175290D01*
X10364419Y10171328D01*
X10358882Y10160101D01*
X10354665Y10147604D01*
X10352074Y10134650D01*
X10351211Y10121188D01*
X10351211Y10071811D01*
X10352074Y10058349D01*
X10354665Y10045395D01*
X10358882Y10032898D01*
X10364724Y10021062D01*
X10372039Y10010089D01*
X10380776Y10000183D01*
X10390682Y9991445D01*
X10401655Y9984130D01*
X10413492Y9978288D01*
X10425988Y9974072D01*
X10438942Y9971481D01*
X10452100Y9970617D01*
X10465257Y9971481D01*
X10478211Y9974072D01*
X10490708Y9978288D01*
X10502544Y9984130D01*
X10513517Y9991445D01*
X10523423Y10000183D01*
X10532160Y10010089D01*
X10539476Y10021062D01*
X10545318Y10032898D01*
X10549534Y10045395D01*
X10552125Y10058349D01*
X10552988Y10071811D01*
X10552988Y10121188D01*
X10552125Y10134650D01*
X10549534Y10147604D01*
X10545318Y10160101D01*
X10539780Y10171328D01*
X10538764Y10175290D01*
X10539374Y10179304D01*
X10541508Y10182809D01*
X10544860Y10185146D01*
X10548874Y10185958D01*
X10609326Y10185958D01*
X10613339Y10185146D01*
X10616692Y10182809D01*
X10618825Y10179304D01*
X10619435Y10175290D01*
X10618419Y10171328D01*
X10612882Y10160101D01*
X10608665Y10147604D01*
X10606074Y10134650D01*
X10605211Y10121188D01*
X10605211Y10071811D01*
X10606074Y10058349D01*
X10608665Y10045395D01*
X10612882Y10032898D01*
X10618724Y10021062D01*
X10626039Y10010089D01*
X10634776Y10000183D01*
X10644682Y9991445D01*
X10655655Y9984130D01*
X10667492Y9978288D01*
X10679988Y9974072D01*
X10692942Y9971481D01*
X10706100Y9970617D01*
X10719257Y9971481D01*
X10732211Y9974072D01*
X10744708Y9978288D01*
X10756544Y9984130D01*
X10767517Y9991445D01*
X10777423Y10000183D01*
X10786160Y10010089D01*
X10793476Y10021062D01*
X10799318Y10032898D01*
X10803534Y10045395D01*
X10806125Y10058349D01*
X10806988Y10071811D01*
X10806988Y10121188D01*
X10806125Y10134650D01*
X10803534Y10147604D01*
X10799318Y10160101D01*
X10793780Y10171328D01*
X10792764Y10175290D01*
X10793374Y10179304D01*
X10795508Y10182809D01*
X10798860Y10185146D01*
X10802874Y10185958D01*
X10863326Y10185958D01*
X10867339Y10185146D01*
X10870692Y10182809D01*
X10872825Y10179304D01*
X10873435Y10175290D01*
X10872419Y10171328D01*
X10866882Y10160101D01*
X10862665Y10147604D01*
X10860074Y10134650D01*
X10859211Y10121188D01*
X10859211Y10071811D01*
X10860074Y10058349D01*
X10862665Y10045395D01*
X10866882Y10032898D01*
X10872724Y10021062D01*
X10880039Y10010089D01*
X10888776Y10000183D01*
X10898682Y9991445D01*
X10909655Y9984130D01*
X10921492Y9978288D01*
X10933988Y9974072D01*
X10946942Y9971481D01*
X10960100Y9970617D01*
X10973257Y9971481D01*
X10986211Y9974072D01*
X10998708Y9978288D01*
X11010544Y9984130D01*
X11021517Y9991445D01*
X11031423Y10000183D01*
X11040160Y10010089D01*
X11047476Y10021062D01*
X11053318Y10032898D01*
X11057534Y10045395D01*
X11060125Y10058349D01*
X11060988Y10071811D01*
X11060988Y10121188D01*
X11060125Y10134650D01*
X11057534Y10147604D01*
X11053318Y10160101D01*
X11047780Y10171328D01*
X11046764Y10175290D01*
X11047374Y10179304D01*
X11049508Y10182809D01*
X11052860Y10185146D01*
X11056874Y10185958D01*
X11117326Y10185958D01*
X11121339Y10185146D01*
X11124692Y10182809D01*
X11126825Y10179304D01*
X11127435Y10175290D01*
X11126419Y10171328D01*
X11120882Y10160101D01*
X11116665Y10147604D01*
X11114074Y10134650D01*
X11113211Y10121188D01*
X11113211Y10071811D01*
X11114074Y10058349D01*
X11116665Y10045395D01*
X11120882Y10032898D01*
X11126724Y10021062D01*
X11134039Y10010089D01*
X11142776Y10000183D01*
X11152682Y9991445D01*
X11163655Y9984130D01*
X11175492Y9978288D01*
X11187988Y9974072D01*
X11200942Y9971481D01*
X11214100Y9970617D01*
X11227257Y9971481D01*
X11240211Y9974072D01*
X11252708Y9978288D01*
X11264544Y9984130D01*
X11275517Y9991445D01*
X11285423Y10000183D01*
X11294160Y10010089D01*
X11301476Y10021062D01*
X11307318Y10032898D01*
X11311534Y10045395D01*
X11314125Y10058349D01*
X11314988Y10071811D01*
X11314988Y10121188D01*
X11314125Y10134650D01*
X11311534Y10147604D01*
X11307318Y10160101D01*
X11301780Y10171328D01*
X11300764Y10175290D01*
X11301374Y10179304D01*
X11303508Y10182809D01*
X11306860Y10185146D01*
X11310874Y10185958D01*
X11371326Y10185958D01*
X11375339Y10185146D01*
X11378692Y10182809D01*
X11380825Y10179304D01*
X11381435Y10175290D01*
X11380419Y10171328D01*
X11374882Y10160101D01*
X11370665Y10147604D01*
X11368074Y10134650D01*
X11367211Y10121188D01*
X11367211Y10071811D01*
X11368074Y10058349D01*
X11370665Y10045395D01*
X11374882Y10032898D01*
X11380724Y10021062D01*
X11388039Y10010089D01*
X11396776Y10000183D01*
X11406682Y9991445D01*
X11417655Y9984130D01*
X11429492Y9978288D01*
X11441988Y9974072D01*
X11454942Y9971481D01*
X11468100Y9970617D01*
X11481257Y9971481D01*
X11494211Y9974072D01*
X11506708Y9978288D01*
X11518544Y9984130D01*
X11529517Y9991445D01*
X11539423Y10000183D01*
X11548160Y10010089D01*
X11555476Y10021062D01*
X11561318Y10032898D01*
X11565534Y10045395D01*
X11568125Y10058349D01*
X11568988Y10071811D01*
X11568988Y10121188D01*
X11568125Y10134650D01*
X11565534Y10147604D01*
X11561318Y10160101D01*
X11555780Y10171328D01*
X11554764Y10175290D01*
X11555374Y10179304D01*
X11557508Y10182809D01*
X11560860Y10185146D01*
X11564874Y10185958D01*
X11625326Y10185958D01*
X11629339Y10185146D01*
X11632692Y10182809D01*
X11634825Y10179304D01*
X11635435Y10175290D01*
X11634419Y10171328D01*
X11628882Y10160101D01*
X11624665Y10147604D01*
X11622074Y10134650D01*
X11621211Y10121188D01*
X11621211Y10071811D01*
X11622074Y10058349D01*
X11624665Y10045395D01*
X11628882Y10032898D01*
X11634724Y10021062D01*
X11642039Y10010089D01*
X11650776Y10000183D01*
X11660682Y9991445D01*
X11671655Y9984130D01*
X11683492Y9978288D01*
X11695988Y9974072D01*
X11708942Y9971481D01*
X11722100Y9970617D01*
X11735257Y9971481D01*
X11748211Y9974072D01*
X11760708Y9978288D01*
X11772544Y9984130D01*
X11783517Y9991445D01*
X11793423Y10000183D01*
X11802160Y10010089D01*
X11809476Y10021062D01*
X11815318Y10032898D01*
X11819534Y10045395D01*
X11822125Y10058349D01*
X11822988Y10071811D01*
X11822988Y10121188D01*
X11822125Y10134650D01*
X11819534Y10147604D01*
X11815318Y10160101D01*
X11809780Y10171328D01*
X11808764Y10175290D01*
X11809374Y10179304D01*
X11811508Y10182809D01*
X11814860Y10185146D01*
X11818874Y10185958D01*
X11865051Y10185958D01*
X11868912Y10185196D01*
X11872214Y10183012D01*
X11874398Y10179710D01*
X11875211Y10175798D01*
X11875211Y9997084D01*
X11875922Y9990734D01*
X11877802Y9985298D01*
X11880900Y9980371D01*
X11884964Y9976307D01*
X11889892Y9973208D01*
X11895328Y9971328D01*
X11901678Y9970566D01*
X12050522Y9970566D01*
X12056872Y9971328D01*
X12062307Y9973208D01*
X12067235Y9976307D01*
X12071299Y9980371D01*
X12074398Y9985298D01*
X12076277Y9990734D01*
X12076988Y9997084D01*
X12076988Y10175798D01*
X12077801Y10179710D01*
X12079986Y10183012D01*
X12083288Y10185196D01*
X12087148Y10185958D01*
X13285063Y10185958D01*
X13288975Y10185196D01*
X13292277Y10183012D01*
X13625220Y9850018D01*
X13627506Y9846513D01*
X13628217Y9842398D01*
X13627150Y9838334D01*
X13623188Y9830308D01*
X13618972Y9817811D01*
X13616381Y9804857D01*
X13615517Y9791700D01*
X13616381Y9778542D01*
X13618972Y9765588D01*
X13623188Y9753092D01*
X13629030Y9741255D01*
X13636345Y9730282D01*
X13645083Y9720376D01*
X13654989Y9711639D01*
X13665962Y9704324D01*
X13677798Y9698482D01*
X13690295Y9694265D01*
X13703249Y9691674D01*
G37*
G36*
X14478711Y9944811D02*
G01*
X14528088Y9944811D01*
X14541550Y9945674D01*
X14554504Y9948265D01*
X14567001Y9952482D01*
X14578838Y9958324D01*
X14589810Y9965639D01*
X14599716Y9974376D01*
X14608454Y9984282D01*
X14615769Y9995255D01*
X14621611Y10007092D01*
X14625828Y10019588D01*
X14628418Y10032542D01*
X14629282Y10045700D01*
X14628418Y10058857D01*
X14625828Y10071811D01*
X14621611Y10084308D01*
X14615769Y10096144D01*
X14608454Y10107117D01*
X14599716Y10117023D01*
X14589810Y10125760D01*
X14578838Y10133076D01*
X14567001Y10138918D01*
X14554504Y10143134D01*
X14541550Y10145725D01*
X14528088Y10146588D01*
X14478711Y10146588D01*
X14465249Y10145725D01*
X14452295Y10143134D01*
X14439798Y10138918D01*
X14427962Y10133076D01*
X14416989Y10125760D01*
X14407083Y10117023D01*
X14398345Y10107117D01*
X14391030Y10096144D01*
X14385188Y10084308D01*
X14380972Y10071811D01*
X14378381Y10058857D01*
X14377517Y10045700D01*
X14378381Y10032542D01*
X14380972Y10019588D01*
X14385188Y10007092D01*
X14391030Y9995255D01*
X14398345Y9984282D01*
X14407083Y9974376D01*
X14416989Y9965639D01*
X14427962Y9958324D01*
X14439798Y9952482D01*
X14452295Y9948265D01*
X14465249Y9945674D01*
G37*
G36*
X8178800Y9970617D02*
G01*
X8191957Y9971481D01*
X8204911Y9974072D01*
X8217408Y9978288D01*
X8229244Y9984130D01*
X8240217Y9991445D01*
X8250123Y10000183D01*
X8258860Y10010089D01*
X8266175Y10021062D01*
X8272018Y10032898D01*
X8276234Y10045395D01*
X8278825Y10058349D01*
X8279688Y10071811D01*
X8279688Y10121188D01*
X8278825Y10134650D01*
X8276234Y10147604D01*
X8272018Y10160101D01*
X8266175Y10171938D01*
X8258860Y10182910D01*
X8250123Y10192816D01*
X8240217Y10201554D01*
X8229244Y10208869D01*
X8217408Y10214711D01*
X8204911Y10218928D01*
X8191957Y10221518D01*
X8178800Y10222382D01*
X8165642Y10221518D01*
X8152688Y10218928D01*
X8140192Y10214711D01*
X8128355Y10208869D01*
X8117382Y10201554D01*
X8107476Y10192816D01*
X8098739Y10182910D01*
X8091424Y10171938D01*
X8085581Y10160101D01*
X8081365Y10147604D01*
X8078774Y10134650D01*
X8077911Y10121188D01*
X8077911Y10071811D01*
X8078774Y10058349D01*
X8081365Y10045395D01*
X8085581Y10032898D01*
X8091424Y10021062D01*
X8098739Y10010089D01*
X8107476Y10000183D01*
X8117382Y9991445D01*
X8128355Y9984130D01*
X8140192Y9978288D01*
X8152688Y9974072D01*
X8165642Y9971481D01*
G37*
G36*
X10241940Y9980879D02*
G01*
X10248544Y9984130D01*
X10259517Y9991445D01*
X10269423Y10000183D01*
X10278160Y10010089D01*
X10285476Y10021062D01*
X10291318Y10032898D01*
X10293756Y10040162D01*
X10241940Y10040162D01*
G37*
G36*
X10154259Y9980879D02*
G01*
X10154259Y10040162D01*
X10102443Y10040162D01*
X10104882Y10032898D01*
X10110724Y10021062D01*
X10118039Y10010089D01*
X10126776Y10000183D01*
X10136682Y9991445D01*
X10147655Y9984130D01*
G37*
G36*
X7968640Y9980879D02*
G01*
X7975244Y9984130D01*
X7986217Y9991445D01*
X7996123Y10000183D01*
X8004860Y10010089D01*
X8012175Y10021062D01*
X8018018Y10032898D01*
X8020456Y10040162D01*
X7968640Y10040162D01*
G37*
G36*
X7880959Y9980879D02*
G01*
X7880959Y10040162D01*
X7829143Y10040162D01*
X7831581Y10032898D01*
X7837424Y10021062D01*
X7844739Y10010089D01*
X7853476Y10000183D01*
X7863382Y9991445D01*
X7874355Y9984130D01*
G37*
G36*
X7968640Y10152837D02*
G01*
X8020456Y10152837D01*
X8018018Y10160101D01*
X8012175Y10171938D01*
X8004860Y10182910D01*
X7996123Y10192816D01*
X7986217Y10201554D01*
X7975244Y10208869D01*
X7968640Y10212120D01*
G37*
G36*
X7829143Y10152837D02*
G01*
X7880959Y10152837D01*
X7880959Y10212120D01*
X7874355Y10208869D01*
X7863382Y10201554D01*
X7853476Y10192816D01*
X7844739Y10182910D01*
X7837424Y10171938D01*
X7831581Y10160101D01*
G37*
G36*
X14478711Y10198811D02*
G01*
X14528088Y10198811D01*
X14541550Y10199674D01*
X14554504Y10202265D01*
X14567001Y10206482D01*
X14578838Y10212324D01*
X14589810Y10219639D01*
X14599716Y10228376D01*
X14608454Y10238282D01*
X14615769Y10249255D01*
X14621611Y10261092D01*
X14625828Y10273588D01*
X14628418Y10286542D01*
X14629282Y10299700D01*
X14628418Y10312857D01*
X14625828Y10325811D01*
X14621611Y10338308D01*
X14615769Y10350144D01*
X14608454Y10361117D01*
X14599716Y10371023D01*
X14589810Y10379760D01*
X14578838Y10387076D01*
X14567001Y10392918D01*
X14554504Y10397134D01*
X14541550Y10399725D01*
X14528088Y10400588D01*
X14478711Y10400588D01*
X14465249Y10399725D01*
X14452295Y10397134D01*
X14439798Y10392918D01*
X14427962Y10387076D01*
X14416989Y10379760D01*
X14407083Y10371023D01*
X14398345Y10361117D01*
X14391030Y10350144D01*
X14385188Y10338308D01*
X14380972Y10325811D01*
X14378381Y10312857D01*
X14377517Y10299700D01*
X14378381Y10286542D01*
X14380972Y10273588D01*
X14385188Y10261092D01*
X14391030Y10249255D01*
X14398345Y10238282D01*
X14407083Y10228376D01*
X14416989Y10219639D01*
X14427962Y10212324D01*
X14439798Y10206482D01*
X14452295Y10202265D01*
X14465249Y10199674D01*
G37*
G36*
X14478711Y10452811D02*
G01*
X14528088Y10452811D01*
X14541550Y10453674D01*
X14554504Y10456265D01*
X14567001Y10460482D01*
X14578838Y10466324D01*
X14589810Y10473639D01*
X14599716Y10482376D01*
X14608454Y10492282D01*
X14615769Y10503255D01*
X14621611Y10515092D01*
X14625828Y10527588D01*
X14628418Y10540542D01*
X14629282Y10553700D01*
X14628418Y10566857D01*
X14625828Y10579811D01*
X14621611Y10592308D01*
X14615769Y10604144D01*
X14608454Y10615117D01*
X14599716Y10625023D01*
X14589810Y10633760D01*
X14578838Y10641076D01*
X14567001Y10646918D01*
X14554504Y10651134D01*
X14541550Y10653725D01*
X14528088Y10654588D01*
X14478711Y10654588D01*
X14465249Y10653725D01*
X14452295Y10651134D01*
X14439798Y10646918D01*
X14427962Y10641076D01*
X14416989Y10633760D01*
X14407083Y10625023D01*
X14398345Y10615117D01*
X14391030Y10604144D01*
X14385188Y10592308D01*
X14380972Y10579811D01*
X14378381Y10566857D01*
X14377517Y10553700D01*
X14378381Y10540542D01*
X14380972Y10527588D01*
X14385188Y10515092D01*
X14391030Y10503255D01*
X14398345Y10492282D01*
X14407083Y10482376D01*
X14416989Y10473639D01*
X14427962Y10466324D01*
X14439798Y10460482D01*
X14452295Y10456265D01*
X14465249Y10453674D01*
G37*
G36*
X8305749Y10485882D02*
G01*
X8319566Y10486796D01*
X8333130Y10489488D01*
X8346287Y10493908D01*
X8358682Y10500055D01*
X8370214Y10507726D01*
X8380628Y10516870D01*
X8389772Y10527284D01*
X8397443Y10538815D01*
X8403590Y10551210D01*
X8408009Y10564368D01*
X8410702Y10577931D01*
X8411616Y10591749D01*
X8410702Y10605566D01*
X8408009Y10619181D01*
X8403590Y10632287D01*
X8397443Y10644682D01*
X8389772Y10656214D01*
X8380628Y10666628D01*
X8370214Y10675772D01*
X8358682Y10683443D01*
X8346287Y10689590D01*
X8333130Y10694009D01*
X8319566Y10696752D01*
X8305749Y10697616D01*
X8291931Y10696752D01*
X8278317Y10694009D01*
X8265210Y10689590D01*
X8252815Y10683443D01*
X8241284Y10675772D01*
X8230870Y10666628D01*
X8221725Y10656214D01*
X8214055Y10644682D01*
X8207908Y10632287D01*
X8203488Y10619181D01*
X8200745Y10605566D01*
X8199881Y10591749D01*
X8200745Y10577931D01*
X8203488Y10564368D01*
X8207908Y10551210D01*
X8214055Y10538815D01*
X8221725Y10527284D01*
X8230870Y10516870D01*
X8241284Y10507726D01*
X8252815Y10500055D01*
X8265210Y10493908D01*
X8278317Y10489488D01*
X8291931Y10486796D01*
G37*
G36*
X10337749Y10485882D02*
G01*
X10351566Y10486796D01*
X10365130Y10489488D01*
X10378287Y10493908D01*
X10390682Y10500055D01*
X10402214Y10507726D01*
X10412628Y10516870D01*
X10421772Y10527284D01*
X10429443Y10538815D01*
X10435590Y10551210D01*
X10440009Y10564368D01*
X10442702Y10577931D01*
X10443616Y10591749D01*
X10442702Y10605566D01*
X10440009Y10619181D01*
X10435590Y10632287D01*
X10429443Y10644682D01*
X10421772Y10656214D01*
X10412628Y10666628D01*
X10402214Y10675772D01*
X10390682Y10683443D01*
X10378287Y10689590D01*
X10365130Y10694009D01*
X10351566Y10696752D01*
X10337749Y10697616D01*
X10323931Y10696752D01*
X10310317Y10694009D01*
X10297210Y10689590D01*
X10284815Y10683443D01*
X10273284Y10675772D01*
X10262870Y10666628D01*
X10253726Y10656214D01*
X10246055Y10644682D01*
X10239908Y10632287D01*
X10235488Y10619181D01*
X10232745Y10605566D01*
X10231882Y10591749D01*
X10232745Y10577931D01*
X10235488Y10564368D01*
X10239908Y10551210D01*
X10246055Y10538815D01*
X10253726Y10527284D01*
X10262870Y10516870D01*
X10273284Y10507726D01*
X10284815Y10500055D01*
X10297210Y10493908D01*
X10310317Y10489488D01*
X10323931Y10486796D01*
G37*
G36*
X8813749Y10485882D02*
G01*
X8827566Y10486796D01*
X8841130Y10489488D01*
X8854287Y10493908D01*
X8866682Y10500055D01*
X8878214Y10507726D01*
X8888628Y10516870D01*
X8897772Y10527284D01*
X8905443Y10538815D01*
X8911590Y10551210D01*
X8916009Y10564368D01*
X8918702Y10577931D01*
X8919616Y10591749D01*
X8918702Y10605566D01*
X8916009Y10619181D01*
X8911590Y10632287D01*
X8905443Y10644682D01*
X8897772Y10656214D01*
X8888628Y10666628D01*
X8878214Y10675772D01*
X8866682Y10683443D01*
X8854287Y10689590D01*
X8841130Y10694009D01*
X8827566Y10696752D01*
X8813749Y10697616D01*
X8799931Y10696752D01*
X8786317Y10694009D01*
X8773210Y10689590D01*
X8760815Y10683443D01*
X8749284Y10675772D01*
X8738870Y10666628D01*
X8729726Y10656214D01*
X8722055Y10644682D01*
X8715908Y10632287D01*
X8711488Y10619181D01*
X8708745Y10605566D01*
X8707882Y10591749D01*
X8708745Y10577931D01*
X8711488Y10564368D01*
X8715908Y10551210D01*
X8722055Y10538815D01*
X8729726Y10527284D01*
X8738870Y10516870D01*
X8749284Y10507726D01*
X8760815Y10500055D01*
X8773210Y10493908D01*
X8786317Y10489488D01*
X8799931Y10486796D01*
G37*
G36*
X9829749Y10485882D02*
G01*
X9843566Y10486796D01*
X9857130Y10489488D01*
X9870287Y10493908D01*
X9882682Y10500055D01*
X9894214Y10507726D01*
X9904628Y10516870D01*
X9913772Y10527284D01*
X9921443Y10538815D01*
X9927590Y10551210D01*
X9932009Y10564368D01*
X9934702Y10577931D01*
X9935616Y10591749D01*
X9934702Y10605566D01*
X9932009Y10619181D01*
X9927590Y10632287D01*
X9921443Y10644682D01*
X9913772Y10656214D01*
X9904628Y10666628D01*
X9894214Y10675772D01*
X9882682Y10683443D01*
X9870287Y10689590D01*
X9857130Y10694009D01*
X9843566Y10696752D01*
X9829749Y10697616D01*
X9815931Y10696752D01*
X9802317Y10694009D01*
X9789210Y10689590D01*
X9776815Y10683443D01*
X9765284Y10675772D01*
X9754870Y10666628D01*
X9745726Y10656214D01*
X9738055Y10644682D01*
X9731908Y10632287D01*
X9727488Y10619181D01*
X9724745Y10605566D01*
X9723882Y10591749D01*
X9724745Y10577931D01*
X9727488Y10564368D01*
X9731908Y10551210D01*
X9738055Y10538815D01*
X9745726Y10527284D01*
X9754870Y10516870D01*
X9765284Y10507726D01*
X9776815Y10500055D01*
X9789210Y10493908D01*
X9802317Y10489488D01*
X9815931Y10486796D01*
G37*
G36*
X10083800Y10485932D02*
G01*
X10097617Y10486847D01*
X10111181Y10489539D01*
X10124338Y10493959D01*
X10136733Y10500106D01*
X10148265Y10507776D01*
X10158679Y10516920D01*
X10167823Y10527334D01*
X10175494Y10538866D01*
X10181640Y10551261D01*
X10186060Y10564418D01*
X10188752Y10577982D01*
X10189667Y10591800D01*
X10188752Y10605617D01*
X10186060Y10619232D01*
X10181640Y10632338D01*
X10175494Y10644733D01*
X10167823Y10656265D01*
X10158679Y10666679D01*
X10148265Y10675823D01*
X10136733Y10683494D01*
X10124338Y10689640D01*
X10111181Y10694060D01*
X10097617Y10696803D01*
X10083800Y10697667D01*
X10069982Y10696803D01*
X10056368Y10694060D01*
X10043261Y10689640D01*
X10030866Y10683494D01*
X10019334Y10675823D01*
X10008920Y10666679D01*
X9999776Y10656265D01*
X9992106Y10644733D01*
X9985959Y10632338D01*
X9981539Y10619232D01*
X9978796Y10605617D01*
X9977932Y10591800D01*
X9978796Y10577982D01*
X9981539Y10564418D01*
X9985959Y10551261D01*
X9992106Y10538866D01*
X9999776Y10527334D01*
X10008920Y10516920D01*
X10019334Y10507776D01*
X10030866Y10500106D01*
X10043261Y10493959D01*
X10056368Y10489539D01*
X10069982Y10486847D01*
G37*
G36*
X8559800Y10485932D02*
G01*
X8573617Y10486847D01*
X8587181Y10489539D01*
X8600338Y10493959D01*
X8612733Y10500106D01*
X8624265Y10507776D01*
X8634679Y10516920D01*
X8643823Y10527334D01*
X8651494Y10538866D01*
X8657640Y10551261D01*
X8662060Y10564418D01*
X8664752Y10577982D01*
X8665667Y10591800D01*
X8664752Y10605617D01*
X8662060Y10619232D01*
X8657640Y10632338D01*
X8651494Y10644733D01*
X8643823Y10656265D01*
X8634679Y10666679D01*
X8624265Y10675823D01*
X8612733Y10683494D01*
X8600338Y10689640D01*
X8587181Y10694060D01*
X8573617Y10696803D01*
X8559800Y10697667D01*
X8545982Y10696803D01*
X8532368Y10694060D01*
X8519261Y10689640D01*
X8506866Y10683494D01*
X8495334Y10675823D01*
X8484920Y10666679D01*
X8475776Y10656265D01*
X8468106Y10644733D01*
X8461959Y10632338D01*
X8457539Y10619232D01*
X8454796Y10605617D01*
X8453932Y10591800D01*
X8454796Y10577982D01*
X8457539Y10564418D01*
X8461959Y10551261D01*
X8468106Y10538866D01*
X8475776Y10527334D01*
X8484920Y10516920D01*
X8495334Y10507776D01*
X8506866Y10500106D01*
X8519261Y10493959D01*
X8532368Y10489539D01*
X8545982Y10486847D01*
G37*
G36*
X9575800Y10485932D02*
G01*
X9589617Y10486847D01*
X9603181Y10489539D01*
X9616338Y10493959D01*
X9628733Y10500106D01*
X9640265Y10507776D01*
X9650679Y10516920D01*
X9659823Y10527334D01*
X9667494Y10538866D01*
X9673640Y10551261D01*
X9678060Y10564418D01*
X9680752Y10577982D01*
X9681667Y10591800D01*
X9680752Y10605617D01*
X9678060Y10619232D01*
X9673640Y10632338D01*
X9667494Y10644733D01*
X9659823Y10656265D01*
X9650679Y10666679D01*
X9640265Y10675823D01*
X9628733Y10683494D01*
X9616338Y10689640D01*
X9603181Y10694060D01*
X9589617Y10696803D01*
X9575800Y10697667D01*
X9561982Y10696803D01*
X9548368Y10694060D01*
X9535261Y10689640D01*
X9522866Y10683494D01*
X9511334Y10675823D01*
X9500920Y10666679D01*
X9491776Y10656265D01*
X9484106Y10644733D01*
X9477959Y10632338D01*
X9473539Y10619232D01*
X9470796Y10605617D01*
X9469932Y10591800D01*
X9470796Y10577982D01*
X9473539Y10564418D01*
X9477959Y10551261D01*
X9484106Y10538866D01*
X9491776Y10527334D01*
X9500920Y10516920D01*
X9511334Y10507776D01*
X9522866Y10500106D01*
X9535261Y10493959D01*
X9548368Y10489539D01*
X9561982Y10486847D01*
G37*
G36*
X10591800Y10485932D02*
G01*
X10605617Y10486847D01*
X10619181Y10489539D01*
X10632338Y10493959D01*
X10644733Y10500106D01*
X10656265Y10507776D01*
X10666679Y10516920D01*
X10675823Y10527334D01*
X10683494Y10538866D01*
X10689640Y10551261D01*
X10694060Y10564418D01*
X10696752Y10577982D01*
X10697667Y10591800D01*
X10696752Y10605617D01*
X10694060Y10619232D01*
X10689640Y10632338D01*
X10683494Y10644733D01*
X10675823Y10656265D01*
X10666679Y10666679D01*
X10656265Y10675823D01*
X10644733Y10683494D01*
X10632338Y10689640D01*
X10619181Y10694060D01*
X10605617Y10696803D01*
X10591800Y10697667D01*
X10577982Y10696803D01*
X10564368Y10694060D01*
X10551261Y10689640D01*
X10538866Y10683494D01*
X10527334Y10675823D01*
X10516920Y10666679D01*
X10507776Y10656265D01*
X10500106Y10644733D01*
X10493959Y10632338D01*
X10489539Y10619232D01*
X10486796Y10605617D01*
X10485932Y10591800D01*
X10486796Y10577982D01*
X10489539Y10564418D01*
X10493959Y10551261D01*
X10500106Y10538866D01*
X10507776Y10527334D01*
X10516920Y10516920D01*
X10527334Y10507776D01*
X10538866Y10500106D01*
X10551261Y10493959D01*
X10564368Y10489539D01*
X10577982Y10486847D01*
G37*
G36*
X11400129Y10638129D02*
G01*
X11448745Y10638129D01*
X11445494Y10644733D01*
X11437823Y10656265D01*
X11428679Y10666679D01*
X11418265Y10675823D01*
X11406733Y10683494D01*
X11400129Y10686745D01*
G37*
G36*
X11258854Y10638129D02*
G01*
X11307470Y10638129D01*
X11307470Y10686745D01*
X11300866Y10683494D01*
X11289334Y10675823D01*
X11278920Y10666679D01*
X11269776Y10656265D01*
X11262106Y10644733D01*
G37*
G36*
X13860475Y11553088D02*
G01*
X13873632Y11553952D01*
X13886586Y11556492D01*
X13899032Y11560759D01*
X13910868Y11566601D01*
X13921841Y11573916D01*
X13931798Y11582603D01*
X13940485Y11592560D01*
X13947800Y11603532D01*
X13953642Y11615369D01*
X13957909Y11627866D01*
X13960449Y11640820D01*
X13961363Y11654282D01*
X13961363Y11883644D01*
X13960449Y11897106D01*
X13957909Y11910060D01*
X13953642Y11922556D01*
X13947800Y11934393D01*
X13940485Y11945366D01*
X13931798Y11955322D01*
X13921841Y11964009D01*
X13910868Y11971324D01*
X13899032Y11977166D01*
X13886586Y11981434D01*
X13873632Y11983974D01*
X13860475Y11984837D01*
X13847267Y11983974D01*
X13834363Y11981434D01*
X13821867Y11977166D01*
X13810030Y11971324D01*
X13799057Y11964009D01*
X13789101Y11955322D01*
X13780414Y11945366D01*
X13773099Y11934393D01*
X13767257Y11922556D01*
X13762990Y11910060D01*
X13760450Y11897106D01*
X13759535Y11883644D01*
X13759535Y11654282D01*
X13760450Y11640820D01*
X13762990Y11627866D01*
X13767257Y11615369D01*
X13773099Y11603532D01*
X13780414Y11592560D01*
X13789101Y11582603D01*
X13799057Y11573916D01*
X13810030Y11566601D01*
X13821867Y11560759D01*
X13834363Y11556492D01*
X13847267Y11553952D01*
G37*
G36*
X14416582Y11563350D02*
G01*
X14416582Y11667591D01*
X14359534Y11667591D01*
X14359534Y11654282D01*
X14360448Y11640820D01*
X14362988Y11627866D01*
X14367256Y11615369D01*
X14373098Y11603532D01*
X14380413Y11592560D01*
X14389100Y11582603D01*
X14399056Y11573916D01*
X14410029Y11566601D01*
G37*
G36*
X14504314Y11563350D02*
G01*
X14510867Y11566601D01*
X14521840Y11573916D01*
X14531797Y11582603D01*
X14540484Y11592560D01*
X14547799Y11603532D01*
X14553641Y11615369D01*
X14557908Y11627866D01*
X14560448Y11640820D01*
X14561362Y11654282D01*
X14561362Y11667591D01*
X14504314Y11667591D01*
G37*
G36*
X12890500Y11680952D02*
G01*
X12904165Y11681866D01*
X12917576Y11684558D01*
X12930530Y11688927D01*
X12942824Y11694972D01*
X12954203Y11702592D01*
X12964464Y11711635D01*
X12973507Y11721896D01*
X12981127Y11733276D01*
X12987172Y11745569D01*
X12991541Y11758523D01*
X12994233Y11771934D01*
X12995148Y11785600D01*
X12994233Y11799265D01*
X12991541Y11812676D01*
X12987172Y11825630D01*
X12981127Y11837924D01*
X12973507Y11849303D01*
X12964464Y11859564D01*
X12954203Y11868607D01*
X12942824Y11876227D01*
X12930530Y11882272D01*
X12917576Y11886641D01*
X12904165Y11889333D01*
X12890500Y11890248D01*
X12876834Y11889333D01*
X12863423Y11886641D01*
X12850469Y11882272D01*
X12838176Y11876227D01*
X12826796Y11868607D01*
X12816535Y11859564D01*
X12807492Y11849303D01*
X12799872Y11837924D01*
X12793827Y11825630D01*
X12789458Y11812676D01*
X12786766Y11799265D01*
X12785852Y11785600D01*
X12786766Y11771934D01*
X12789458Y11758523D01*
X12793827Y11745569D01*
X12799872Y11733276D01*
X12807492Y11721896D01*
X12816535Y11711635D01*
X12826796Y11702592D01*
X12838176Y11694972D01*
X12850469Y11688927D01*
X12863423Y11684558D01*
X12876834Y11681866D01*
G37*
G36*
X13066318Y11680952D02*
G01*
X13222681Y11680952D01*
X13228980Y11681663D01*
X13234466Y11683593D01*
X13239343Y11686641D01*
X13243458Y11690756D01*
X13246506Y11695633D01*
X13248436Y11701119D01*
X13249148Y11707418D01*
X13249148Y11863781D01*
X13248436Y11870080D01*
X13246506Y11875566D01*
X13243458Y11880443D01*
X13239343Y11884558D01*
X13234466Y11887606D01*
X13228980Y11889536D01*
X13222681Y11890248D01*
X13066318Y11890248D01*
X13060019Y11889536D01*
X13054533Y11887606D01*
X13049656Y11884558D01*
X13045541Y11880443D01*
X13042493Y11875566D01*
X13040563Y11870080D01*
X13039852Y11863781D01*
X13039852Y11707418D01*
X13040563Y11701119D01*
X13042493Y11695633D01*
X13045541Y11690756D01*
X13049656Y11686641D01*
X13054533Y11683593D01*
X13060019Y11681663D01*
G37*
G36*
X12590780Y11691721D02*
G01*
X12590780Y11739880D01*
X12542621Y11739880D01*
X12545872Y11733276D01*
X12553492Y11721896D01*
X12562535Y11711635D01*
X12572796Y11702592D01*
X12584176Y11694972D01*
G37*
G36*
X12682220Y11691721D02*
G01*
X12688824Y11694972D01*
X12700203Y11702592D01*
X12710464Y11711635D01*
X12719507Y11721896D01*
X12727127Y11733276D01*
X12730378Y11739880D01*
X12682220Y11739880D01*
G37*
G36*
X12542621Y11831320D02*
G01*
X12590780Y11831320D01*
X12590780Y11879478D01*
X12584176Y11876227D01*
X12572796Y11868607D01*
X12562535Y11859564D01*
X12553492Y11849303D01*
X12545872Y11837924D01*
G37*
G36*
X12682220Y11831320D02*
G01*
X12730378Y11831320D01*
X12727127Y11837924D01*
X12719507Y11849303D01*
X12710464Y11859564D01*
X12700203Y11868607D01*
X12688824Y11876227D01*
X12682220Y11879478D01*
G37*
G36*
X14504314Y11870334D02*
G01*
X14561362Y11870334D01*
X14561362Y11883644D01*
X14560448Y11897106D01*
X14557908Y11910060D01*
X14553641Y11922556D01*
X14547799Y11934393D01*
X14540484Y11945366D01*
X14531797Y11955322D01*
X14521840Y11964009D01*
X14510867Y11971324D01*
X14504314Y11974576D01*
G37*
G36*
X14359534Y11870334D02*
G01*
X14416582Y11870334D01*
X14416582Y11974576D01*
X14410029Y11971324D01*
X14399056Y11964009D01*
X14389100Y11955322D01*
X14380413Y11945366D01*
X14373098Y11934393D01*
X14367256Y11922556D01*
X14362988Y11910060D01*
X14360448Y11897106D01*
X14359534Y11883644D01*
G37*
G36*
X9575850Y12009882D02*
G01*
X9589668Y12010796D01*
X9603232Y12013488D01*
X9616389Y12017908D01*
X9628784Y12024055D01*
X9640316Y12031726D01*
X9650730Y12040870D01*
X9659874Y12051284D01*
X9667544Y12062815D01*
X9673691Y12075210D01*
X9678111Y12088368D01*
X9680854Y12101931D01*
X9681718Y12115749D01*
X9680854Y12129566D01*
X9678111Y12143181D01*
X9673691Y12156287D01*
X9667544Y12168682D01*
X9659874Y12180214D01*
X9650730Y12190628D01*
X9640316Y12199772D01*
X9628784Y12207443D01*
X9616389Y12213590D01*
X9603232Y12218009D01*
X9589668Y12220752D01*
X9575850Y12221616D01*
X9562033Y12220752D01*
X9548469Y12218009D01*
X9535312Y12213590D01*
X9522917Y12207443D01*
X9511385Y12199772D01*
X9500971Y12190628D01*
X9491827Y12180214D01*
X9484156Y12168682D01*
X9478010Y12156287D01*
X9473590Y12143181D01*
X9470847Y12129566D01*
X9469983Y12115749D01*
X9470847Y12101931D01*
X9473590Y12088368D01*
X9478010Y12075210D01*
X9484156Y12062815D01*
X9491827Y12051284D01*
X9500971Y12040870D01*
X9511385Y12031726D01*
X9522917Y12024055D01*
X9535312Y12017908D01*
X9548469Y12013488D01*
X9562033Y12010796D01*
G37*
G36*
X10083850Y12009882D02*
G01*
X10097668Y12010796D01*
X10111282Y12013488D01*
X10124389Y12017908D01*
X10136784Y12024055D01*
X10148316Y12031726D01*
X10158730Y12040870D01*
X10167874Y12051284D01*
X10175544Y12062815D01*
X10181691Y12075210D01*
X10186111Y12088368D01*
X10188854Y12101931D01*
X10189718Y12115749D01*
X10188854Y12129566D01*
X10186111Y12143181D01*
X10181691Y12156287D01*
X10175544Y12168682D01*
X10167874Y12180214D01*
X10158730Y12190628D01*
X10148316Y12199772D01*
X10136784Y12207443D01*
X10124389Y12213590D01*
X10111282Y12218009D01*
X10097668Y12220752D01*
X10083850Y12221616D01*
X10070033Y12220752D01*
X10056469Y12218009D01*
X10043312Y12213590D01*
X10030917Y12207443D01*
X10019385Y12199772D01*
X10008971Y12190628D01*
X9999827Y12180214D01*
X9992156Y12168682D01*
X9986010Y12156287D01*
X9981590Y12143181D01*
X9978898Y12129566D01*
X9977983Y12115749D01*
X9978898Y12101931D01*
X9981590Y12088368D01*
X9986010Y12075210D01*
X9992156Y12062815D01*
X9999827Y12051284D01*
X10008971Y12040870D01*
X10019385Y12031726D01*
X10030917Y12024055D01*
X10043312Y12017908D01*
X10056469Y12013488D01*
X10070033Y12010796D01*
G37*
G36*
X10591850Y12009882D02*
G01*
X10605668Y12010796D01*
X10619232Y12013488D01*
X10632389Y12017908D01*
X10644784Y12024055D01*
X10656316Y12031726D01*
X10666730Y12040870D01*
X10675874Y12051284D01*
X10683544Y12062815D01*
X10689691Y12075210D01*
X10694111Y12088368D01*
X10696854Y12101931D01*
X10697718Y12115749D01*
X10696854Y12129566D01*
X10694111Y12143181D01*
X10689691Y12156287D01*
X10683544Y12168682D01*
X10675874Y12180214D01*
X10666730Y12190628D01*
X10656316Y12199772D01*
X10644784Y12207443D01*
X10632389Y12213590D01*
X10619232Y12218009D01*
X10605668Y12220752D01*
X10591850Y12221616D01*
X10578033Y12220752D01*
X10564469Y12218009D01*
X10551312Y12213590D01*
X10538917Y12207443D01*
X10527385Y12199772D01*
X10516971Y12190628D01*
X10507827Y12180214D01*
X10500156Y12168682D01*
X10494010Y12156287D01*
X10489590Y12143181D01*
X10486847Y12129566D01*
X10485983Y12115749D01*
X10486847Y12101931D01*
X10489590Y12088368D01*
X10494010Y12075210D01*
X10500156Y12062815D01*
X10507827Y12051284D01*
X10516971Y12040870D01*
X10527385Y12031726D01*
X10538917Y12024055D01*
X10551312Y12017908D01*
X10564469Y12013488D01*
X10578033Y12010796D01*
G37*
G36*
X9067850Y12009882D02*
G01*
X9081668Y12010796D01*
X9095232Y12013488D01*
X9108389Y12017908D01*
X9120784Y12024055D01*
X9132316Y12031726D01*
X9142730Y12040870D01*
X9151874Y12051284D01*
X9159544Y12062815D01*
X9165691Y12075210D01*
X9170111Y12088368D01*
X9172854Y12101931D01*
X9173718Y12115749D01*
X9172854Y12129566D01*
X9170111Y12143181D01*
X9165691Y12156287D01*
X9159544Y12168682D01*
X9151874Y12180214D01*
X9142730Y12190628D01*
X9132316Y12199772D01*
X9120784Y12207443D01*
X9108389Y12213590D01*
X9095232Y12218009D01*
X9081668Y12220752D01*
X9067850Y12221616D01*
X9054033Y12220752D01*
X9040469Y12218009D01*
X9027312Y12213590D01*
X9014917Y12207443D01*
X9003385Y12199772D01*
X8992971Y12190628D01*
X8983827Y12180214D01*
X8976156Y12168682D01*
X8970010Y12156287D01*
X8965590Y12143181D01*
X8962847Y12129566D01*
X8961983Y12115749D01*
X8962847Y12101931D01*
X8965590Y12088368D01*
X8970010Y12075210D01*
X8976156Y12062815D01*
X8983827Y12051284D01*
X8992971Y12040870D01*
X9003385Y12031726D01*
X9014917Y12024055D01*
X9027312Y12017908D01*
X9040469Y12013488D01*
X9054033Y12010796D01*
G37*
G36*
X11099850Y12009882D02*
G01*
X11113668Y12010796D01*
X11127232Y12013488D01*
X11140389Y12017908D01*
X11152784Y12024055D01*
X11164316Y12031726D01*
X11174730Y12040870D01*
X11183874Y12051284D01*
X11191544Y12062815D01*
X11197691Y12075210D01*
X11202111Y12088368D01*
X11204803Y12101931D01*
X11205718Y12115749D01*
X11204803Y12129566D01*
X11202111Y12143181D01*
X11197691Y12156287D01*
X11191544Y12168682D01*
X11183874Y12180214D01*
X11174730Y12190628D01*
X11164316Y12199772D01*
X11152784Y12207443D01*
X11140389Y12213590D01*
X11127232Y12218009D01*
X11113668Y12220752D01*
X11099850Y12221616D01*
X11086033Y12220752D01*
X11072418Y12218009D01*
X11059312Y12213590D01*
X11046917Y12207443D01*
X11035385Y12199772D01*
X11024971Y12190628D01*
X11015827Y12180214D01*
X11008156Y12168682D01*
X11002010Y12156287D01*
X10997590Y12143181D01*
X10994847Y12129566D01*
X10993983Y12115749D01*
X10994847Y12101931D01*
X10997590Y12088368D01*
X11002010Y12075210D01*
X11008156Y12062815D01*
X11015827Y12051284D01*
X11024971Y12040870D01*
X11035385Y12031726D01*
X11046917Y12024055D01*
X11059312Y12017908D01*
X11072418Y12013488D01*
X11086033Y12010796D01*
G37*
G36*
X11528348Y12009882D02*
G01*
X11687251Y12009882D01*
X11693550Y12010593D01*
X11699036Y12012523D01*
X11703913Y12015571D01*
X11708028Y12019686D01*
X11711076Y12024563D01*
X11713006Y12030049D01*
X11713718Y12036348D01*
X11713718Y12195251D01*
X11713006Y12201550D01*
X11711076Y12207036D01*
X11708028Y12211913D01*
X11703913Y12216028D01*
X11699036Y12219076D01*
X11693550Y12221006D01*
X11687251Y12221718D01*
X11528348Y12221718D01*
X11522049Y12221006D01*
X11516563Y12219076D01*
X11511686Y12216028D01*
X11507571Y12211913D01*
X11504523Y12207036D01*
X11502593Y12201550D01*
X11501882Y12195251D01*
X11501882Y12036348D01*
X11502593Y12030049D01*
X11504523Y12024563D01*
X11507571Y12019686D01*
X11511686Y12015571D01*
X11516563Y12012523D01*
X11522049Y12010593D01*
G37*
G36*
X9321800Y12009932D02*
G01*
X9335617Y12010847D01*
X9349232Y12013539D01*
X9362338Y12017959D01*
X9374733Y12024106D01*
X9386265Y12031776D01*
X9396679Y12040920D01*
X9405823Y12051334D01*
X9413494Y12062866D01*
X9419640Y12075261D01*
X9424060Y12088418D01*
X9426803Y12101982D01*
X9427667Y12115800D01*
X9426803Y12129617D01*
X9424060Y12143232D01*
X9419640Y12156338D01*
X9413494Y12168733D01*
X9405823Y12180265D01*
X9396679Y12190679D01*
X9386265Y12199823D01*
X9374733Y12207494D01*
X9362338Y12213640D01*
X9349232Y12218060D01*
X9335617Y12220803D01*
X9321800Y12221667D01*
X9307982Y12220803D01*
X9294418Y12218060D01*
X9281261Y12213640D01*
X9268866Y12207494D01*
X9257334Y12199823D01*
X9246920Y12190679D01*
X9237776Y12180265D01*
X9230106Y12168733D01*
X9223959Y12156338D01*
X9219539Y12143232D01*
X9216847Y12129617D01*
X9215932Y12115800D01*
X9216847Y12101982D01*
X9219539Y12088418D01*
X9223959Y12075261D01*
X9230106Y12062866D01*
X9237776Y12051334D01*
X9246920Y12040920D01*
X9257334Y12031776D01*
X9268866Y12024106D01*
X9281261Y12017959D01*
X9294418Y12013539D01*
X9307982Y12010847D01*
G37*
G36*
X9829800Y12009932D02*
G01*
X9843617Y12010847D01*
X9857232Y12013539D01*
X9870338Y12017959D01*
X9882733Y12024106D01*
X9894265Y12031776D01*
X9904679Y12040920D01*
X9913823Y12051334D01*
X9921494Y12062866D01*
X9927640Y12075261D01*
X9932060Y12088418D01*
X9934803Y12101982D01*
X9935667Y12115800D01*
X9934803Y12129617D01*
X9932060Y12143232D01*
X9927640Y12156338D01*
X9921494Y12168733D01*
X9913823Y12180265D01*
X9904679Y12190679D01*
X9894265Y12199823D01*
X9882733Y12207494D01*
X9870338Y12213640D01*
X9857232Y12218060D01*
X9843617Y12220803D01*
X9829800Y12221667D01*
X9815982Y12220803D01*
X9802418Y12218060D01*
X9789261Y12213640D01*
X9776866Y12207494D01*
X9765334Y12199823D01*
X9754920Y12190679D01*
X9745776Y12180265D01*
X9738106Y12168733D01*
X9731959Y12156338D01*
X9727539Y12143232D01*
X9724847Y12129617D01*
X9723932Y12115800D01*
X9724847Y12101982D01*
X9727539Y12088418D01*
X9731959Y12075261D01*
X9738106Y12062866D01*
X9745776Y12051334D01*
X9754920Y12040920D01*
X9765334Y12031776D01*
X9776866Y12024106D01*
X9789261Y12017959D01*
X9802418Y12013539D01*
X9815982Y12010847D01*
G37*
G36*
X10337800Y12009932D02*
G01*
X10351617Y12010847D01*
X10365181Y12013539D01*
X10378338Y12017959D01*
X10390733Y12024106D01*
X10402265Y12031776D01*
X10412679Y12040920D01*
X10421823Y12051334D01*
X10429494Y12062866D01*
X10435640Y12075261D01*
X10440060Y12088418D01*
X10442803Y12101982D01*
X10443667Y12115800D01*
X10442803Y12129617D01*
X10440060Y12143232D01*
X10435640Y12156338D01*
X10429494Y12168733D01*
X10421823Y12180265D01*
X10412679Y12190679D01*
X10402265Y12199823D01*
X10390733Y12207494D01*
X10378338Y12213640D01*
X10365181Y12218060D01*
X10351617Y12220803D01*
X10337800Y12221667D01*
X10323982Y12220803D01*
X10310418Y12218060D01*
X10297261Y12213640D01*
X10284866Y12207494D01*
X10273334Y12199823D01*
X10262920Y12190679D01*
X10253776Y12180265D01*
X10246106Y12168733D01*
X10239959Y12156338D01*
X10235539Y12143232D01*
X10232796Y12129617D01*
X10231932Y12115800D01*
X10232796Y12101982D01*
X10235539Y12088418D01*
X10239959Y12075261D01*
X10246106Y12062866D01*
X10253776Y12051334D01*
X10262920Y12040920D01*
X10273334Y12031776D01*
X10284866Y12024106D01*
X10297261Y12017959D01*
X10310418Y12013539D01*
X10323982Y12010847D01*
G37*
G36*
X10845800Y12009932D02*
G01*
X10859617Y12010847D01*
X10873181Y12013539D01*
X10886338Y12017959D01*
X10898733Y12024106D01*
X10910265Y12031776D01*
X10920679Y12040920D01*
X10929823Y12051334D01*
X10937494Y12062866D01*
X10943640Y12075261D01*
X10948060Y12088418D01*
X10950803Y12101982D01*
X10951667Y12115800D01*
X10950803Y12129617D01*
X10948060Y12143232D01*
X10943640Y12156338D01*
X10937494Y12168733D01*
X10929823Y12180265D01*
X10920679Y12190679D01*
X10910265Y12199823D01*
X10898733Y12207494D01*
X10886338Y12213640D01*
X10873181Y12218060D01*
X10859617Y12220803D01*
X10845800Y12221667D01*
X10831982Y12220803D01*
X10818418Y12218060D01*
X10805261Y12213640D01*
X10792866Y12207494D01*
X10781334Y12199823D01*
X10770920Y12190679D01*
X10761776Y12180265D01*
X10754106Y12168733D01*
X10747959Y12156338D01*
X10743539Y12143232D01*
X10740796Y12129617D01*
X10739932Y12115800D01*
X10740796Y12101982D01*
X10743539Y12088418D01*
X10747959Y12075261D01*
X10754106Y12062866D01*
X10761776Y12051334D01*
X10770920Y12040920D01*
X10781334Y12031776D01*
X10792866Y12024106D01*
X10805261Y12017959D01*
X10818418Y12013539D01*
X10831982Y12010847D01*
G37*
G36*
X11353800Y12009932D02*
G01*
X11367617Y12010847D01*
X11381181Y12013539D01*
X11394338Y12017959D01*
X11406733Y12024106D01*
X11418265Y12031776D01*
X11428679Y12040920D01*
X11437823Y12051334D01*
X11445494Y12062866D01*
X11451640Y12075261D01*
X11456060Y12088418D01*
X11458803Y12101982D01*
X11459667Y12115800D01*
X11458803Y12129617D01*
X11456060Y12143232D01*
X11451640Y12156338D01*
X11445494Y12168733D01*
X11437823Y12180265D01*
X11428679Y12190679D01*
X11418265Y12199823D01*
X11406733Y12207494D01*
X11394338Y12213640D01*
X11381181Y12218060D01*
X11367617Y12220803D01*
X11353800Y12221667D01*
X11339982Y12220803D01*
X11326418Y12218060D01*
X11313261Y12213640D01*
X11300866Y12207494D01*
X11289334Y12199823D01*
X11278920Y12190679D01*
X11269776Y12180265D01*
X11262106Y12168733D01*
X11255959Y12156338D01*
X11251539Y12143232D01*
X11248796Y12129617D01*
X11247932Y12115800D01*
X11248796Y12101982D01*
X11251539Y12088418D01*
X11255959Y12075261D01*
X11262106Y12062866D01*
X11269776Y12051334D01*
X11278920Y12040920D01*
X11289334Y12031776D01*
X11300866Y12024106D01*
X11313261Y12017959D01*
X11326418Y12013539D01*
X11339982Y12010847D01*
G37*
G36*
X14201800Y12133072D02*
G01*
X14205153Y12133072D01*
X14218615Y12133935D01*
X14231569Y12136526D01*
X14244066Y12140742D01*
X14255902Y12146584D01*
X14266875Y12153900D01*
X14276781Y12162637D01*
X14285518Y12172543D01*
X14292834Y12183516D01*
X14296085Y12190120D01*
X14201800Y12190120D01*
G37*
G36*
X14015770Y12133072D02*
G01*
X14019123Y12133072D01*
X14019123Y12190120D01*
X13924838Y12190120D01*
X13928090Y12183516D01*
X13935405Y12172543D01*
X13944142Y12162637D01*
X13954048Y12153900D01*
X13965021Y12146584D01*
X13976857Y12140742D01*
X13989354Y12136526D01*
X14002308Y12133935D01*
G37*
G36*
X14201800Y12277801D02*
G01*
X14296085Y12277801D01*
X14292834Y12284405D01*
X14285518Y12295378D01*
X14276781Y12305284D01*
X14266875Y12314021D01*
X14255902Y12321336D01*
X14244066Y12327178D01*
X14231569Y12331395D01*
X14218615Y12333986D01*
X14205153Y12334849D01*
X14201800Y12334849D01*
G37*
G36*
X13924838Y12277801D02*
G01*
X14019123Y12277801D01*
X14019123Y12334849D01*
X14015770Y12334849D01*
X14002308Y12333986D01*
X13989354Y12331395D01*
X13976857Y12327178D01*
X13965021Y12321336D01*
X13954048Y12314021D01*
X13944142Y12305284D01*
X13935405Y12295378D01*
X13928090Y12284405D01*
G37*

%LPD*%
G36*
X12697002Y10594594D02*
G01*
X12693142Y10595356D01*
X12689840Y10597591D01*
X11795912Y11491468D01*
X11789359Y11496903D01*
X11782298Y11500662D01*
X11774627Y11502999D01*
X11766143Y11503812D01*
X9233814Y11503812D01*
X9229953Y11504574D01*
X9226651Y11506809D01*
X8861399Y11872061D01*
X8859215Y11875363D01*
X8858402Y11879224D01*
X8859215Y11883136D01*
X8861399Y11886438D01*
X8864701Y11888622D01*
X8868562Y11889384D01*
X12156948Y11889384D01*
X12160859Y11888622D01*
X12164161Y11886438D01*
X12880898Y11169650D01*
X12883235Y11165992D01*
X12883845Y11161674D01*
X12882575Y11157508D01*
X12879679Y11154257D01*
X12875717Y11152479D01*
X12863423Y11150041D01*
X12850469Y11145672D01*
X12838176Y11139627D01*
X12826796Y11132007D01*
X12816535Y11122964D01*
X12807492Y11112703D01*
X12799872Y11101324D01*
X12793827Y11089030D01*
X12789458Y11076076D01*
X12786766Y11062665D01*
X12785852Y11049000D01*
X12786766Y11035334D01*
X12789458Y11021923D01*
X12793827Y11008969D01*
X12799872Y10996676D01*
X12807492Y10985296D01*
X12816535Y10975035D01*
X12826796Y10965992D01*
X12838176Y10958372D01*
X12850469Y10952327D01*
X12863423Y10947958D01*
X12876834Y10945266D01*
X12890500Y10944352D01*
X12904165Y10945266D01*
X12917576Y10947958D01*
X12930530Y10952327D01*
X12942824Y10958372D01*
X12954203Y10965992D01*
X12962432Y10973257D01*
X12966344Y10975340D01*
X12970764Y10975644D01*
X12974878Y10974019D01*
X12977876Y10970818D01*
X12981686Y10958017D01*
X12985445Y10950956D01*
X12990880Y10944352D01*
X13023900Y10911332D01*
X13030504Y10905896D01*
X13037565Y10902137D01*
X13045236Y10899800D01*
X13053669Y10898987D01*
X13561110Y10898987D01*
X13565022Y10898174D01*
X13568324Y10895990D01*
X13792352Y10671962D01*
X13794536Y10668660D01*
X13795298Y10664748D01*
X13794536Y10660888D01*
X13792352Y10657586D01*
X13789050Y10655401D01*
X13785138Y10654588D01*
X13641984Y10654588D01*
X13635634Y10653877D01*
X13630198Y10651998D01*
X13625271Y10648899D01*
X13621207Y10644835D01*
X13618108Y10639907D01*
X13616228Y10634472D01*
X13615517Y10628122D01*
X13615517Y10604754D01*
X13614704Y10600893D01*
X13612520Y10597591D01*
X13609218Y10595356D01*
X13605357Y10594594D01*
G37*

%LPC*%
G36*
X12682220Y10955121D02*
G01*
X12688824Y10958372D01*
X12700203Y10965992D01*
X12710464Y10975035D01*
X12719507Y10985296D01*
X12727127Y10996676D01*
X12730378Y11003280D01*
X12682220Y11003280D01*
G37*
G36*
X12590780Y10955121D02*
G01*
X12590780Y11003280D01*
X12542621Y11003280D01*
X12545872Y10996676D01*
X12553492Y10985296D01*
X12562535Y10975035D01*
X12572796Y10965992D01*
X12584176Y10958372D01*
G37*
G36*
X12542621Y11094720D02*
G01*
X12590780Y11094720D01*
X12590780Y11142878D01*
X12584176Y11139627D01*
X12572796Y11132007D01*
X12562535Y11122964D01*
X12553492Y11112703D01*
X12545872Y11101324D01*
G37*
G36*
X12682220Y11094720D02*
G01*
X12730378Y11094720D01*
X12727127Y11101324D01*
X12719507Y11112703D01*
X12710464Y11122964D01*
X12700203Y11132007D01*
X12688824Y11139627D01*
X12682220Y11142878D01*
G37*

%LPD*%
D10*
X13741400Y10045700D02*
G01*
X13871803Y10176103D01*
X13871803Y10650346D01*
X13582268Y10939881D01*
X13053186Y10939881D01*
X13019430Y10973638D01*
X13019430Y11088979D01*
X12178106Y11930303D01*
X8831834Y11930303D01*
X8686800Y12075337D01*
X8686800Y12150801D01*
X8605291Y12232309D01*
X8168309Y12232309D01*
X8051800Y12115800D01*
X8559800Y12115800D02*
G01*
X9212681Y11462918D01*
X11766651Y11462918D01*
X12675870Y10553700D01*
X13741400Y10553700D01*
X13741400Y10299700D02*
G01*
X12371552Y10299700D01*
X11317452Y11353800D01*
X9067800Y11353800D01*
X8305800Y12115800D01*
X13741400Y9791700D02*
G01*
X13306221Y10226878D01*
X8416721Y10226878D01*
X8051800Y10591800D01*
X11722100Y9334500D02*
G01*
X11475643Y9088043D01*
X10697514Y9088043D01*
X10579100Y8969629D01*
X10579100Y8789390D02*
G01*
X10579100Y8969629D01*
X9067800Y10591800D02*
G01*
X9369679Y10289920D01*
X12293752Y10289920D01*
X13741400Y8775700D02*
G01*
X12962839Y9554260D01*
X12962839Y9577400D01*
X12865100Y9577400D02*
G01*
X12962839Y9577400D01*
X12865100Y9577400D02*
G01*
X12767386Y9577400D01*
X10198100Y9954361D02*
G01*
X10198100Y10096500D01*
X7924800Y10096500D02*
G01*
X8066938Y9954361D01*
X10198100Y9954361D01*
X10198100Y9954361D02*
G01*
X12390424Y9954361D01*
X12767386Y9577400D01*
X12636500Y11785600D02*
G01*
X13084936Y12234037D01*
X14110461Y12234037D01*
X10845800Y10591800D02*
G01*
X10994999Y10442600D01*
X12141454Y10442600D01*
X9321800Y10591800D02*
G01*
X9533102Y10380497D01*
X12042140Y10380497D01*
X14503400Y8775700D02*
G01*
X14122400Y9156700D01*
X13583538Y9156700D01*
X12962839Y9777399D01*
X12865100Y9777399D02*
G01*
X12962839Y9777399D01*
X12865100Y9777399D02*
G01*
X12767386Y9777399D01*
X12767386Y9777399D02*
G01*
X12751612Y9777399D01*
X8064500Y8787384D02*
G01*
X8064500Y8967622D01*
X9817100Y8787384D02*
G01*
X9817100Y8967622D01*
X8066684Y8969806D02*
G01*
X7924800Y9111691D01*
X7924800Y9334500D01*
X8064500Y8967622D02*
G01*
X8066684Y8969806D01*
X8066684Y8969806D02*
G01*
X9814915Y8969806D01*
X9817100Y8967622D01*
D11*
G01*
X12865100Y9777402D03*
D12*
G01*
X12865100Y9577400D03*
D13*
G01*
X8318245Y8789390D03*
G01*
X8572245Y8789390D03*
G01*
X8826500Y8789390D03*
G01*
X9080500Y8789390D03*
G01*
X8064500Y8787384D03*
G01*
X11810745Y8789390D03*
G01*
X12064745Y8789390D03*
G01*
X12319000Y8789390D03*
G01*
X12573000Y8789390D03*
G01*
X11557000Y8787384D03*
G01*
X10070845Y8789390D03*
G01*
X10324845Y8789390D03*
G01*
X10579100Y8789390D03*
G01*
X10833100Y8789390D03*
G01*
X9817100Y8787384D03*
D14*
G01*
X13860525Y11768962D03*
G01*
X14460474Y11768962D03*
D15*
G01*
X14110461Y12234037D03*
D16*
G01*
X13144500Y11785600D03*
D17*
G01*
X12890500Y11785600D03*
G01*
X12636500Y11785600D03*
D16*
G01*
X13144500Y11049000D03*
D17*
G01*
X12890500Y11049000D03*
G01*
X12636500Y11049000D03*
D18*
G01*
X11607800Y12115800D03*
D19*
G01*
X11353800Y10591800D03*
G01*
X10845800Y10591800D03*
G01*
X10337800Y10591800D03*
G01*
X9829800Y10591800D03*
G01*
X9321800Y10591800D03*
G01*
X8813800Y10591800D03*
G01*
X8305800Y10591800D03*
G01*
X8051800Y12115800D03*
G01*
X8559800Y12115800D03*
G01*
X9067800Y12115800D03*
G01*
X9575800Y12115800D03*
G01*
X10083800Y12115800D03*
G01*
X10591800Y12115800D03*
G01*
X11099800Y12115800D03*
G01*
X11353800Y12115800D03*
G01*
X10845800Y12115800D03*
G01*
X10337800Y12115800D03*
G01*
X9829800Y12115800D03*
G01*
X9321800Y12115800D03*
G01*
X8813800Y12115800D03*
G01*
X8305800Y12115800D03*
G01*
X8051800Y10591800D03*
G01*
X8559800Y10591800D03*
G01*
X9067800Y10591800D03*
G01*
X9575800Y10591800D03*
G01*
X10083800Y10591800D03*
G01*
X10591800Y10591800D03*
G01*
X11099800Y10591800D03*
D18*
G01*
X11607800Y10591800D03*
D20*
G01*
X10198100Y9334500D03*
G01*
X10452100Y9334500D03*
G01*
X10706100Y9334500D03*
G01*
X10960100Y9334500D03*
G01*
X11214100Y9334500D03*
G01*
X11468100Y9334500D03*
G01*
X11722100Y9334500D03*
G01*
X11976100Y9334500D03*
G01*
X10198100Y10096500D03*
G01*
X10452100Y10096500D03*
G01*
X10706100Y10096500D03*
G01*
X10960100Y10096500D03*
G01*
X11214100Y10096500D03*
G01*
X11468100Y10096500D03*
G01*
X11722100Y10096500D03*
D21*
G01*
X11976100Y10096500D03*
D20*
G01*
X7924800Y9334500D03*
G01*
X8178800Y9334500D03*
G01*
X8432800Y9334500D03*
G01*
X8686800Y9334500D03*
G01*
X8940800Y9334500D03*
G01*
X9194800Y9334500D03*
G01*
X9448800Y9334500D03*
G01*
X9702800Y9334500D03*
G01*
X7924800Y10096500D03*
G01*
X8178800Y10096500D03*
G01*
X8432800Y10096500D03*
G01*
X8686800Y10096500D03*
G01*
X8940800Y10096500D03*
G01*
X9194800Y10096500D03*
G01*
X9448800Y10096500D03*
D21*
G01*
X9702800Y10096500D03*
D22*
G01*
X14503400Y8775700D03*
G01*
X14503400Y9029700D03*
G01*
X14503400Y9283700D03*
G01*
X14503400Y9537700D03*
G01*
X14503400Y9791700D03*
G01*
X14503400Y10045700D03*
G01*
X14503400Y10299700D03*
G01*
X14503400Y10553700D03*
G01*
X13741400Y8775700D03*
G01*
X13741400Y9029700D03*
G01*
X13741400Y9283700D03*
G01*
X13741400Y9537700D03*
G01*
X13741400Y9791700D03*
G01*
X13741400Y10045700D03*
G01*
X13741400Y10299700D03*
D23*
G01*
X13741400Y10553700D03*
D24*
G01*
X12751612Y9777399D03*
G01*
X12042140Y10380497D03*
G01*
X12141454Y10442600D03*
G01*
X12293752Y10289920D03*
M02*
