G04 Layer: TopSilkscreenLayer*
G04 EasyEDA v6.5.22, 2023-03-31 14:54:23*
G04 d3f0f356f32e465d957ef3f0493f5931,4db1f7442a1f4f30bb2da465e00f2567,10*
G04 Gerber Generator version 0.2*
G04 Scale: 100 percent, Rotated: No, Reflected: No *
G04 Dimensions in millimeters *
G04 leading zeros omitted , absolute positions ,4 integer and 5 decimal *
%FSLAX45Y45*%
%MOMM*%

%ADD10C,0.1500*%
%ADD11C,0.1524*%
%ADD12C,0.2540*%
%ADD13C,0.2032*%
%ADD14C,0.1520*%
%ADD15C,0.2500*%
%ADD16C,0.0119*%

%LPD*%
G36*
X7965694Y8481822D02*
G01*
X7965694Y8318500D01*
X7990586Y8318500D01*
X7990586Y8407400D01*
X8043925Y8321294D01*
X8044180Y8321294D01*
X8097266Y8407146D01*
X8097266Y8318500D01*
X8122158Y8318500D01*
X8122158Y8481822D01*
X8120380Y8481822D01*
X8043925Y8365744D01*
X7967472Y8481822D01*
G37*
G36*
X8427720Y8481822D02*
G01*
X8427720Y8318500D01*
X8452866Y8318500D01*
X8452866Y8407400D01*
X8505952Y8321294D01*
X8506206Y8321294D01*
X8559292Y8407146D01*
X8559292Y8318500D01*
X8584438Y8318500D01*
X8584438Y8481822D01*
X8582406Y8481822D01*
X8506206Y8365744D01*
X8429752Y8481822D01*
G37*
G36*
X8208772Y8481314D02*
G01*
X8208772Y8318246D01*
X8233918Y8318246D01*
X8233918Y8422640D01*
X8336280Y8315706D01*
X8337550Y8315706D01*
X8337550Y8478774D01*
X8312150Y8478774D01*
X8312150Y8374634D01*
X8210042Y8481314D01*
G37*
G36*
X8690102Y8481314D02*
G01*
X8684463Y8481110D01*
X8678926Y8480552D01*
X8673490Y8479637D01*
X8668207Y8478316D01*
X8663025Y8476691D01*
X8658047Y8474760D01*
X8653170Y8472525D01*
X8648496Y8469934D01*
X8644026Y8467090D01*
X8639708Y8463940D01*
X8635644Y8460587D01*
X8631783Y8456930D01*
X8628176Y8453069D01*
X8624773Y8448954D01*
X8621674Y8444636D01*
X8618829Y8440115D01*
X8616289Y8435390D01*
X8614054Y8430514D01*
X8612124Y8425484D01*
X8610498Y8420303D01*
X8609228Y8414969D01*
X8608314Y8409482D01*
X8607755Y8403945D01*
X8607561Y8398510D01*
X8632952Y8398510D01*
X8633256Y8404352D01*
X8634120Y8410041D01*
X8635542Y8415528D01*
X8637473Y8420760D01*
X8639860Y8425789D01*
X8642705Y8430514D01*
X8646007Y8434933D01*
X8649716Y8438997D01*
X8653780Y8442756D01*
X8658199Y8446058D01*
X8662873Y8448954D01*
X8667902Y8451392D01*
X8673134Y8453323D01*
X8678621Y8454745D01*
X8684260Y8455609D01*
X8690102Y8455914D01*
X8695944Y8455609D01*
X8701633Y8454745D01*
X8707120Y8453323D01*
X8712352Y8451392D01*
X8717381Y8448954D01*
X8722106Y8446058D01*
X8726525Y8442756D01*
X8730640Y8438997D01*
X8734348Y8434933D01*
X8737650Y8430514D01*
X8740546Y8425789D01*
X8742984Y8420760D01*
X8744915Y8415528D01*
X8746337Y8410041D01*
X8747201Y8404352D01*
X8747506Y8398510D01*
X8747201Y8392668D01*
X8746337Y8387029D01*
X8744915Y8381542D01*
X8742984Y8376310D01*
X8740546Y8371281D01*
X8737650Y8366607D01*
X8734348Y8362188D01*
X8730640Y8358124D01*
X8726525Y8354415D01*
X8722106Y8351113D01*
X8717381Y8348268D01*
X8712352Y8345881D01*
X8707120Y8343950D01*
X8701633Y8342528D01*
X8695944Y8341664D01*
X8690102Y8341359D01*
X8684260Y8341664D01*
X8678621Y8342528D01*
X8673134Y8343950D01*
X8667902Y8345881D01*
X8662873Y8348268D01*
X8658199Y8351113D01*
X8653780Y8354415D01*
X8649716Y8358124D01*
X8646007Y8362188D01*
X8642705Y8366607D01*
X8639860Y8371281D01*
X8637473Y8376310D01*
X8635542Y8381542D01*
X8634120Y8387029D01*
X8633256Y8392668D01*
X8632952Y8398510D01*
X8607561Y8398510D01*
X8607755Y8392668D01*
X8608314Y8387130D01*
X8609228Y8381746D01*
X8610498Y8376462D01*
X8612124Y8371331D01*
X8614054Y8366302D01*
X8616289Y8361476D01*
X8618829Y8356803D01*
X8621674Y8352332D01*
X8624773Y8348065D01*
X8628176Y8344001D01*
X8631783Y8340140D01*
X8635644Y8336534D01*
X8639708Y8333181D01*
X8644026Y8330082D01*
X8648496Y8327237D01*
X8653170Y8324697D01*
X8658047Y8322462D01*
X8663025Y8320531D01*
X8668207Y8318906D01*
X8673490Y8317636D01*
X8678926Y8316722D01*
X8684463Y8316163D01*
X8690102Y8315959D01*
X8695740Y8316163D01*
X8701278Y8316722D01*
X8706713Y8317636D01*
X8712047Y8318906D01*
X8717178Y8320531D01*
X8722207Y8322462D01*
X8727084Y8324697D01*
X8731758Y8327237D01*
X8736279Y8330082D01*
X8740597Y8333181D01*
X8744661Y8336534D01*
X8748572Y8340140D01*
X8752179Y8344001D01*
X8755583Y8348065D01*
X8758682Y8352332D01*
X8761526Y8356803D01*
X8764117Y8361476D01*
X8766352Y8366302D01*
X8768283Y8371331D01*
X8769908Y8376462D01*
X8771229Y8381746D01*
X8772144Y8387130D01*
X8772702Y8392668D01*
X8772906Y8398256D01*
X8772702Y8403945D01*
X8772144Y8409482D01*
X8771229Y8414969D01*
X8769908Y8420303D01*
X8768283Y8425484D01*
X8766352Y8430514D01*
X8764117Y8435390D01*
X8761526Y8440115D01*
X8758682Y8444636D01*
X8755583Y8448954D01*
X8752179Y8453069D01*
X8748572Y8456930D01*
X8744661Y8460587D01*
X8740597Y8463940D01*
X8736279Y8467090D01*
X8731758Y8469934D01*
X8727084Y8472525D01*
X8722207Y8474760D01*
X8717178Y8476691D01*
X8712047Y8478316D01*
X8706713Y8479637D01*
X8701278Y8480552D01*
X8695740Y8481110D01*
G37*
G36*
X8975344Y8481314D02*
G01*
X8969654Y8481110D01*
X8964117Y8480552D01*
X8958681Y8479637D01*
X8953347Y8478316D01*
X8948166Y8476691D01*
X8943136Y8474760D01*
X8938260Y8472525D01*
X8933535Y8469934D01*
X8929065Y8467090D01*
X8924747Y8463940D01*
X8920683Y8460587D01*
X8916822Y8456930D01*
X8913164Y8453069D01*
X8909812Y8448954D01*
X8906662Y8444636D01*
X8903868Y8440115D01*
X8901277Y8435390D01*
X8899042Y8430514D01*
X8897112Y8425484D01*
X8895486Y8420303D01*
X8894216Y8414969D01*
X8893302Y8409482D01*
X8892743Y8403945D01*
X8892549Y8398510D01*
X8917940Y8398510D01*
X8918244Y8404352D01*
X8919108Y8410041D01*
X8920530Y8415528D01*
X8922461Y8420760D01*
X8924848Y8425789D01*
X8927693Y8430514D01*
X8930995Y8434933D01*
X8934704Y8438997D01*
X8938768Y8442756D01*
X8943187Y8446058D01*
X8947861Y8448954D01*
X8952890Y8451392D01*
X8958122Y8453323D01*
X8963609Y8454745D01*
X8969248Y8455609D01*
X8975090Y8455914D01*
X8980932Y8455609D01*
X8986621Y8454745D01*
X8992108Y8453323D01*
X8997340Y8451392D01*
X9002369Y8448954D01*
X9007094Y8446058D01*
X9011513Y8442756D01*
X9015577Y8438997D01*
X9019336Y8434933D01*
X9022638Y8430514D01*
X9025534Y8425789D01*
X9027972Y8420760D01*
X9029903Y8415528D01*
X9031325Y8410041D01*
X9032189Y8404352D01*
X9032494Y8398510D01*
X9032189Y8392668D01*
X9031325Y8387029D01*
X9029903Y8381542D01*
X9027972Y8376310D01*
X9025534Y8371281D01*
X9022638Y8366607D01*
X9019336Y8362188D01*
X9015577Y8358124D01*
X9011513Y8354415D01*
X9007094Y8351113D01*
X9002369Y8348268D01*
X8997340Y8345881D01*
X8992108Y8343950D01*
X8986621Y8342528D01*
X8980932Y8341664D01*
X8975090Y8341359D01*
X8969248Y8341664D01*
X8963609Y8342528D01*
X8958122Y8343950D01*
X8952890Y8345881D01*
X8947861Y8348268D01*
X8943187Y8351113D01*
X8938768Y8354415D01*
X8934704Y8358124D01*
X8930995Y8362188D01*
X8927693Y8366607D01*
X8924848Y8371281D01*
X8922461Y8376310D01*
X8920530Y8381542D01*
X8919108Y8387029D01*
X8918244Y8392668D01*
X8917940Y8398510D01*
X8892549Y8398510D01*
X8892743Y8392668D01*
X8893302Y8387130D01*
X8894216Y8381746D01*
X8895486Y8376462D01*
X8897112Y8371331D01*
X8899042Y8366302D01*
X8901277Y8361476D01*
X8903817Y8356803D01*
X8906662Y8352332D01*
X8909761Y8348065D01*
X8913164Y8344001D01*
X8916771Y8340140D01*
X8920632Y8336534D01*
X8924696Y8333181D01*
X8929014Y8330082D01*
X8933484Y8327237D01*
X8938158Y8324697D01*
X8943035Y8322462D01*
X8948013Y8320531D01*
X8953195Y8318906D01*
X8958478Y8317636D01*
X8963914Y8316722D01*
X8969451Y8316163D01*
X8975090Y8315959D01*
X8980728Y8316163D01*
X8986266Y8316722D01*
X8991701Y8317636D01*
X8997035Y8318906D01*
X9002166Y8320531D01*
X9007195Y8322462D01*
X9012072Y8324697D01*
X9016746Y8327237D01*
X9021267Y8330082D01*
X9025585Y8333181D01*
X9029649Y8336534D01*
X9033560Y8340140D01*
X9037167Y8344001D01*
X9040571Y8348065D01*
X9043670Y8352332D01*
X9046514Y8356803D01*
X9049105Y8361476D01*
X9051340Y8366302D01*
X9053271Y8371331D01*
X9054896Y8376462D01*
X9056217Y8381746D01*
X9057132Y8387130D01*
X9057690Y8392668D01*
X9057894Y8398256D01*
X9057690Y8403945D01*
X9057132Y8409482D01*
X9056217Y8414969D01*
X9054896Y8420303D01*
X9053322Y8425484D01*
X9051340Y8430514D01*
X9049105Y8435390D01*
X9046514Y8440115D01*
X9043720Y8444636D01*
X9040571Y8448954D01*
X9037218Y8453069D01*
X9033560Y8456930D01*
X9029700Y8460587D01*
X9025636Y8463940D01*
X9021318Y8467090D01*
X9016847Y8469934D01*
X9012174Y8472525D01*
X9007297Y8474760D01*
X9002318Y8476691D01*
X8997137Y8478316D01*
X8991854Y8479637D01*
X8986469Y8480552D01*
X8980932Y8481110D01*
G37*
G36*
X8152892Y8478520D02*
G01*
X8152892Y8318500D01*
X8178038Y8318500D01*
X8178038Y8478520D01*
G37*
G36*
X8777224Y8478520D02*
G01*
X8777224Y8453628D01*
X8820150Y8453628D01*
X8820150Y8318500D01*
X8845296Y8318500D01*
X8845296Y8453628D01*
X8888222Y8453628D01*
X8888222Y8478520D01*
G37*
G36*
X9081008Y8478520D02*
G01*
X9081008Y8453628D01*
X9131300Y8453628D01*
X9136786Y8453120D01*
X9141968Y8451646D01*
X9146641Y8449310D01*
X9150756Y8446211D01*
X9154160Y8442401D01*
X9156750Y8437981D01*
X9158427Y8433054D01*
X9158986Y8427720D01*
X9158427Y8422436D01*
X9156750Y8417458D01*
X9154160Y8412937D01*
X9150756Y8408974D01*
X9146641Y8405723D01*
X9141968Y8403285D01*
X9136786Y8401761D01*
X9131300Y8401304D01*
X9106154Y8401304D01*
X9106154Y8453628D01*
X9081008Y8453628D01*
X9081008Y8318500D01*
X9106154Y8318500D01*
X9106154Y8380475D01*
X9125966Y8380475D01*
X9168892Y8318500D01*
X9199880Y8318500D01*
X9153144Y8382508D01*
X9159849Y8385251D01*
X9165945Y8389010D01*
X9171330Y8393734D01*
X9175953Y8399221D01*
X9179712Y8405368D01*
X9182557Y8412175D01*
X9184284Y8419388D01*
X9184894Y8426958D01*
X9184589Y8432241D01*
X9183776Y8437321D01*
X9182455Y8442299D01*
X9180626Y8447024D01*
X9178340Y8451545D01*
X9175597Y8455761D01*
X9172498Y8459724D01*
X9168993Y8463432D01*
X9165132Y8466734D01*
X9160967Y8469731D01*
X9156496Y8472271D01*
X9151772Y8474456D01*
X9146844Y8476183D01*
X9141663Y8477453D01*
X9136278Y8478266D01*
X9130792Y8478520D01*
G37*
G36*
X10304018Y8494522D02*
G01*
X10304018Y8331200D01*
X10329164Y8331200D01*
X10329164Y8420100D01*
X10382250Y8333994D01*
X10382504Y8333994D01*
X10435590Y8419846D01*
X10435590Y8331200D01*
X10460736Y8331200D01*
X10460736Y8494522D01*
X10458704Y8494522D01*
X10382250Y8378444D01*
X10305796Y8494522D01*
G37*
G36*
X9854438Y8494014D02*
G01*
X9848799Y8493810D01*
X9843262Y8493252D01*
X9837826Y8492337D01*
X9832492Y8491016D01*
X9827361Y8489391D01*
X9822332Y8487460D01*
X9817455Y8485225D01*
X9812782Y8482634D01*
X9808260Y8479790D01*
X9803942Y8476640D01*
X9799878Y8473287D01*
X9795967Y8469630D01*
X9792360Y8465769D01*
X9788956Y8461654D01*
X9785858Y8457336D01*
X9783013Y8452815D01*
X9780422Y8448090D01*
X9778187Y8443214D01*
X9776256Y8438184D01*
X9774631Y8433003D01*
X9773310Y8427669D01*
X9772396Y8422182D01*
X9771837Y8416645D01*
X9771643Y8411210D01*
X9797034Y8411210D01*
X9797338Y8417052D01*
X9798202Y8422741D01*
X9799624Y8428228D01*
X9801555Y8433460D01*
X9803942Y8438489D01*
X9806787Y8443214D01*
X9810089Y8447633D01*
X9813798Y8451697D01*
X9817862Y8455456D01*
X9822281Y8458758D01*
X9826955Y8461654D01*
X9831984Y8464092D01*
X9837216Y8466023D01*
X9842703Y8467445D01*
X9848342Y8468309D01*
X9854184Y8468614D01*
X9860076Y8468309D01*
X9865766Y8467445D01*
X9871303Y8466023D01*
X9876586Y8464092D01*
X9881616Y8461654D01*
X9886391Y8458758D01*
X9890810Y8455456D01*
X9894925Y8451697D01*
X9898634Y8447633D01*
X9901986Y8443214D01*
X9904882Y8438489D01*
X9907320Y8433460D01*
X9909251Y8428228D01*
X9910673Y8422741D01*
X9911537Y8417052D01*
X9911842Y8411210D01*
X9911537Y8405368D01*
X9910673Y8399729D01*
X9909251Y8394242D01*
X9907320Y8389010D01*
X9904882Y8383981D01*
X9901986Y8379307D01*
X9898634Y8374888D01*
X9894925Y8370824D01*
X9890810Y8367115D01*
X9886391Y8363813D01*
X9881616Y8360968D01*
X9876586Y8358581D01*
X9871303Y8356650D01*
X9865766Y8355228D01*
X9860076Y8354364D01*
X9854184Y8354059D01*
X9848342Y8354364D01*
X9842703Y8355228D01*
X9837216Y8356650D01*
X9831984Y8358581D01*
X9826955Y8360968D01*
X9822281Y8363813D01*
X9817862Y8367115D01*
X9813798Y8370824D01*
X9810089Y8374888D01*
X9806787Y8379307D01*
X9803942Y8383981D01*
X9801555Y8389010D01*
X9799624Y8394242D01*
X9798202Y8399729D01*
X9797338Y8405368D01*
X9797034Y8411210D01*
X9771643Y8411210D01*
X9771837Y8405368D01*
X9772396Y8399830D01*
X9773310Y8394446D01*
X9774631Y8389162D01*
X9776206Y8384031D01*
X9778187Y8379002D01*
X9780422Y8374176D01*
X9783013Y8369503D01*
X9785807Y8365032D01*
X9788956Y8360765D01*
X9792309Y8356701D01*
X9795967Y8352840D01*
X9799828Y8349234D01*
X9803892Y8345881D01*
X9808210Y8342782D01*
X9812680Y8339937D01*
X9817354Y8337397D01*
X9822230Y8335162D01*
X9827209Y8333231D01*
X9832390Y8331606D01*
X9837674Y8330336D01*
X9843058Y8329422D01*
X9848596Y8328863D01*
X9854184Y8328659D01*
X9859873Y8328863D01*
X9865410Y8329422D01*
X9870897Y8330336D01*
X9876231Y8331606D01*
X9881412Y8333231D01*
X9886442Y8335162D01*
X9891318Y8337397D01*
X9896043Y8339937D01*
X9900564Y8342782D01*
X9904882Y8345881D01*
X9908997Y8349234D01*
X9912858Y8352840D01*
X9916515Y8356701D01*
X9919868Y8360765D01*
X9923018Y8365032D01*
X9925862Y8369503D01*
X9928453Y8374176D01*
X9930688Y8379002D01*
X9932619Y8384031D01*
X9934244Y8389162D01*
X9935565Y8394446D01*
X9936480Y8399830D01*
X9937038Y8405368D01*
X9937242Y8410956D01*
X9937038Y8416645D01*
X9936480Y8422182D01*
X9935565Y8427669D01*
X9934244Y8433003D01*
X9932619Y8438184D01*
X9930688Y8443214D01*
X9928453Y8448090D01*
X9925862Y8452815D01*
X9923018Y8457336D01*
X9919919Y8461654D01*
X9916515Y8465769D01*
X9912908Y8469630D01*
X9908997Y8473287D01*
X9904933Y8476640D01*
X9900615Y8479790D01*
X9896094Y8482634D01*
X9891420Y8485225D01*
X9886543Y8487460D01*
X9881514Y8489391D01*
X9876383Y8491016D01*
X9871049Y8492337D01*
X9865614Y8493252D01*
X9860076Y8493810D01*
G37*
G36*
X10566400Y8494014D02*
G01*
X10560761Y8493810D01*
X10555224Y8493252D01*
X10549788Y8492337D01*
X10544505Y8491016D01*
X10539323Y8489391D01*
X10534345Y8487460D01*
X10529468Y8485225D01*
X10524794Y8482634D01*
X10520324Y8479790D01*
X10516006Y8476640D01*
X10511942Y8473287D01*
X10508081Y8469630D01*
X10504474Y8465769D01*
X10501071Y8461654D01*
X10497972Y8457336D01*
X10495127Y8452815D01*
X10492587Y8448090D01*
X10490352Y8443214D01*
X10488422Y8438184D01*
X10486796Y8433003D01*
X10485526Y8427669D01*
X10484612Y8422182D01*
X10484053Y8416645D01*
X10483859Y8411210D01*
X10508996Y8411210D01*
X10509300Y8417052D01*
X10510164Y8422741D01*
X10511586Y8428228D01*
X10513517Y8433460D01*
X10515904Y8438489D01*
X10518800Y8443214D01*
X10522102Y8447633D01*
X10525810Y8451697D01*
X10529874Y8455456D01*
X10534294Y8458758D01*
X10539018Y8461654D01*
X10544048Y8464092D01*
X10549331Y8466023D01*
X10554817Y8467445D01*
X10560507Y8468309D01*
X10566400Y8468614D01*
X10572242Y8468309D01*
X10577931Y8467445D01*
X10583418Y8466023D01*
X10588650Y8464092D01*
X10593679Y8461654D01*
X10598404Y8458758D01*
X10602823Y8455456D01*
X10606938Y8451697D01*
X10610646Y8447633D01*
X10613948Y8443214D01*
X10616844Y8438489D01*
X10619282Y8433460D01*
X10621213Y8428228D01*
X10622635Y8422741D01*
X10623499Y8417052D01*
X10623804Y8411210D01*
X10623499Y8405368D01*
X10622635Y8399729D01*
X10621213Y8394242D01*
X10619282Y8389010D01*
X10616844Y8383981D01*
X10613948Y8379307D01*
X10610646Y8374888D01*
X10606938Y8370824D01*
X10602823Y8367115D01*
X10598404Y8363813D01*
X10593679Y8360968D01*
X10588650Y8358581D01*
X10583418Y8356650D01*
X10577931Y8355228D01*
X10572242Y8354364D01*
X10566400Y8354059D01*
X10560507Y8354364D01*
X10554817Y8355228D01*
X10549331Y8356650D01*
X10544048Y8358581D01*
X10539018Y8360968D01*
X10534294Y8363813D01*
X10529874Y8367115D01*
X10525810Y8370824D01*
X10522102Y8374888D01*
X10518800Y8379307D01*
X10515904Y8383981D01*
X10513517Y8389010D01*
X10511586Y8394242D01*
X10510164Y8399729D01*
X10509300Y8405368D01*
X10508996Y8411210D01*
X10483859Y8411210D01*
X10484053Y8405368D01*
X10484612Y8399830D01*
X10485526Y8394446D01*
X10486796Y8389162D01*
X10488422Y8384031D01*
X10490352Y8379002D01*
X10492587Y8374176D01*
X10495127Y8369503D01*
X10497972Y8365032D01*
X10501071Y8360765D01*
X10504474Y8356701D01*
X10508081Y8352840D01*
X10511942Y8349234D01*
X10516006Y8345881D01*
X10520324Y8342782D01*
X10524794Y8339937D01*
X10529468Y8337397D01*
X10534345Y8335162D01*
X10539323Y8333231D01*
X10544505Y8331606D01*
X10549788Y8330336D01*
X10555224Y8329422D01*
X10560761Y8328863D01*
X10566400Y8328659D01*
X10572038Y8328863D01*
X10577576Y8329422D01*
X10583011Y8330336D01*
X10588345Y8331606D01*
X10593476Y8333231D01*
X10598505Y8335162D01*
X10603382Y8337397D01*
X10608056Y8339937D01*
X10612577Y8342782D01*
X10616895Y8345881D01*
X10620959Y8349234D01*
X10624870Y8352840D01*
X10628477Y8356701D01*
X10631881Y8360765D01*
X10634980Y8365032D01*
X10637824Y8369503D01*
X10640415Y8374176D01*
X10642650Y8379002D01*
X10644581Y8384031D01*
X10646206Y8389162D01*
X10647527Y8394446D01*
X10648442Y8399830D01*
X10649000Y8405368D01*
X10649204Y8410956D01*
X10649000Y8416645D01*
X10648442Y8422182D01*
X10647527Y8427669D01*
X10646206Y8433003D01*
X10644581Y8438184D01*
X10642650Y8443214D01*
X10640415Y8448090D01*
X10637824Y8452815D01*
X10634980Y8457336D01*
X10631881Y8461654D01*
X10628477Y8465769D01*
X10624870Y8469630D01*
X10620959Y8473287D01*
X10616895Y8476640D01*
X10612577Y8479790D01*
X10608056Y8482634D01*
X10603382Y8485225D01*
X10598505Y8487460D01*
X10593476Y8489391D01*
X10588345Y8491016D01*
X10583011Y8492337D01*
X10577576Y8493252D01*
X10572038Y8493810D01*
G37*
G36*
X10851388Y8494014D02*
G01*
X10845749Y8493810D01*
X10840212Y8493252D01*
X10834776Y8492337D01*
X10829493Y8491016D01*
X10824311Y8489391D01*
X10819333Y8487460D01*
X10814456Y8485225D01*
X10809782Y8482634D01*
X10805312Y8479790D01*
X10800994Y8476640D01*
X10796930Y8473287D01*
X10793069Y8469630D01*
X10789462Y8465769D01*
X10786059Y8461654D01*
X10782960Y8457336D01*
X10780115Y8452815D01*
X10777575Y8448090D01*
X10775340Y8443214D01*
X10773410Y8438184D01*
X10771784Y8433003D01*
X10770514Y8427669D01*
X10769600Y8422182D01*
X10769041Y8416645D01*
X10768847Y8411210D01*
X10793984Y8411210D01*
X10794288Y8417052D01*
X10795152Y8422741D01*
X10796574Y8428228D01*
X10798505Y8433460D01*
X10800943Y8438489D01*
X10803839Y8443214D01*
X10807141Y8447633D01*
X10810900Y8451697D01*
X10814964Y8455456D01*
X10819384Y8458758D01*
X10824108Y8461654D01*
X10829137Y8464092D01*
X10834370Y8466023D01*
X10839856Y8467445D01*
X10845546Y8468309D01*
X10851388Y8468614D01*
X10857230Y8468309D01*
X10862919Y8467445D01*
X10868406Y8466023D01*
X10873638Y8464092D01*
X10878667Y8461654D01*
X10883392Y8458758D01*
X10887811Y8455456D01*
X10891926Y8451697D01*
X10895634Y8447633D01*
X10898936Y8443214D01*
X10901832Y8438489D01*
X10904270Y8433460D01*
X10906201Y8428228D01*
X10907623Y8422741D01*
X10908487Y8417052D01*
X10908792Y8411210D01*
X10908487Y8405368D01*
X10907623Y8399729D01*
X10906201Y8394242D01*
X10904270Y8389010D01*
X10901832Y8383981D01*
X10898936Y8379307D01*
X10895634Y8374888D01*
X10891875Y8370824D01*
X10887811Y8367115D01*
X10883392Y8363813D01*
X10878667Y8360968D01*
X10873638Y8358581D01*
X10868406Y8356650D01*
X10862919Y8355228D01*
X10857230Y8354364D01*
X10851388Y8354059D01*
X10845546Y8354364D01*
X10839856Y8355228D01*
X10834370Y8356650D01*
X10829137Y8358581D01*
X10824108Y8360968D01*
X10819384Y8363813D01*
X10814964Y8367115D01*
X10810900Y8370824D01*
X10807141Y8374888D01*
X10803839Y8379307D01*
X10800943Y8383981D01*
X10798505Y8389010D01*
X10796574Y8394242D01*
X10795152Y8399729D01*
X10794288Y8405368D01*
X10793984Y8411210D01*
X10768847Y8411210D01*
X10769041Y8405368D01*
X10769600Y8399830D01*
X10770514Y8394446D01*
X10771784Y8389162D01*
X10773410Y8384031D01*
X10775340Y8379002D01*
X10777575Y8374176D01*
X10780115Y8369503D01*
X10782960Y8365032D01*
X10786059Y8360765D01*
X10789462Y8356701D01*
X10793069Y8352840D01*
X10796930Y8349234D01*
X10800994Y8345881D01*
X10805312Y8342782D01*
X10809782Y8339937D01*
X10814456Y8337397D01*
X10819333Y8335162D01*
X10824311Y8333231D01*
X10829493Y8331606D01*
X10834776Y8330336D01*
X10840212Y8329422D01*
X10845749Y8328863D01*
X10851388Y8328659D01*
X10857026Y8328863D01*
X10862564Y8329422D01*
X10867999Y8330336D01*
X10873333Y8331606D01*
X10878464Y8333231D01*
X10883493Y8335162D01*
X10888370Y8337397D01*
X10893044Y8339937D01*
X10897565Y8342782D01*
X10901883Y8345881D01*
X10905947Y8349234D01*
X10909858Y8352840D01*
X10913465Y8356701D01*
X10916869Y8360765D01*
X10919968Y8365032D01*
X10922812Y8369503D01*
X10925403Y8374176D01*
X10927638Y8379002D01*
X10929569Y8384031D01*
X10931194Y8389162D01*
X10932515Y8394446D01*
X10933430Y8399830D01*
X10933988Y8405368D01*
X10934192Y8410956D01*
X10933988Y8416645D01*
X10933430Y8422182D01*
X10932515Y8427669D01*
X10931194Y8433003D01*
X10929569Y8438184D01*
X10927638Y8443214D01*
X10925403Y8448090D01*
X10922812Y8452815D01*
X10919968Y8457336D01*
X10916869Y8461654D01*
X10913465Y8465769D01*
X10909858Y8469630D01*
X10905947Y8473287D01*
X10901883Y8476640D01*
X10897565Y8479790D01*
X10893044Y8482634D01*
X10888370Y8485225D01*
X10883493Y8487460D01*
X10878464Y8489391D01*
X10873333Y8491016D01*
X10867999Y8492337D01*
X10862564Y8493252D01*
X10857026Y8493810D01*
G37*
G36*
X9629394Y8491220D02*
G01*
X9629394Y8331200D01*
X9654286Y8331200D01*
X9654286Y8398764D01*
X9723628Y8398764D01*
X9723628Y8331200D01*
X9748520Y8331200D01*
X9748520Y8491220D01*
X9723628Y8491220D01*
X9723628Y8423656D01*
X9654286Y8423656D01*
X9654286Y8491220D01*
G37*
G36*
X9958578Y8491220D02*
G01*
X9958578Y8391906D01*
X9958882Y8385098D01*
X9959797Y8378596D01*
X9961219Y8372348D01*
X9963251Y8366404D01*
X9965740Y8360816D01*
X9968738Y8355533D01*
X9972192Y8350656D01*
X9976053Y8346236D01*
X9980320Y8342172D01*
X9984943Y8338616D01*
X9989921Y8335518D01*
X9995204Y8332927D01*
X10000792Y8330895D01*
X10006685Y8329371D01*
X10012730Y8328456D01*
X10019030Y8328152D01*
X10025329Y8328456D01*
X10031425Y8329371D01*
X10037267Y8330895D01*
X10042855Y8332927D01*
X10048189Y8335518D01*
X10053218Y8338616D01*
X10057841Y8342172D01*
X10062159Y8346236D01*
X10066020Y8350656D01*
X10069525Y8355533D01*
X10072522Y8360816D01*
X10075011Y8366404D01*
X10077043Y8372348D01*
X10078516Y8378596D01*
X10079431Y8385098D01*
X10079736Y8391906D01*
X10079736Y8491220D01*
X10054336Y8491220D01*
X10054336Y8391906D01*
X10054031Y8386521D01*
X10053066Y8381390D01*
X10051592Y8376615D01*
X10049510Y8372144D01*
X10047020Y8368080D01*
X10044023Y8364423D01*
X10040620Y8361273D01*
X10036860Y8358581D01*
X10032796Y8356447D01*
X10028428Y8354872D01*
X10023856Y8353907D01*
X10019030Y8353552D01*
X10014254Y8353907D01*
X10009632Y8354872D01*
X10005314Y8356447D01*
X10001250Y8358581D01*
X9997541Y8361273D01*
X9994188Y8364423D01*
X9991242Y8368080D01*
X9988702Y8372144D01*
X9986721Y8376615D01*
X9985197Y8381390D01*
X9984282Y8386521D01*
X9983978Y8391906D01*
X9983978Y8491220D01*
G37*
G36*
X10108692Y8491220D02*
G01*
X10108731Y8466328D01*
X10158984Y8466328D01*
X10164470Y8465820D01*
X10169652Y8464346D01*
X10174325Y8462010D01*
X10178440Y8458911D01*
X10181844Y8455101D01*
X10184434Y8450681D01*
X10186111Y8445754D01*
X10186670Y8440420D01*
X10186111Y8435136D01*
X10184485Y8430158D01*
X10181945Y8425637D01*
X10178542Y8421674D01*
X10174427Y8418423D01*
X10169753Y8415985D01*
X10164572Y8414461D01*
X10158984Y8414004D01*
X10133838Y8414004D01*
X10133838Y8466328D01*
X10108731Y8466328D01*
X10108946Y8331200D01*
X10134092Y8331200D01*
X10134092Y8393176D01*
X10153650Y8393176D01*
X10196830Y8331200D01*
X10227564Y8331200D01*
X10181082Y8395208D01*
X10187686Y8397951D01*
X10193731Y8401710D01*
X10199065Y8406434D01*
X10203688Y8411921D01*
X10207447Y8418068D01*
X10210241Y8424875D01*
X10211968Y8432088D01*
X10212578Y8439658D01*
X10212273Y8444941D01*
X10211460Y8450021D01*
X10210139Y8454999D01*
X10208310Y8459724D01*
X10206024Y8464245D01*
X10203281Y8468461D01*
X10200182Y8472424D01*
X10196677Y8476132D01*
X10192816Y8479434D01*
X10188651Y8482431D01*
X10184180Y8484971D01*
X10179456Y8487156D01*
X10174528Y8488883D01*
X10169347Y8490153D01*
X10163962Y8490966D01*
X10158476Y8491220D01*
G37*
G36*
X10653522Y8491220D02*
G01*
X10653522Y8466328D01*
X10696448Y8466328D01*
X10696448Y8331200D01*
X10721594Y8331200D01*
X10721594Y8466328D01*
X10764520Y8466328D01*
X10764520Y8491220D01*
G37*
G36*
X10957306Y8491220D02*
G01*
X10957306Y8466328D01*
X11007598Y8466328D01*
X11013033Y8465820D01*
X11018113Y8464346D01*
X11022838Y8462010D01*
X11026952Y8458911D01*
X11030407Y8455101D01*
X11033048Y8450681D01*
X11034674Y8445754D01*
X11035284Y8440420D01*
X11034725Y8435136D01*
X11033048Y8430158D01*
X11030458Y8425637D01*
X11027054Y8421674D01*
X11022939Y8418423D01*
X11018266Y8415985D01*
X11013084Y8414461D01*
X11007598Y8414004D01*
X10982452Y8414004D01*
X10982452Y8466328D01*
X10957306Y8466328D01*
X10957306Y8331200D01*
X10982452Y8331200D01*
X10982452Y8393176D01*
X11002010Y8393176D01*
X11045190Y8331200D01*
X11075924Y8331200D01*
X11029442Y8395208D01*
X11036046Y8397951D01*
X11042142Y8401710D01*
X11047526Y8406434D01*
X11052200Y8411921D01*
X11055959Y8418068D01*
X11058804Y8424875D01*
X11060582Y8432088D01*
X11061192Y8439658D01*
X11060887Y8444941D01*
X11060074Y8450021D01*
X11058753Y8454999D01*
X11056924Y8459724D01*
X11054638Y8464245D01*
X11051895Y8468461D01*
X11048746Y8472424D01*
X11045240Y8476132D01*
X11041380Y8479434D01*
X11037214Y8482431D01*
X11032744Y8484971D01*
X11027968Y8487156D01*
X11022990Y8488883D01*
X11017758Y8490153D01*
X11012373Y8490966D01*
X11006836Y8491220D01*
G37*
G36*
X11585194Y8481822D02*
G01*
X11585194Y8318500D01*
X11610086Y8318500D01*
X11610086Y8407400D01*
X11663426Y8321294D01*
X11663680Y8321294D01*
X11716766Y8407146D01*
X11716766Y8318500D01*
X11741658Y8318500D01*
X11741658Y8481822D01*
X11739880Y8481822D01*
X11663426Y8365744D01*
X11586972Y8481822D01*
G37*
G36*
X11828272Y8481314D02*
G01*
X11828272Y8318246D01*
X11853418Y8318246D01*
X11853418Y8422640D01*
X11955780Y8315706D01*
X11957050Y8315706D01*
X11957050Y8478774D01*
X11931650Y8478774D01*
X11931650Y8374634D01*
X11829542Y8481314D01*
G37*
G36*
X12314936Y8481314D02*
G01*
X12314936Y8318246D01*
X12340082Y8318246D01*
X12340082Y8422640D01*
X12442444Y8315706D01*
X12443714Y8315706D01*
X12443714Y8478774D01*
X12418314Y8478774D01*
X12418314Y8374634D01*
X12316206Y8481314D01*
G37*
G36*
X12524486Y8481314D02*
G01*
X12517424Y8480958D01*
X12510719Y8479840D01*
X12504369Y8478062D01*
X12498425Y8475624D01*
X12492990Y8472525D01*
X12488062Y8468918D01*
X12483744Y8464702D01*
X12480086Y8460028D01*
X12477140Y8454847D01*
X12475006Y8449259D01*
X12473635Y8443214D01*
X12473178Y8436864D01*
X12473584Y8430869D01*
X12474803Y8425535D01*
X12476734Y8420709D01*
X12479274Y8416340D01*
X12482372Y8412480D01*
X12485928Y8408974D01*
X12489891Y8405876D01*
X12494158Y8403031D01*
X12503353Y8398052D01*
X12526822Y8387384D01*
X12533477Y8383930D01*
X12539573Y8380272D01*
X12544755Y8376310D01*
X12548819Y8371992D01*
X12551460Y8367217D01*
X12552426Y8361934D01*
X12551816Y8357514D01*
X12549987Y8353552D01*
X12547142Y8349996D01*
X12543332Y8346948D01*
X12538710Y8344458D01*
X12533376Y8342630D01*
X12527381Y8341512D01*
X12520930Y8341106D01*
X12515240Y8341410D01*
X12509804Y8342426D01*
X12504674Y8344001D01*
X12499898Y8346236D01*
X12495479Y8349030D01*
X12491516Y8352332D01*
X12488062Y8356244D01*
X12485116Y8360664D01*
X12465050Y8346694D01*
X12467539Y8342172D01*
X12470485Y8337956D01*
X12473889Y8334044D01*
X12477648Y8330438D01*
X12481814Y8327136D01*
X12486335Y8324240D01*
X12491262Y8321751D01*
X12496495Y8319617D01*
X12502032Y8317941D01*
X12507874Y8316722D01*
X12514021Y8315959D01*
X12520422Y8315706D01*
X12526416Y8315909D01*
X12532207Y8316569D01*
X12537744Y8317585D01*
X12543078Y8319008D01*
X12548108Y8320836D01*
X12552781Y8322970D01*
X12557150Y8325510D01*
X12561163Y8328406D01*
X12564821Y8331606D01*
X12568072Y8335162D01*
X12570866Y8338972D01*
X12573203Y8343138D01*
X12575082Y8347557D01*
X12576454Y8352281D01*
X12577267Y8357209D01*
X12577572Y8362442D01*
X12577165Y8368487D01*
X12575997Y8373973D01*
X12574117Y8379053D01*
X12571577Y8383727D01*
X12568377Y8387994D01*
X12564618Y8391956D01*
X12560350Y8395614D01*
X12555575Y8399018D01*
X12550343Y8402218D01*
X12538811Y8408111D01*
X12513157Y8419338D01*
X12508128Y8422030D01*
X12504013Y8424926D01*
X12500914Y8428228D01*
X12498984Y8431987D01*
X12498324Y8436356D01*
X12498832Y8440420D01*
X12500356Y8444230D01*
X12502794Y8447684D01*
X12505994Y8450681D01*
X12509906Y8453170D01*
X12514376Y8455050D01*
X12519355Y8456269D01*
X12524740Y8456676D01*
X12533274Y8455558D01*
X12541046Y8452307D01*
X12547600Y8447024D01*
X12552426Y8439912D01*
X12570968Y8452866D01*
X12568021Y8459114D01*
X12564110Y8464702D01*
X12559385Y8469579D01*
X12553848Y8473643D01*
X12547498Y8476945D01*
X12540488Y8479332D01*
X12532766Y8480806D01*
G37*
G36*
X11772392Y8478520D02*
G01*
X11772392Y8318500D01*
X11797538Y8318500D01*
X11797538Y8478520D01*
G37*
G36*
X12062714Y8478520D02*
G01*
X12062714Y8453628D01*
X12105640Y8453628D01*
X12105640Y8318500D01*
X12130786Y8318500D01*
X12130786Y8453628D01*
X12173712Y8453628D01*
X12173712Y8478520D01*
G37*
G36*
X12193778Y8478520D02*
G01*
X12193778Y8318500D01*
X12289028Y8318500D01*
X12289028Y8343392D01*
X12218670Y8343392D01*
X12218670Y8387842D01*
X12279376Y8387842D01*
X12279376Y8412734D01*
X12218670Y8412734D01*
X12218670Y8453628D01*
X12289028Y8453628D01*
X12289028Y8478520D01*
G37*
G36*
X11980164Y8407400D02*
G01*
X11980164Y8385556D01*
X12058396Y8385556D01*
X12058396Y8407400D01*
G37*
G36*
X12436094Y12139422D02*
G01*
X12436094Y11976100D01*
X12460986Y11976100D01*
X12460986Y12065000D01*
X12514326Y11978894D01*
X12514580Y11978894D01*
X12567666Y12064746D01*
X12567666Y11976100D01*
X12592558Y11976100D01*
X12592558Y12139422D01*
X12590780Y12139422D01*
X12514326Y12023344D01*
X12437872Y12139422D01*
G37*
G36*
X13144500Y12139422D02*
G01*
X13090362Y12021820D01*
X13117322Y12021820D01*
X13145516Y12084558D01*
X13173456Y12021820D01*
X13090362Y12021820D01*
X13069315Y11976100D01*
X13096494Y11976100D01*
X13107416Y12000484D01*
X13183107Y12000484D01*
X13194030Y11976100D01*
X13221207Y11976100D01*
X13146024Y12139422D01*
G37*
G36*
X12679172Y12138914D02*
G01*
X12679172Y11975846D01*
X12704318Y11975846D01*
X12704318Y12080240D01*
X12806680Y11973306D01*
X12807950Y11973306D01*
X12807950Y12136374D01*
X12782550Y12136374D01*
X12782550Y12032234D01*
X12680442Y12138914D01*
G37*
G36*
X12623292Y12136120D02*
G01*
X12623292Y11976100D01*
X12648438Y11976100D01*
X12648438Y12136120D01*
G37*
G36*
X12932410Y12136120D02*
G01*
X12932410Y11976100D01*
X12957302Y11976100D01*
X12957302Y12043664D01*
X13026644Y12043664D01*
X13026644Y11976100D01*
X13051790Y11976100D01*
X13051790Y12136120D01*
X13026644Y12136120D01*
X13026644Y12068556D01*
X12957302Y12068556D01*
X12957302Y12136120D01*
G37*
G36*
X13238988Y12136120D02*
G01*
X13238988Y11976100D01*
X13335507Y11976100D01*
X13335507Y12000992D01*
X13264134Y12000992D01*
X13264134Y12136120D01*
G37*
G36*
X13355574Y12136120D02*
G01*
X13355574Y11976100D01*
X13452094Y11976100D01*
X13452094Y12000992D01*
X13380719Y12000992D01*
X13380719Y12136120D01*
G37*
G36*
X12831064Y12065000D02*
G01*
X12831064Y12043156D01*
X12909296Y12043156D01*
X12909296Y12065000D01*
G37*
G36*
X12423394Y11428222D02*
G01*
X12423394Y11264900D01*
X12448286Y11264900D01*
X12448286Y11353800D01*
X12501626Y11267694D01*
X12501880Y11267694D01*
X12554966Y11353546D01*
X12554966Y11264900D01*
X12579858Y11264900D01*
X12579858Y11428222D01*
X12578080Y11428222D01*
X12501626Y11312144D01*
X12425172Y11428222D01*
G37*
G36*
X12666472Y11427714D02*
G01*
X12666472Y11264646D01*
X12691618Y11264646D01*
X12691618Y11369040D01*
X12793980Y11262106D01*
X12795250Y11262106D01*
X12795250Y11425174D01*
X12769850Y11425174D01*
X12769850Y11321034D01*
X12667742Y11427714D01*
G37*
G36*
X13153136Y11427714D02*
G01*
X13153136Y11264646D01*
X13178282Y11264646D01*
X13178282Y11369040D01*
X13280644Y11262106D01*
X13281913Y11262106D01*
X13281913Y11425174D01*
X13256513Y11425174D01*
X13256513Y11321034D01*
X13154406Y11427714D01*
G37*
G36*
X13362686Y11427714D02*
G01*
X13355624Y11427358D01*
X13348919Y11426240D01*
X13342569Y11424462D01*
X13336625Y11422024D01*
X13331190Y11418925D01*
X13326262Y11415318D01*
X13321944Y11411102D01*
X13318286Y11406428D01*
X13315340Y11401247D01*
X13313206Y11395659D01*
X13311835Y11389614D01*
X13311378Y11383264D01*
X13311784Y11377269D01*
X13313003Y11371935D01*
X13314934Y11367109D01*
X13317474Y11362740D01*
X13320572Y11358880D01*
X13324128Y11355374D01*
X13328091Y11352276D01*
X13332358Y11349431D01*
X13341553Y11344452D01*
X13365022Y11333784D01*
X13371677Y11330330D01*
X13377773Y11326672D01*
X13382955Y11322710D01*
X13387019Y11318392D01*
X13389660Y11313617D01*
X13390626Y11308334D01*
X13390016Y11303914D01*
X13388187Y11299952D01*
X13385342Y11296396D01*
X13381532Y11293348D01*
X13376910Y11290858D01*
X13371576Y11289030D01*
X13365581Y11287912D01*
X13359130Y11287506D01*
X13353440Y11287810D01*
X13348004Y11288826D01*
X13342874Y11290401D01*
X13338098Y11292636D01*
X13333679Y11295430D01*
X13329716Y11298732D01*
X13326262Y11302644D01*
X13323316Y11307064D01*
X13303250Y11293094D01*
X13305739Y11288572D01*
X13308685Y11284356D01*
X13312089Y11280444D01*
X13315848Y11276838D01*
X13320013Y11273536D01*
X13324535Y11270640D01*
X13329462Y11268151D01*
X13334695Y11266017D01*
X13340232Y11264341D01*
X13346074Y11263122D01*
X13352221Y11262360D01*
X13358622Y11262106D01*
X13364616Y11262309D01*
X13370407Y11262969D01*
X13375944Y11263985D01*
X13381278Y11265408D01*
X13386307Y11267236D01*
X13390981Y11269370D01*
X13395350Y11271910D01*
X13399363Y11274806D01*
X13403021Y11278006D01*
X13406272Y11281562D01*
X13409066Y11285372D01*
X13411403Y11289538D01*
X13413282Y11293957D01*
X13414654Y11298682D01*
X13415467Y11303609D01*
X13415772Y11308842D01*
X13415365Y11314887D01*
X13414197Y11320373D01*
X13412317Y11325453D01*
X13409777Y11330127D01*
X13406577Y11334394D01*
X13402818Y11338356D01*
X13398550Y11342014D01*
X13393775Y11345418D01*
X13388543Y11348618D01*
X13377011Y11354511D01*
X13351357Y11365738D01*
X13346328Y11368430D01*
X13342213Y11371326D01*
X13339114Y11374628D01*
X13337184Y11378387D01*
X13336524Y11382756D01*
X13337032Y11386820D01*
X13338556Y11390630D01*
X13340994Y11394084D01*
X13344194Y11397081D01*
X13348106Y11399570D01*
X13352576Y11401450D01*
X13357555Y11402669D01*
X13362940Y11403076D01*
X13371474Y11401958D01*
X13379246Y11398707D01*
X13385800Y11393424D01*
X13390626Y11386312D01*
X13409168Y11399266D01*
X13406221Y11405514D01*
X13402310Y11411102D01*
X13397585Y11415979D01*
X13392048Y11420043D01*
X13385698Y11423345D01*
X13378688Y11425732D01*
X13370966Y11427206D01*
G37*
G36*
X12610592Y11424920D02*
G01*
X12610592Y11264900D01*
X12635738Y11264900D01*
X12635738Y11424920D01*
G37*
G36*
X12900914Y11424920D02*
G01*
X12900914Y11400028D01*
X12943840Y11400028D01*
X12943840Y11264900D01*
X12968986Y11264900D01*
X12968986Y11400028D01*
X13011912Y11400028D01*
X13011912Y11424920D01*
G37*
G36*
X13031978Y11424920D02*
G01*
X13031978Y11264900D01*
X13127228Y11264900D01*
X13127228Y11289792D01*
X13056869Y11289792D01*
X13056869Y11334242D01*
X13117576Y11334242D01*
X13117576Y11359134D01*
X13056869Y11359134D01*
X13056869Y11400028D01*
X13127228Y11400028D01*
X13127228Y11424920D01*
G37*
G36*
X12818364Y11353800D02*
G01*
X12818364Y11331956D01*
X12896596Y11331956D01*
X12896596Y11353800D01*
G37*
G36*
X9018270Y11364722D02*
G01*
X8964132Y11247120D01*
X8990838Y11247120D01*
X9019032Y11309858D01*
X9047226Y11247120D01*
X8964132Y11247120D01*
X8943086Y11201400D01*
X8970264Y11201400D01*
X8981186Y11225784D01*
X9056878Y11225784D01*
X9067800Y11201400D01*
X9094978Y11201400D01*
X9019794Y11364722D01*
G37*
G36*
X10225024Y11364722D02*
G01*
X10170886Y11247120D01*
X10197592Y11247120D01*
X10225786Y11309858D01*
X10253980Y11247120D01*
X10170886Y11247120D01*
X10149840Y11201400D01*
X10177018Y11201400D01*
X10187940Y11225784D01*
X10263632Y11225784D01*
X10274554Y11201400D01*
X10301732Y11201400D01*
X10226548Y11364722D01*
G37*
G36*
X9603994Y11364214D02*
G01*
X9603994Y11201146D01*
X9628886Y11201146D01*
X9628886Y11305540D01*
X9731248Y11198606D01*
X9732518Y11198606D01*
X9732518Y11361674D01*
X9707372Y11361674D01*
X9707372Y11257534D01*
X9605264Y11364214D01*
G37*
G36*
X9838182Y11364214D02*
G01*
X9832543Y11364010D01*
X9827006Y11363452D01*
X9821570Y11362537D01*
X9816287Y11361216D01*
X9811105Y11359591D01*
X9806127Y11357660D01*
X9801250Y11355425D01*
X9796576Y11352834D01*
X9792106Y11349990D01*
X9787788Y11346840D01*
X9783724Y11343487D01*
X9779863Y11339830D01*
X9776256Y11335969D01*
X9772853Y11331854D01*
X9769754Y11327536D01*
X9766909Y11323015D01*
X9764369Y11318290D01*
X9762134Y11313414D01*
X9760204Y11308384D01*
X9758578Y11303203D01*
X9757308Y11297869D01*
X9756394Y11292382D01*
X9755835Y11286845D01*
X9755641Y11281410D01*
X9780778Y11281410D01*
X9781082Y11287252D01*
X9781946Y11292941D01*
X9783368Y11298428D01*
X9785299Y11303660D01*
X9787737Y11308689D01*
X9790633Y11313414D01*
X9793935Y11317833D01*
X9797643Y11321897D01*
X9801758Y11325656D01*
X9806178Y11328958D01*
X9810902Y11331854D01*
X9815931Y11334292D01*
X9821164Y11336223D01*
X9826650Y11337645D01*
X9832340Y11338509D01*
X9838182Y11338814D01*
X9844024Y11338509D01*
X9849713Y11337645D01*
X9855200Y11336223D01*
X9860432Y11334292D01*
X9865461Y11331854D01*
X9870186Y11328958D01*
X9874605Y11325656D01*
X9878720Y11321897D01*
X9882428Y11317833D01*
X9885730Y11313414D01*
X9888626Y11308689D01*
X9891064Y11303660D01*
X9892995Y11298428D01*
X9894417Y11292941D01*
X9895281Y11287252D01*
X9895586Y11281410D01*
X9895281Y11275568D01*
X9894417Y11269929D01*
X9892995Y11264442D01*
X9891064Y11259210D01*
X9888626Y11254181D01*
X9885730Y11249507D01*
X9882428Y11245088D01*
X9878720Y11241024D01*
X9874605Y11237315D01*
X9870186Y11234013D01*
X9865461Y11231168D01*
X9860432Y11228781D01*
X9855200Y11226850D01*
X9849713Y11225428D01*
X9844024Y11224564D01*
X9838182Y11224260D01*
X9832340Y11224564D01*
X9826650Y11225428D01*
X9821164Y11226850D01*
X9815931Y11228781D01*
X9810902Y11231168D01*
X9806178Y11234013D01*
X9801758Y11237315D01*
X9797643Y11241024D01*
X9793935Y11245088D01*
X9790633Y11249507D01*
X9787737Y11254181D01*
X9785299Y11259210D01*
X9783368Y11264442D01*
X9781946Y11269929D01*
X9781082Y11275568D01*
X9780778Y11281410D01*
X9755641Y11281410D01*
X9755835Y11275568D01*
X9756394Y11270030D01*
X9757308Y11264646D01*
X9758578Y11259362D01*
X9760204Y11254232D01*
X9762134Y11249202D01*
X9764369Y11244376D01*
X9766909Y11239703D01*
X9769754Y11235232D01*
X9772853Y11230965D01*
X9776256Y11226901D01*
X9779863Y11223040D01*
X9783724Y11219434D01*
X9787788Y11216081D01*
X9792106Y11212982D01*
X9796576Y11210137D01*
X9801250Y11207597D01*
X9806127Y11205362D01*
X9811105Y11203432D01*
X9816287Y11201806D01*
X9821570Y11200536D01*
X9827006Y11199622D01*
X9832543Y11199063D01*
X9838182Y11198860D01*
X9843820Y11199063D01*
X9849358Y11199622D01*
X9854793Y11200536D01*
X9860127Y11201806D01*
X9865258Y11203432D01*
X9870287Y11205362D01*
X9875164Y11207597D01*
X9879838Y11210137D01*
X9884359Y11212982D01*
X9888677Y11216081D01*
X9892741Y11219434D01*
X9896652Y11223040D01*
X9900259Y11226901D01*
X9903663Y11230965D01*
X9906762Y11235232D01*
X9909606Y11239703D01*
X9912197Y11244376D01*
X9914432Y11249202D01*
X9916363Y11254232D01*
X9917988Y11259362D01*
X9919309Y11264646D01*
X9920224Y11270030D01*
X9920782Y11275568D01*
X9920986Y11281156D01*
X9920782Y11286845D01*
X9920224Y11292382D01*
X9919309Y11297869D01*
X9917988Y11303203D01*
X9916363Y11308384D01*
X9914432Y11313414D01*
X9912197Y11318290D01*
X9909606Y11323015D01*
X9906762Y11327536D01*
X9903663Y11331854D01*
X9900259Y11335969D01*
X9896652Y11339830D01*
X9892741Y11343487D01*
X9888677Y11346840D01*
X9884359Y11349990D01*
X9879838Y11352834D01*
X9875164Y11355425D01*
X9870287Y11357660D01*
X9865258Y11359591D01*
X9860127Y11361216D01*
X9854793Y11362537D01*
X9849358Y11363452D01*
X9843820Y11364010D01*
G37*
G36*
X10003536Y11364214D02*
G01*
X10003536Y11201146D01*
X10028682Y11201146D01*
X10028682Y11305540D01*
X10131044Y11198606D01*
X10132060Y11198606D01*
X10132060Y11361674D01*
X10106914Y11361674D01*
X10106914Y11257534D01*
X10004806Y11364214D01*
G37*
G36*
X10319512Y11364214D02*
G01*
X10319512Y11201146D01*
X10344658Y11201146D01*
X10344658Y11305540D01*
X10446766Y11198606D01*
X10448036Y11198606D01*
X10448036Y11361674D01*
X10422890Y11361674D01*
X10422890Y11257534D01*
X10320782Y11364214D01*
G37*
G36*
X10553700Y11364214D02*
G01*
X10548061Y11364010D01*
X10542524Y11363452D01*
X10537088Y11362537D01*
X10531805Y11361216D01*
X10526623Y11359591D01*
X10521645Y11357660D01*
X10516768Y11355425D01*
X10512094Y11352834D01*
X10507624Y11349990D01*
X10503306Y11346840D01*
X10499242Y11343487D01*
X10495381Y11339830D01*
X10491774Y11335969D01*
X10488371Y11331854D01*
X10485272Y11327536D01*
X10482427Y11323015D01*
X10479887Y11318290D01*
X10477652Y11313414D01*
X10475722Y11308384D01*
X10474096Y11303203D01*
X10472826Y11297869D01*
X10471912Y11292382D01*
X10471353Y11286845D01*
X10471159Y11281410D01*
X10496550Y11281410D01*
X10496854Y11287252D01*
X10497718Y11292941D01*
X10499140Y11298428D01*
X10501071Y11303660D01*
X10503458Y11308689D01*
X10506303Y11313414D01*
X10509605Y11317833D01*
X10513314Y11321897D01*
X10517378Y11325656D01*
X10521797Y11328958D01*
X10526471Y11331854D01*
X10531500Y11334292D01*
X10536732Y11336223D01*
X10542219Y11337645D01*
X10547858Y11338509D01*
X10553700Y11338814D01*
X10559542Y11338509D01*
X10565231Y11337645D01*
X10570718Y11336223D01*
X10575950Y11334292D01*
X10580979Y11331854D01*
X10585704Y11328958D01*
X10590123Y11325656D01*
X10594238Y11321897D01*
X10597946Y11317833D01*
X10601248Y11313414D01*
X10604144Y11308689D01*
X10606582Y11303660D01*
X10608513Y11298428D01*
X10609935Y11292941D01*
X10610799Y11287252D01*
X10611104Y11281410D01*
X10610799Y11275568D01*
X10609935Y11269929D01*
X10608513Y11264442D01*
X10606582Y11259210D01*
X10604144Y11254181D01*
X10601248Y11249507D01*
X10597946Y11245088D01*
X10594238Y11241024D01*
X10590123Y11237315D01*
X10585704Y11234013D01*
X10580979Y11231168D01*
X10575950Y11228781D01*
X10570718Y11226850D01*
X10565231Y11225428D01*
X10559542Y11224564D01*
X10553700Y11224260D01*
X10547858Y11224564D01*
X10542219Y11225428D01*
X10536732Y11226850D01*
X10531500Y11228781D01*
X10526471Y11231168D01*
X10521797Y11234013D01*
X10517378Y11237315D01*
X10513314Y11241024D01*
X10509605Y11245088D01*
X10506303Y11249507D01*
X10503458Y11254181D01*
X10501071Y11259210D01*
X10499140Y11264442D01*
X10497718Y11269929D01*
X10496854Y11275568D01*
X10496550Y11281410D01*
X10471159Y11281410D01*
X10471353Y11275568D01*
X10471912Y11270030D01*
X10472826Y11264646D01*
X10474096Y11259362D01*
X10475722Y11254232D01*
X10477652Y11249202D01*
X10479887Y11244376D01*
X10482427Y11239703D01*
X10485272Y11235232D01*
X10488371Y11230965D01*
X10491774Y11226901D01*
X10495381Y11223040D01*
X10499242Y11219434D01*
X10503306Y11216081D01*
X10507624Y11212982D01*
X10512094Y11210137D01*
X10516768Y11207597D01*
X10521645Y11205362D01*
X10526623Y11203432D01*
X10531805Y11201806D01*
X10537088Y11200536D01*
X10542524Y11199622D01*
X10548061Y11199063D01*
X10553700Y11198860D01*
X10559338Y11199063D01*
X10564876Y11199622D01*
X10570311Y11200536D01*
X10575645Y11201806D01*
X10580776Y11203432D01*
X10585805Y11205362D01*
X10590682Y11207597D01*
X10595356Y11210137D01*
X10599877Y11212982D01*
X10604195Y11216081D01*
X10608259Y11219434D01*
X10612170Y11223040D01*
X10615777Y11226901D01*
X10619181Y11230965D01*
X10622280Y11235232D01*
X10625124Y11239703D01*
X10627715Y11244376D01*
X10629950Y11249202D01*
X10631881Y11254232D01*
X10633506Y11259362D01*
X10634827Y11264646D01*
X10635742Y11270030D01*
X10636300Y11275568D01*
X10636504Y11281156D01*
X10636300Y11286845D01*
X10635742Y11292382D01*
X10634827Y11297869D01*
X10633506Y11303203D01*
X10631881Y11308384D01*
X10629950Y11313414D01*
X10627715Y11318290D01*
X10625124Y11323015D01*
X10622280Y11327536D01*
X10619181Y11331854D01*
X10615777Y11335969D01*
X10612170Y11339830D01*
X10608259Y11343487D01*
X10604195Y11346840D01*
X10599877Y11349990D01*
X10595356Y11352834D01*
X10590682Y11355425D01*
X10585805Y11357660D01*
X10580776Y11359591D01*
X10575645Y11361216D01*
X10570311Y11362537D01*
X10564876Y11363452D01*
X10559338Y11364010D01*
G37*
G36*
X9112758Y11361420D02*
G01*
X9112758Y11336528D01*
X9163050Y11336528D01*
X9168536Y11336020D01*
X9173718Y11334546D01*
X9178391Y11332210D01*
X9182506Y11329111D01*
X9185910Y11325301D01*
X9188500Y11320881D01*
X9190177Y11315954D01*
X9190736Y11310620D01*
X9190177Y11305336D01*
X9188500Y11300358D01*
X9185910Y11295837D01*
X9182506Y11291874D01*
X9178391Y11288623D01*
X9173718Y11286185D01*
X9168536Y11284661D01*
X9163050Y11284204D01*
X9137904Y11284204D01*
X9137904Y11336528D01*
X9112758Y11336528D01*
X9112758Y11201400D01*
X9137904Y11201400D01*
X9137904Y11263376D01*
X9157716Y11263376D01*
X9200642Y11201400D01*
X9231630Y11201400D01*
X9184894Y11265408D01*
X9191599Y11268151D01*
X9197695Y11271910D01*
X9203080Y11276634D01*
X9207703Y11282121D01*
X9211462Y11288268D01*
X9214307Y11295075D01*
X9216034Y11302288D01*
X9216644Y11309858D01*
X9216339Y11315141D01*
X9215526Y11320221D01*
X9214205Y11325199D01*
X9212376Y11329924D01*
X9210090Y11334445D01*
X9207347Y11338661D01*
X9204248Y11342624D01*
X9200743Y11346332D01*
X9196882Y11349634D01*
X9192717Y11352631D01*
X9188246Y11355171D01*
X9183522Y11357356D01*
X9178594Y11359083D01*
X9173413Y11360353D01*
X9168028Y11361166D01*
X9162542Y11361420D01*
G37*
G36*
X9248394Y11361420D02*
G01*
X9248394Y11336528D01*
X9293860Y11336528D01*
X9300260Y11336274D01*
X9306356Y11335562D01*
X9312148Y11334343D01*
X9317583Y11332667D01*
X9322663Y11330533D01*
X9327337Y11327993D01*
X9331655Y11324996D01*
X9335566Y11321592D01*
X9339072Y11317833D01*
X9342170Y11313617D01*
X9344812Y11309096D01*
X9346996Y11304168D01*
X9348724Y11298885D01*
X9349994Y11293297D01*
X9350756Y11287404D01*
X9351010Y11281156D01*
X9350756Y11275009D01*
X9349994Y11269167D01*
X9348774Y11263630D01*
X9347047Y11258448D01*
X9344863Y11253571D01*
X9342272Y11249050D01*
X9339173Y11244935D01*
X9335719Y11241176D01*
X9331807Y11237772D01*
X9327540Y11234826D01*
X9322866Y11232286D01*
X9317786Y11230152D01*
X9312402Y11228476D01*
X9306610Y11227257D01*
X9300514Y11226546D01*
X9294114Y11226292D01*
X9273286Y11226292D01*
X9273286Y11336528D01*
X9248394Y11336528D01*
X9248394Y11201400D01*
X9293860Y11201400D01*
X9300108Y11201552D01*
X9306153Y11202009D01*
X9311995Y11202822D01*
X9317634Y11203889D01*
X9323019Y11205311D01*
X9328200Y11206988D01*
X9333128Y11208918D01*
X9337852Y11211204D01*
X9342323Y11213693D01*
X9346539Y11216487D01*
X9350502Y11219586D01*
X9354159Y11222888D01*
X9357614Y11226495D01*
X9360814Y11230305D01*
X9363710Y11234369D01*
X9366300Y11238687D01*
X9368637Y11243259D01*
X9370669Y11248034D01*
X9372396Y11253012D01*
X9373819Y11258245D01*
X9374936Y11263630D01*
X9375749Y11269268D01*
X9376257Y11275110D01*
X9376410Y11281156D01*
X9376257Y11287252D01*
X9375749Y11293144D01*
X9374936Y11298834D01*
X9373819Y11304320D01*
X9372396Y11309553D01*
X9370669Y11314582D01*
X9368637Y11319408D01*
X9366300Y11323980D01*
X9363710Y11328298D01*
X9360814Y11332413D01*
X9357614Y11336274D01*
X9354159Y11339880D01*
X9350502Y11343182D01*
X9346539Y11346281D01*
X9342323Y11349075D01*
X9337852Y11351615D01*
X9333128Y11353850D01*
X9328200Y11355832D01*
X9323019Y11357508D01*
X9317634Y11358930D01*
X9311995Y11359997D01*
X9306153Y11360810D01*
X9300108Y11361267D01*
X9293860Y11361420D01*
G37*
G36*
X9399270Y11361420D02*
G01*
X9399270Y11201400D01*
X9424416Y11201400D01*
X9424416Y11361420D01*
G37*
G36*
X9453880Y11361420D02*
G01*
X9453880Y11262106D01*
X9454184Y11255298D01*
X9455048Y11248796D01*
X9456521Y11242548D01*
X9458502Y11236604D01*
X9460992Y11231016D01*
X9463938Y11225733D01*
X9467392Y11220856D01*
X9471202Y11216436D01*
X9475470Y11212372D01*
X9480092Y11208816D01*
X9485020Y11205718D01*
X9490303Y11203127D01*
X9495891Y11201095D01*
X9501733Y11199571D01*
X9507778Y11198656D01*
X9514078Y11198352D01*
X9520377Y11198656D01*
X9526473Y11199571D01*
X9532315Y11201095D01*
X9537903Y11203127D01*
X9543237Y11205718D01*
X9548266Y11208816D01*
X9552889Y11212372D01*
X9557207Y11216436D01*
X9561068Y11220856D01*
X9564573Y11225733D01*
X9567570Y11231016D01*
X9570059Y11236604D01*
X9572091Y11242548D01*
X9573564Y11248796D01*
X9574479Y11255298D01*
X9574784Y11262106D01*
X9574784Y11361420D01*
X9549384Y11361420D01*
X9549384Y11262106D01*
X9549079Y11256721D01*
X9548114Y11251590D01*
X9546640Y11246815D01*
X9544558Y11242344D01*
X9542068Y11238280D01*
X9539071Y11234623D01*
X9535668Y11231473D01*
X9531908Y11228781D01*
X9527844Y11226647D01*
X9523476Y11225072D01*
X9518904Y11224107D01*
X9514078Y11223752D01*
X9509302Y11224107D01*
X9504680Y11225072D01*
X9500362Y11226647D01*
X9496298Y11228781D01*
X9492589Y11231473D01*
X9489236Y11234623D01*
X9486290Y11238280D01*
X9483750Y11242344D01*
X9481769Y11246815D01*
X9480245Y11251590D01*
X9479330Y11256721D01*
X9479026Y11262106D01*
X9479026Y11361420D01*
G37*
G36*
X9129776Y9803892D02*
G01*
X9123934Y9803536D01*
X9118346Y9802520D01*
X9113062Y9800945D01*
X9108135Y9798761D01*
X9103563Y9796119D01*
X9099346Y9793020D01*
X9095536Y9789515D01*
X9092133Y9785654D01*
X9089237Y9781489D01*
X9086799Y9777120D01*
X9084919Y9772548D01*
X9083548Y9767824D01*
X9109202Y9762490D01*
X9111843Y9769195D01*
X9116415Y9774478D01*
X9122460Y9777984D01*
X9129522Y9779254D01*
X9137954Y9777780D01*
X9144812Y9773564D01*
X9149435Y9767163D01*
X9151112Y9758934D01*
X9150350Y9753600D01*
X9148216Y9748875D01*
X9144914Y9744811D01*
X9140494Y9741357D01*
X9135211Y9738664D01*
X9129268Y9736683D01*
X9122714Y9735464D01*
X9115806Y9735058D01*
X9111996Y9720326D01*
X9118701Y9720122D01*
X9125000Y9719411D01*
X9130944Y9718243D01*
X9136430Y9716566D01*
X9141460Y9714433D01*
X9145879Y9711893D01*
X9149791Y9708946D01*
X9153093Y9705644D01*
X9155734Y9701936D01*
X9157665Y9697872D01*
X9158833Y9693503D01*
X9159240Y9688830D01*
X9158681Y9683750D01*
X9157055Y9678974D01*
X9154464Y9674504D01*
X9151010Y9670592D01*
X9146743Y9667341D01*
X9141764Y9664852D01*
X9136176Y9663226D01*
X9130030Y9662668D01*
X9124950Y9663074D01*
X9120124Y9664242D01*
X9115552Y9666122D01*
X9111437Y9668611D01*
X9107779Y9671710D01*
X9104731Y9675317D01*
X9102394Y9679330D01*
X9100820Y9683750D01*
X9076182Y9677400D01*
X9077909Y9671964D01*
X9080347Y9666782D01*
X9083395Y9661906D01*
X9087002Y9657283D01*
X9091117Y9653117D01*
X9095740Y9649307D01*
X9100769Y9645954D01*
X9106154Y9643160D01*
X9111894Y9640874D01*
X9117888Y9639198D01*
X9124137Y9638131D01*
X9130538Y9637776D01*
X9136126Y9638030D01*
X9141510Y9638792D01*
X9146743Y9640062D01*
X9151721Y9641738D01*
X9156446Y9643872D01*
X9160865Y9646412D01*
X9164980Y9649307D01*
X9168790Y9652508D01*
X9172244Y9656064D01*
X9175292Y9659874D01*
X9177985Y9663938D01*
X9180220Y9668205D01*
X9181998Y9672675D01*
X9183319Y9677349D01*
X9184132Y9682124D01*
X9184386Y9687052D01*
X9183827Y9694875D01*
X9182201Y9701936D01*
X9179560Y9708235D01*
X9176105Y9713772D01*
X9171838Y9718548D01*
X9166910Y9722612D01*
X9161424Y9725914D01*
X9155430Y9728454D01*
X9159595Y9730587D01*
X9163507Y9733280D01*
X9167063Y9736582D01*
X9170111Y9740442D01*
X9172702Y9744811D01*
X9174632Y9749688D01*
X9175851Y9755124D01*
X9176258Y9760966D01*
X9175800Y9767011D01*
X9174581Y9772700D01*
X9172549Y9778085D01*
X9169806Y9783064D01*
X9166402Y9787585D01*
X9162440Y9791649D01*
X9157970Y9795205D01*
X9152991Y9798253D01*
X9147657Y9800640D01*
X9141968Y9802418D01*
X9135973Y9803536D01*
G37*
G36*
X8497316Y9802114D02*
G01*
X8497316Y9639046D01*
X8522462Y9639046D01*
X8522462Y9743440D01*
X8624824Y9636506D01*
X8626094Y9636506D01*
X8626094Y9799574D01*
X8600694Y9799574D01*
X8600694Y9695434D01*
X8498586Y9802114D01*
G37*
G36*
X9207500Y9802114D02*
G01*
X9207500Y9639046D01*
X9232646Y9639046D01*
X9232646Y9743440D01*
X9335008Y9636506D01*
X9336278Y9636506D01*
X9336278Y9799574D01*
X9310878Y9799574D01*
X9310878Y9695434D01*
X9208770Y9802114D01*
G37*
G36*
X8710930Y9801606D02*
G01*
X8705189Y9801352D01*
X8699652Y9800539D01*
X8694267Y9799218D01*
X8689136Y9797440D01*
X8684260Y9795205D01*
X8679637Y9792563D01*
X8675319Y9789464D01*
X8671356Y9786061D01*
X8667750Y9782251D01*
X8664549Y9778136D01*
X8661755Y9773716D01*
X8659418Y9769043D01*
X8657539Y9764064D01*
X8656167Y9758934D01*
X8655354Y9753549D01*
X8655050Y9748012D01*
X8678164Y9742424D01*
X8678824Y9749434D01*
X8680805Y9755886D01*
X8683904Y9761677D01*
X8687968Y9766706D01*
X8692946Y9770770D01*
X8698636Y9773869D01*
X8704935Y9775799D01*
X8711692Y9776460D01*
X8717330Y9775850D01*
X8722817Y9774072D01*
X8727897Y9771227D01*
X8732418Y9767468D01*
X8736177Y9762845D01*
X8739124Y9757511D01*
X8741003Y9751517D01*
X8741664Y9744964D01*
X8741105Y9739934D01*
X8740394Y9737293D01*
X8738057Y9731654D01*
X8734552Y9725507D01*
X8729776Y9718802D01*
X8723680Y9711486D01*
X8716213Y9703460D01*
X8707374Y9694722D01*
X8697112Y9685172D01*
X8672068Y9663480D01*
X8649208Y9644634D01*
X8649208Y9639300D01*
X8768842Y9639300D01*
X8768842Y9664192D01*
X8702548Y9664192D01*
X8709202Y9668611D01*
X8721852Y9677958D01*
X8733434Y9687864D01*
X8738717Y9692995D01*
X8743645Y9698228D01*
X8748217Y9703511D01*
X8752332Y9708845D01*
X8755989Y9714179D01*
X8759190Y9719614D01*
X8761831Y9724999D01*
X8763965Y9730384D01*
X8765540Y9735718D01*
X8766505Y9741001D01*
X8766810Y9746234D01*
X8766505Y9751720D01*
X8765692Y9757054D01*
X8764320Y9762286D01*
X8762492Y9767316D01*
X8760155Y9772142D01*
X8757361Y9776714D01*
X8754160Y9780981D01*
X8750604Y9784943D01*
X8746642Y9788601D01*
X8742324Y9791852D01*
X8737752Y9794697D01*
X8732824Y9797084D01*
X8727694Y9799015D01*
X8722309Y9800437D01*
X8716721Y9801301D01*
G37*
G36*
X8849614Y9801606D02*
G01*
X8843873Y9801352D01*
X8838336Y9800590D01*
X8833002Y9799370D01*
X8827922Y9797694D01*
X8822994Y9795510D01*
X8818372Y9792970D01*
X8814003Y9789922D01*
X8809837Y9786518D01*
X8805976Y9782759D01*
X8802420Y9778542D01*
X8799118Y9774021D01*
X8796121Y9769144D01*
X8793429Y9763912D01*
X8791092Y9758375D01*
X8789060Y9752533D01*
X8787384Y9746386D01*
X8786063Y9739985D01*
X8785098Y9733330D01*
X8784539Y9726422D01*
X8784336Y9719310D01*
X8809228Y9719310D01*
X8809532Y9727438D01*
X8810548Y9735108D01*
X8812123Y9742271D01*
X8814257Y9748926D01*
X8817000Y9754971D01*
X8820251Y9760356D01*
X8824061Y9765080D01*
X8828328Y9769043D01*
X8833002Y9772192D01*
X8838133Y9774529D01*
X8843721Y9775952D01*
X8849614Y9776460D01*
X8855456Y9775952D01*
X8860942Y9774529D01*
X8866073Y9772192D01*
X8870746Y9769043D01*
X8874963Y9765080D01*
X8878722Y9760356D01*
X8881973Y9754971D01*
X8884716Y9748926D01*
X8886850Y9742271D01*
X8888425Y9735108D01*
X8889441Y9727438D01*
X8889746Y9719310D01*
X8889441Y9711182D01*
X8888425Y9703562D01*
X8886850Y9696399D01*
X8884716Y9689795D01*
X8881973Y9683750D01*
X8878722Y9678365D01*
X8874963Y9673691D01*
X8870746Y9669780D01*
X8866073Y9666630D01*
X8860942Y9664293D01*
X8855456Y9662922D01*
X8849614Y9662414D01*
X8843721Y9662922D01*
X8838133Y9664293D01*
X8833002Y9666630D01*
X8828328Y9669780D01*
X8824061Y9673691D01*
X8820251Y9678365D01*
X8817000Y9683750D01*
X8814257Y9689795D01*
X8812123Y9696399D01*
X8810548Y9703562D01*
X8809532Y9711182D01*
X8809228Y9719310D01*
X8784336Y9719310D01*
X8784539Y9712198D01*
X8785098Y9705289D01*
X8786063Y9698634D01*
X8787384Y9692233D01*
X8789060Y9686086D01*
X8791092Y9680244D01*
X8793429Y9674707D01*
X8796121Y9669475D01*
X8799118Y9664598D01*
X8802420Y9660077D01*
X8805976Y9655860D01*
X8809837Y9652101D01*
X8814003Y9648698D01*
X8818372Y9645650D01*
X8822994Y9643110D01*
X8827922Y9640925D01*
X8833002Y9639249D01*
X8838336Y9638030D01*
X8843873Y9637268D01*
X8849614Y9637014D01*
X8855354Y9637268D01*
X8860891Y9638030D01*
X8866225Y9639249D01*
X8871305Y9640925D01*
X8876233Y9643110D01*
X8880856Y9645650D01*
X8885224Y9648698D01*
X8889390Y9652101D01*
X8893251Y9655860D01*
X8896807Y9660077D01*
X8900109Y9664598D01*
X8903106Y9669475D01*
X8905798Y9674707D01*
X8908135Y9680244D01*
X8910167Y9686086D01*
X8911844Y9692233D01*
X8913164Y9698634D01*
X8914130Y9705289D01*
X8914688Y9712198D01*
X8914892Y9719310D01*
X8914688Y9726422D01*
X8914130Y9733330D01*
X8913164Y9739985D01*
X8911844Y9746386D01*
X8910167Y9752533D01*
X8908135Y9758375D01*
X8905798Y9763912D01*
X8903106Y9769144D01*
X8900109Y9774021D01*
X8896807Y9778542D01*
X8893251Y9782759D01*
X8889390Y9786518D01*
X8885224Y9789922D01*
X8880856Y9792970D01*
X8876233Y9795510D01*
X8871305Y9797694D01*
X8866225Y9799370D01*
X8860891Y9800590D01*
X8855354Y9801352D01*
G37*
G36*
X8995664Y9801606D02*
G01*
X8989923Y9801352D01*
X8984386Y9800590D01*
X8979052Y9799370D01*
X8973972Y9797694D01*
X8969044Y9795510D01*
X8964422Y9792970D01*
X8960053Y9789922D01*
X8955887Y9786518D01*
X8952026Y9782759D01*
X8948470Y9778542D01*
X8945168Y9774021D01*
X8942171Y9769144D01*
X8939479Y9763912D01*
X8937142Y9758375D01*
X8935110Y9752533D01*
X8933434Y9746386D01*
X8932113Y9739985D01*
X8931148Y9733330D01*
X8930589Y9726422D01*
X8930386Y9719310D01*
X8955278Y9719310D01*
X8955582Y9727438D01*
X8956598Y9735108D01*
X8958173Y9742271D01*
X8960307Y9748926D01*
X8963050Y9754971D01*
X8966301Y9760356D01*
X8970060Y9765080D01*
X8974277Y9769043D01*
X8978950Y9772192D01*
X8984081Y9774529D01*
X8989568Y9775952D01*
X8995410Y9776460D01*
X9001252Y9775952D01*
X9006738Y9774529D01*
X9011869Y9772192D01*
X9016542Y9769043D01*
X9020759Y9765080D01*
X9024518Y9760356D01*
X9027769Y9754971D01*
X9030512Y9748926D01*
X9032646Y9742271D01*
X9034221Y9735108D01*
X9035237Y9727438D01*
X9035542Y9719310D01*
X9035237Y9711182D01*
X9034221Y9703562D01*
X9032646Y9696399D01*
X9030512Y9689795D01*
X9027769Y9683750D01*
X9024518Y9678365D01*
X9020759Y9673691D01*
X9016542Y9669780D01*
X9011869Y9666630D01*
X9006738Y9664293D01*
X9001252Y9662922D01*
X8995410Y9662414D01*
X8989568Y9662922D01*
X8984081Y9664293D01*
X8978950Y9666630D01*
X8974277Y9669780D01*
X8970060Y9673691D01*
X8966301Y9678365D01*
X8963050Y9683750D01*
X8960307Y9689795D01*
X8958173Y9696399D01*
X8956598Y9703562D01*
X8955582Y9711182D01*
X8955278Y9719310D01*
X8930386Y9719310D01*
X8930589Y9712198D01*
X8931148Y9705289D01*
X8932113Y9698634D01*
X8933434Y9692233D01*
X8935110Y9686086D01*
X8937142Y9680244D01*
X8939479Y9674707D01*
X8942171Y9669475D01*
X8945168Y9664598D01*
X8948470Y9660077D01*
X8952026Y9655860D01*
X8955887Y9652101D01*
X8960053Y9648698D01*
X8964422Y9645650D01*
X8969044Y9643110D01*
X8973972Y9640925D01*
X8979052Y9639249D01*
X8984386Y9638030D01*
X8989923Y9637268D01*
X8995664Y9637014D01*
X9001404Y9637268D01*
X9006941Y9638030D01*
X9012275Y9639249D01*
X9017355Y9640925D01*
X9022283Y9643110D01*
X9026906Y9645650D01*
X9031274Y9648698D01*
X9035440Y9652101D01*
X9039301Y9655860D01*
X9042857Y9660077D01*
X9046159Y9664598D01*
X9049156Y9669475D01*
X9051848Y9674707D01*
X9054185Y9680244D01*
X9056217Y9686086D01*
X9057894Y9692233D01*
X9059214Y9698634D01*
X9060180Y9705289D01*
X9060738Y9712198D01*
X9060942Y9719310D01*
X9060738Y9726422D01*
X9060180Y9733330D01*
X9059214Y9739985D01*
X9057894Y9746386D01*
X9056217Y9752533D01*
X9054185Y9758375D01*
X9051848Y9763912D01*
X9049156Y9769144D01*
X9046159Y9774021D01*
X9042857Y9778542D01*
X9039301Y9782759D01*
X9035440Y9786518D01*
X9031274Y9789922D01*
X9026906Y9792970D01*
X9022283Y9795510D01*
X9017355Y9797694D01*
X9012275Y9799370D01*
X9006941Y9800590D01*
X9001404Y9801352D01*
G37*
G36*
X8230870Y9799320D02*
G01*
X8230870Y9700006D01*
X8231174Y9693198D01*
X8232089Y9686696D01*
X8233511Y9680448D01*
X8235543Y9674504D01*
X8238032Y9668916D01*
X8241030Y9663633D01*
X8244484Y9658756D01*
X8248345Y9654336D01*
X8252612Y9650272D01*
X8257235Y9646716D01*
X8262213Y9643618D01*
X8267496Y9641027D01*
X8273084Y9638995D01*
X8278977Y9637471D01*
X8285022Y9636556D01*
X8291322Y9636252D01*
X8297621Y9636556D01*
X8303666Y9637471D01*
X8309559Y9638995D01*
X8315147Y9641027D01*
X8320430Y9643618D01*
X8325408Y9646716D01*
X8330031Y9650272D01*
X8334298Y9654336D01*
X8338159Y9658756D01*
X8341614Y9663633D01*
X8344611Y9668916D01*
X8347100Y9674504D01*
X8349132Y9680448D01*
X8350554Y9686696D01*
X8351469Y9693198D01*
X8351774Y9700006D01*
X8351774Y9799320D01*
X8326374Y9799320D01*
X8326374Y9700006D01*
X8326069Y9694621D01*
X8325103Y9689490D01*
X8323630Y9684715D01*
X8321548Y9680244D01*
X8319058Y9676180D01*
X8316061Y9672523D01*
X8312658Y9669373D01*
X8308898Y9666681D01*
X8304834Y9664547D01*
X8300466Y9662972D01*
X8295894Y9662007D01*
X8291068Y9661652D01*
X8286292Y9662007D01*
X8281670Y9662972D01*
X8277352Y9664547D01*
X8273288Y9666681D01*
X8269579Y9669373D01*
X8266226Y9672523D01*
X8263280Y9676180D01*
X8260740Y9680244D01*
X8258759Y9684715D01*
X8257235Y9689490D01*
X8256320Y9694621D01*
X8256016Y9700006D01*
X8256016Y9799320D01*
G37*
G36*
X8380984Y9799320D02*
G01*
X8380984Y9639300D01*
X8477250Y9639300D01*
X8477250Y9664192D01*
X8406130Y9664192D01*
X8406130Y9799320D01*
G37*
G36*
X11415776Y9791192D02*
G01*
X11409934Y9790836D01*
X11404346Y9789820D01*
X11399062Y9788245D01*
X11394135Y9786061D01*
X11389563Y9783419D01*
X11385346Y9780320D01*
X11381536Y9776815D01*
X11378133Y9772954D01*
X11375237Y9768789D01*
X11372799Y9764420D01*
X11370919Y9759848D01*
X11369548Y9755124D01*
X11395202Y9749790D01*
X11397843Y9756495D01*
X11402415Y9761778D01*
X11408460Y9765284D01*
X11415522Y9766554D01*
X11423954Y9765080D01*
X11430812Y9760864D01*
X11435435Y9754463D01*
X11437112Y9746234D01*
X11436350Y9740900D01*
X11434216Y9736175D01*
X11430914Y9732111D01*
X11426494Y9728657D01*
X11421211Y9725964D01*
X11415268Y9723983D01*
X11408714Y9722764D01*
X11401806Y9722358D01*
X11397996Y9707626D01*
X11404701Y9707422D01*
X11411000Y9706711D01*
X11416944Y9705543D01*
X11422430Y9703866D01*
X11427460Y9701733D01*
X11431879Y9699193D01*
X11435791Y9696246D01*
X11439093Y9692944D01*
X11441734Y9689236D01*
X11443665Y9685172D01*
X11444833Y9680803D01*
X11445240Y9676130D01*
X11444681Y9671050D01*
X11443055Y9666274D01*
X11440464Y9661804D01*
X11437010Y9657892D01*
X11432743Y9654641D01*
X11427764Y9652152D01*
X11422176Y9650526D01*
X11416030Y9649968D01*
X11410950Y9650374D01*
X11406124Y9651542D01*
X11401552Y9653422D01*
X11397437Y9655911D01*
X11393779Y9659010D01*
X11390731Y9662617D01*
X11388394Y9666630D01*
X11386820Y9671050D01*
X11362182Y9664700D01*
X11363909Y9659264D01*
X11366347Y9654082D01*
X11369395Y9649206D01*
X11373002Y9644583D01*
X11377117Y9640417D01*
X11381740Y9636607D01*
X11386769Y9633254D01*
X11392154Y9630460D01*
X11397894Y9628174D01*
X11403888Y9626498D01*
X11410137Y9625431D01*
X11416538Y9625076D01*
X11422126Y9625330D01*
X11427510Y9626092D01*
X11432743Y9627362D01*
X11437721Y9629038D01*
X11442446Y9631172D01*
X11446865Y9633712D01*
X11450980Y9636607D01*
X11454790Y9639808D01*
X11458244Y9643364D01*
X11461292Y9647174D01*
X11463985Y9651238D01*
X11466220Y9655505D01*
X11467998Y9659975D01*
X11469319Y9664649D01*
X11470132Y9669424D01*
X11470386Y9674352D01*
X11469827Y9682175D01*
X11468201Y9689236D01*
X11465560Y9695535D01*
X11462105Y9701072D01*
X11457838Y9705848D01*
X11452910Y9709912D01*
X11447424Y9713214D01*
X11441430Y9715754D01*
X11445595Y9717887D01*
X11449507Y9720580D01*
X11453063Y9723882D01*
X11456111Y9727742D01*
X11458702Y9732111D01*
X11460632Y9736988D01*
X11461851Y9742424D01*
X11462258Y9748266D01*
X11461800Y9754311D01*
X11460581Y9760000D01*
X11458549Y9765385D01*
X11455806Y9770364D01*
X11452402Y9774885D01*
X11448440Y9778949D01*
X11443970Y9782505D01*
X11438991Y9785553D01*
X11433657Y9787940D01*
X11427968Y9789718D01*
X11421973Y9790836D01*
G37*
G36*
X10783316Y9789414D02*
G01*
X10783316Y9626346D01*
X10808462Y9626346D01*
X10808462Y9730740D01*
X10910824Y9623806D01*
X10912094Y9623806D01*
X10912094Y9786874D01*
X10886694Y9786874D01*
X10886694Y9682734D01*
X10784586Y9789414D01*
G37*
G36*
X11493500Y9789414D02*
G01*
X11493500Y9626346D01*
X11518646Y9626346D01*
X11518646Y9730740D01*
X11621008Y9623806D01*
X11622278Y9623806D01*
X11622278Y9786874D01*
X11596878Y9786874D01*
X11596878Y9682734D01*
X11494770Y9789414D01*
G37*
G36*
X10996930Y9788906D02*
G01*
X10991189Y9788652D01*
X10985652Y9787839D01*
X10980267Y9786518D01*
X10975136Y9784740D01*
X10970260Y9782505D01*
X10965637Y9779863D01*
X10961319Y9776764D01*
X10957356Y9773361D01*
X10953750Y9769551D01*
X10950549Y9765436D01*
X10947755Y9761016D01*
X10945418Y9756343D01*
X10943539Y9751364D01*
X10942167Y9746234D01*
X10941354Y9740849D01*
X10941050Y9735312D01*
X10964164Y9729724D01*
X10964824Y9736734D01*
X10966805Y9743186D01*
X10969904Y9748977D01*
X10973968Y9754006D01*
X10978946Y9758070D01*
X10984636Y9761169D01*
X10990935Y9763099D01*
X10997692Y9763760D01*
X11003330Y9763150D01*
X11008817Y9761372D01*
X11013897Y9758527D01*
X11018418Y9754768D01*
X11022177Y9750145D01*
X11025124Y9744811D01*
X11027003Y9738817D01*
X11027664Y9732264D01*
X11027105Y9727234D01*
X11026394Y9724593D01*
X11024057Y9718954D01*
X11020552Y9712807D01*
X11015776Y9706102D01*
X11009680Y9698786D01*
X11002213Y9690760D01*
X10993374Y9682022D01*
X10983112Y9672472D01*
X10958068Y9650780D01*
X10935208Y9631934D01*
X10935208Y9626600D01*
X11054842Y9626600D01*
X11054842Y9651492D01*
X10988548Y9651492D01*
X10995202Y9655911D01*
X11007852Y9665258D01*
X11019434Y9675164D01*
X11024717Y9680295D01*
X11029645Y9685528D01*
X11034217Y9690811D01*
X11038332Y9696145D01*
X11041989Y9701479D01*
X11045190Y9706914D01*
X11047831Y9712299D01*
X11049965Y9717684D01*
X11051540Y9723018D01*
X11052505Y9728301D01*
X11052810Y9733534D01*
X11052505Y9739020D01*
X11051692Y9744354D01*
X11050320Y9749586D01*
X11048492Y9754616D01*
X11046155Y9759442D01*
X11043361Y9764014D01*
X11040160Y9768281D01*
X11036604Y9772243D01*
X11032642Y9775901D01*
X11028324Y9779152D01*
X11023752Y9781997D01*
X11018824Y9784384D01*
X11013694Y9786315D01*
X11008309Y9787737D01*
X11002721Y9788601D01*
G37*
G36*
X11135614Y9788906D02*
G01*
X11129873Y9788652D01*
X11124336Y9787890D01*
X11119002Y9786670D01*
X11113922Y9784994D01*
X11108994Y9782810D01*
X11104372Y9780270D01*
X11100003Y9777222D01*
X11095837Y9773818D01*
X11091976Y9770059D01*
X11088420Y9765842D01*
X11085118Y9761321D01*
X11082121Y9756444D01*
X11079429Y9751212D01*
X11077092Y9745675D01*
X11075060Y9739833D01*
X11073384Y9733686D01*
X11072063Y9727285D01*
X11071098Y9720630D01*
X11070539Y9713722D01*
X11070336Y9706610D01*
X11095228Y9706610D01*
X11095532Y9714738D01*
X11096548Y9722408D01*
X11098123Y9729571D01*
X11100257Y9736226D01*
X11103000Y9742271D01*
X11106251Y9747656D01*
X11110061Y9752380D01*
X11114328Y9756343D01*
X11119002Y9759492D01*
X11124133Y9761829D01*
X11129721Y9763252D01*
X11135614Y9763760D01*
X11141456Y9763252D01*
X11146942Y9761829D01*
X11152073Y9759492D01*
X11156746Y9756343D01*
X11160963Y9752380D01*
X11164722Y9747656D01*
X11167973Y9742271D01*
X11170716Y9736226D01*
X11172850Y9729571D01*
X11174425Y9722408D01*
X11175441Y9714738D01*
X11175746Y9706610D01*
X11175441Y9698482D01*
X11174425Y9690862D01*
X11172850Y9683699D01*
X11170716Y9677095D01*
X11167973Y9671050D01*
X11164722Y9665665D01*
X11160963Y9660991D01*
X11156746Y9657080D01*
X11152073Y9653930D01*
X11146942Y9651593D01*
X11141456Y9650222D01*
X11135614Y9649714D01*
X11129721Y9650222D01*
X11124133Y9651593D01*
X11119002Y9653930D01*
X11114328Y9657080D01*
X11110061Y9660991D01*
X11106251Y9665665D01*
X11103000Y9671050D01*
X11100257Y9677095D01*
X11098123Y9683699D01*
X11096548Y9690862D01*
X11095532Y9698482D01*
X11095228Y9706610D01*
X11070336Y9706610D01*
X11070539Y9699498D01*
X11071098Y9692589D01*
X11072063Y9685934D01*
X11073384Y9679533D01*
X11075060Y9673386D01*
X11077092Y9667544D01*
X11079429Y9662007D01*
X11082121Y9656775D01*
X11085118Y9651898D01*
X11088420Y9647377D01*
X11091976Y9643160D01*
X11095837Y9639401D01*
X11100003Y9635998D01*
X11104372Y9632950D01*
X11108994Y9630410D01*
X11113922Y9628225D01*
X11119002Y9626549D01*
X11124336Y9625330D01*
X11129873Y9624568D01*
X11135614Y9624314D01*
X11141354Y9624568D01*
X11146891Y9625330D01*
X11152225Y9626549D01*
X11157305Y9628225D01*
X11162233Y9630410D01*
X11166856Y9632950D01*
X11171224Y9635998D01*
X11175390Y9639401D01*
X11179251Y9643160D01*
X11182807Y9647377D01*
X11186109Y9651898D01*
X11189106Y9656775D01*
X11191798Y9662007D01*
X11194135Y9667544D01*
X11196167Y9673386D01*
X11197844Y9679533D01*
X11199164Y9685934D01*
X11200130Y9692589D01*
X11200688Y9699498D01*
X11200892Y9706610D01*
X11200688Y9713722D01*
X11200130Y9720630D01*
X11199164Y9727285D01*
X11197844Y9733686D01*
X11196167Y9739833D01*
X11194135Y9745675D01*
X11191798Y9751212D01*
X11189106Y9756444D01*
X11186109Y9761321D01*
X11182807Y9765842D01*
X11179251Y9770059D01*
X11175390Y9773818D01*
X11171224Y9777222D01*
X11166856Y9780270D01*
X11162233Y9782810D01*
X11157305Y9784994D01*
X11152225Y9786670D01*
X11146891Y9787890D01*
X11141354Y9788652D01*
G37*
G36*
X11281664Y9788906D02*
G01*
X11275923Y9788652D01*
X11270386Y9787890D01*
X11265052Y9786670D01*
X11259972Y9784994D01*
X11255044Y9782810D01*
X11250422Y9780270D01*
X11246053Y9777222D01*
X11241887Y9773818D01*
X11238026Y9770059D01*
X11234470Y9765842D01*
X11231168Y9761321D01*
X11228171Y9756444D01*
X11225479Y9751212D01*
X11223142Y9745675D01*
X11221110Y9739833D01*
X11219434Y9733686D01*
X11218113Y9727285D01*
X11217148Y9720630D01*
X11216589Y9713722D01*
X11216386Y9706610D01*
X11241278Y9706610D01*
X11241582Y9714738D01*
X11242598Y9722408D01*
X11244173Y9729571D01*
X11246307Y9736226D01*
X11249050Y9742271D01*
X11252301Y9747656D01*
X11256060Y9752380D01*
X11260277Y9756343D01*
X11264950Y9759492D01*
X11270081Y9761829D01*
X11275568Y9763252D01*
X11281410Y9763760D01*
X11287252Y9763252D01*
X11292738Y9761829D01*
X11297869Y9759492D01*
X11302542Y9756343D01*
X11306759Y9752380D01*
X11310518Y9747656D01*
X11313769Y9742271D01*
X11316512Y9736226D01*
X11318646Y9729571D01*
X11320221Y9722408D01*
X11321237Y9714738D01*
X11321542Y9706610D01*
X11321237Y9698482D01*
X11320221Y9690862D01*
X11318646Y9683699D01*
X11316512Y9677095D01*
X11313769Y9671050D01*
X11310518Y9665665D01*
X11306759Y9660991D01*
X11302542Y9657080D01*
X11297869Y9653930D01*
X11292738Y9651593D01*
X11287252Y9650222D01*
X11281410Y9649714D01*
X11275568Y9650222D01*
X11270081Y9651593D01*
X11264950Y9653930D01*
X11260277Y9657080D01*
X11256060Y9660991D01*
X11252301Y9665665D01*
X11249050Y9671050D01*
X11246307Y9677095D01*
X11244173Y9683699D01*
X11242598Y9690862D01*
X11241582Y9698482D01*
X11241278Y9706610D01*
X11216386Y9706610D01*
X11216589Y9699498D01*
X11217148Y9692589D01*
X11218113Y9685934D01*
X11219434Y9679533D01*
X11221110Y9673386D01*
X11223142Y9667544D01*
X11225479Y9662007D01*
X11228171Y9656775D01*
X11231168Y9651898D01*
X11234470Y9647377D01*
X11238026Y9643160D01*
X11241887Y9639401D01*
X11246053Y9635998D01*
X11250422Y9632950D01*
X11255044Y9630410D01*
X11259972Y9628225D01*
X11265052Y9626549D01*
X11270386Y9625330D01*
X11275923Y9624568D01*
X11281664Y9624314D01*
X11287404Y9624568D01*
X11292941Y9625330D01*
X11298275Y9626549D01*
X11303355Y9628225D01*
X11308283Y9630410D01*
X11312906Y9632950D01*
X11317274Y9635998D01*
X11321440Y9639401D01*
X11325301Y9643160D01*
X11328857Y9647377D01*
X11332159Y9651898D01*
X11335156Y9656775D01*
X11337848Y9662007D01*
X11340185Y9667544D01*
X11342217Y9673386D01*
X11343894Y9679533D01*
X11345214Y9685934D01*
X11346180Y9692589D01*
X11346738Y9699498D01*
X11346942Y9706610D01*
X11346738Y9713722D01*
X11346180Y9720630D01*
X11345214Y9727285D01*
X11343894Y9733686D01*
X11342217Y9739833D01*
X11340185Y9745675D01*
X11337848Y9751212D01*
X11335156Y9756444D01*
X11332159Y9761321D01*
X11328857Y9765842D01*
X11325301Y9770059D01*
X11321440Y9773818D01*
X11317274Y9777222D01*
X11312906Y9780270D01*
X11308283Y9782810D01*
X11303355Y9784994D01*
X11298275Y9786670D01*
X11292941Y9787890D01*
X11287404Y9788652D01*
G37*
G36*
X10516870Y9786620D02*
G01*
X10516870Y9687306D01*
X10517174Y9680498D01*
X10518089Y9673996D01*
X10519511Y9667748D01*
X10521543Y9661804D01*
X10524032Y9656216D01*
X10527030Y9650933D01*
X10530484Y9646056D01*
X10534345Y9641636D01*
X10538612Y9637572D01*
X10543235Y9634016D01*
X10548213Y9630918D01*
X10553496Y9628327D01*
X10559084Y9626295D01*
X10564977Y9624771D01*
X10571022Y9623856D01*
X10577322Y9623552D01*
X10583621Y9623856D01*
X10589666Y9624771D01*
X10595559Y9626295D01*
X10601147Y9628327D01*
X10606430Y9630918D01*
X10611408Y9634016D01*
X10616031Y9637572D01*
X10620298Y9641636D01*
X10624159Y9646056D01*
X10627614Y9650933D01*
X10630611Y9656216D01*
X10633100Y9661804D01*
X10635132Y9667748D01*
X10636554Y9673996D01*
X10637469Y9680498D01*
X10637774Y9687306D01*
X10637774Y9786620D01*
X10612374Y9786620D01*
X10612374Y9687306D01*
X10612069Y9681921D01*
X10611104Y9676790D01*
X10609630Y9672015D01*
X10607548Y9667544D01*
X10605058Y9663480D01*
X10602061Y9659823D01*
X10598658Y9656673D01*
X10594898Y9653981D01*
X10590834Y9651847D01*
X10586466Y9650272D01*
X10581894Y9649307D01*
X10577068Y9648952D01*
X10572292Y9649307D01*
X10567670Y9650272D01*
X10563352Y9651847D01*
X10559288Y9653981D01*
X10555579Y9656673D01*
X10552226Y9659823D01*
X10549280Y9663480D01*
X10546740Y9667544D01*
X10544759Y9672015D01*
X10543235Y9676790D01*
X10542320Y9681921D01*
X10542016Y9687306D01*
X10542016Y9786620D01*
G37*
G36*
X10666984Y9786620D02*
G01*
X10666984Y9626600D01*
X10763250Y9626600D01*
X10763250Y9651492D01*
X10692130Y9651492D01*
X10692130Y9786620D01*
G37*
G36*
X14025626Y10187178D02*
G01*
X14025626Y10161778D01*
X14129766Y10161778D01*
X14023086Y10059670D01*
X14023086Y10058400D01*
X14186154Y10058400D01*
X14186154Y10083546D01*
X14081760Y10083546D01*
X14188694Y10185908D01*
X14188694Y10187178D01*
G37*
G36*
X14138148Y10035286D02*
G01*
X14130324Y10034727D01*
X14123263Y10033101D01*
X14116964Y10030460D01*
X14111427Y10027005D01*
X14106651Y10022738D01*
X14102588Y10017810D01*
X14099286Y10012324D01*
X14096746Y10006330D01*
X14094612Y10010495D01*
X14091919Y10014407D01*
X14088618Y10017963D01*
X14084757Y10021011D01*
X14080388Y10023602D01*
X14075511Y10025532D01*
X14070076Y10026751D01*
X14064234Y10027158D01*
X14058188Y10026700D01*
X14052499Y10025481D01*
X14047114Y10023449D01*
X14042136Y10020706D01*
X14037614Y10017302D01*
X14033550Y10013340D01*
X14029994Y10008870D01*
X14026946Y10003891D01*
X14024559Y9998557D01*
X14022781Y9992868D01*
X14021663Y9986873D01*
X14021307Y9980676D01*
X14021663Y9974834D01*
X14022679Y9969246D01*
X14024254Y9963962D01*
X14026438Y9959035D01*
X14029080Y9954463D01*
X14032179Y9950246D01*
X14035684Y9946436D01*
X14039545Y9943033D01*
X14043710Y9940137D01*
X14048079Y9937699D01*
X14052651Y9935819D01*
X14057376Y9934448D01*
X14062710Y9960102D01*
X14056004Y9962743D01*
X14050721Y9967315D01*
X14047216Y9973360D01*
X14045946Y9980422D01*
X14047419Y9988854D01*
X14051635Y9995712D01*
X14058036Y10000335D01*
X14066266Y10002012D01*
X14071600Y10001250D01*
X14076324Y9999116D01*
X14080388Y9995814D01*
X14083842Y9991394D01*
X14086535Y9986162D01*
X14088516Y9980168D01*
X14089735Y9973614D01*
X14090142Y9966706D01*
X14104874Y9962896D01*
X14105077Y9969601D01*
X14105788Y9975900D01*
X14106956Y9981844D01*
X14108633Y9987330D01*
X14110766Y9992360D01*
X14113306Y9996779D01*
X14116253Y10000691D01*
X14119555Y10003993D01*
X14123263Y10006634D01*
X14127327Y10008565D01*
X14131696Y10009733D01*
X14136369Y10010140D01*
X14141450Y10009581D01*
X14146225Y10007955D01*
X14150695Y10005364D01*
X14154607Y10001910D01*
X14157858Y9997643D01*
X14160398Y9992664D01*
X14161973Y9987076D01*
X14162532Y9980930D01*
X14162125Y9975850D01*
X14160957Y9971024D01*
X14159077Y9966452D01*
X14156537Y9962337D01*
X14153489Y9958679D01*
X14149882Y9955631D01*
X14145869Y9953294D01*
X14141450Y9951720D01*
X14147800Y9927082D01*
X14153235Y9928809D01*
X14158417Y9931247D01*
X14163294Y9934295D01*
X14167916Y9937902D01*
X14172082Y9942017D01*
X14175892Y9946640D01*
X14179245Y9951669D01*
X14182039Y9957054D01*
X14184325Y9962794D01*
X14186001Y9968788D01*
X14187068Y9975037D01*
X14187424Y9981438D01*
X14187169Y9987026D01*
X14186407Y9992410D01*
X14185138Y9997643D01*
X14183461Y10002621D01*
X14181328Y10007346D01*
X14178788Y10011765D01*
X14175892Y10015880D01*
X14172692Y10019690D01*
X14169136Y10023144D01*
X14165326Y10026192D01*
X14161262Y10028885D01*
X14156994Y10031120D01*
X14152524Y10032898D01*
X14147850Y10034219D01*
X14143075Y10035032D01*
G37*
G36*
X14105890Y9911842D02*
G01*
X14098778Y9911638D01*
X14091869Y9911080D01*
X14085214Y9910114D01*
X14078813Y9908794D01*
X14072666Y9907117D01*
X14066824Y9905085D01*
X14061287Y9902748D01*
X14056055Y9900056D01*
X14051178Y9897059D01*
X14046657Y9893757D01*
X14042440Y9890201D01*
X14038681Y9886340D01*
X14035278Y9882174D01*
X14032230Y9877806D01*
X14029690Y9873183D01*
X14027505Y9868255D01*
X14025829Y9863175D01*
X14024610Y9857841D01*
X14023848Y9852304D01*
X14023605Y9846310D01*
X14048740Y9846310D01*
X14049248Y9852152D01*
X14050670Y9857638D01*
X14053007Y9862769D01*
X14056156Y9867442D01*
X14060119Y9871659D01*
X14064843Y9875418D01*
X14070228Y9878669D01*
X14076273Y9881412D01*
X14082928Y9883546D01*
X14090091Y9885121D01*
X14097762Y9886137D01*
X14105890Y9886442D01*
X14114018Y9886137D01*
X14121638Y9885121D01*
X14128800Y9883546D01*
X14135404Y9881412D01*
X14141450Y9878669D01*
X14146834Y9875418D01*
X14151508Y9871659D01*
X14155419Y9867442D01*
X14158569Y9862769D01*
X14160906Y9857638D01*
X14162278Y9852152D01*
X14162786Y9846310D01*
X14162278Y9840468D01*
X14160906Y9834981D01*
X14158569Y9829850D01*
X14155419Y9825177D01*
X14151508Y9820960D01*
X14146834Y9817201D01*
X14141450Y9813950D01*
X14135404Y9811207D01*
X14128800Y9809073D01*
X14121638Y9807498D01*
X14114018Y9806482D01*
X14105890Y9806178D01*
X14097762Y9806482D01*
X14090091Y9807498D01*
X14082928Y9809073D01*
X14076273Y9811207D01*
X14070228Y9813950D01*
X14064843Y9817201D01*
X14060119Y9820960D01*
X14056156Y9825177D01*
X14053007Y9829850D01*
X14050670Y9834981D01*
X14049248Y9840468D01*
X14048740Y9846310D01*
X14023605Y9846310D01*
X14023848Y9840823D01*
X14024610Y9835286D01*
X14025829Y9829952D01*
X14027505Y9824872D01*
X14029690Y9819944D01*
X14032230Y9815322D01*
X14035278Y9810953D01*
X14038681Y9806787D01*
X14042440Y9802926D01*
X14046657Y9799370D01*
X14051178Y9796068D01*
X14056055Y9793071D01*
X14061287Y9790379D01*
X14066824Y9788042D01*
X14072666Y9786010D01*
X14078813Y9784334D01*
X14085214Y9783013D01*
X14091869Y9782048D01*
X14098778Y9781489D01*
X14105890Y9781286D01*
X14113001Y9781489D01*
X14119910Y9782048D01*
X14126565Y9783013D01*
X14132966Y9784334D01*
X14139113Y9786010D01*
X14144955Y9788042D01*
X14150492Y9790379D01*
X14155724Y9793071D01*
X14160601Y9796068D01*
X14165122Y9799370D01*
X14169339Y9802926D01*
X14173098Y9806787D01*
X14176501Y9810953D01*
X14179550Y9815322D01*
X14182090Y9819944D01*
X14184274Y9824872D01*
X14185950Y9829952D01*
X14187169Y9835286D01*
X14187932Y9840823D01*
X14188186Y9846564D01*
X14187932Y9852304D01*
X14187169Y9857841D01*
X14185950Y9863175D01*
X14184274Y9868255D01*
X14182090Y9873183D01*
X14179550Y9877806D01*
X14176501Y9882174D01*
X14173098Y9886340D01*
X14169339Y9890201D01*
X14165122Y9893757D01*
X14160601Y9897059D01*
X14155724Y9900056D01*
X14150492Y9902748D01*
X14144955Y9905085D01*
X14139113Y9907117D01*
X14132966Y9908794D01*
X14126565Y9910114D01*
X14119910Y9911080D01*
X14113001Y9911638D01*
G37*
G36*
X14105890Y9765792D02*
G01*
X14098778Y9765588D01*
X14091869Y9765030D01*
X14085214Y9764064D01*
X14078813Y9762744D01*
X14072666Y9761067D01*
X14066824Y9759035D01*
X14061287Y9756698D01*
X14056055Y9754006D01*
X14051178Y9751009D01*
X14046657Y9747707D01*
X14042440Y9744151D01*
X14038681Y9740290D01*
X14035278Y9736124D01*
X14032230Y9731756D01*
X14029690Y9727133D01*
X14027505Y9722205D01*
X14025829Y9717125D01*
X14024610Y9711791D01*
X14023848Y9706254D01*
X14023594Y9700514D01*
X14048740Y9700514D01*
X14049248Y9706356D01*
X14050670Y9711842D01*
X14053007Y9716973D01*
X14056156Y9721646D01*
X14060119Y9725863D01*
X14064843Y9729622D01*
X14070228Y9732873D01*
X14076273Y9735616D01*
X14082928Y9737750D01*
X14090091Y9739325D01*
X14097762Y9740341D01*
X14105890Y9740646D01*
X14114018Y9740341D01*
X14121638Y9739325D01*
X14128800Y9737750D01*
X14135404Y9735616D01*
X14141450Y9732873D01*
X14146834Y9729622D01*
X14151508Y9725863D01*
X14155419Y9721646D01*
X14158569Y9716973D01*
X14160906Y9711842D01*
X14162278Y9706356D01*
X14162786Y9700514D01*
X14162278Y9694621D01*
X14160906Y9689033D01*
X14158569Y9683902D01*
X14155419Y9679228D01*
X14151508Y9674961D01*
X14146834Y9671202D01*
X14141450Y9667900D01*
X14135404Y9665157D01*
X14128800Y9663023D01*
X14121638Y9661448D01*
X14114018Y9660432D01*
X14105890Y9660128D01*
X14097762Y9660432D01*
X14090091Y9661448D01*
X14082928Y9663023D01*
X14076273Y9665157D01*
X14070228Y9667900D01*
X14064843Y9671151D01*
X14060119Y9674961D01*
X14056156Y9679228D01*
X14053007Y9683902D01*
X14050670Y9689033D01*
X14049248Y9694621D01*
X14048740Y9700514D01*
X14023594Y9700514D01*
X14023848Y9694773D01*
X14024610Y9689236D01*
X14025829Y9683902D01*
X14027505Y9678822D01*
X14029690Y9673894D01*
X14032230Y9669272D01*
X14035278Y9664903D01*
X14038681Y9660737D01*
X14042440Y9656876D01*
X14046657Y9653320D01*
X14051178Y9650018D01*
X14056055Y9647021D01*
X14061287Y9644329D01*
X14066824Y9641992D01*
X14072666Y9639960D01*
X14078813Y9638284D01*
X14085214Y9636963D01*
X14091869Y9635998D01*
X14098778Y9635439D01*
X14105890Y9635236D01*
X14113001Y9635439D01*
X14119910Y9635998D01*
X14126565Y9636963D01*
X14132966Y9638284D01*
X14139113Y9639960D01*
X14144955Y9641992D01*
X14150492Y9644329D01*
X14155724Y9647021D01*
X14160601Y9650018D01*
X14165122Y9653320D01*
X14169339Y9656876D01*
X14173098Y9660737D01*
X14176501Y9664903D01*
X14179550Y9669272D01*
X14182090Y9673894D01*
X14184274Y9678822D01*
X14185950Y9683902D01*
X14187169Y9689236D01*
X14187932Y9694773D01*
X14188186Y9700514D01*
X14187932Y9706254D01*
X14187169Y9711791D01*
X14185950Y9717125D01*
X14184274Y9722205D01*
X14182090Y9727133D01*
X14179550Y9731756D01*
X14176501Y9736124D01*
X14173098Y9740290D01*
X14169339Y9744151D01*
X14165122Y9747707D01*
X14160601Y9751009D01*
X14155724Y9754006D01*
X14150492Y9756698D01*
X14144955Y9759035D01*
X14139113Y9761067D01*
X14132966Y9762744D01*
X14126565Y9764064D01*
X14119910Y9765030D01*
X14113001Y9765588D01*
G37*
G36*
X14161007Y9619742D02*
G01*
X14161007Y9553448D01*
X14156588Y9560102D01*
X14147241Y9572752D01*
X14137335Y9584334D01*
X14132204Y9589617D01*
X14126972Y9594545D01*
X14121688Y9599117D01*
X14116354Y9603232D01*
X14111020Y9606889D01*
X14105585Y9610090D01*
X14100200Y9612731D01*
X14094815Y9614865D01*
X14089481Y9616440D01*
X14084198Y9617405D01*
X14078966Y9617710D01*
X14073479Y9617405D01*
X14068145Y9616592D01*
X14062913Y9615220D01*
X14057884Y9613392D01*
X14053057Y9611055D01*
X14048486Y9608261D01*
X14044218Y9605060D01*
X14040205Y9601504D01*
X14036598Y9597542D01*
X14033347Y9593224D01*
X14030502Y9588652D01*
X14028115Y9583724D01*
X14026184Y9578594D01*
X14024762Y9573209D01*
X14023898Y9567621D01*
X14023594Y9561830D01*
X14023848Y9556089D01*
X14024660Y9550552D01*
X14025981Y9545167D01*
X14027759Y9540036D01*
X14029994Y9535160D01*
X14032636Y9530537D01*
X14035735Y9526219D01*
X14039138Y9522256D01*
X14042948Y9518650D01*
X14047063Y9515449D01*
X14051483Y9512655D01*
X14056156Y9510318D01*
X14061135Y9508439D01*
X14066266Y9507067D01*
X14071650Y9506254D01*
X14077188Y9505950D01*
X14082776Y9529064D01*
X14075765Y9529724D01*
X14069313Y9531705D01*
X14063522Y9534804D01*
X14058493Y9538868D01*
X14054429Y9543846D01*
X14051330Y9549536D01*
X14049400Y9555835D01*
X14048740Y9562592D01*
X14049349Y9568230D01*
X14051127Y9573717D01*
X14053972Y9578797D01*
X14057731Y9583267D01*
X14062354Y9587077D01*
X14067688Y9590024D01*
X14073682Y9591903D01*
X14080236Y9592564D01*
X14085265Y9592005D01*
X14087906Y9591294D01*
X14093545Y9588957D01*
X14099692Y9585452D01*
X14106398Y9580676D01*
X14113713Y9574580D01*
X14121739Y9567113D01*
X14130477Y9558274D01*
X14140027Y9548012D01*
X14161719Y9522968D01*
X14180566Y9500108D01*
X14185900Y9500108D01*
X14185900Y9619742D01*
G37*
G36*
X14025626Y9476994D02*
G01*
X14025626Y9451594D01*
X14129766Y9451594D01*
X14023086Y9349486D01*
X14023086Y9348216D01*
X14186154Y9348216D01*
X14186154Y9373362D01*
X14081760Y9373362D01*
X14188694Y9475724D01*
X14188694Y9476994D01*
G37*
G36*
X14161007Y9328150D02*
G01*
X14161007Y9257030D01*
X14025880Y9257030D01*
X14025880Y9231884D01*
X14185900Y9231884D01*
X14185900Y9328150D01*
G37*
G36*
X14025880Y9202674D02*
G01*
X14025880Y9177274D01*
X14125194Y9177274D01*
X14130578Y9176969D01*
X14135709Y9176004D01*
X14140484Y9174530D01*
X14144955Y9172448D01*
X14149019Y9169958D01*
X14152676Y9166961D01*
X14155826Y9163558D01*
X14158518Y9159798D01*
X14160652Y9155734D01*
X14162227Y9151366D01*
X14163192Y9146794D01*
X14163548Y9141968D01*
X14163192Y9137192D01*
X14162227Y9132570D01*
X14160652Y9128252D01*
X14158518Y9124188D01*
X14155826Y9120479D01*
X14152676Y9117126D01*
X14149019Y9114180D01*
X14144955Y9111640D01*
X14140484Y9109659D01*
X14135709Y9108135D01*
X14130578Y9107220D01*
X14125194Y9106916D01*
X14025880Y9106916D01*
X14025880Y9081770D01*
X14125194Y9081770D01*
X14132001Y9082074D01*
X14138503Y9082989D01*
X14144751Y9084411D01*
X14150695Y9086443D01*
X14156283Y9088932D01*
X14161566Y9091930D01*
X14166443Y9095384D01*
X14170863Y9099245D01*
X14174927Y9103512D01*
X14178483Y9108135D01*
X14181582Y9113113D01*
X14184172Y9118396D01*
X14186204Y9123984D01*
X14187728Y9129877D01*
X14188643Y9135922D01*
X14188948Y9142222D01*
X14188643Y9148521D01*
X14187728Y9154566D01*
X14186204Y9160459D01*
X14184172Y9166047D01*
X14181582Y9171330D01*
X14178483Y9176308D01*
X14174927Y9180931D01*
X14170863Y9185198D01*
X14166443Y9189059D01*
X14161566Y9192514D01*
X14156283Y9195511D01*
X14150695Y9198000D01*
X14144751Y9200032D01*
X14138503Y9201454D01*
X14132001Y9202369D01*
X14125194Y9202674D01*
G37*
G36*
X14688057Y11249914D02*
G01*
X14688057Y11086846D01*
X14713204Y11086846D01*
X14713204Y11191240D01*
X14815566Y11084306D01*
X14816836Y11084306D01*
X14816836Y11247374D01*
X14791436Y11247374D01*
X14791436Y11143234D01*
X14689328Y11249914D01*
G37*
G36*
X14299692Y11247120D02*
G01*
X14288007Y11164062D01*
X14301978Y11155680D01*
X14304670Y11159744D01*
X14308023Y11163401D01*
X14311985Y11166551D01*
X14316456Y11169243D01*
X14321282Y11171377D01*
X14326412Y11172952D01*
X14331696Y11173917D01*
X14337030Y11174222D01*
X14344040Y11173663D01*
X14350441Y11172037D01*
X14356080Y11169396D01*
X14360855Y11165789D01*
X14364766Y11161318D01*
X14367662Y11155984D01*
X14369440Y11149939D01*
X14370050Y11143234D01*
X14369237Y11135715D01*
X14367001Y11129162D01*
X14363598Y11123574D01*
X14359178Y11119002D01*
X14353997Y11115395D01*
X14348307Y11112804D01*
X14342313Y11111230D01*
X14336268Y11110722D01*
X14327886Y11111890D01*
X14319707Y11115243D01*
X14312544Y11120475D01*
X14307312Y11127232D01*
X14282419Y11119358D01*
X14284909Y11114430D01*
X14287957Y11109807D01*
X14291462Y11105540D01*
X14295424Y11101628D01*
X14299742Y11098123D01*
X14304416Y11094974D01*
X14309394Y11092281D01*
X14314627Y11089995D01*
X14320113Y11088217D01*
X14325701Y11086896D01*
X14331442Y11086084D01*
X14337284Y11085830D01*
X14343278Y11086084D01*
X14349120Y11086896D01*
X14354759Y11088217D01*
X14360144Y11089995D01*
X14365274Y11092281D01*
X14370151Y11095024D01*
X14374672Y11098174D01*
X14378838Y11101781D01*
X14382597Y11105743D01*
X14385950Y11110112D01*
X14388896Y11114836D01*
X14391386Y11119916D01*
X14393316Y11125301D01*
X14394789Y11130991D01*
X14395653Y11136985D01*
X14395957Y11143234D01*
X14395704Y11149076D01*
X14394942Y11154714D01*
X14393722Y11160150D01*
X14392046Y11165281D01*
X14389912Y11170158D01*
X14387322Y11174730D01*
X14384324Y11178946D01*
X14380921Y11182807D01*
X14377162Y11186363D01*
X14372945Y11189462D01*
X14368373Y11192154D01*
X14363496Y11194440D01*
X14358264Y11196218D01*
X14352676Y11197539D01*
X14346783Y11198352D01*
X14340586Y11198606D01*
X14333016Y11198098D01*
X14326006Y11196472D01*
X14319504Y11193576D01*
X14313662Y11189208D01*
X14318742Y11222228D01*
X14382242Y11222228D01*
X14382242Y11247120D01*
G37*
G36*
X14405863Y11247120D02*
G01*
X14479524Y11083798D01*
X14481301Y11083798D01*
X14554962Y11247120D01*
X14528038Y11247120D01*
X14480286Y11138916D01*
X14432534Y11247120D01*
G37*
G36*
X14632178Y11247120D02*
G01*
X14632178Y11087100D01*
X14657324Y11087100D01*
X14657324Y11247120D01*
G37*
D10*
X8005762Y10754794D02*
G01*
X8101266Y10754794D01*
X8005762Y10754794D02*
G01*
X8005762Y10786544D01*
X8010334Y10800260D01*
X8019224Y10809404D01*
X8028368Y10813976D01*
X8042084Y10818548D01*
X8064690Y10818548D01*
X8078406Y10813976D01*
X8087550Y10809404D01*
X8096694Y10800260D01*
X8101266Y10786544D01*
X8101266Y10754794D01*
X8023796Y10848520D02*
G01*
X8019224Y10857410D01*
X8005762Y10871126D01*
X8101266Y10871126D01*
X8005762Y10910242D02*
G01*
X8005762Y10960280D01*
X8042084Y10933102D01*
X8042084Y10946564D01*
X8046656Y10955708D01*
X8051228Y10960280D01*
X8064690Y10964852D01*
X8073834Y10964852D01*
X8087550Y10960280D01*
X8096694Y10951136D01*
X8101266Y10937420D01*
X8101266Y10923958D01*
X8096694Y10910242D01*
X8092122Y10905670D01*
X8082978Y10901098D01*
X8259757Y10763933D02*
G01*
X8259757Y10813971D01*
X8296079Y10786539D01*
X8296079Y10800255D01*
X8300651Y10809399D01*
X8305223Y10813971D01*
X8318685Y10818543D01*
X8327829Y10818543D01*
X8341545Y10813971D01*
X8350689Y10804827D01*
X8355261Y10791111D01*
X8355261Y10777395D01*
X8350689Y10763933D01*
X8346117Y10759361D01*
X8336973Y10754789D01*
X8259757Y10848515D02*
G01*
X8355261Y10884837D01*
X8259757Y10921159D02*
G01*
X8355261Y10884837D01*
X8259757Y10960275D02*
G01*
X8259757Y11010313D01*
X8296079Y10982881D01*
X8296079Y10996597D01*
X8300651Y11005741D01*
X8305223Y11010313D01*
X8318685Y11014885D01*
X8327829Y11014885D01*
X8341545Y11010313D01*
X8350689Y11001169D01*
X8355261Y10987453D01*
X8355261Y10973991D01*
X8350689Y10960275D01*
X8346117Y10955703D01*
X8336973Y10951131D01*
X8513757Y10754789D02*
G01*
X8609261Y10754789D01*
X8513757Y10754789D02*
G01*
X8513757Y10795683D01*
X8518329Y10809399D01*
X8522901Y10813971D01*
X8531791Y10818543D01*
X8540935Y10818543D01*
X8550079Y10813971D01*
X8554651Y10809399D01*
X8559223Y10795683D01*
X8559223Y10754789D01*
X8559223Y10786539D02*
G01*
X8609261Y10818543D01*
X8513757Y10848515D02*
G01*
X8609261Y10848515D01*
X8513757Y10848515D02*
G01*
X8513757Y10907443D01*
X8559223Y10848515D02*
G01*
X8559223Y10884837D01*
X8609261Y10848515D02*
G01*
X8609261Y10907443D01*
X8513757Y10937415D02*
G01*
X8609261Y10937415D01*
X8513757Y10937415D02*
G01*
X8513757Y10996597D01*
X8559223Y10937415D02*
G01*
X8559223Y10973991D01*
X8767759Y10791113D02*
G01*
X8863263Y10754791D01*
X8767759Y10791113D02*
G01*
X8863263Y10827435D01*
X8831259Y10768507D02*
G01*
X8831259Y10813973D01*
X8767759Y10884839D02*
G01*
X8772331Y10871123D01*
X8785793Y10861979D01*
X8808653Y10857407D01*
X8822115Y10857407D01*
X8844975Y10861979D01*
X8858691Y10871123D01*
X8863263Y10884839D01*
X8863263Y10893983D01*
X8858691Y10907445D01*
X8844975Y10916589D01*
X8822115Y10921161D01*
X8808653Y10921161D01*
X8785793Y10916589D01*
X8772331Y10907445D01*
X8767759Y10893983D01*
X8767759Y10884839D01*
X9021757Y10791111D02*
G01*
X9117261Y10754789D01*
X9021757Y10791111D02*
G01*
X9117261Y10827433D01*
X9085257Y10768505D02*
G01*
X9085257Y10813971D01*
X9039791Y10857405D02*
G01*
X9035219Y10866549D01*
X9021757Y10880265D01*
X9117261Y10880265D01*
X9275759Y10791113D02*
G01*
X9371263Y10754791D01*
X9275759Y10791113D02*
G01*
X9371263Y10827435D01*
X9339259Y10768507D02*
G01*
X9339259Y10813973D01*
X9298365Y10861979D02*
G01*
X9293793Y10861979D01*
X9284903Y10866551D01*
X9280331Y10871123D01*
X9275759Y10880267D01*
X9275759Y10898301D01*
X9280331Y10907445D01*
X9284903Y10912017D01*
X9293793Y10916589D01*
X9302937Y10916589D01*
X9312081Y10912017D01*
X9325797Y10902873D01*
X9371263Y10857407D01*
X9371263Y10921161D01*
X9529759Y10791113D02*
G01*
X9625263Y10754791D01*
X9529759Y10791113D02*
G01*
X9625263Y10827435D01*
X9593259Y10768507D02*
G01*
X9593259Y10813973D01*
X9529759Y10866551D02*
G01*
X9529759Y10916589D01*
X9566081Y10889411D01*
X9566081Y10902873D01*
X9570653Y10912017D01*
X9575225Y10916589D01*
X9588687Y10921161D01*
X9597831Y10921161D01*
X9611547Y10916589D01*
X9620691Y10907445D01*
X9625263Y10893983D01*
X9625263Y10880267D01*
X9620691Y10866551D01*
X9616119Y10861979D01*
X9606975Y10857407D01*
X9783762Y10791116D02*
G01*
X9879266Y10754794D01*
X9783762Y10791116D02*
G01*
X9879266Y10827438D01*
X9847262Y10768510D02*
G01*
X9847262Y10813976D01*
X9783762Y10902876D02*
G01*
X9847262Y10857410D01*
X9847262Y10925736D01*
X9783762Y10902876D02*
G01*
X9879266Y10902876D01*
X10037759Y10791113D02*
G01*
X10133263Y10754791D01*
X10037759Y10791113D02*
G01*
X10133263Y10827435D01*
X10101259Y10768507D02*
G01*
X10101259Y10813973D01*
X10037759Y10912017D02*
G01*
X10037759Y10866551D01*
X10078653Y10861979D01*
X10074081Y10866551D01*
X10069509Y10880267D01*
X10069509Y10893983D01*
X10074081Y10907445D01*
X10083225Y10916589D01*
X10096687Y10921161D01*
X10105831Y10921161D01*
X10119547Y10916589D01*
X10128691Y10907445D01*
X10133263Y10893983D01*
X10133263Y10880267D01*
X10128691Y10866551D01*
X10124119Y10861979D01*
X10114975Y10857407D01*
X10291762Y10791116D02*
G01*
X10387266Y10754794D01*
X10291762Y10791116D02*
G01*
X10387266Y10827438D01*
X10355262Y10768510D02*
G01*
X10355262Y10813976D01*
X10305224Y10912020D02*
G01*
X10296334Y10907448D01*
X10291762Y10893986D01*
X10291762Y10884842D01*
X10296334Y10871126D01*
X10309796Y10861982D01*
X10332656Y10857410D01*
X10355262Y10857410D01*
X10373550Y10861982D01*
X10382694Y10871126D01*
X10387266Y10884842D01*
X10387266Y10889414D01*
X10382694Y10902876D01*
X10373550Y10912020D01*
X10359834Y10916592D01*
X10355262Y10916592D01*
X10341800Y10912020D01*
X10332656Y10902876D01*
X10328084Y10889414D01*
X10328084Y10884842D01*
X10332656Y10871126D01*
X10341800Y10861982D01*
X10355262Y10857410D01*
X10545759Y10791113D02*
G01*
X10641263Y10754791D01*
X10545759Y10791113D02*
G01*
X10641263Y10827435D01*
X10609259Y10768507D02*
G01*
X10609259Y10813973D01*
X10545759Y10921161D02*
G01*
X10641263Y10875695D01*
X10545759Y10857407D02*
G01*
X10545759Y10921161D01*
X10799759Y10809401D02*
G01*
X10799759Y10763935D01*
X10840653Y10759363D01*
X10836081Y10763935D01*
X10831509Y10777397D01*
X10831509Y10791113D01*
X10836081Y10804829D01*
X10845225Y10813973D01*
X10858687Y10818545D01*
X10867831Y10818545D01*
X10881547Y10813973D01*
X10890691Y10804829D01*
X10895263Y10791113D01*
X10895263Y10777397D01*
X10890691Y10763935D01*
X10886119Y10759363D01*
X10876975Y10754791D01*
X10799759Y10848517D02*
G01*
X10895263Y10884839D01*
X10799759Y10921161D02*
G01*
X10895263Y10884839D01*
X11053757Y10754789D02*
G01*
X11149261Y10754789D01*
X11053757Y10754789D02*
G01*
X11053757Y10795683D01*
X11058329Y10809399D01*
X11062901Y10813971D01*
X11071791Y10818543D01*
X11080935Y10818543D01*
X11090079Y10813971D01*
X11094651Y10809399D01*
X11099223Y10795683D01*
X11099223Y10754789D01*
X11099223Y10786539D02*
G01*
X11149261Y10818543D01*
X11067219Y10912015D02*
G01*
X11058329Y10902871D01*
X11053757Y10889409D01*
X11053757Y10871121D01*
X11058329Y10857405D01*
X11067219Y10848515D01*
X11076363Y10848515D01*
X11085507Y10853087D01*
X11090079Y10857405D01*
X11094651Y10866549D01*
X11103795Y10893981D01*
X11108113Y10902871D01*
X11112685Y10907443D01*
X11121829Y10912015D01*
X11135545Y10912015D01*
X11144689Y10902871D01*
X11149261Y10889409D01*
X11149261Y10871121D01*
X11144689Y10857405D01*
X11135545Y10848515D01*
X11053757Y10973991D02*
G01*
X11149261Y10973991D01*
X11053757Y10941987D02*
G01*
X11053757Y11005741D01*
X11330365Y10822863D02*
G01*
X11321221Y10818545D01*
X11312331Y10809401D01*
X11307759Y10800257D01*
X11307759Y10781969D01*
X11312331Y10773079D01*
X11321221Y10763935D01*
X11330365Y10759363D01*
X11344081Y10754791D01*
X11366687Y10754791D01*
X11380403Y10759363D01*
X11389547Y10763935D01*
X11398691Y10773079D01*
X11403263Y10781969D01*
X11403263Y10800257D01*
X11398691Y10809401D01*
X11389547Y10818545D01*
X11380403Y10822863D01*
X11366687Y10822863D01*
X11366687Y10800257D02*
G01*
X11366687Y10822863D01*
X11307759Y10853089D02*
G01*
X11403263Y10853089D01*
X11307759Y10853089D02*
G01*
X11403263Y10916589D01*
X11307759Y10916589D02*
G01*
X11403263Y10916589D01*
X11307759Y10946561D02*
G01*
X11403263Y10946561D01*
X11307759Y10946561D02*
G01*
X11307759Y10978311D01*
X11312331Y10992027D01*
X11321221Y11001171D01*
X11330365Y11005743D01*
X11344081Y11010315D01*
X11366687Y11010315D01*
X11380403Y11005743D01*
X11389547Y11001171D01*
X11398691Y10992027D01*
X11403263Y10978311D01*
X11403263Y10946561D01*
X11561762Y10754794D02*
G01*
X11657266Y10791116D01*
X11561762Y10827438D02*
G01*
X11657266Y10791116D01*
X11561762Y10857410D02*
G01*
X11657266Y10857410D01*
X11561762Y10887636D02*
G01*
X11657266Y10887636D01*
X11561762Y10887636D02*
G01*
X11657266Y10951136D01*
X11561762Y10951136D02*
G01*
X11657266Y10951136D01*
X8003758Y11743692D02*
G01*
X8099262Y11743692D01*
X8003758Y11743692D02*
G01*
X8003758Y11775442D01*
X8008330Y11789158D01*
X8017220Y11798302D01*
X8026364Y11802874D01*
X8040080Y11807446D01*
X8062686Y11807446D01*
X8076402Y11802874D01*
X8085546Y11798302D01*
X8094690Y11789158D01*
X8099262Y11775442D01*
X8099262Y11743692D01*
X8021792Y11837418D02*
G01*
X8017220Y11846308D01*
X8003758Y11860024D01*
X8099262Y11860024D01*
X8026364Y11894568D02*
G01*
X8021792Y11894568D01*
X8012902Y11899140D01*
X8008330Y11903712D01*
X8003758Y11912856D01*
X8003758Y11930890D01*
X8008330Y11940034D01*
X8012902Y11944606D01*
X8021792Y11949178D01*
X8030936Y11949178D01*
X8040080Y11944606D01*
X8053796Y11935462D01*
X8099262Y11889996D01*
X8099262Y11953750D01*
X8257755Y11784586D02*
G01*
X8353259Y11784586D01*
X8257755Y11784586D02*
G01*
X8257755Y11816336D01*
X8262327Y11830052D01*
X8271217Y11839196D01*
X8280361Y11843768D01*
X8294077Y11848340D01*
X8316683Y11848340D01*
X8330399Y11843768D01*
X8339543Y11839196D01*
X8348687Y11830052D01*
X8353259Y11816336D01*
X8353259Y11784586D01*
X8275789Y11878312D02*
G01*
X8271217Y11887202D01*
X8257755Y11900918D01*
X8353259Y11900918D01*
X8275789Y11930890D02*
G01*
X8271217Y11940034D01*
X8257755Y11953750D01*
X8353259Y11953750D01*
X8511758Y11743692D02*
G01*
X8607262Y11743692D01*
X8511758Y11743692D02*
G01*
X8511758Y11775442D01*
X8516330Y11789158D01*
X8525220Y11798302D01*
X8534364Y11802874D01*
X8548080Y11807446D01*
X8570686Y11807446D01*
X8584402Y11802874D01*
X8593546Y11798302D01*
X8602690Y11789158D01*
X8607262Y11775442D01*
X8607262Y11743692D01*
X8529792Y11837418D02*
G01*
X8525220Y11846308D01*
X8511758Y11860024D01*
X8607262Y11860024D01*
X8511758Y11917428D02*
G01*
X8516330Y11903712D01*
X8529792Y11894568D01*
X8552652Y11889996D01*
X8566114Y11889996D01*
X8588974Y11894568D01*
X8602690Y11903712D01*
X8607262Y11917428D01*
X8607262Y11926318D01*
X8602690Y11940034D01*
X8588974Y11949178D01*
X8566114Y11953750D01*
X8552652Y11953750D01*
X8529792Y11949178D01*
X8516330Y11940034D01*
X8511758Y11926318D01*
X8511758Y11917428D01*
X8765758Y11801096D02*
G01*
X8861262Y11801096D01*
X8765758Y11801096D02*
G01*
X8765758Y11832846D01*
X8770330Y11846562D01*
X8779220Y11855706D01*
X8788364Y11860278D01*
X8802080Y11864850D01*
X8824686Y11864850D01*
X8838402Y11860278D01*
X8847546Y11855706D01*
X8856690Y11846562D01*
X8861262Y11832846D01*
X8861262Y11801096D01*
X8797508Y11953750D02*
G01*
X8811224Y11949178D01*
X8820114Y11940288D01*
X8824686Y11926572D01*
X8824686Y11922000D01*
X8820114Y11908284D01*
X8811224Y11899394D01*
X8797508Y11894822D01*
X8792936Y11894822D01*
X8779220Y11899394D01*
X8770330Y11908284D01*
X8765758Y11922000D01*
X8765758Y11926572D01*
X8770330Y11940288D01*
X8779220Y11949178D01*
X8797508Y11953750D01*
X8820114Y11953750D01*
X8842974Y11949178D01*
X8856690Y11940288D01*
X8861262Y11926572D01*
X8861262Y11917428D01*
X8856690Y11903712D01*
X8847546Y11899394D01*
X9019755Y11796524D02*
G01*
X9115259Y11796524D01*
X9019755Y11796524D02*
G01*
X9019755Y11828274D01*
X9024327Y11841990D01*
X9033217Y11851134D01*
X9042361Y11855706D01*
X9056077Y11860278D01*
X9078683Y11860278D01*
X9092399Y11855706D01*
X9101543Y11851134D01*
X9110687Y11841990D01*
X9115259Y11828274D01*
X9115259Y11796524D01*
X9019755Y11912856D02*
G01*
X9024327Y11899140D01*
X9033217Y11894822D01*
X9042361Y11894822D01*
X9051505Y11899140D01*
X9056077Y11908284D01*
X9060649Y11926572D01*
X9065221Y11940034D01*
X9074111Y11949178D01*
X9083255Y11953750D01*
X9096971Y11953750D01*
X9106115Y11949178D01*
X9110687Y11944606D01*
X9115259Y11931144D01*
X9115259Y11912856D01*
X9110687Y11899140D01*
X9106115Y11894822D01*
X9096971Y11890250D01*
X9083255Y11890250D01*
X9074111Y11894822D01*
X9065221Y11903712D01*
X9060649Y11917428D01*
X9056077Y11935716D01*
X9051505Y11944606D01*
X9042361Y11949178D01*
X9033217Y11949178D01*
X9024327Y11944606D01*
X9019755Y11931144D01*
X9019755Y11912856D01*
X9273758Y11796524D02*
G01*
X9369262Y11796524D01*
X9273758Y11796524D02*
G01*
X9273758Y11828274D01*
X9278330Y11841990D01*
X9287220Y11851134D01*
X9296364Y11855706D01*
X9310080Y11860278D01*
X9332686Y11860278D01*
X9346402Y11855706D01*
X9355546Y11851134D01*
X9364690Y11841990D01*
X9369262Y11828274D01*
X9369262Y11796524D01*
X9273758Y11953750D02*
G01*
X9369262Y11908284D01*
X9273758Y11890250D02*
G01*
X9273758Y11953750D01*
X9527758Y11801096D02*
G01*
X9623262Y11801096D01*
X9527758Y11801096D02*
G01*
X9527758Y11832846D01*
X9532330Y11846562D01*
X9541220Y11855706D01*
X9550364Y11860278D01*
X9564080Y11864850D01*
X9586686Y11864850D01*
X9600402Y11860278D01*
X9609546Y11855706D01*
X9618690Y11846562D01*
X9623262Y11832846D01*
X9623262Y11801096D01*
X9541220Y11949178D02*
G01*
X9532330Y11944606D01*
X9527758Y11931144D01*
X9527758Y11922000D01*
X9532330Y11908284D01*
X9545792Y11899394D01*
X9568652Y11894822D01*
X9591258Y11894822D01*
X9609546Y11899394D01*
X9618690Y11908284D01*
X9623262Y11922000D01*
X9623262Y11926572D01*
X9618690Y11940288D01*
X9609546Y11949178D01*
X9595830Y11953750D01*
X9591258Y11953750D01*
X9577796Y11949178D01*
X9568652Y11940288D01*
X9564080Y11926572D01*
X9564080Y11922000D01*
X9568652Y11908284D01*
X9577796Y11899394D01*
X9591258Y11894822D01*
X9781755Y11796524D02*
G01*
X9877259Y11796524D01*
X9781755Y11796524D02*
G01*
X9781755Y11828274D01*
X9786327Y11841990D01*
X9795217Y11851134D01*
X9804361Y11855706D01*
X9818077Y11860278D01*
X9840683Y11860278D01*
X9854399Y11855706D01*
X9863543Y11851134D01*
X9872687Y11841990D01*
X9877259Y11828274D01*
X9877259Y11796524D01*
X9781755Y11944606D02*
G01*
X9781755Y11899140D01*
X9822649Y11894822D01*
X9818077Y11899140D01*
X9813505Y11912856D01*
X9813505Y11926572D01*
X9818077Y11940034D01*
X9827221Y11949178D01*
X9840683Y11953750D01*
X9849827Y11953750D01*
X9863543Y11949178D01*
X9872687Y11940034D01*
X9877259Y11926572D01*
X9877259Y11912856D01*
X9872687Y11899140D01*
X9868115Y11894822D01*
X9858971Y11890250D01*
X10035758Y11791952D02*
G01*
X10131262Y11791952D01*
X10035758Y11791952D02*
G01*
X10035758Y11823702D01*
X10040330Y11837418D01*
X10049220Y11846562D01*
X10058364Y11851134D01*
X10072080Y11855706D01*
X10094686Y11855706D01*
X10108402Y11851134D01*
X10117546Y11846562D01*
X10126690Y11837418D01*
X10131262Y11823702D01*
X10131262Y11791952D01*
X10035758Y11931144D02*
G01*
X10099258Y11885678D01*
X10099258Y11953750D01*
X10035758Y11931144D02*
G01*
X10131262Y11931144D01*
X10289758Y11796524D02*
G01*
X10385262Y11796524D01*
X10289758Y11796524D02*
G01*
X10289758Y11828274D01*
X10294330Y11841990D01*
X10303220Y11851134D01*
X10312364Y11855706D01*
X10326080Y11860278D01*
X10348686Y11860278D01*
X10362402Y11855706D01*
X10371546Y11851134D01*
X10380690Y11841990D01*
X10385262Y11828274D01*
X10385262Y11796524D01*
X10289758Y11899140D02*
G01*
X10289758Y11949178D01*
X10326080Y11922000D01*
X10326080Y11935716D01*
X10330652Y11944606D01*
X10335224Y11949178D01*
X10348686Y11953750D01*
X10357830Y11953750D01*
X10371546Y11949178D01*
X10380690Y11940034D01*
X10385262Y11926572D01*
X10385262Y11912856D01*
X10380690Y11899140D01*
X10376118Y11894822D01*
X10366974Y11890250D01*
X10543755Y11796524D02*
G01*
X10639259Y11796524D01*
X10543755Y11796524D02*
G01*
X10543755Y11828274D01*
X10548327Y11841990D01*
X10557217Y11851134D01*
X10566361Y11855706D01*
X10580077Y11860278D01*
X10602683Y11860278D01*
X10616399Y11855706D01*
X10625543Y11851134D01*
X10634687Y11841990D01*
X10639259Y11828274D01*
X10639259Y11796524D01*
X10566361Y11894822D02*
G01*
X10561789Y11894822D01*
X10552899Y11899140D01*
X10548327Y11903712D01*
X10543755Y11912856D01*
X10543755Y11931144D01*
X10548327Y11940034D01*
X10552899Y11944606D01*
X10561789Y11949178D01*
X10570933Y11949178D01*
X10580077Y11944606D01*
X10593793Y11935716D01*
X10639259Y11890250D01*
X10639259Y11953750D01*
X10820364Y11766298D02*
G01*
X10811220Y11761980D01*
X10802330Y11752836D01*
X10797758Y11743692D01*
X10797758Y11725404D01*
X10802330Y11716514D01*
X10811220Y11707370D01*
X10820364Y11702798D01*
X10834080Y11698226D01*
X10856686Y11698226D01*
X10870402Y11702798D01*
X10879546Y11707370D01*
X10888690Y11716514D01*
X10893262Y11725404D01*
X10893262Y11743692D01*
X10888690Y11752836D01*
X10879546Y11761980D01*
X10870402Y11766298D01*
X10856686Y11766298D01*
X10856686Y11743692D02*
G01*
X10856686Y11766298D01*
X10797758Y11796524D02*
G01*
X10893262Y11796524D01*
X10797758Y11796524D02*
G01*
X10893262Y11860024D01*
X10797758Y11860024D02*
G01*
X10893262Y11860024D01*
X10797758Y11889996D02*
G01*
X10893262Y11889996D01*
X10797758Y11889996D02*
G01*
X10797758Y11921746D01*
X10802330Y11935462D01*
X10811220Y11944606D01*
X10820364Y11949178D01*
X10834080Y11953750D01*
X10856686Y11953750D01*
X10870402Y11949178D01*
X10879546Y11944606D01*
X10888690Y11935462D01*
X10893262Y11921746D01*
X10893262Y11889996D01*
X11051758Y11702798D02*
G01*
X11147262Y11702798D01*
X11051758Y11702798D02*
G01*
X11051758Y11743692D01*
X11056330Y11757408D01*
X11060902Y11761980D01*
X11069792Y11766552D01*
X11078936Y11766552D01*
X11088080Y11761980D01*
X11092652Y11757408D01*
X11097224Y11743692D01*
X11097224Y11702798D01*
X11097224Y11734548D02*
G01*
X11147262Y11766552D01*
X11065220Y11860024D02*
G01*
X11056330Y11850880D01*
X11051758Y11837418D01*
X11051758Y11819130D01*
X11056330Y11805414D01*
X11065220Y11796524D01*
X11074364Y11796524D01*
X11083508Y11801096D01*
X11088080Y11805414D01*
X11092652Y11814558D01*
X11101796Y11841990D01*
X11106114Y11850880D01*
X11110686Y11855452D01*
X11119830Y11860024D01*
X11133546Y11860024D01*
X11142690Y11850880D01*
X11147262Y11837418D01*
X11147262Y11819130D01*
X11142690Y11805414D01*
X11133546Y11796524D01*
X11051758Y11922000D02*
G01*
X11147262Y11922000D01*
X11051758Y11889996D02*
G01*
X11051758Y11953750D01*
X11305755Y11702798D02*
G01*
X11401259Y11702798D01*
X11305755Y11702798D02*
G01*
X11305755Y11743692D01*
X11310327Y11757408D01*
X11314899Y11761980D01*
X11323789Y11766552D01*
X11332933Y11766552D01*
X11342077Y11761980D01*
X11346649Y11757408D01*
X11351221Y11743692D01*
X11351221Y11702798D01*
X11351221Y11734548D02*
G01*
X11401259Y11766552D01*
X11305755Y11796524D02*
G01*
X11401259Y11860024D01*
X11305755Y11860024D02*
G01*
X11401259Y11796524D01*
X11305755Y11889996D02*
G01*
X11401259Y11889996D01*
X11305755Y11889996D02*
G01*
X11305755Y11922000D01*
X11310327Y11935462D01*
X11319217Y11944606D01*
X11328361Y11949178D01*
X11342077Y11953750D01*
X11364683Y11953750D01*
X11378399Y11949178D01*
X11387543Y11944606D01*
X11396687Y11935462D01*
X11401259Y11922000D01*
X11401259Y11889996D01*
X11559758Y11734548D02*
G01*
X11655262Y11734548D01*
X11559758Y11702798D02*
G01*
X11559758Y11766552D01*
X11559758Y11796524D02*
G01*
X11655262Y11860024D01*
X11559758Y11860024D02*
G01*
X11655262Y11796524D01*
X11559758Y11889996D02*
G01*
X11655262Y11889996D01*
X11559758Y11889996D02*
G01*
X11559758Y11922000D01*
X11564330Y11935462D01*
X11573220Y11944606D01*
X11582364Y11949178D01*
X11596080Y11953750D01*
X11618686Y11953750D01*
X11632402Y11949178D01*
X11641546Y11944606D01*
X11650690Y11935462D01*
X11655262Y11922000D01*
X11655262Y11889996D01*
D11*
X12774739Y9858519D02*
G01*
X12774739Y9717519D01*
X12955460Y9717519D02*
G01*
X12955460Y9858519D01*
X12940220Y9873759D02*
G01*
X12789979Y9873759D01*
X12774739Y9496280D02*
G01*
X12774739Y9637280D01*
X12955460Y9637280D02*
G01*
X12955460Y9496280D01*
X12940220Y9481040D02*
G01*
X12789979Y9481040D01*
D12*
X9072499Y8538400D02*
G01*
X9072499Y8588400D01*
X8062498Y8588400D01*
X8063501Y8538400D01*
X9207500Y8535400D02*
G01*
X7832597Y8535400D01*
X7832597Y9119600D01*
X9309100Y9119600D01*
X9309100Y8535400D01*
X9207500Y8535400D01*
X12564999Y8538400D02*
G01*
X12564999Y8588400D01*
X11554998Y8588400D01*
X11556001Y8538400D01*
X12700000Y8535400D02*
G01*
X11325097Y8535400D01*
X11325097Y9119600D01*
X12801600Y9119600D01*
X12801600Y8535400D01*
X12700000Y8535400D01*
X10825099Y8538400D02*
G01*
X10825099Y8588400D01*
X9815098Y8588400D01*
X9816101Y8538400D01*
X10960100Y8535400D02*
G01*
X9585197Y8535400D01*
X9585197Y9119600D01*
X11061700Y9119600D01*
X11061700Y8535400D01*
X10960100Y8535400D01*
X14872461Y11448976D02*
G01*
X13810462Y11448976D01*
X14872461Y12088949D02*
G01*
X13810462Y12088949D01*
X14880460Y12218951D02*
G01*
X14880460Y11318951D01*
X15210457Y11318951D02*
G01*
X13810462Y11318951D01*
X15210457Y12218951D02*
G01*
X15210457Y11318951D01*
X13810462Y12218951D02*
G01*
X13918516Y12218951D01*
X14302404Y12218951D02*
G01*
X15210457Y12218951D01*
X13810462Y11318951D02*
G01*
X13810462Y11569623D01*
X13810462Y11968299D02*
G01*
X13810462Y12218951D01*
D13*
X12763500Y11658600D02*
G01*
X12509500Y11658600D01*
X12509500Y11910060D01*
X13271500Y11910060D01*
X13271500Y11658600D01*
X12763500Y11658600D01*
X12763500Y10922000D02*
G01*
X12509500Y10922000D01*
X12509500Y11173460D01*
X13271500Y11173460D01*
X13271500Y10922000D01*
X12763500Y10922000D01*
D14*
X10147259Y10464860D02*
G01*
X10210759Y10528360D01*
X10274259Y10464860D01*
X7988274Y10718848D02*
G01*
X7924774Y10655348D01*
X7924774Y10528348D01*
X7988274Y10464848D01*
X8242274Y10718848D02*
G01*
X8178774Y10655348D01*
X8115274Y10718848D01*
X8496274Y10718848D02*
G01*
X8432774Y10655348D01*
X8369274Y10718848D01*
X8750228Y10718848D02*
G01*
X8686751Y10655348D01*
X8623251Y10718848D01*
X9004223Y10718848D02*
G01*
X8940723Y10655348D01*
X8877223Y10718848D01*
X9258223Y10718848D02*
G01*
X9194723Y10655348D01*
X9131223Y10718848D01*
X9512223Y10718848D02*
G01*
X9448723Y10655348D01*
X9385223Y10718848D01*
X9766223Y10718848D02*
G01*
X9702723Y10655348D01*
X9639223Y10718848D01*
X10020223Y10718848D02*
G01*
X9956723Y10655348D01*
X9893223Y10718848D01*
X10274223Y10718848D02*
G01*
X10210723Y10655348D01*
X10147223Y10718848D01*
X10528223Y10718848D02*
G01*
X10464723Y10655348D01*
X10401223Y10718848D01*
X10782223Y10718848D02*
G01*
X10718723Y10655348D01*
X10655223Y10718848D01*
X11036251Y10718848D02*
G01*
X10972728Y10655348D01*
X10909223Y10718848D01*
X11290259Y10718848D02*
G01*
X11226759Y10655348D01*
X11163259Y10718848D01*
X11544259Y10718848D02*
G01*
X11480759Y10655348D01*
X11417259Y10718848D01*
X11671259Y10464848D02*
G01*
X11734759Y10528348D01*
X11734759Y10655348D01*
X11671259Y10718848D01*
X11417259Y10464848D02*
G01*
X11480759Y10528348D01*
X11544259Y10464848D01*
X11163259Y10464848D02*
G01*
X11226759Y10528348D01*
X11290259Y10464848D01*
X10909223Y10464848D02*
G01*
X10972728Y10528348D01*
X11036251Y10464848D01*
X8623251Y10464848D02*
G01*
X8686751Y10528348D01*
X8750228Y10464848D01*
X8115274Y10464848D02*
G01*
X8178774Y10528348D01*
X8242274Y10464848D01*
X8369274Y10464848D02*
G01*
X8432774Y10528348D01*
X8496274Y10464848D01*
X8877223Y10464848D02*
G01*
X8940723Y10528348D01*
X9004223Y10464848D01*
X9131223Y10464848D02*
G01*
X9194723Y10528348D01*
X9258223Y10464848D01*
X9385223Y10464848D02*
G01*
X9448723Y10528348D01*
X9512223Y10464848D01*
X9639223Y10464848D02*
G01*
X9702723Y10528348D01*
X9766223Y10464848D01*
X9893223Y10464848D02*
G01*
X9956723Y10528348D01*
X10020223Y10464848D01*
X10401223Y10464848D02*
G01*
X10464723Y10528348D01*
X10528223Y10464848D01*
X10655223Y10464848D02*
G01*
X10718723Y10528348D01*
X10782223Y10464848D01*
X10909223Y10464848D02*
G01*
X10972728Y10528348D01*
X11036251Y10464848D01*
X11163259Y10464848D01*
X11226759Y10528348D01*
X11290259Y10464848D01*
X11417259Y10464848D01*
X11480759Y10528348D01*
X11544259Y10464848D01*
X11671259Y10464848D01*
X11734759Y10528348D01*
X11734759Y10655348D01*
X11671259Y10718848D01*
X11544259Y10718848D01*
X11480759Y10655348D01*
X11417259Y10718848D01*
X11290259Y10718848D01*
X11226759Y10655348D01*
X11163259Y10718848D01*
X11036251Y10718848D01*
X10972728Y10655348D01*
X10909223Y10718848D01*
X10782223Y10718848D01*
X10718723Y10655348D01*
X10655223Y10718848D01*
X10528223Y10718848D01*
X10464723Y10655348D01*
X10401223Y10718848D01*
X10274223Y10718848D01*
X10210723Y10655348D01*
X10147223Y10718848D01*
X10020223Y10718848D01*
X9956723Y10655348D01*
X9893223Y10718848D01*
X9766223Y10718848D01*
X9702723Y10655348D01*
X9639223Y10718848D01*
X9512223Y10718848D01*
X9448723Y10655348D01*
X9385223Y10718848D01*
X9258223Y10718848D01*
X9194723Y10655348D01*
X9131223Y10718848D01*
X9004223Y10718848D01*
X8940723Y10655348D01*
X8877223Y10718848D01*
X8750228Y10718848D01*
X8686751Y10655348D01*
X8623251Y10718848D01*
X8496274Y10718848D01*
X8432774Y10655348D01*
X8369274Y10718848D01*
X8242274Y10718848D01*
X8178774Y10655348D01*
X8115274Y10718848D01*
X7988274Y10718848D01*
X7924774Y10655348D01*
X7924774Y10528348D01*
X7988274Y10464848D01*
X9512325Y12242756D02*
G01*
X9448825Y12179256D01*
X9385325Y12242756D01*
X8750366Y12242766D02*
G01*
X8686863Y12179266D01*
X8623338Y12242766D01*
X8496325Y12242766D01*
X8432825Y12179266D01*
X8369325Y12242766D01*
X8242325Y12242766D01*
X8178825Y12179266D01*
X8115325Y12242766D01*
X7988325Y12242766D01*
X7924825Y12179266D01*
X7924825Y12052266D01*
X7988325Y11988766D01*
X8115325Y11988766D01*
X8178825Y12052266D01*
X8242325Y11988766D01*
X8369325Y11988766D01*
X8432825Y12052266D01*
X8496325Y11988766D01*
X8623338Y11988766D01*
X8686863Y12052266D01*
X8750366Y11988766D01*
X8877366Y11988766D01*
X8940866Y12052266D01*
X9004366Y11988766D01*
X9131366Y11988766D01*
X9194866Y12052266D01*
X9258366Y11988766D01*
X9385366Y11988766D01*
X9448866Y12052266D01*
X9512366Y11988766D01*
X9639366Y11988766D01*
X9702866Y12052266D01*
X9766366Y11988766D01*
X9893366Y11988766D01*
X9956866Y12052266D01*
X10020366Y11988766D01*
X10147366Y11988766D01*
X10210866Y12052266D01*
X10274366Y11988766D01*
X10401366Y11988766D01*
X10464866Y12052266D01*
X10528366Y11988766D01*
X10655366Y11988766D01*
X10718866Y12052266D01*
X10782366Y11988766D01*
X10909360Y11988766D01*
X10972838Y12052266D01*
X11036338Y11988766D01*
X11163315Y11988766D01*
X11226815Y12052266D01*
X11290315Y11988766D01*
X11417315Y11988766D01*
X11480815Y12052266D01*
X11544315Y11988766D01*
X11671315Y11988766D01*
X11734815Y12052266D01*
X11734815Y12179266D01*
X11671315Y12242766D01*
X11036338Y12242766D02*
G01*
X10972838Y12179266D01*
X10909360Y12242766D01*
X11544315Y12242766D02*
G01*
X11480815Y12179266D01*
X11417315Y12242766D01*
X11290315Y12242766D02*
G01*
X11226815Y12179266D01*
X11163315Y12242766D01*
X10782366Y12242766D02*
G01*
X10718866Y12179266D01*
X10655366Y12242766D01*
X10528366Y12242766D02*
G01*
X10464866Y12179266D01*
X10401366Y12242766D01*
X10274366Y12242766D02*
G01*
X10210866Y12179266D01*
X10147366Y12242766D01*
X10020366Y12242766D02*
G01*
X9956866Y12179266D01*
X9893366Y12242766D01*
X9766366Y12242766D02*
G01*
X9702866Y12179266D01*
X9639366Y12242766D01*
X9258366Y12242766D02*
G01*
X9194866Y12179266D01*
X9131366Y12242766D01*
X9004366Y12242766D02*
G01*
X8940866Y12179266D01*
X8877366Y12242766D01*
X8059420Y11633200D02*
G01*
X8059420Y11607810D01*
X7670800Y11633200D02*
G01*
X7518400Y11633200D01*
X7518400Y11074400D01*
X8059420Y11074400D01*
X8059420Y11095304D01*
X7670800Y11633200D02*
G01*
X8059420Y11633200D01*
X8059420Y11607810D02*
G01*
X8059420Y11099800D01*
D11*
X7663179Y12250417D02*
G01*
X11996412Y12250417D01*
X11996412Y10457179D01*
X7663179Y10457179D01*
X7663179Y12250417D01*
D12*
X10077099Y10045501D02*
G01*
X10077099Y9385500D01*
X12097103Y10045501D02*
G01*
X12097103Y9791700D01*
X12097103Y9385498D02*
G01*
X12097103Y9639300D01*
X12097103Y9385498D02*
G01*
X12070697Y9385498D01*
X11881502Y9385498D02*
G01*
X11816697Y9385498D01*
X11627502Y9385498D02*
G01*
X11562697Y9385498D01*
X11373502Y9385498D02*
G01*
X11308697Y9385498D01*
X11119502Y9385498D02*
G01*
X11054697Y9385498D01*
X10865502Y9385498D02*
G01*
X10800697Y9385498D01*
X10611502Y9385498D02*
G01*
X10546697Y9385498D01*
X10357502Y9385498D02*
G01*
X10292697Y9385498D01*
X10103502Y9385498D02*
G01*
X10077099Y9385498D01*
X10077099Y10045501D02*
G01*
X10103502Y10045501D01*
X10292697Y10045501D02*
G01*
X10357502Y10045501D01*
X10546697Y10045501D02*
G01*
X10611502Y10045501D01*
X10800697Y10045501D02*
G01*
X10865502Y10045501D01*
X11054697Y10045501D02*
G01*
X11119502Y10045501D01*
X11308697Y10045501D02*
G01*
X11373502Y10045501D01*
X11562697Y10045501D02*
G01*
X11627502Y10045501D01*
X11816697Y10045501D02*
G01*
X11877984Y10045501D01*
X12074215Y10045501D02*
G01*
X12097103Y10045501D01*
X7803799Y10045501D02*
G01*
X7803799Y9385500D01*
X9823803Y10045501D02*
G01*
X9823803Y9791700D01*
X9823803Y9385498D02*
G01*
X9823803Y9639300D01*
X9823803Y9385498D02*
G01*
X9797397Y9385498D01*
X9608202Y9385498D02*
G01*
X9543397Y9385498D01*
X9354202Y9385498D02*
G01*
X9289397Y9385498D01*
X9100202Y9385498D02*
G01*
X9035397Y9385498D01*
X8846202Y9385498D02*
G01*
X8781397Y9385498D01*
X8592202Y9385498D02*
G01*
X8527397Y9385498D01*
X8338202Y9385498D02*
G01*
X8273397Y9385498D01*
X8084202Y9385498D02*
G01*
X8019397Y9385498D01*
X7830202Y9385498D02*
G01*
X7803799Y9385498D01*
X7803799Y10045501D02*
G01*
X7830202Y10045501D01*
X8019397Y10045501D02*
G01*
X8084202Y10045501D01*
X8273397Y10045501D02*
G01*
X8338202Y10045501D01*
X8527397Y10045501D02*
G01*
X8592202Y10045501D01*
X8781397Y10045501D02*
G01*
X8846202Y10045501D01*
X9035397Y10045501D02*
G01*
X9100202Y10045501D01*
X9289397Y10045501D02*
G01*
X9354202Y10045501D01*
X9543397Y10045501D02*
G01*
X9604684Y10045501D01*
X9800915Y10045501D02*
G01*
X9823803Y10045501D01*
X13792398Y8654699D02*
G01*
X14452399Y8654699D01*
X13792398Y10674703D02*
G01*
X14046200Y10674703D01*
X14452401Y10674703D02*
G01*
X14198600Y10674703D01*
X14452401Y10674703D02*
G01*
X14452401Y10648297D01*
X14452401Y10459102D02*
G01*
X14452401Y10394297D01*
X14452401Y10205102D02*
G01*
X14452401Y10140297D01*
X14452401Y9951102D02*
G01*
X14452401Y9886297D01*
X14452401Y9697102D02*
G01*
X14452401Y9632297D01*
X14452401Y9443102D02*
G01*
X14452401Y9378297D01*
X14452401Y9189102D02*
G01*
X14452401Y9124297D01*
X14452401Y8935102D02*
G01*
X14452401Y8870297D01*
X14452401Y8681102D02*
G01*
X14452401Y8654699D01*
X13792398Y8654699D02*
G01*
X13792398Y8681102D01*
X13792398Y8870297D02*
G01*
X13792398Y8935102D01*
X13792398Y9124297D02*
G01*
X13792398Y9189102D01*
X13792398Y9378297D02*
G01*
X13792398Y9443102D01*
X13792398Y9632297D02*
G01*
X13792398Y9697102D01*
X13792398Y9886297D02*
G01*
X13792398Y9951102D01*
X13792398Y10140297D02*
G01*
X13792398Y10205102D01*
X13792398Y10394297D02*
G01*
X13792398Y10455584D01*
X13792398Y10651815D02*
G01*
X13792398Y10674703D01*
D11*
G75*
G01*
X12955460Y9858520D02*
G03*
X12940221Y9873760I-15240J0D01*
G75*
G01*
X12789979Y9873760D02*
G03*
X12774740Y9858520I1J-15240D01*
G75*
G01*
X12955460Y9496280D02*
G02*
X12940221Y9481040I-15240J0D01*
G75*
G01*
X12789979Y9481040D02*
G02*
X12774740Y9496280I1J15240D01*
D15*
G75*
G01*
X12118594Y10096500D02*
G03*
X12118594Y10096246I-12499J-127D01*
D12*
G75*
G01*
X12097103Y9639300D02*
G02*
X12097004Y9791700I-49J76200D01*
D15*
G75*
G01*
X9845294Y10096500D02*
G03*
X9845294Y10096246I-12499J-127D01*
D12*
G75*
G01*
X9823803Y9639300D02*
G02*
X9823704Y9791700I-49J76200D01*
D15*
G75*
G01*
X13741400Y10696194D02*
G03*
X13741654Y10696194I127J-12499D01*
D12*
G75*
G01*
X14198600Y10674703D02*
G02*
X14046200Y10674604I-76200J-49D01*
M02*
